
<svg xmlns="http://www.w3.org/2000/svg" xmlns:xlink="http://www.w3.org/1999/xlink" viewBox="0 0 41.06 40" width="41.06" height="40">
    <!--Created with Nila (0.5.5)-->
    <defs>
        <linearGradient y2="98.34506%" x1="22.784945%" id="linearGradient1" x2="22.851688%" y1="3.0053766%">
            <stop stop-color="#00CCAC" stop-opacity="1.0" offset="4.4557734%"/>
            <stop stop-color="#0063F0" stop-opacity="1.0" offset="92.0%"/>
        </linearGradient>
        <linearGradient x2="-59.861797%" y2="244.78937%" x1="103.31478%" id="linearGradient2" y1="-73.9919%">
            <stop stop-opacity="1.0" offset="0.0%" stop-color="#00CCAC"/>
            <stop stop-opacity="1.0" offset="49.0%" stop-color="#00B0BA"/>
            <stop stop-opacity="1.0" offset="92.0%" stop-color="#0063F0"/>
        </linearGradient>
        <linearGradient id="linearGradient3" x2="50.0%" y1="0.0%" x1="50.0%" y2="100.0%">
            <stop stop-opacity="1.0" stop-color="#00CCAC" offset="0.0%"/>
            <stop stop-opacity="1.0" stop-color="#0063F0" offset="92.0%"/>
        </linearGradient>
        <linearGradient id="linearGradient4" x2="112.90003%" y1="74.552444%" x1="10.922544%" y2="39.31565%">
            <stop stop-opacity="0.0" stop-color="#007B9A" offset="0.0%"/>
            <stop stop-color="#007B9A" stop-opacity="1.0" offset="100.0%"/>
        </linearGradient>
        <linearGradient id="linearGradient5" x2="100.0%" y1="50.022675%" x1="0.0%" y2="50.022675%">
            <stop offset="14.0%" stop-opacity="1.0" stop-color="#0091AC"/>
            <stop offset="100.0%" stop-opacity="1.0" stop-color="#00A8BA"/>
        </linearGradient>
    </defs>
    <clipPath id="clip1">
        <rect x="0" width="41.06" y="0" height="40"/>
    </clipPath>
    <g clip-path="url(#clip1)">
        <g opacity="1.0">
            <g opacity="1.0">
                <g opacity="1.0">
                    <g opacity="1.0">
                        <path d="M 30.09 16.78 L 27.89 16.78 C 27.88 16.71 27.87 16.64 27.86 16.57 C 27.84 16.46 27.82 16.32 27.79 16.13 C 27.61 15.07 27.14 12.85 26.01 10.36 C 25.27 8.76 24.24 7.01 22.83 5.31 C 21.91 4.28 20.75 3.35 20.59 3.23 C 19.42 2.37 18.11 1.67 16.65 1.12 C 14.71 0.38 12.69 0.01 10.6 0 C 9.6 -0.02 8.62 0.04 7.68 0.19 L 7.68 0.19 C 7.28 0.24 6.84 0.33 6.35 0.47 C 5.32 0.76 4.6 1.24 4.18 1.93 C 4.16 1.97 4.14 2.01 4.12 2.05 C 4.11 2.06 4.11 2.07 4.1 2.07 C 4.09 2.08 4.09 2.1 4.08 2.11 C 3.79 2.63 3.68 3.17 3.74 3.73 C 3.85 5.27 5.16 6.49 6.76 6.49 C 7.12 6.49 7.46 6.43 7.77 6.32 C 8.44 6.16 9.29 6.07 9.8 6.02 C 10.78 5.94 14.44 5.86 17.79 8.52 C 20.28 10.48 21.92 13.42 22.1 16.78 L 16.13 16.78 C 15.75 16.77 15.38 16.76 15.03 16.76 C 14.99 16.76 14.95 16.76 14.9 16.76 C 14.46 16.76 14.03 16.76 13.62 16.78 L 13.39 16.78 C 11.36 16.89 9.6 17.29 9.23 17.37 C 7.62 17.78 6.22 18.39 5.02 19.21 L 5.01 19.22 C 3.38 20.31 2.12 21.76 1.22 23.55 C 0.53 24.92 0.13 26.33 0.03 27.77 C -0 28.24 -0.01 28.71 0.01 29.19 C 0.1 31.14 0.7 32.95 1.82 34.64 L 1.8 34.66 C 2.9 36.36 4.31 37.67 6.04 38.6 C 8.25 39.8 10.74 40.23 13.52 39.87 C 13.81 39.84 14.09 39.8 14.37 39.75 C 15.87 39.47 17.33 38.84 18.41 38.3 C 19.12 37.89 19.92 37.37 20.72 36.72 C 27.11 30.87 27.84 22.82 27.84 22.82 L 27.91 22.82 L 27.91 22.82 L 30.09 22.82 L 30.09 16.78 ZM 21.99 22.91 L 21.97 23.02 C 21.96 23.06 21.95 23.1 21.95 23.15 C 21.86 23.6 21.76 24.06 21.65 24.52 C 21.35 25.68 20.96 26.77 20.48 27.78 C 20.26 28.24 20.03 28.67 19.78 29.1 C 19.76 29.1 19.75 29.11 19.75 29.13 C 19.28 29.9 18.76 30.6 18.18 31.22 C 17.73 31.69 17.24 32.12 16.73 32.51 C 15.53 33.38 14.2 33.9 12.72 34.09 C 11.32 34.27 10.04 34.07 8.9 33.49 L 8.86 33.49 C 8.03 33.02 7.35 32.37 6.82 31.55 C 6.28 30.72 5.99 29.83 5.95 28.88 L 5.93 28.9 C 5.92 28.52 5.94 28.15 6 27.78 C 6.1 27.23 6.27 26.68 6.52 26.14 L 6.52 26.17 C 6.97 25.31 7.59 24.6 8.38 24.04 C 9.28 23.44 10.39 23.03 11.71 22.82 L 11.73 22.82 C 11.75 22.82 11.77 22.82 11.79 22.81 C 11.97 22.79 12.43 22.75 12.86 22.75 C 12.9 22.75 12.95 22.75 12.99 22.75 L 22.02 22.75 L 21.99 22.91 ZM 27.91 22.8 C 27.91 22.8 27.91 22.79 27.91 22.8 L 27.91 22.8 Z" fill-rule="nonzero" fill="url(#linearGradient1)"/>
                        <path d="M 38.04 16.78 L 36.09 16.78 L 36.09 22.75 L 38.04 22.75 C 39.71 22.75 41.06 21.42 41.06 19.78 L 41.06 19.75 C 41.06 18.11 39.71 16.78 38.04 16.78 Z" fill-rule="nonzero" fill="url(#linearGradient2)"/>
                    </g>
                    <path d="M 36.09 9.56 C 36.09 7.93 34.75 6.61 33.09 6.61 C 31.44 6.61 30.09 7.93 30.09 9.56 L 30.09 37.03 C 30.06 38.67 31.4 40 33.07 40 L 33.07 40 C 33.07 40 33.08 40 33.08 40 C 33.08 40 33.08 40 33.09 40 C 34.74 40 36.08 38.68 36.08 37.05 L 36.08 37.05 C 36.09 37.04 36.09 37.03 36.09 37.03 L 36.09 9.56 Z" fill-rule="nonzero" fill="url(#linearGradient3)"/>
                </g>
                <g opacity="1.0">
                    <path d="M 22.1 16.78 L 20.44 16.78 C 19.69 19.09 18.35 21.14 16.6 22.75 L 22.01 22.75 C 22.14 21.7 22.26 20.5 22.24 19.33 C 22.22 18.33 22.2 17.61 22.1 16.78 Z" fill-rule="nonzero" fill="url(#linearGradient4)"/>
                    <path d="M 29.25 16.78 L 27.89 16.78 C 27.89 16.82 27.89 16.86 27.89 16.91 C 28 17.93 28.16 20.25 27.84 22.82 L 30.09 22.82 L 30.09 16.78 L 29.25 16.78 Z" fill="#006F95"/>
                    <path d="M 38.04 16.78 L 36.09 16.78 L 36.09 22.75 L 38.04 22.75 C 39.71 22.75 41.06 21.42 41.06 19.78 L 41.06 19.75 C 41.06 18.11 39.71 16.78 38.04 16.78 Z" fill-rule="nonzero" fill="url(#linearGradient5)"/>
                </g>
            </g>
        </g>
    </g>
</svg>