<svg xmlns="http://www.w3.org/2000/svg" xmlns:xlink="http://www.w3.org/1999/xlink" width="300" height="240" viewBox="0 0 300 240">
  <defs>
    <clipPath id="clip-path">
      <rect id="Rectangle_2906" data-name="Rectangle 2906" width="176.919" height="148.819" fill="none"/>
    </clipPath>
  </defs>
  <g id="Group_8605" data-name="Group 8605" transform="translate(-800 -160)">
    <rect id="Rectangle_2905" data-name="Rectangle 2905" width="300" height="240" transform="translate(800 160)" fill="#fff" opacity="0.001"/>
    <g id="Group_8604" data-name="Group 8604" transform="translate(-12857 419.507)">
      <g id="Group_8603" data-name="Group 8603" transform="translate(13717 -222.807)">
        <path id="Path_42449" data-name="Path 42449" d="M60.429,88.1A39.358,39.358,0,0,0,46.08,109.117c-4.949,18.109,3.728,37.24,20.073,46.152,14.664,7.994,37.27,18.484,61.491,22.882,50.936,9.249,98.525-30.177,97.015-82.538-.459-15.755-5.461-32.907-18.773-49.787a8.416,8.416,0,0,0-12.012-1.371C181.206,55,147.887,76.87,88.195,78.6a47.508,47.508,0,0,0-27.766,9.507Z" transform="translate(-44.694 -42.537)" fill="rgba(144,156,208,0.09)" style="isolation: isolate"/>
        <path id="Path_42439" data-name="Path 42439" d="M50.8,185.349c0,2.181,23.742,3.949,53.029,3.949s53.03-1.768,53.03-3.949-23.743-3.949-53.03-3.949S50.8,183.168,50.8,185.349" transform="translate(-14.953 -20.998)" fill="rgba(144,156,208,0.09)"/>
      </g>
      <g id="Group_8602" data-name="Group 8602" transform="translate(13718.128 -224.507)">
        <g id="Group_8601" data-name="Group 8601" clip-path="url(#clip-path)">
          <g id="Group_8607" data-name="Group 8607" transform="translate(29.086 5.618)">
            <path id="Path_42450" data-name="Path 42450" d="M138.114,25.618V77.829s-.155,43.807-59.248,66.213l-.184.055V125.4l.146-.046c45.986-17.437,46.1-51.533,46.1-51.533V33.185c-24.636.861-45.784-15.669-45.784-15.669l-.467-.348V5.04l.593.439s27.175,21.247,58.84,20.139" transform="translate(-19.258 -5.04)" fill="#bfc8fa"/>
            <path id="Path_42451" data-name="Path 42451" d="M25.856,25.618V77.829s.155,43.807,59.248,66.213l.184.055V125.4l-.146-.046c-45.986-17.437-46.1-51.533-46.1-51.533V33.185c24.636.861,45.784-15.669,45.784-15.669l.467-.348V5.04l-.593.439S57.522,26.726,25.857,25.618" transform="translate(-25.856 -5.04)" fill="#92a2f1"/>
          </g>
          <path id="Path_42452" data-name="Path 42452" d="M158.989,23.041c-1.384-6.9-9.309-11.445-15.92-8.929-7.411,2.324-10.33,12.239-5.2,18.031l1.714,2.031,3.452,4.093c.45.544,3.682,4.44,4.059,4.9.067.1.181.185.015.058a.841.841,0,0,0-.944.086c3.163-3.563,6.423-7.166,9.642-10.665a12.015,12.015,0,0,0,3.183-9.606,12.078,12.078,0,0,1-2.341,10.313c-2.748,3.486-5.587,6.988-8.39,10.428-.474.5-.832,1.337-1.718,1.232a1.567,1.567,0,0,1-.916-.585c-.127-.155-.528-.593-.664-.755-1.771-2-5.307-6.045-7.045-8.071l-1.762-2.044c-6.143-6.875-2.56-18.7,6.352-21.08,7.36-2.478,15.915,2.974,16.482,10.569" transform="translate(16.624 1.361)" fill="#677fea"/>
          <path id="Path_42453" data-name="Path 42453" d="M150.178,23.855c.573,2.539-1.74,5.153-4.407,5.217a5.268,5.268,0,0,1-5.512-5.236c-.093-4.646,6.064-7.118,9.034-3.452a4.193,4.193,0,0,1,.885,3.471c-.912-4.687-7.473-4.59-7.67-.014.172,4.589,6.738,4.7,7.67.014" transform="translate(17.52 2.135)" fill="#677fea"/>
          <path id="Path_42454" data-name="Path 42454" d="M91.819,63.555H67.128V49.269a12.346,12.346,0,1,1,24.692,0Z" transform="translate(8.385 4.248)" fill="none" stroke="#677fea" stroke-miterlimit="10" stroke-width="2"/>
          <path id="Path_42455" data-name="Path 42455" d="M98.255,64.314H62.128V49.3a18.065,18.065,0,1,1,36.13,0Z" transform="translate(7.761 3.618)" fill="none" stroke="#677fea" stroke-miterlimit="10" stroke-width="2"/>
          <path id="Path_42456" data-name="Path 42456" d="M63.6,61.082H99.02A5.951,5.951,0,0,1,105,67V87.651a5.95,5.95,0,0,1-5.977,5.922H63.6a5.95,5.95,0,0,1-5.977-5.922V67A5.95,5.95,0,0,1,63.6,61.082Z" transform="translate(7.198 7.006)" fill="none" stroke="#677fea" stroke-miterlimit="10" stroke-width="2"/>
          <ellipse id="Ellipse_497" data-name="Ellipse 497" cx="4.36" cy="4.321" rx="4.36" ry="4.321" transform="translate(83.833 77.355)" fill="none" stroke="#677fea" stroke-miterlimit="10" stroke-width="2"/>
          <path id="Path_42457" data-name="Path 42457" d="M80.9,76.456v3.819a2.257,2.257,0,1,1-4.512.1c0-.033,0-.067,0-.1V76.456" transform="translate(9.542 8.769)" fill="none" stroke="#677fea" stroke-miterlimit="10" stroke-width="2"/>
          <path id="Path_42458" data-name="Path 42458" d="M139.384,112.661c-4.262,6.761-9.513,14.969-13.938,21.6a5.311,5.311,0,0,1-8.808.127c-1.671-2.3-5.935-8.167-7.529-10.4a5.079,5.079,0,1,1,7.566-6.773c1.834,2.354,3.46,4.582,5.2,6.884l-1.62.036q4.8-6.7,9.726-13.322c1.65-2.175,3.369-5.489,6.664-4.8,3.074.416,4.7,4.3,2.743,6.647m0,0c2.468-4.015-3.042-8.23-6.069-4.5-4,6.077-8.07,12.239-12.184,18.23-.386-.508-5.568-7.072-6.116-7.781a2.889,2.889,0,0,0-2.815-.94,2.951,2.951,0,0,0-1.29,5.038c1.577,2.215,5.776,8.221,7.386,10.526a3.342,3.342,0,0,0,2.8,1.568,3.446,3.446,0,0,0,2.9-1.53l5.122-7c3.384-4.578,6.826-9.127,10.265-13.6" transform="translate(13.458 12.148)" fill="#677fea"/>
          <path id="Path_42459" data-name="Path 42459" d="M37.21,101.513a2.629,2.629,0,0,0-2.273-2.655L33.658,98.7c-.45,0-.486-.377-.606-.7-.177-.268-.348-.665-.034-.922,2.03-2.086,1.426-3.7-.69-5.419-1.9-2.064-3.149-2.51-5.319-.521a.8.8,0,0,1-1.051.125c.136.059-.451-.155-.423-.147a1.116,1.116,0,0,1-.367-.172.62.62,0,0,1-.22-.507v.06c-.1-1.546-.606-3.17-2.411-3.211l-1.681.041-1.686.047c-1.738.113-1.981,1.691-2.045,3.12v-.088a1.042,1.042,0,0,1-.8,1.042c.259-.1-.64.291-.606.275l.094-.055c-.808.536-1.4-.165-1.964-.568a2,2,0,0,0-2.655-.192c-.485.439-1.611,1.7-2.163,2.233a1.656,1.656,0,0,0-.576,1.909c.31.994,1.154.991,1.341,2.191a2.072,2.072,0,0,1-.476,1.678.551.551,0,0,0,.2-.4,1.369,1.369,0,0,1-.706,1.009,2.216,2.216,0,0,1-.873.2l-.909.11a1.609,1.609,0,0,0-1.448,1.5c0,.628.008,2.166.012,2.774,0,.181-.006.6.017.768.124.894.956,1.294,1.865,1.353a2.891,2.891,0,0,1,1.039.167,1.982,1.982,0,0,1,1.218,1.565l-.017-.084a1.369,1.369,0,0,1-.186,1.648c.281-.333-.487.618-.463.592a1.733,1.733,0,0,0-.085,2.647c.613.558,1.907,2.022,2.442,2.434a2.132,2.132,0,0,0,2.609-.527,1.722,1.722,0,0,1,2.288-.183l-.051-.035a1.339,1.339,0,0,1,.731.472,1.223,1.223,0,0,1,.214.6c.044,1.343.178,2.638,1.617,2.987.465.12,2.14.078,2.664.119a6.415,6.415,0,0,0,1.663-.065,2.485,2.485,0,0,0,1.6-2.473c.087-.415.026-.811.467-1.139a3.743,3.743,0,0,1,.521-.212l.386-.134-.044.028a.64.64,0,0,1,.848.089c.559.438,1.574,1.459,2.606,1.352,1.11.043,1.794-.9,2.555-1.577l1.189-1.137c1.386-1.058,1.055-3.034-.106-4.156a.869.869,0,0,1-.157-1.211c.119-.247.171-.7.52-.665,1.356-.062,2.906-.318,3.444-1.751.391-.944.141-3.01.217-4.093m0,0c-.063,1.1.21,3.14-.174,4.111-.528,1.456-2.12,1.753-3.482,1.826-.327,0-.306.407-.424.626a.729.729,0,0,0,.166,1.046c1.27,1.107,1.673,3.335.219,4.492-.723.689-1.568,1.692-2.291,2.382-1.521,1.367-3.556.428-4.841-.748a.132.132,0,0,0,.173.025l-.044.028-.481.206c-.352.158-.33.077-.354.268a6.168,6.168,0,0,1-.5,2.419c-.744,1.373-2.218,1.7-3.685,1.632l-1.838.05c-2.707.216-3.935-1.831-4.009-4.2l.012.091c-.006-.045-.03-.033.051.1.147.169.224.192.307.208a2.862,2.862,0,0,1-.648-.26c-.062-.041-.1-.039-.067-.03s.091,0,.066.011a4.856,4.856,0,0,1-2.546,1.469,3.565,3.565,0,0,1-3.276-1.156l-.648-.616c-.912-.941-2.315-1.87-2.522-3.311a3.839,3.839,0,0,1,.958-3.307l.579-.748.075-.085a.809.809,0,0,0-.126.971c.034.057,0,0-.007-.019a2.9,2.9,0,0,1-.265-.67c-.008-.051-.021-.042.013.01a.349.349,0,0,0,.134.113c.015.007-.027-.009-.114-.009-.141,0-.416-.018-.556-.03A3.879,3.879,0,0,1,3.357,104.1l.006-.925.018-1.959A3.807,3.807,0,0,1,6.773,97.72c.22-.011,1.034-.121,1.223-.133a.92.92,0,0,0-.182.068.824.824,0,0,0-.394.484c-.007.032-.011.051-.008.046a1.744,1.744,0,0,1,.36-.711l-.069.079a3.8,3.8,0,0,1-.017-5.763L8.835,90.7c.771-.781,1.962-1.907,3.27-1.859,1.378-.11,2.506.825,3.428,1.679a.422.422,0,0,0-.546-.054,9.279,9.279,0,0,1,1.018-.392.368.368,0,0,0-.279.373v-.088c.1-.593.159-1.117.308-1.762a3.253,3.253,0,0,1,3.113-2.334c.855.028,2.579.064,3.434.1A3.153,3.153,0,0,1,25.412,88.7a16.571,16.571,0,0,1,.2,1.789.028.028,0,0,0-.028-.023c.123.047.616.263.737.328.092.1.249.031.317-.067,1.362-1.186,3.243-1.878,4.719-.426.57.6,1.741,1.776,2.312,2.371a2.706,2.706,0,0,1,.406,3.146c-.241.633-1.151,1.237-1.161,1.732a7.62,7.62,0,0,1,.354.894.485.485,0,0,0,.4.206l1.279.168a2.652,2.652,0,0,1,2.267,2.7" transform="translate(0.416 9.894)" fill="#677fea"/>
          <path id="Path_42460" data-name="Path 42460" d="M19.546,106.911c-5.052.814-7.832-5.774-4.283-9.246a6.044,6.044,0,0,1,8.606.018c3.53,3.488.73,10.076-4.323,9.229m0,0c5.55-.948,5.464-8.617.018-8.836-5.591.263-5.436,7.933-.018,8.836" transform="translate(1.707 10.996)" fill="#677fea"/>
          <path id="Path_42461" data-name="Path 42461" d="M50.333,4.394c-9.4.014-23.008-.29-32.546-.555L9.651,3.633c-.6-.007-2.455-.068-3.052-.077A5.407,5.407,0,0,0,1,8.784L.961,10.811.908,14.843a6.307,6.307,0,0,0,1.18,4.49,5.657,5.657,0,0,0,4.4,2.142c5.424-.017,10.849-.049,16.273-.152,7.549-.269,21.116-.357,28.521-.808a4.726,4.726,0,0,0,3.673-4.555l-.028-2.016c-.075-1.418.064-4.692-.169-6.046a4.54,4.54,0,0,0-4.427-3.5m0,0A4.506,4.506,0,0,1,54.7,7.912c.237,1.316,0,4.648.042,6.033-.06,1.337.136,2.733-.528,3.886a4.253,4.253,0,0,1-3.027,2.2c-7.286.042-20.981-.522-28.421-.628-5.424-.1-10.849-.136-16.273-.153a3.416,3.416,0,0,1-2.668-1.267,4.41,4.41,0,0,1-.75-3.138l-.053-4.032-.028-2A3.6,3.6,0,0,1,5.762,5.331c1.018-.183,2.828-.116,3.889-.175l8.135-.206c9.583-.242,23.094-.593,32.546-.555" transform="translate(0.111 0.407)" fill="#677fea"/>
          <line id="Line_195" data-name="Line 195" x2="5.807" y2="4.297" transform="translate(24.909 11.468)" fill="none" stroke="#677fea" stroke-width="1.5"/>
          <line id="Line_196" data-name="Line 196" x1="5.829" y2="4.267" transform="translate(24.9 11.482)" fill="none" stroke="#677fea" stroke-width="1.5"/>
          <line id="Line_197" data-name="Line 197" x1="0.017" y2="6.708" transform="translate(27.804 10.266)" fill="none" stroke="#677fea" stroke-width="1.5"/>
          <line id="Line_198" data-name="Line 198" x2="5.807" y2="4.297" transform="translate(24.909 11.468)" fill="none" stroke="#677fea" stroke-linecap="round" stroke-miterlimit="10" stroke-width="1.5"/>
          <line id="Line_199" data-name="Line 199" x1="5.829" y2="4.267" transform="translate(24.9 11.482)" fill="none" stroke="#677fea" stroke-linecap="round" stroke-miterlimit="10" stroke-width="1.5"/>
          <line id="Line_200" data-name="Line 200" x1="0.017" y2="6.708" transform="translate(27.804 10.266)" fill="none" stroke="#677fea" stroke-linecap="round" stroke-miterlimit="10" stroke-width="1.5"/>
          <line id="Line_201" data-name="Line 201" x2="5.807" y2="4.297" transform="translate(38.898 11.468)" fill="none" stroke="#677fea" stroke-linecap="round" stroke-miterlimit="10" stroke-width="1.5"/>
          <line id="Line_202" data-name="Line 202" x1="5.829" y2="4.267" transform="translate(38.888 11.482)" fill="none" stroke="#677fea" stroke-linecap="round" stroke-miterlimit="10" stroke-width="1.5"/>
          <line id="Line_203" data-name="Line 203" x1="0.017" y2="6.708" transform="translate(41.795 10.266)" fill="none" stroke="#677fea" stroke-linecap="round" stroke-miterlimit="10" stroke-width="1.5"/>
          <line id="Line_204" data-name="Line 204" x2="5.807" y2="4.297" transform="translate(10.922 11.468)" fill="none" stroke="#677fea" stroke-linecap="round" stroke-miterlimit="10" stroke-width="1.5"/>
          <line id="Line_205" data-name="Line 205" x1="5.829" y2="4.267" transform="translate(10.912 11.482)" fill="none" stroke="#677fea" stroke-linecap="round" stroke-miterlimit="10" stroke-width="1.5"/>
          <line id="Line_206" data-name="Line 206" x1="0.017" y2="6.708" transform="translate(13.818 10.266)" fill="none" stroke="#677fea" stroke-linecap="round" stroke-miterlimit="10" stroke-width="1.5"/>
          <ellipse id="Ellipse_498" data-name="Ellipse 498" cx="2.075" cy="2.056" rx="2.075" ry="2.056" transform="translate(165.339 72.505)" fill="none" stroke="#b9c2f1" stroke-miterlimit="10" stroke-width="1"/>
          <ellipse id="Ellipse_500" data-name="Ellipse 500" cx="2.075" cy="2.056" rx="2.075" ry="2.056" transform="translate(9.64 61.728)" fill="none" stroke="#b9c2f1" stroke-miterlimit="10" stroke-width="1"/>
          <ellipse id="Ellipse_499" data-name="Ellipse 499" cx="2.775" cy="2.75" rx="2.775" ry="2.75" transform="translate(67.496 7.418)" fill="none" stroke="#b9c2f1" stroke-miterlimit="10" stroke-width="1"/>
          <line id="Line_207" data-name="Line 207" y2="5.716" transform="translate(107.325 0.557)" fill="none" stroke="#f3d972" stroke-linecap="round" stroke-miterlimit="10" stroke-width="1"/>
          <line id="Line_208" data-name="Line 208" x1="5.769" transform="translate(104.429 3.415)" fill="none" stroke="#f3d972" stroke-linecap="round" stroke-miterlimit="10" stroke-width="1"/>
          <g id="Group_8608" data-name="Group 8608" transform="translate(158.204 88.417)">
            <line id="Line_209" data-name="Line 209" y2="5.716" transform="translate(2.885)" fill="none" stroke="#f3d972" stroke-linecap="round" stroke-miterlimit="10" stroke-width="1"/>
            <line id="Line_210" data-name="Line 210" x1="5.769" transform="translate(0 2.857)" fill="none" stroke="#f3d972" stroke-linecap="round" stroke-miterlimit="10" stroke-width="1"/>
          </g>
          <line id="Line_211" data-name="Line 211" y2="5.716" transform="translate(15.829 76.617)" fill="none" stroke="#f3d972" stroke-linecap="round" stroke-miterlimit="10" stroke-width="1"/>
          <line id="Line_212" data-name="Line 212" x1="5.769" transform="translate(12.952 79.473)" fill="none" stroke="#f3d972" stroke-linecap="round" stroke-miterlimit="10" stroke-width="1"/>
          <line id="Line_213" data-name="Line 213" y2="3.818" transform="translate(72.19 144.084)" fill="none" stroke="#f3d972" stroke-linecap="round" stroke-miterlimit="10" stroke-width="1"/>
          <line id="Line_214" data-name="Line 214" x1="3.853" transform="translate(70.265 145.992)" fill="none" stroke="#f3d972" stroke-linecap="round" stroke-miterlimit="10" stroke-width="1"/>
        </g>
      </g>
    </g>
  </g>
</svg>
