<svg xmlns="http://www.w3.org/2000/svg" xmlns:xlink="http://www.w3.org/1999/xlink" width="350.5" height="350" viewBox="0 0 350.5 350">
  <defs>
    <clipPath id="clip-path">
      <rect id="Rectangle_2608" data-name="Rectangle 2608" width="290.119" height="157.895" fill="#ccc"/>
    </clipPath>
    <clipPath id="clip-path-2">
      <rect id="Rectangle_2865" data-name="Rectangle 2865" width="308.566" height="6.19" fill="#f2f2f2"/>
    </clipPath>
    <clipPath id="clip-path-3">
      <rect id="Rectangle_2867" data-name="Rectangle 2867" width="3.208" height="3.019" fill="none"/>
    </clipPath>
    <clipPath id="clip-path-4">
      <rect id="Rectangle_2868" data-name="Rectangle 2868" width="41.102" height="4.204" fill="none"/>
    </clipPath>
    <clipPath id="clip-path-5">
      <rect id="Rectangle_2869" data-name="Rectangle 2869" width="3.166" height="2.994" fill="none"/>
    </clipPath>
    <clipPath id="clip-path-6">
      <rect id="Rectangle_2870" data-name="Rectangle 2870" width="35.453" height="23.888" fill="none"/>
    </clipPath>
  </defs>
  <g id="Group_8658" data-name="Group 8658" transform="translate(-832 -60)">
    <rect id="Rectangle_2874" data-name="Rectangle 2874" width="350" height="350" transform="translate(832 60)" fill="#f4f4f4" opacity="0"/>
    <g id="Group_8655" data-name="Group 8655" transform="translate(2.06 6)">
      <g id="Group_8651" data-name="Group 8651" transform="translate(829.94 143.268)" opacity="0.1">
        <g id="Group_6616" data-name="Group 6616" clip-path="url(#clip-path)">
          <path id="Path_4008" data-name="Path 4008" d="M18.75,243.838H53.16a18.259,18.259,0,0,1-6.031-13.719v-4.059c0-11.76-8.878-21.293-19.831-21.293-11.227,0-20.328-9.773-20.328-21.828s9.1-21.828,20.328-21.828h3.331c10.952,0,19.831-9.533,19.831-21.293,0-9.813,7.408-17.766,16.548-17.766H196.3c10.172,0,18.418,8.854,18.418,19.776a20.031,20.031,0,0,1-9.542,17.332h22.712A17.1,17.1,0,0,1,245.044,176.2,20.49,20.49,0,0,0,265.6,196.628h3.449a20.936,20.936,0,1,1,0,41.872,20.492,20.492,0,0,0-20.557,20.425v3.894a17.1,17.1,0,0,1-17.151,17.043H151.535q-.9.084-1.829.085H18.75C8.394,279.947,0,271.864,0,261.892s8.394-18.055,18.75-18.055" transform="translate(0 -122.052)" fill="#ffd3a3"/>
        </g>
      </g>
      <g id="Group_8600" data-name="Group 8600" transform="translate(849.926 100)">
        <path id="Union_806" data-name="Union 806" d="M210.977,223.866l-.048-.081H69.444c-.6.047-1.2.08-1.809.08h-.7c-12.316,0-22.316-10.371-22.316-23.181V179.808h.015v-.1h-.015V42.1H0V22.5A22.517,22.517,0,0,1,6.533,6.588,22.151,22.151,0,0,1,22.317,0l.316,0H186.388c12.316,0,22.317,10.229,22.317,22.867V42.794l.016.146-.35,138.73h25.895v19.993a22.4,22.4,0,0,1-22.578,22.2Z" transform="translate(0.632 0.002)" fill="#fff" stroke="rgba(0,0,0,0)" stroke-miterlimit="10" stroke-width="1"/>
        <g id="Group_8578" data-name="Group 8578">
          <path id="Path_4936" data-name="Path 4936" d="M201.587,59.722l-.354,139.34-119.368.262-45.66.1L36.189,59.576V39.657c0-9.23-2.189-11.77-7.808-17.485s-14.669-5.377-14.669-5.377H179.079a22.68,22.68,0,0,1,22.493,22.862V59.576Z" transform="translate(8.763 -16.791)" fill="none" stroke="#efefef" stroke-width="1.5"/>
          <path id="Path_4939" data-name="Path 4939" d="M26.932,179.093h-.015V41.516Z" transform="translate(18.037 0.308)" fill="none" stroke="#efefef" stroke-width="1.5"/>
          <path id="Path_4937" data-name="Path 4937" d="M45.468,39.286V58.879H.5V39.286A22.484,22.484,0,0,1,22.993,16.793a21.983,21.983,0,0,1,9.37,2.062A22.435,22.435,0,0,1,45.468,39.286" transform="translate(-0.5 -16.791)" fill="none" stroke="#efefef" stroke-width="1.5"/>
          <path id="Path_4941" data-name="Path 4941" d="M.5,16.793V36.387A22.484,22.484,0,0,0,22.993,58.879a21.983,21.983,0,0,0,9.37-2.062" transform="translate(44.453 165.29)" fill="none" stroke="#efefef" stroke-width="1.5"/>
          <path id="Path_4940" data-name="Path 4940" d="M207.989,122.333v19.941A22.323,22.323,0,0,1,185.5,164.419l-.756-.08H41.642a22.27,22.27,0,0,0,20.639-22.065V122.333Z" transform="translate(27.438 59.75)" fill="none" stroke="#efefef" stroke-width="1.5"/>
        </g>
        <path id="Path_4942" data-name="Path 4942" d="M.173,0,43.715.2V24.835l-43.543-.2Z" transform="translate(45.383 171.347)" fill="#fff"/>
      </g>
      <g id="Group_8609" data-name="Group 8609" transform="translate(847.924 352.81)" clip-path="url(#clip-path-2)">
        <path id="Path_4973" data-name="Path 4973" d="M18.422,201.235c0,1.709,69.075,3.095,154.283,3.095s154.283-1.385,154.283-3.095S257.913,198.14,172.7,198.14s-154.283,1.385-154.283,3.095" transform="translate(-18.422 -198.14)" fill="#f2f2f2"/>
      </g>
      <g id="Group_8642" data-name="Group 8642" transform="translate(1157.49 309.354)">
        <path id="Path_5025" data-name="Path 5025" d="M3335-4290.021h5.384" transform="translate(-3325.454 4294.991)" fill="none" stroke="#000" stroke-linecap="round" stroke-width="1"/>
        <path id="Path_4984" data-name="Path 4984" d="M3335-4290.021h17.316" transform="translate(-3335 4329.94)" fill="none" stroke="#000" stroke-linecap="round" stroke-width="1"/>
        <path id="Path_5022" data-name="Path 5022" d="M3335-4290.021h7.35" transform="translate(-3319.899 4290.021)" fill="none" stroke="#000" stroke-linecap="round" stroke-width="1"/>
      </g>
      <g id="Group_8618" data-name="Group 8618" transform="translate(917.91 181.804)">
        <path id="Path_4944" data-name="Path 4944" d="M120.883,30.375H5.867c-3.033,0-5.492-1.717-5.492-3.835V4.21C.375,2.092,2.834.375,5.867.375H120.883c3.033,0,5.492,1.717,5.492,3.835V26.54c0,2.118-2.459,3.835-5.492,3.835" transform="translate(-0.375 -0.375)" fill="#fff" stroke="#efefef" stroke-width="1"/>
      </g>
      <g id="Group_8619" data-name="Group 8619" transform="translate(917.91 223.703)">
        <path id="Path_4944-2" data-name="Path 4944" d="M120.883,30.375H5.867c-3.033,0-5.492-1.717-5.492-3.835V4.21C.375,2.092,2.834.375,5.867.375H120.883c3.033,0,5.492,1.717,5.492,3.835V26.54c0,2.118-2.459,3.835-5.492,3.835" transform="translate(-0.375 -0.375)" fill="#fff" stroke="#efefef" stroke-width="1"/>
      </g>
      <g id="Group_8656" data-name="Group 8656" transform="translate(849.391 127.808)">
        <g id="Group_8641" data-name="Group 8641" transform="translate(111.591)">
          <path id="Path_5025-2" data-name="Path 5025" d="M3335-4290.021h6.008" transform="translate(-3324.347 4295.567)" fill="none" stroke="#000" stroke-linecap="round" stroke-width="1"/>
          <path id="Path_4984-2" data-name="Path 4984" d="M3335-4290.021h19.324" transform="translate(-3335 4334.569)" fill="none" stroke="#000" stroke-linecap="round" stroke-width="1"/>
          <path id="Path_5022-2" data-name="Path 5022" d="M3335-4290.021h8.2" transform="translate(-3318.148 4290.021)" fill="none" stroke="#000" stroke-linecap="round" stroke-width="1"/>
        </g>
        <g id="Group_8616" data-name="Group 8616" transform="translate(0 8.44)">
          <path id="Path_4944-3" data-name="Path 4944" d="M134.273,33.375H6.477c-3.37,0-6.1-1.889-6.1-4.219V4.594c0-2.33,2.732-4.219,6.1-4.219h127.8c3.37,0,6.1,1.889,6.1,4.219V29.156c0,2.33-2.732,4.219-6.1,4.219" transform="translate(-0.825 -0.624)" fill="#fcfdff" stroke="#74a1f8" stroke-width="1"/>
          <g id="Group_8615" data-name="Group 8615" transform="translate(15.623 7.812)">
            <g id="Group_8613" data-name="Group 8613" transform="translate(0 1.94)">
              <rect id="Rectangle_2866" data-name="Rectangle 2866" width="18.971" height="13.391" rx="2" fill="none" stroke="#74a1f8" stroke-linecap="round" stroke-miterlimit="10" stroke-width="1"/>
              <path id="Path_4981" data-name="Path 4981" d="M2.145,1.789,6.737,5.981a.327.327,0,0,0,.452.007l4.977-4.2" transform="translate(2.33 1.076)" fill="none" stroke="#74a1f8" stroke-linecap="round" stroke-miterlimit="10" stroke-width="1"/>
            </g>
            <g id="Group_8614" data-name="Group 8614" transform="translate(27.899 1.94)">
              <path id="Path_4982" data-name="Path 4982" d="M3.855-12.29v-2.026H2.845v2.026L.823-13.007l-.343.86,2.021.681L1.262-9.834l.858.556L3.359-11,4.675-9.278l.782-.556L4.2-11.465l2.079-.681-.381-.86Zm6.712,0v-2.026H9.557v2.026l-2.021-.717-.343.86,2.021.681L7.974-9.834l.858.556L10.072-11l1.316,1.721.782-.556-1.259-1.631,2.079-.681-.381-.86Zm6.712,0v-2.026H16.269v2.026l-2.021-.717-.343.86,2.021.681-1.24,1.631.858.556L16.784-11,18.1-9.278l.782-.556-1.259-1.631,2.079-.681-.381-.86Zm6.712,0v-2.026H22.982v2.026l-2.021-.717-.343.86,2.021.681L21.4-9.834l.858.556L23.5-11l1.316,1.721.782-.556-1.259-1.631,2.079-.681-.381-.86Zm6.712,0v-2.026H29.694v2.026l-2.021-.717-.343.86,2.021.681-1.24,1.631.858.556L30.209-11l1.316,1.721.782-.556-1.259-1.631,2.079-.681-.381-.86Zm6.712,0v-2.026H36.407v2.026l-2.021-.717-.343.86,2.021.681-1.24,1.631.858.556L36.921-11l1.316,1.721.782-.556L37.76-11.465l2.079-.681-.381-.86ZM50.48-6.356l1.6-5.091h-1.2l-.439,1.129a2.2,2.2,0,0,0-.9-1.138,2.429,2.429,0,0,0-1.24-.332,3.808,3.808,0,0,0-1.84.448,4.631,4.631,0,0,0-1.411,1.165,5.466,5.466,0,0,0-.906,1.631A5.49,5.49,0,0,0,43.825-6.7a3.066,3.066,0,0,0,.2,1.111,2.728,2.728,0,0,0,.553.9,2.609,2.609,0,0,0,.858.6,2.722,2.722,0,0,0,1.116.224,2.506,2.506,0,0,0,1.316-.368,4.9,4.9,0,0,0,1.049-.834h.057a1.186,1.186,0,0,0,.381.878,1.265,1.265,0,0,0,.839.287,3.367,3.367,0,0,0,1.449-.376,5.168,5.168,0,0,0,1.449-1.058,5.866,5.866,0,0,0,1.116-1.64A4.957,4.957,0,0,0,54.656-9.1a4.853,4.853,0,0,0-.515-2.232,5.371,5.371,0,0,0-1.4-1.739,6.73,6.73,0,0,0-2.069-1.138,7.532,7.532,0,0,0-2.5-.412,7.237,7.237,0,0,0-2.736.52,7.169,7.169,0,0,0-2.25,1.425A6.824,6.824,0,0,0,41.66-10.56a6.07,6.07,0,0,0-.563,2.59,6.407,6.407,0,0,0,.553,2.662,6.637,6.637,0,0,0,1.516,2.133,7.116,7.116,0,0,0,2.269,1.425,7.536,7.536,0,0,0,2.813.52,7.808,7.808,0,0,0,1.793-.206,7.013,7.013,0,0,0,1.649-.61,6.888,6.888,0,0,0,1.421-.986,5.917,5.917,0,0,0,1.106-1.336h-1.2a5.926,5.926,0,0,1-2.088,1.578,6.177,6.177,0,0,1-2.641.592,5.907,5.907,0,0,1-2.269-.439,6.1,6.1,0,0,1-1.878-1.2,5.589,5.589,0,0,1-1.278-1.8,5.4,5.4,0,0,1-.467-2.241,5.556,5.556,0,0,1,.448-2.223,5.875,5.875,0,0,1,1.23-1.829,5.8,5.8,0,0,1,1.84-1.246,5.685,5.685,0,0,1,2.279-.457,5.833,5.833,0,0,1,1.936.323,5.293,5.293,0,0,1,1.649.923,4.458,4.458,0,0,1,1.154,1.461,4.239,4.239,0,0,1,.429,1.918,4.524,4.524,0,0,1-.248,1.452,5.94,5.94,0,0,1-.629,1.327,4.035,4.035,0,0,1-.849.968,1.461,1.461,0,0,1-.906.376q-.458,0-.458-.556a1.667,1.667,0,0,1,.067-.439Q50.4-6.123,50.48-6.356Zm-2.174-4.213a1.246,1.246,0,0,1,.582.143,1.938,1.938,0,0,1,.5.368,1.619,1.619,0,0,1,.343.529,1.651,1.651,0,0,1,.124.627,3.764,3.764,0,0,1-.229,1.219,5.163,5.163,0,0,1-.629,1.246,3.913,3.913,0,0,1-.934.968,1.946,1.946,0,0,1-1.163.385,1.54,1.54,0,0,1-1.182-.493,1.76,1.76,0,0,1-.458-1.246,3.774,3.774,0,0,1,.229-1.246,4.728,4.728,0,0,1,.629-1.21,3.618,3.618,0,0,1,.963-.923A2.2,2.2,0,0,1,48.306-10.569ZM59.385-12.29v-2.026H58.374v2.026l-2.021-.717-.343.86,2.021.681-1.24,1.631.858.556L58.889-11l1.316,1.721.782-.556-1.259-1.631,2.079-.681-.381-.86Zm6.712,0v-2.026H65.087v2.026l-2.021-.717-.343.86,2.021.681L63.5-9.834l.858.556L65.6-11l1.316,1.721.782-.556-1.259-1.631,2.079-.681-.381-.86Zm6.712,0v-2.026H71.8v2.026l-2.021-.717-.343.86,2.021.681-1.24,1.631.858.556L72.314-11,73.63-9.278l.782-.556-1.259-1.631,2.079-.681-.381-.86Zm6.712,0v-2.026H78.512v2.026l-2.021-.717-.343.86,2.021.681-1.24,1.631.858.556L79.026-11l1.316,1.721.782-.556-1.259-1.631,2.079-.681-.381-.86Z" transform="translate(-0.48 14.62)" fill="#74a1f8"/>
            </g>
          </g>
        </g>
      </g>
      <g id="Group_8645" data-name="Group 8645" transform="translate(985.419 127.808)">
        <g id="Group_8644" data-name="Group 8644" transform="translate(0 0)">
          <g id="Group_8638" data-name="Group 8638">
            <g id="Group_8643" data-name="Group 8643">
              <path id="Path_5026" data-name="Path 5026" d="M123.879,296.914l5.161,30.87-41.08,1.061c.134-3.715,21-14.022,21-14.022l-5.191-17.829Z" transform="translate(-31.168 -101.232)" fill="#3f5963"/>
              <g id="Group_8627" data-name="Group 8627" transform="translate(88.652 213.836)" opacity="0.6">
                <g id="Group_8626" data-name="Group 8626">
                  <g id="Group_8625" data-name="Group 8625" clip-path="url(#clip-path-3)">
                    <path id="Path_5027" data-name="Path 5027" d="M139.272,325.089a1.587,1.587,0,0,1,1.212,1.779,1.615,1.615,0,0,1-1.856,1.151,1.672,1.672,0,0,1-1.273-1.891,1.7,1.7,0,0,1,2.071-1" transform="translate(-137.304 -325.032)" fill="#fff"/>
                  </g>
                </g>
              </g>
              <g id="Group_8630" data-name="Group 8630" transform="translate(56.77 223.41)" opacity="0.6">
                <g id="Group_8629" data-name="Group 8629">
                  <g id="Group_8628" data-name="Group 8628" clip-path="url(#clip-path-4)">
                    <path id="Path_5028" data-name="Path 5028" d="M129.028,343l-.2-3.143-39.311,2.193s-1.808.8-1.566,2.011Z" transform="translate(-87.926 -339.858)" fill="#fff"/>
                  </g>
                </g>
              </g>
              <path id="Path_5029" data-name="Path 5029" d="M119.712,327.848c.012.189,1.018.249,2.022.834,1.021.559,1.553,1.368,1.736,1.287.184-.042-.148-1.167-1.377-1.854s-2.429-.44-2.381-.267" transform="translate(-42.418 -112.125)" fill="#1e2e35"/>
              <path id="Path_5030" data-name="Path 5030" d="M113.114,330.69c-.041.185.837.485,1.541,1.269.729.764.926,1.627,1.125,1.614.189.025.3-1.089-.6-2.048s-2.068-1.016-2.067-.835" transform="translate(-40.08 -113.171)" fill="#1e2e35"/>
              <path id="Path_5031" data-name="Path 5031" d="M108.61,336.607c.183.036.435-.919-.109-1.943s-1.5-1.414-1.575-1.254c-.109.159.516.7.95,1.548.455.837.535,1.635.735,1.649" transform="translate(-37.883 -114.151)" fill="#1e2e35"/>
              <path id="Path_5032" data-name="Path 5032" d="M120.067,320.451c.089.17,1-.115,2.138-.071,1.137.021,2.029.359,2.129.193.112-.14-.77-.819-2.108-.853s-2.262.585-2.159.731" transform="translate(-42.541 -109.312)" fill="#1e2e35"/>
              <path id="Path_5033" data-name="Path 5033" d="M243.7,281.4l19.767,24.267L228.3,326.927c-1.723-3.294,11.3-22.576,11.3-22.576l-13.337-12.922Z" transform="translate(-80.175 -95.735)" fill="#3f5963"/>
              <g id="Group_8633" data-name="Group 8633" transform="translate(169.555 202.46)" opacity="0.6">
                <g id="Group_8632" data-name="Group 8632">
                  <g id="Group_8631" data-name="Group 8631" clip-path="url(#clip-path-5)">
                    <path id="Path_5034" data-name="Path 5034" d="M263.779,307.476a1.586,1.586,0,0,1,1.934.947,1.615,1.615,0,0,1-1.043,1.919,1.672,1.672,0,0,1-2.042-1.012,1.7,1.7,0,0,1,1.307-1.891" transform="translate(-262.607 -307.412)" fill="#fff"/>
                  </g>
                </g>
              </g>
              <g id="Group_8636" data-name="Group 8636" transform="translate(147.843 207.303)" opacity="0.6">
                <g id="Group_8635" data-name="Group 8635">
                  <g id="Group_8634" data-name="Group 8634" clip-path="url(#clip-path-6)">
                    <path id="Path_5035" data-name="Path 5035" d="M264.432,317.543l-1.732-2.63-33.071,21.365s-1.175,1.59-.365,2.523Z" transform="translate(-228.979 -314.913)" fill="#fff"/>
                  </g>
                </g>
              </g>
              <path id="Path_5036" data-name="Path 5036" d="M247.887,319.671c.1.159,1.007-.287,2.169-.277,1.163-.019,2.026.42,2.145.26.139-.127-.706-.941-2.114-.929s-2.328.82-2.2.947" transform="translate(-87.831 -108.96)" fill="#1e2e35"/>
              <path id="Path_5037" data-name="Path 5037" d="M243.533,325.631c.056.181.968.006,1.967.34,1.012.3,1.61.956,1.777.845.177-.072-.282-1.093-1.535-1.483s-2.3.141-2.209.3" transform="translate(-86.291 -111.25)" fill="#1e2e35"/>
              <path id="Path_5038" data-name="Path 5038" d="M242.544,333.137c.177-.059-.077-1.014-1.057-1.635s-2-.488-1.99-.309c-.016.192.8.353,1.592.875.81.5,1.275,1.156,1.455,1.069" transform="translate(-84.863 -113.325)" fill="#1e2e35"/>
              <path id="Path_5039" data-name="Path 5039" d="M244.672,312.658c.162.1.814-.6,1.822-1.12,1-.544,1.942-.693,1.946-.886.028-.178-1.074-.331-2.254.3s-1.675,1.628-1.514,1.7" transform="translate(-86.686 -106.045)" fill="#1e2e35"/>
              <path id="Path_5040" data-name="Path 5040" d="M142.058,119.345,163.4,203.908c-11.819,3.452-28.884,4.209-41.053,2.336L110.5,205.013c-1.374-.143-2.228-13.835-1.712-15.116l1.171-2.9a99.109,99.109,0,0,0,7.308-36.364q.057-8.193-.6-16.375a251.447,251.447,0,0,0-7.77-44.688l-.283-3.248" transform="translate(-38.486 -26.36)" fill="#827c48"/>
              <path id="Path_5041" data-name="Path 5041" d="M151.3,159.2a20.4,20.4,0,0,1,3.866,3.521,16.316,16.316,0,0,1,2.4,4.628,4.565,4.565,0,0,0-.329-1.526,11.111,11.111,0,0,0-1.811-3.31,12.324,12.324,0,0,0-2.757-2.572,5,5,0,0,0-1.373-.741" transform="translate(-53.609 -52.147)" fill="#3f5963"/>
              <path id="Path_5042" data-name="Path 5042" d="M173.072,137.294a2.224,2.224,0,0,0-.068.666,9.5,9.5,0,0,0,.139,1.821,11.633,11.633,0,0,0,2.532,5.428,13.6,13.6,0,0,0,4.78,3.623,12.826,12.826,0,0,0,1.706.642,2.393,2.393,0,0,0,.654.14c.019-.057-.9-.315-2.257-1A14.551,14.551,0,0,1,175.933,145a12.215,12.215,0,0,1-2.556-5.258c-.306-1.488-.24-2.444-.3-2.443" transform="translate(-61.301 -44.356)" fill="#3f5963"/>
              <path id="Path_5043" data-name="Path 5043" d="M147.588,153.7a28.457,28.457,0,0,0-1.1-4.226,28.555,28.555,0,0,0-1.42-4.13,28.422,28.422,0,0,0,1.1,4.227,28.5,28.5,0,0,0,1.42,4.13" transform="translate(-51.4 -47.218)" fill="#3f5963"/>
              <path id="Path_5044" data-name="Path 5044" d="M104.107,170.38c1.278-4.873,19.061-35.138,19.061-35.138l.917-2.683-6.766-15.271,24.624-9.473s15.356,18.535,16.848,23.033c.548,1.654,1.668,7.929,2.865,15.206a84.815,84.815,0,0,0,18.891,41.308,8.005,8.005,0,0,1,.893,1.213c.364.661,23.756,39.278,27.986,43.956a.717.717,0,0,1-.111,1.061L180.7,254.4a.718.718,0,0,1-1.054-.241l-31.28-74.514-8.05-28.256-9.072,21.871a29.891,29.891,0,0,0-2.189,13.81l4.653,61.644a.819.819,0,0,1-.8.883l-36.971.661a.815.815,0,0,1-.828-.911c.977-8.177,7.806-74.434,9-78.971" transform="translate(-33.589 -34.227)" fill="#312732"/>
              <path id="Path_5045" data-name="Path 5045" d="M100.121,45.291l1.169,3.578c3.208,1.953,6.514,1.851,7.383-2.75l.138-.424-6.535-15.5L89.644,34.865l3.139,6.914a5.75,5.75,0,0,0,5.978,3.785,9.979,9.979,0,0,0,5.115-2.4" transform="translate(-31.764 -6.173)" fill="#e4987a"/>
              <path id="Path_5046" data-name="Path 5046" d="M106.83,27.153c-3.641,1.519-2.146,3.057-2.146,3.057l4.234,2.59s2.152-1.049,1.7-2.62a4.976,4.976,0,0,0-2.967-2.89Z" transform="translate(-36.986 -5.096)" fill="#f2efec"/>
              <path id="Path_5047" data-name="Path 5047" d="M6.414,28.373s2.765-1.315,15.522,4.421c12.724,5.722,20.695,3.755,25.627-.2,7.361-5.9,8.03-16.7,2.368-24.247-4.774-6.361-13.79-12.335-29.1-4.905A46.67,46.67,0,0,0,1.005,22.26L0,24s5.6-.5,6.415,4.377" transform="translate(75.402 0) rotate(16)" fill="#521c0a"/>
              <path id="Path_5048" data-name="Path 5048" d="M38.321,0s-3.4,9.03-10.211,11.115S11.225,7.552,11.225,7.552A40.162,40.162,0,0,0,0,3.806" transform="matrix(0.891, 0.454, -0.454, 0.891, 75.8, 25.219)" fill="none" stroke="#521c0a" stroke-linecap="round" stroke-miterlimit="10" stroke-width="0.25"/>
              <path id="Path_5049" data-name="Path 5049" d="M93.242,42.632l.273.593a6.178,6.178,0,0,0,3.684-2,5.381,5.381,0,0,1,2.107-1.808,9.141,9.141,0,0,1,4.006-.9l-.2-.9-9.194,2.313Z" transform="translate(-33.039 -8.801)" fill="#be765a"/>
              <path id="Path_5050" data-name="Path 5050" d="M90.542,39.211c-3.717.776-4.782-1.882-5.034-3.377a4.515,4.515,0,0,1,1.668-3.981c10.367-9.513,15.3,1.457,15.3,1.457l.93,2.4a.49.49,0,0,1-.234-.022,9,9,0,0,0-9.453,1.789,6.567,6.567,0,0,1-3.179,1.728" transform="translate(-30.291 -5.387)" fill="#521c0a"/>
              <path id="Path_5051" data-name="Path 5051" d="M109.557,41.081a2.49,2.49,0,1,0-.882-2.843" transform="translate(-38.508 -8.436)" fill="#e4987a"/>
              <path id="Path_5052" data-name="Path 5052" d="M109.557,41.081a2.49,2.49,0,1,0-.882-2.843" transform="translate(-38.508 -8.436)" fill="none" stroke="#ce8366" stroke-linecap="round" stroke-width="0.5"/>
              <path id="Path_5053" data-name="Path 5053" d="M111.377,48.089a9.984,9.984,0,0,1-5.542,3.518l.392,1.2s5.11-1.347,5.15-4.713" transform="translate(-37.501 -12.514)" fill="#be765a"/>
              <path id="Path_5054" data-name="Path 5054" d="M112.4,41.677a3.9,3.9,0,1,0,2.212-1.232" transform="translate(-39.474 -9.784)" fill="none" stroke="#f7d26c" stroke-miterlimit="10" stroke-width="0.5"/>
              <path id="Path_5055" data-name="Path 5055" d="M12.467,41.515l-.313-6.732-3.836-7.2-.391.939-.861-1.409s-1.174.861-1.018,1.879a41.55,41.55,0,0,0,1.488,4.462L3.7,28.13a2.342,2.342,0,0,0,0,2.427c.7,1.565,2.661,5.323,2.661,5.323s.548,7.358.7,8.767,1.409,2.035,2.662,2.9A26.209,26.209,0,0,0,14.478,49.5L15.5,42.29Z" transform="translate(-1.2 -5.082)" fill="#d18165"/>
              <path id="Path_5056" data-name="Path 5056" d="M86.865,64.1s2.218,10.433-8.636,9.427-37.08-7.206-37.08-7.206l-25.4-7.984L18.238,49.3l29.835,5.752s30.12,1.307,34.544,2.312c4.911,1.116,4.247,6.732,4.247,6.732" transform="translate(-5.581 -13.04)" fill="#827c48"/>
              <path id="Path_5057" data-name="Path 5057" d="M9.081,51.223l-.313-6.732-3.836-7.2-.391.939L3.68,36.82s-1.174.861-1.018,1.879a41.55,41.55,0,0,0,1.488,4.462L.313,37.838a2.342,2.342,0,0,0,0,2.427c.7,1.566,2.661,5.323,2.661,5.323s.548,7.358.705,8.767,1.409,2.035,2.661,2.9A26.209,26.209,0,0,0,11.092,59.2L12.115,52Z" transform="translate(0 -8.521)" fill="#e4987a"/>
              <path id="Path_5058" data-name="Path 5058" d="M7.637,37.548a2.426,2.426,0,0,0,.241.586l.768,1.552c.663,1.309,1.6,3.119,2.678,5.143l-.019-.071c.012.272.025.562.039.855.105,2.258.216,4.321.314,5.876l.006.1.09.021c.938.223,1.7.4,2.232.512a3.778,3.778,0,0,0,.834.14,3.755,3.755,0,0,0-.8-.278c-.52-.155-1.274-.367-2.2-.62l.1.117c-.046-1.557-.127-3.621-.232-5.879-.014-.292-.028-.582-.041-.854V44.7l-.018-.033c-1.081-2.021-2.058-3.812-2.773-5.092l-.859-1.5a2.421,2.421,0,0,0-.351-.528" transform="translate(-2.705 -8.779)" fill="#e4987a"/>
              <path id="Path_5059" data-name="Path 5059" d="M5.7,36.819a35.085,35.085,0,0,0,1.661,3.789,31.426,31.426,0,0,0,1.859,3.7,21.564,21.564,0,0,0-1.554-3.84A20.206,20.206,0,0,0,5.7,36.819" transform="translate(-2.016 -8.521)" fill="#d18165"/>
              <path id="Path_5060" data-name="Path 5060" d="M122.763,70.875a1.618,1.618,0,0,0,.307-.473,7.891,7.891,0,0,0,.584-1.421,9.2,9.2,0,0,0,.125-5.041,9.678,9.678,0,0,0-2.643-4.3,5.077,5.077,0,0,0-1.281-.859,1.5,1.5,0,0,0-.54-.166,8.141,8.141,0,0,1,1.659,1.2,10.262,10.262,0,0,1,2.482,4.217,9.691,9.691,0,0,1-.031,4.882c-.321,1.232-.718,1.932-.662,1.959" transform="translate(-42.277 -16.35)" fill="#b7a96e"/>
              <path id="Path_5061" data-name="Path 5061" d="M13.5,68.205a.65.65,0,0,0,.038-.158l.081-.471q.1-.658.283-1.824c.236-1.617.575-3.928,1-6.812l-.118.1,27.048,1.679,2.416.145h.022l24.1-1.786,7.22-.571,1.954-.17.506-.053a.732.732,0,0,0,.172-.028.678.678,0,0,0-.174,0l-.509.021-1.958.11-7.228.467L44.24,60.526h.022l-2.416-.145L14.791,58.813l-.1-.006-.014.1c-.379,2.89-.683,5.206-.9,6.826-.1.78-.171,1.392-.225,1.832-.021.194-.037.35-.05.475a.634.634,0,0,0-.006.163" transform="translate(-4.781 -16.218)" fill="#dbcc8a"/>
              <path id="Path_5062" data-name="Path 5062" d="M55.062,80.888a1.5,1.5,0,0,0,.358.089c.237.046.587.114,1.04.188.907.138,2.223.309,3.853.478,3.26.341,7.773.7,12.762,1.008s9.514.5,12.791.584c1.638.041,2.964.051,3.881.043l1.056-.031a1.555,1.555,0,0,0,.367-.034,1.514,1.514,0,0,0-.368-.034l-1.054-.032L85.874,83c-3.271-.145-7.789-.38-12.778-.682s-9.5-.629-12.76-.908c-1.631-.139-2.948-.274-3.858-.372l-1.046-.125a1.548,1.548,0,0,0-.369-.022" transform="translate(-19.511 -24.271)" fill="#dbcc8a"/>
              <path id="Path_5063" data-name="Path 5063" d="M121.8,98.046S109.14,89.366,108,78.471a7.534,7.534,0,0,1,.03-1.618c.314-2.829,2.187-14.343-.582-20.158a26.184,26.184,0,0,1,7.49-3.184s.684,1.677,1.991,4.324L135.4,92.713Z" transform="translate(-38.074 -14.55)" fill="#f2ebeb"/>
              <path id="Path_5064" data-name="Path 5064" d="M116.114,56.326s-5.5.86-7.625,2.638" transform="translate(-38.442 -15.433)" fill="none" stroke="#4e5445" stroke-miterlimit="10" stroke-width="0.5"/>
              <path id="Path_5065" data-name="Path 5065" d="M123.844,80.165s-12.171,1.88-14.986,4.119" transform="translate(-38.573 -24.016)" fill="none" stroke="#4e5445" stroke-linecap="round" stroke-miterlimit="10" stroke-width="0.5"/>
              <path id="Path_5066" data-name="Path 5066" d="M123.844,87.891s-12.171,1.88-14.986,4.119" transform="translate(-38.573 -26.766)" fill="none" stroke="#4e5445" stroke-linecap="round" stroke-miterlimit="10" stroke-width="0.5"/>
              <path id="Path_5067" data-name="Path 5067" d="M127.287,97.037s-12.171,1.88-14.986,4.119" transform="translate(-39.793 -30.021)" fill="none" stroke="#4e5445" stroke-linecap="round" stroke-miterlimit="10" stroke-width="0.5"/>
              <path id="Path_5068" data-name="Path 5068" d="M132.667,105s-12.171,1.88-14.986,4.119" transform="translate(-41.699 -32.855)" fill="none" stroke="#4e5445" stroke-linecap="round" stroke-miterlimit="10" stroke-width="0.5"/>
              <path id="Path_5069" data-name="Path 5069" d="M140.307,112.425s-12.171,1.88-14.986,4.119" transform="translate(-44.406 -35.497)" fill="none" stroke="#4e5445" stroke-linecap="round" stroke-miterlimit="10" stroke-width="0.5"/>
              <path id="Path_5070" data-name="Path 5070" d="M112.481,70.306A346.223,346.223,0,0,1,140,148.438a124.029,124.029,0,0,0,7.293,22.587L160.464,201.3a2.8,2.8,0,0,0,3.3,1.842c8.616-2.013,37.272-9.424,52.431-22.093a3.037,3.037,0,0,0,.673-3.84C210.229,165.537,154.837,96.273,116.719,59.6c-1.018-.978-8.578-1.074-9.341-.639C105.8,59.863,110.734,62.9,112.481,70.306Z" transform="translate(-37.939 -16.548)" fill="#b7a96e"/>
              <line id="Line_154" data-name="Line 154" x1="2.967" y1="2.29" transform="translate(80.763 81.126)" fill="#827c48"/>
              <path id="Path_5071" data-name="Path 5071" d="M116.564,59.441c3.656.339,4.686,3.438,4.976,5.091.136.772.291,1.535.443,2.3.539,2.72-.138,6.071-2.689,7.346" transform="translate(-41.303 -16.646)" fill="#827c48"/>
              <path id="Path_5072" data-name="Path 5072" d="M84.643,63.731c.134.772.29,1.535.442,2.3.539,2.719.811,8.874-7.661,9.2-10.892.419-37.7-2.3-37.7-2.3L13.5,68.329l1.289-9.281,30.331,1.809s30.032-2.636,34.549-2.217c3.656.339,4.686,3.438,4.977,5.091" transform="translate(-4.783 -16.345)" fill="#b7a96e"/>
            </g>
          </g>
        </g>
      </g>
      <g id="Group_8604" data-name="Group 8604" transform="translate(852.88 262.803)">
        <g id="Group_8541" data-name="Group 8541" transform="translate(0)">
          <g id="Group_8540" data-name="Group 8540" transform="translate(37.029 14.702)">
            <path id="Path_4805" data-name="Path 4805" d="M158.278,162.212s-12.724.05-3.872-12.582a9.683,9.683,0,0,0,2.7,6.8.73.73,0,0,0,.7.208c.309-.085.533-.4-.163-1.423-1.2-1.749-4.343-7.064,3.941-10.313a12,12,0,0,0,.746,5.82.754.754,0,0,0,.494.386c.276.058.593-.048.558-.891-.058-1.443-.983-4.151,1.323-6.341,0,0,3.566-.238,3.025,1.2s-.827,3.424.613,1.982-.827-2.127,2.774-2.379a11.676,11.676,0,0,0,8.248-.612,6.6,6.6,0,0,0-2.053,5.947c.72,3.568-2.666,2.668-3.422,2.739-.624.059-1.616.316-1.013.888a1.4,1.4,0,0,0,1.115.36,20.009,20.009,0,0,0,4.256-.852,8.495,8.495,0,0,1-1.078,5.876,7.154,7.154,0,0,1-6.816-1.538,1.167,1.167,0,0,0-.914-.36c-.345.029-.625.208-.2.852.791,1.188,4.322,3.532,7.1,3.065,0,0-1.945,5.659-5.836,4.866a7.816,7.816,0,0,1-4.708-2.9,13.606,13.606,0,0,0-2.1-2.181s-1.152-.138-.469,1.154,4.071,5.047,6.519,5.047c0,0-6.915,7.749-10.952-4.326Z" transform="translate(-151.274 -143.859)" fill="#111f12"/>
            <path id="Path_4804" data-name="Path 4804" d="M151.99,170.964l.739.841s3.424-13.414,24.656-27.256c0,0-17.974,9.907-25.395,26.415" transform="translate(-150.281 -143.598)" fill="#316031"/>
          </g>
          <g id="Group_8539" data-name="Group 8539">
            <path id="Path_4806" data-name="Path 4806" d="M199.591,161.11s19.358.077,5.892-19.143a14.73,14.73,0,0,1-4.1,10.339,1.111,1.111,0,0,1-1.073.317c-.47-.138-.812-.612.248-2.164,1.817-2.662,6.606-10.753-6-15.69,0,0,.651,5.564-1.135,8.856a1.142,1.142,0,0,1-.751.587c-.414.087-.9-.074-.851-1.357.09-2.2,1.494-6.315-2.013-9.639,0,0-5.426-.363-4.6,1.831s1.26,5.211-.932,3.016,1.26-3.236-4.22-3.619a17.757,17.757,0,0,1-12.545-.933,10.043,10.043,0,0,1,3.122,9.048c-1.1,5.429,4.056,4.059,5.208,4.167.95.091,2.458.48,1.541,1.352a2.132,2.132,0,0,1-1.7.551,30.454,30.454,0,0,1-6.479-1.3,12.918,12.918,0,0,0,1.645,8.939s6.1,1.949,10.368-2.344a1.777,1.777,0,0,1,1.391-.551c.527.044.95.316.3,1.3-1.2,1.81-6.576,5.377-10.8,4.661,0,0,2.958,8.609,8.877,7.4a11.889,11.889,0,0,0,7.16-4.411,20.727,20.727,0,0,1,3.194-3.318s1.754-.219.713,1.755-6.191,7.677-9.918,7.677c0,0,10.521,11.791,16.659-6.58Z" transform="translate(-167.511 -133.195)" fill="#316031"/>
            <path id="Path_4807" data-name="Path 4807" d="M208.031,174.428l-1.125,1.279s-5.21-20.4-37.51-41.467c0,0,27.346,15.072,38.636,40.187" transform="translate(-167.895 -132.799)" fill="#1d3d28"/>
          </g>
        </g>
        <g id="Group_8542" data-name="Group 8542" transform="translate(5.934 46.835)">
          <path id="Path_4808" data-name="Path 4808" d="M207.58,167.168H156.809a48.755,48.755,0,0,0,0,22.747c3.073,11.566,12.29,23.515,12.29,23.515h27s8.612-11.948,11.484-23.515a52.113,52.113,0,0,0,0-22.747" transform="translate(-155.428 -167.168)" fill="#dc8249"/>
          <path id="Path_4809" data-name="Path 4809" d="M193.3,213.433h6.421a89.028,89.028,0,0,1-4.995-7.421,82.461,82.461,0,0,1-4.081-7.54,51,51,0,0,1-3.216-8.547,41.746,41.746,0,0,1-1.3-8.434,50.716,50.716,0,0,1,.138-7.279,44.861,44.861,0,0,1,1.153-7.039H181a45.184,45.184,0,0,0-1.154,7.038,50.7,50.7,0,0,0-.138,7.279,41.646,41.646,0,0,0,1.3,8.434,51.249,51.249,0,0,0,3.218,8.547,82.839,82.839,0,0,0,4.082,7.541c2.652,4.373,4.97,7.391,4.993,7.421Z" transform="translate(-179.634 -167.166)" fill="#c66636"/>
          <line id="Line_152" data-name="Line 152" x2="22.931" transform="translate(2.639 9.844)" fill="none" stroke="#c46437" stroke-linecap="round" stroke-width="3"/>
        </g>
      </g>
    </g>
  </g>
</svg>
