<svg xmlns="http://www.w3.org/2000/svg" xmlns:xlink="http://www.w3.org/1999/xlink" width="350.002" height="350" viewBox="0 0 350.002 350">
  <defs>
    <clipPath id="clip-path">
      <rect id="Rectangle_2608" data-name="Rectangle 2608" width="304.153" height="165.533" fill="#ccc"/>
    </clipPath>
    <clipPath id="clip-path-2">
      <rect id="Rectangle_2844" data-name="Rectangle 2844" width="287.89" height="6.489" fill="#f2f2f2"/>
    </clipPath>
    <clipPath id="clip-path-3">
      <rect id="Rectangle_2848" data-name="Rectangle 2848" width="314.514" height="292" fill="none"/>
    </clipPath>
  </defs>
  <g id="Group_8654" data-name="Group 8654" transform="translate(-927 -275)">
    <rect id="Rectangle_2873" data-name="Rectangle 2873" width="350" height="350" transform="translate(927 275)" fill="#fff" opacity="0"/>
    <g id="Group_8652" data-name="Group 8652" transform="translate(92.846 204.343)">
      <g id="Group_6617" data-name="Group 6617" transform="translate(834.154 145.315)" opacity="0.1">
        <g id="Group_6616" data-name="Group 6616" clip-path="url(#clip-path)">
          <path id="Path_4008" data-name="Path 4008" d="M19.657,249.729H55.731a19.142,19.142,0,0,1-6.323-14.383V231.09c0-12.328-9.308-22.323-20.79-22.323-11.77,0-21.311-10.246-21.311-22.884S16.848,163,28.618,163H32.11c11.482,0,20.79-9.995,20.79-22.323,0-10.287,7.766-18.625,17.348-18.625H205.8c10.664,0,19.309,9.282,19.309,20.733a21,21,0,0,1-10,18.17h23.811A17.925,17.925,0,0,1,256.9,178.823a21.481,21.481,0,0,0,21.551,21.413h3.616a21.949,21.949,0,1,1,0,43.9,21.483,21.483,0,0,0-21.551,21.413v4.082a17.925,17.925,0,0,1-17.981,17.868H158.865q-.946.088-1.918.089H19.657C8.8,287.584,0,279.11,0,268.656s8.8-18.928,19.657-18.928" transform="translate(0 -122.052)" fill="#ffd3a3"/>
        </g>
      </g>
      <g id="Group_8529" data-name="Group 8529" transform="translate(839.233 384.017)" clip-path="url(#clip-path-2)">
        <path id="Path_4789" data-name="Path 4789" d="M18.422,201.385c0,1.792,64.446,3.245,143.945,3.245s143.945-1.453,143.945-3.245-64.446-3.245-143.945-3.245-143.945,1.453-143.945,3.245" transform="translate(-18.422 -198.14)" fill="#f2f2f2"/>
      </g>
      <path id="Path_4790" data-name="Path 4790" d="M106.869,103.887C98.4,47.063,92.147,42.159,92.147,42.159,152.347,42.4,194.73,31.8,194.73,31.8s8.76,14.232,11.925,70.411" transform="translate(815.17 113.641)" fill="#fff" stroke="#e8e8e8" stroke-width="1"/>
      <path id="Path_4791" data-name="Path 4791" d="M150.8,198.828a4.953,4.953,0,1,0-4.953,4.953,4.952,4.952,0,0,0,4.953-4.953" transform="translate(800.559 185.129)" fill="#b2d0ea"/>
      <path id="Path_4792" data-name="Path 4792" d="M109.274,198.828a4.953,4.953,0,1,0-4.953,4.953,4.952,4.952,0,0,0,4.953-4.953" transform="translate(902.114 185.129)" fill="#b2d0ea"/>
      <path id="Path_4794" data-name="Path 4794" d="M209.518,94.022l-131.7.16L91.872,234.349a8.073,8.073,0,0,0,8.049,7.267l87.254-.181a8.071,8.071,0,0,0,8.014-7.251Z" transform="translate(833.013 140.666)" fill="#e6f4ff"/>
      <path id="Path_4795" data-name="Path 4795" d="M78.2,97.258,209.2,97.068l.3-2.967-131.653.053Z" transform="translate(832.984 141.156)" fill="#b2d0ea"/>
      <path id="Path_4796" data-name="Path 4796" d="M150.5,196.118H141.22a7.95,7.95,0,0,0-.321,1.711H150.8a5.353,5.353,0,0,0-.306-1.711" transform="translate(800.559 186.127)" fill="#83aacc"/>
      <path id="Path_4797" data-name="Path 4797" d="M108.99,196.061H99.711a7.949,7.949,0,0,0-.321,1.711H109.3a5.353,5.353,0,0,0-.306-1.711" transform="translate(902.06 186.101)" fill="#83aacc"/>
      <path id="Path_4798" data-name="Path 4798" d="M105.432,96.148,89.121,239.991H87.157L103.027,96.148Z" transform="translate(923.605 141.613)" fill="#b2d0ea"/>
      <path id="Path_4799" data-name="Path 4799" d="M114.755,96.148,101.951,240.1H99.987L112.312,96.119Z" transform="translate(895.739 141.6)" fill="#b2d0ea"/>
      <path id="Path_4800" data-name="Path 4800" d="M137.544,96.26l13.477,143.974h1.963l-13-143.982Z" transform="translate(803.23 141.659)" fill="#b2d0ea"/>
      <path id="Path_4801" data-name="Path 4801" d="M120.768,96.216l-4.142,143.967h-1.963L118.494,96.2Z" transform="translate(868.515 141.636)" fill="#b2d0ea"/>
      <path id="Path_4802" data-name="Path 4802" d="M129.833,96.23l5.738,144.26h-1.964L127.56,96.214Z" transform="translate(835.072 141.643)" fill="#b2d0ea"/>
      <path id="Path_4803" data-name="Path 4803" d="M147.54,96.3l16.311,144.136h1.964L149.936,96.265Z" transform="translate(775.951 141.665)" fill="#b2d0ea"/>
      <g id="Group_8550" data-name="Group 8550" transform="translate(975.221 158.896)">
        <path id="Path_4851" data-name="Path 4851" d="M103.614,59.014c1.416,8.7,9.259,14.859,17.519,13.751S134.939,63.7,133.523,55,124.264,40.144,116,41.252s-13.806,9.06-12.39,17.762" transform="translate(-103.393 -41.123)" fill="#f4f4f4" stroke="#ebebeb" stroke-width="1"/>
        <g id="Group_8549" data-name="Group 8549" transform="translate(6.501 5.247)">
          <path id="Path_4852" data-name="Path 4852" d="M125.739,59.3l-.034-.024c-5.277-3.342-9.216-2.558-9.161-2.511v0c-.934,1.284-1.066,1.629-2.458,1.833-.886.132-2.348-1.387-2.369-1.409a30.1,30.1,0,0,0-6.288,4.18,14.087,14.087,0,0,0,11.257,3.462,13.882,13.882,0,0,0,9.053-5.534" transform="translate(-105.385 -38.465)" fill="#a8c6ef"/>
          <path id="Path_4853" data-name="Path 4853" d="M121.354,56.677a4.221,4.221,0,0,0,.168-6.09s-.36-10.33-6.265-4.753c-1.081,1.021-1.054,2.9-4.59,4.338-3.5,1.425-1.183,5.1-.082,6.518a22.825,22.825,0,0,1,1.559,2.254l1.838,3.076Z" transform="translate(-108.204 -44.179)" fill="#491f1c"/>
          <path id="Path_4855" data-name="Path 4855" d="M115.23,59.774l.453,2.558c-1.085,2.207-2.829,3.186-4.641.644l-.2-.216-1.411-12.072,7.638-1.627.922,6.248a3.912,3.912,0,0,1-1.979,4.2,5.154,5.154,0,0,1-3.359.146" transform="translate(-104.565 -42.57)" fill="#f2c9ab"/>
          <path id="Path_4856" data-name="Path 4856" d="M115.4,51.831a1.085,1.085,0,0,0-1.3-.275,1.4,1.4,0,0,0-.661,1.284,1.6,1.6,0,0,0,.755,1.3,1.2,1.2,0,0,0,1.327-.091" transform="translate(-108.917 -40.47)" fill="#f2c9ab"/>
          <path id="Path_4857" data-name="Path 4857" d="M115.4,51.831a1.085,1.085,0,0,0-1.3-.275,1.4,1.4,0,0,0-.661,1.284,1.6,1.6,0,0,0,.755,1.3,1.2,1.2,0,0,0,1.327-.091" transform="translate(-108.917 -40.47)" fill="none" stroke="#dab193" stroke-miterlimit="10" stroke-width="0.25"/>
          <path id="Path_4858" data-name="Path 4858" d="M118.978,47.673a4.582,4.582,0,0,1-.86,2.75,3.052,3.052,0,0,1-1.505.675c-.96.232-1.967.156-2.933.352a5.69,5.69,0,0,0-3.131,1.856c-.13.148-.3.314-.475.237-.156-.07-.211-.29-.242-.479a2.621,2.621,0,0,1,.652-2.844l1.6-1.79" transform="translate(-106.33 -41.584)" fill="#491f1c"/>
          <path id="Path_4860" data-name="Path 4860" d="M108.64,45.153a7.464,7.464,0,0,1,.06,4.9,3.759,3.759,0,0,0,1.456-2.788" transform="translate(-95.313 -43.483)" fill="none" stroke="#401e1b" stroke-miterlimit="10" stroke-width="0.25"/>
          <path id="Path_4861" data-name="Path 4861" d="M115.538,44.18a6.205,6.205,0,0,0-3.206,3.206" transform="translate(-107.033 -44.18)" fill="none" stroke="#401e1b" stroke-miterlimit="10" stroke-width="0.25"/>
          <path id="Path_4862" data-name="Path 4862" d="M117.9,47.7a3.008,3.008,0,0,0-1.217,3.818,3.139,3.139,0,0,0,.383.7" transform="translate(-116.438 -42.43)" fill="none" stroke="#401e1b" stroke-miterlimit="10" stroke-width="0.25"/>
          <path id="Path_4863" data-name="Path 4863" d="M110.976,55.173s1.325,1.7,2.841,1.317l-.182-1.1a5.407,5.407,0,0,1-2.659-.218" transform="translate(-102.984 -38.448)" fill="#dab193"/>
          <path id="Path_4864" data-name="Path 4864" d="M115.652,56.727s-1.945,3.366-4.829.424c0,0,1.461,1.646,2.683,1.445a3.088,3.088,0,0,0,2.146-1.869" transform="translate(-104.556 -37.684)" fill="#dab193"/>
        </g>
      </g>
      <g id="Group_8548" data-name="Group 8548" transform="translate(927.111 170.923)">
        <line id="Line_151" data-name="Line 151" x1="34.76" y2="3.476" transform="translate(50.349 42.76)" fill="none" stroke="#c1c1c1" stroke-linecap="round" stroke-miterlimit="10" stroke-width="1"/>
        <path id="Path_4874" data-name="Path 4874" d="M79.253,0S68.008,2.427,48.194,3.236,0,3.236,0,3.236" transform="translate(3.039 27.103)" fill="none" stroke="#c1c1c1" stroke-linecap="round" stroke-width="1"/>
        <path id="Path_4872" data-name="Path 4872" d="M41.363,0A170.178,170.178,0,0,1,20.476,3.122,153.568,153.568,0,0,1,0,3.122" transform="translate(0)" fill="none" stroke="#c1c1c1" stroke-linecap="round" stroke-width="1"/>
        <path id="Path_4873" data-name="Path 4873" d="M42.719,0a193.262,193.262,0,0,1-21.9,3.122A157.848,157.848,0,0,1,0,3.122" transform="translate(1.349 12.205)" fill="none" stroke="#c1c1c1" stroke-linecap="round" stroke-width="1"/>
      </g>
      <path id="Path_4866" data-name="Path 4866" d="M178.3,86.938,156.058,69.2,132.5,65.451,110.619,86.786Z" transform="translate(816.826 128.502)" fill="#fafafa" stroke="#e8e8e8" stroke-width="1"/>
      <g id="Group_8537" data-name="Group 8537" transform="translate(840.488 99.657)">
        <g id="Group_8536" data-name="Group 8536" clip-path="url(#clip-path-3)">
          <path id="Path_4868" data-name="Path 4868" d="M149.432,69.984c1.334,2.518-20.8.453-20.8.453l-4.407-3.517S148.1,67.466,149.432,69.984Z" transform="translate(-15.545 26.938)" fill="#909090" opacity="0.2"/>
          <path id="Path_4867" data-name="Path 4867" d="M149.084,69.218c-14.678,2.5-17.164,6.893-17.164,6.893l-5.91-10.424Z" transform="translate(-16.688 28.836)" fill="#fff" stroke="#e8e8e8" stroke-width="1"/>
        </g>
      </g>
      <g id="Group_8547" data-name="Group 8547" transform="translate(1015.026 146.271)">
        <path id="Path_4869" data-name="Path 4869" d="M1787.347-4600.7l-2.953,2.659c-1.533,1.379-3.176,2.861-3.176,2.861" transform="translate(-1781.218 4611.556)" fill="none" stroke="#000" stroke-linecap="round" stroke-width="1"/>
        <path id="Path_4870" data-name="Path 4870" d="M1787.347-4600.7l-3.088,2.729-3.042,2.791" transform="translate(-1778.593 4600.702)" fill="none" stroke="#000" stroke-linecap="round" stroke-width="1"/>
        <path id="Path_4871" data-name="Path 4871" d="M1790.918-4604.212s-4.943,4.785-6.475,6.165-3.225,3.035-3.225,3.035" transform="translate(-1765.458 4612.105)" fill="none" stroke="#000" stroke-linecap="round" stroke-width="1"/>
      </g>
      <path id="Union_805" data-name="Union 805" d="M8.289,9.89l-4.69.328A3,3,0,0,1,.4,7.434L0,1.758,25.141,0l.4,5.676a3,3,0,0,1-2.784,3.2l-4.983.348a4.78,4.78,0,0,1-9.481.663Z" transform="translate(976.894 157.846) rotate(177)" fill="#ffd179"/>
      <g id="Group_8543" data-name="Group 8543" transform="translate(855.22 289.657)">
        <g id="Group_8541" data-name="Group 8541" transform="translate(0)">
          <g id="Group_8540" data-name="Group 8540" transform="translate(38.82 15.413)">
            <path id="Path_4805" data-name="Path 4805" d="M158.617,163.1s-13.34.052-4.06-13.191a10.151,10.151,0,0,0,2.826,7.127.765.765,0,0,0,.739.218c.324-.09.559-.422-.171-1.491-1.253-1.834-4.553-7.406,4.132-10.812a12.577,12.577,0,0,0,.782,6.1.791.791,0,0,0,.517.4c.289.061.621-.051.585-.934-.061-1.513-1.03-4.352,1.387-6.648,0,0,3.739-.25,3.171,1.262s-.867,3.59.643,2.078-.867-2.23,2.908-2.495a12.241,12.241,0,0,0,8.647-.642,6.92,6.92,0,0,0-2.152,6.235c.754,3.74-2.8,2.8-3.587,2.872-.655.062-1.694.331-1.062.931a1.465,1.465,0,0,0,1.169.377,20.979,20.979,0,0,0,4.462-.893,8.906,8.906,0,0,1-1.13,6.16,7.5,7.5,0,0,1-7.145-1.613,1.223,1.223,0,0,0-.958-.377c-.361.03-.655.218-.205.893.83,1.246,4.531,3.7,7.439,3.213,0,0-2.039,5.933-6.118,5.1a8.2,8.2,0,0,1-4.936-3.035,14.263,14.263,0,0,0-2.2-2.286s-1.208-.145-.491,1.21,4.268,5.291,6.835,5.291c0,0-7.249,8.124-11.481-4.535Z" transform="translate(-151.274 -143.859)" fill="#111f12"/>
            <path id="Path_4804" data-name="Path 4804" d="M151.99,172.242l.775.882s3.59-14.063,25.849-28.575c0,0-18.843,10.386-26.623,27.693" transform="translate(-150.198 -143.552)" fill="#316031"/>
          </g>
          <g id="Group_8539" data-name="Group 8539">
            <path id="Path_4806" data-name="Path 4806" d="M201.143,162.46s20.295.081,6.177-20.069a15.443,15.443,0,0,1-4.3,10.84,1.165,1.165,0,0,1-1.124.332c-.493-.145-.851-.642.26-2.269,1.9-2.791,6.926-11.273-6.287-16.449,0,0,.682,5.833-1.189,9.284a1.2,1.2,0,0,1-.788.616c-.434.091-.945-.078-.892-1.422.094-2.3,1.567-6.621-2.11-10.105,0,0-5.689-.38-4.827,1.919s1.321,5.463-.977,3.162,1.321-3.392-4.424-3.794a18.616,18.616,0,0,1-13.152-.978,10.529,10.529,0,0,1,3.273,9.485c-1.156,5.691,4.252,4.255,5.46,4.369,1,.1,2.577.5,1.616,1.418a2.235,2.235,0,0,1-1.779.578,31.928,31.928,0,0,1-6.793-1.36,13.543,13.543,0,0,0,1.724,9.371s6.4,2.044,10.87-2.457a1.863,1.863,0,0,1,1.458-.578c.552.046,1,.331.312,1.359-1.263,1.9-6.894,5.637-11.318,4.887,0,0,3.1,9.026,9.306,7.761a12.465,12.465,0,0,0,7.507-4.625,21.727,21.727,0,0,1,3.349-3.479s1.838-.23.747,1.84-6.491,8.049-10.4,8.049c0,0,11.03,12.361,17.465-6.9Z" transform="translate(-167.511 -133.195)" fill="#316031"/>
            <path id="Path_4807" data-name="Path 4807" d="M209.9,176.372l-1.179,1.341s-5.462-21.39-39.324-43.472c0,0,28.668,15.8,40.505,42.131" transform="translate(-167.822 -132.729)" fill="#1d3d28"/>
          </g>
        </g>
        <g id="Group_8542" data-name="Group 8542" transform="translate(6.221 49.101)">
          <path id="Path_4808" data-name="Path 4808" d="M210.1,167.168H156.874a51.112,51.112,0,0,0,0,23.847c3.222,12.126,12.885,24.652,12.885,24.652h28.306s9.029-12.526,12.039-24.652a54.633,54.633,0,0,0,0-23.847" transform="translate(-155.427 -167.168)" fill="#dc8249"/>
          <path id="Path_4809" data-name="Path 4809" d="M193.963,215.671H200.7a93.326,93.326,0,0,1-5.236-7.78,86.454,86.454,0,0,1-4.278-7.9,53.467,53.467,0,0,1-3.372-8.961,43.769,43.769,0,0,1-1.36-8.842,53.17,53.17,0,0,1,.145-7.631,47.029,47.029,0,0,1,1.208-7.38h-6.739a47.373,47.373,0,0,0-1.21,7.378,53.152,53.152,0,0,0-.145,7.631,43.664,43.664,0,0,0,1.359,8.842,53.729,53.729,0,0,0,3.373,8.961,86.847,86.847,0,0,0,4.279,7.906c2.781,4.584,5.21,7.748,5.235,7.78Z" transform="translate(-179.634 -167.166)" fill="#c66636"/>
          <line id="Line_152" data-name="Line 152" x2="24.041" transform="translate(2.767 10.32)" fill="none" stroke="#c46437" stroke-linecap="round" stroke-width="3"/>
        </g>
      </g>
      <path id="Path_4793" data-name="Path 4793" d="M80.117,100.29H214.651a10,10,0,0,0,0-19.991H80.117a10,10,0,1,0,0,19.991" transform="translate(829.011 135.047)" fill="#d1eaff"/>
      <g id="Group_8653" data-name="Group 8653" transform="translate(1053.658 128.066)">
        <g id="Group_8545" data-name="Group 8545">
          <path id="Path_4845" data-name="Path 4845" d="M35.752,192.8l.149-3.516-14.065-.049-.6,3.565Z" transform="translate(63.9 54.998)" fill="#f29574"/>
          <path id="Path_4811" data-name="Path 4811" d="M87.73,50.643c-1.007-.421-3.844,4.073-6.338,10.037s-1.389,7.549-.278,7.45,1.432.039,3.925-5.926,3.7-11.142,2.69-11.562" transform="translate(-73.043 -6.028)" fill="#827c48"/>
          <path id="Path_4812" data-name="Path 4812" d="M83.649,65.66a18.736,18.736,0,0,0-3.583,3.152c-.421.543-.574,1.013-1.2.72-3.6-1.7-17.168-7.852-23.814-10.76a14.457,14.457,0,0,1-4.973-3.6c-2.461-2.742-6.748-6.872-9.764-8.215-.9-.4-1.548.634-.828,1.437.639.713,1.775,1.065,2.675,2.515.309.5-1.956-1.577-2.961-1.577s-1.058,1.577-1.058,1.577A1.237,1.237,0,0,0,37,51.422c-.341.6-.78,1.189-.219,1.885,0,0-1.821.156-1.159,2.156,0,0-1.811.736-.491,2.8,0,0,3.011,4.066,5.28,2.032,0,0,20.023,18.817,33.949,24.685,3.55,1.5,31.364,2.077,34.679.117l6.025-6.455Z" transform="translate(-34.653 -8.17)" fill="#f29574"/>
          <path id="Path_4813" data-name="Path 4813" d="M85.7,53s4.144,5.306,4.936,1" transform="translate(-84.007 -4.811)" fill="none" stroke="#cc756e" stroke-miterlimit="10" stroke-width="0.25"/>
          <path id="Path_4814" data-name="Path 4814" d="M84.736,52.546s1.749,2.226,3.359,2.519a1.41,1.41,0,0,0,1.4-2.129,8.011,8.011,0,0,0-2.726-2.476" transform="translate(-81.666 -5.941)" fill="none" stroke="#cc756e" stroke-miterlimit="10" stroke-width="0.25"/>
          <path id="Path_4815" data-name="Path 4815" d="M82.379,49.912s.687,4.8,3.485,6.283" transform="translate(-74.425 -6.185)" fill="none" stroke="#cc756e" stroke-miterlimit="10" stroke-width="0.25"/>
          <path id="Path_4816" data-name="Path 4816" d="M64.944,69.794,44.96,72.1,31.495,105.257l-.279,66.6L8,246.021H44.55L58.993,130.558l-2.668-19.195-.159-1.146,4.932,135.8H96.283L91.5,185.446Z" transform="translate(10.686 1.812)" fill="#312732"/>
          <path id="Path_4817" data-name="Path 4817" d="M42.315,41.855l-.132,3.931c2.453,3.064,5.735,4.145,8.232-.062l.286-.367L49.826,27.8l-14.073.074.611,7.911a6.009,6.009,0,0,0,4.518,5.853,10.429,10.429,0,0,0,5.878-.523" transform="translate(28.124 -16.033)" fill="#f29574"/>
          <path id="Path_4818" data-name="Path 4818" d="M37.789,26.3c-4.118.191-3.2,2.234-3.2,2.234l3.232,4.055s2.487-.26,2.6-1.966a5.2,5.2,0,0,0-1.88-3.9Z" transform="translate(40.208 -16.699)" fill="#f4f0ed"/>
          <path id="Path_4819" data-name="Path 4819" d="M11.8,34.421s2.4-.228,10.311,7.463C30,49.555,36.434,50.248,41.154,48.649c7.046-2.386,10.457-10.212,8.294-17.33-1.822-6-6.893-12.86-20.243-11.484A36.8,36.8,0,0,0,9.439,28.428L8.225,29.447s4.284,1.14,3.574,4.973" transform="translate(68.517 -19.657)" fill="#591702"/>
          <path id="Path_4820" data-name="Path 4820" d="M47.562,39.829s-6.57,7.652-14,7.266-15.307-9.533-15.307-9.533a41.969,41.969,0,0,0-9.683-7.689" transform="translate(71.744 -15.108)" fill="none" stroke="#591702" stroke-linecap="round" stroke-miterlimit="10" stroke-width="0.25"/>
          <path id="Path_4821" data-name="Path 4821" d="M37.841,32.66l.056.679a6.453,6.453,0,0,0,4.333-.65,5.633,5.633,0,0,1,2.716-1.022,9.561,9.561,0,0,1,4.256.546l.124-.957-9.851-1.015Z" transform="translate(26.481 -14.944)" fill="#cb7253"/>
          <path id="Path_4822" data-name="Path 4822" d="M39.98,34.968c-3.927-.567-4.024-3.557-3.736-5.115A4.718,4.718,0,0,1,39.3,26.541c13.578-5.637,14.5,6.9,14.5,6.9l.055,2.693a.514.514,0,0,1-.223-.1,9.407,9.407,0,0,0-9.922-1.622,6.857,6.857,0,0,1-3.739.561" transform="translate(24.396 -17.24)" fill="#591702"/>
          <path id="Path_4823" data-name="Path 4823" d="M34.835,35.041a2.6,2.6,0,1,0,.15-3.107" transform="translate(40.561 -14.612)" fill="#f29574" stroke="#db805f" stroke-linecap="round" stroke-width="0.5"/>
          <path id="Path_4825" data-name="Path 4825" d="M43.672,36.481a10.429,10.429,0,0,1-6.7,1.474l-.042,1.314s5.5.5,6.741-2.788" transform="translate(33.451 -12.166)" fill="#cb7253"/>
          <path id="Path_4826" data-name="Path 4826" d="M37.142,51.677,22.385,86.87,56.2,83.307l-.844-34.194c2.627,1.931,9.484,3.261,9.484,3.261.263-3.18,3.836-4.138,3.836-4.138-9.365-4.579-18.719-10.185-18.719-10.185s.158,3.451-4.083,3.969a4.2,4.2,0,0,1-3.548-.863c-.542-.565-1.288-1.048-.571-1.89,0,0-7.679,8.43-14.811,13.39l.007.075c4.266.866,7.092,5.274,7.092,5.274l6.206-9.64" transform="translate(28.676 -11.466)" fill="#fff"/>
          <path id="Path_4827" data-name="Path 4827" d="M31.121,128.185c12.656,34.878,24.013,105.388,24.013,105.388l-30.945.409-.106-15.519C25.691,206.552,1.721,108.547,1.721,108.547-3.138,92.049,3.834,38.27,3.834,38.27a40.6,40.6,0,0,0,10.681,4.169,15.079,15.079,0,0,1,9.452,7.316L43.943,86.22a21.138,21.138,0,0,1,2.484,12.37c-1.072,10.243-3.69,29.121-8.156,31.242a54.6,54.6,0,0,0-10.853-8.766c-3.606-2.192-6.761-3.52-11.9-6.255L26.158,87.866" transform="translate(75.364 -11.369)" fill="#b7a96e"/>
          <path id="Path_4828" data-name="Path 4828" d="M11.791,91.555c-.924,1.39,3.46,5.927,9.79,10.133s12.26,6.207,13.184,4.817" transform="translate(78.87 11.996)" fill="#827c48"/>
          <path id="Path_4829" data-name="Path 4829" d="M40.858,42.184l-5.6,17.781-3.6,28.4" transform="translate(43.887 -9.626)" fill="none" stroke="#827c48" stroke-linecap="round" stroke-miterlimit="10" stroke-width="0.5"/>
          <path id="Path_4830" data-name="Path 4830" d="M91.678,235.346l-27.51.42s2.566-78.534,4.269-92.009c.094-.751.194-1.5.278-2.248.686-6.232,6.822-52.29,6.822-52.29L74.954,89A195.258,195.258,0,0,1,42.023,72.831s8.5-16.349,7.154-17.225c0,0,18.141,8.155,30.089,15.75L90.317,48.628a5.886,5.886,0,0,1,3.5-3.484c3.138-1.153,8.331-3.334,10.51-5.842L95.9,64.272s-5.253,28.983-7,71.744-6.57,67.464,0,99.3" transform="translate(-34.568 -10.909)" fill="#b7a96e"/>
          <path id="Path_4831" data-name="Path 4831" d="M34.152,84.355,20.435,56.439,35.367,80.9Z" transform="translate(65.598 -3.473)" fill="#827c48"/>
          <path id="Path_4832" data-name="Path 4832" d="M19.915,99.656l11.173-25.47-.752-.824Z" transform="translate(70.628 3.974)" fill="#827c48"/>
          <path id="Path_4833" data-name="Path 4833" d="M42.085,144.066l2.63-44.772,2.892,18.281Z" transform="translate(22.067 15.35)" fill="#1b141c"/>
          <path id="Path_4875" data-name="Path 4875" d="M0,14.2C4.366,9.246,6.877,4.962,12.054.687c1.3-1.072,2.843-2-2.288,6.334,0,0,7.349-8.582,6.98-5.174,0,0-1.437,1.847-5.01,6.488,0,0,9.074-8.746,7.8-5.257,0,0-.616,1.437-6.2,7.432,0,0,7.9-7.24,7.807-3.973-.018.7-1.825,1.862-7.519,7.464-.352.345-1.21,1.755,0,1.971,1.238.22,6.779-5.659,4.862-1.292-.323.736-.332.581-7.157,7.115" transform="translate(109.8 126.407) rotate(177)" fill="#cc7658"/>
          <path id="Path_4836" data-name="Path 4836" d="M39.023,101.283c-4.366,4.954-6.877,9.239-12.054,13.514-1.3,1.072-2.843,2,2.288-6.334,0,0-7.349,8.582-6.98,5.174,0,0,1.437-1.847,5.01-6.488,0,0-9.074,8.746-7.8,5.257,0,0,.616-1.437,6.2-7.432,0,0-7.9,7.24-7.807,3.973.018-.7,1.825-1.862,7.519-7.464.352-.345,1.21-1.755,0-1.971-1.238-.22-6.779,5.659-4.862,1.292.323-.736.332-.581,7.157-7.115" transform="translate(70.221 11.492)" fill="#f29574"/>
          <g id="Group_8646" data-name="Group 8646" transform="translate(18.689 247.809)">
            <path id="Path_4839" data-name="Path 4839" d="M58.367,201.881l33.39-.025.023-3.713L58.373,200.2Z" transform="translate(-58.367 -188.847)" fill="#b2bcc0"/>
            <path id="Path_4840" data-name="Path 4840" d="M74.02,191.711h17.83l-.3,11.52L58.2,203.061s4.027-9.734,14.909-10.121c0,0,1.009.105.915-1.228" transform="translate(-58.19 -191.711)" fill="#3f5963"/>
            <path id="Path_4841" data-name="Path 4841" d="M58.3,201.362s-.184-5.771,5.15-5.665" transform="translate(-29.935 -189.937)" fill="none" stroke="#fff" stroke-miterlimit="10" stroke-width="1"/>
          </g>
          <path id="Path_4842" data-name="Path 4842" d="M20.829,201.881l33.39-.025.023-3.713L20.834,200.2Z" transform="translate(46.153 58.962)" fill="#b2bcc0"/>
          <path id="Path_4843" data-name="Path 4843" d="M36.482,191.711h17.83l-.3,11.52-33.357-.171s4.027-9.734,14.909-10.121c0,0,1.009.105.915-1.228" transform="translate(46.329 56.099)" fill="#3f5963"/>
          <path id="Path_4844" data-name="Path 4844" d="M20.76,201.362s-.184-5.771,5.15-5.665" transform="translate(74.587 57.872)" fill="none" stroke="#fff" stroke-miterlimit="10" stroke-width="1"/>
          <path id="Path_4846" data-name="Path 4846" d="M34.689,33.872a4.071,4.071,0,1,0,2.613-.415" transform="translate(42.817 -13.512)" fill="none" stroke="#ffd257" stroke-miterlimit="10" stroke-width="0.5"/>
          <path id="Path_4847" data-name="Path 4847" d="M69.515,45.586S56.574,66.785,51.64,64.693L53.517,72.9h11.1Z" transform="translate(-13.651 -8.111)" fill="#b7a96e"/>
          <path id="Path_4848" data-name="Path 4848" d="M67.252,55.982A218,218,0,0,1,59.277,80.4c2.678,1.081,4.116,1.606,4.116,1.606Z" transform="translate(-22.425 -3.673)" fill="#827c48"/>
          <path id="Path_4849" data-name="Path 4849" d="M34.761,106.5s-9.675-4.275-23.094-14.95l18.651.328Z" transform="translate(78.875 11.997)" fill="#b7a96e"/>
          <path id="Path_4850" data-name="Path 4850" d="M52.609,43.924l-.3,9.264L46.3,76.5" transform="translate(10.978 -8.851)" fill="none" stroke="#827c48" stroke-linecap="round" stroke-miterlimit="10" stroke-width="0.5"/>
        </g>
        <path id="Path_5073" data-name="Path 5073" d="M9.934,0A55,55,0,0,0,0,1.435" transform="translate(68.278 32.15) rotate(7)" fill="none" stroke="#4e5445" stroke-linecap="round" stroke-miterlimit="10" stroke-width="0.5"/>
        <path id="Path_5074" data-name="Path 5074" d="M11.453.009S4.873-.2,0,1.415" transform="translate(65.969 39.679) rotate(7)" fill="none" stroke="#4e5445" stroke-linecap="round" stroke-miterlimit="10" stroke-width="0.5"/>
        <path id="Path_5075" data-name="Path 5075" d="M13.018.009S5.538-.2,0,1.415" transform="translate(63.872 45.969) rotate(7)" fill="none" stroke="#4e5445" stroke-linecap="round" stroke-miterlimit="10" stroke-width="0.5"/>
        <path id="Path_5076" data-name="Path 5076" d="M16.639,0S5.558.859,0,1.52" transform="matrix(0.999, 0.035, -0.035, 0.999, 59.019, 68.263)" fill="none" stroke="#4e5445" stroke-miterlimit="10" stroke-width="0.5"/>
        <path id="Path_5089" data-name="Path 5089" d="M16.043,0S5.359.859,0,1.52" transform="matrix(0.999, 0.035, -0.035, 0.999, 59.913, 61.297)" fill="none" stroke="#4e5445" stroke-miterlimit="10" stroke-width="0.5"/>
        <path id="Path_5090" data-name="Path 5090" d="M15.481,0S5.171.859,0,1.52" transform="matrix(0.999, 0.035, -0.035, 0.999, 60.913, 54.332)" fill="none" stroke="#4e5445" stroke-miterlimit="10" stroke-width="0.5"/>
      </g>
    </g>
  </g>
</svg>
