<svg xmlns="http://www.w3.org/2000/svg" width="341.093" height="237" viewBox="0 0 341.093 237">
  <g id="Group_6785" data-name="Group 6785" transform="translate(-754.206 -105.923)">
    <g id="Group_6726" data-name="Group 6726" transform="matrix(0.848, 0.53, -0.53, 0.848, 763.251, 157.294)" opacity="0.276">
      <path id="Path_4161" data-name="Path 4161" d="M1.985,4.764,0,2.515,4.234,0Z" transform="translate(6.617 12.571)" fill="#626eb1"/>
      <path id="Path_4163" data-name="Path 4163" d="M101.824,0C91.421.117,75.08,2.312,50.27,10.067c-2.235.7-4.441,1.459-6.642,2.242C37.155,14.61,15.814,20.894,0,10.385" transform="translate(12.153 9.195)" fill="none" stroke="#8592db" stroke-linecap="round" stroke-miterlimit="15" stroke-width="1" stroke-dasharray="6"/>
      <path id="Path_4165" data-name="Path 4165" d="M0,0,3.705,17.071l7.145-4.5Z" transform="translate(0 0)" fill="#8592db"/>
      <path id="Path_4166" data-name="Path 4166" d="M17.732,9.4,0,0,10.852,12.571Z" transform="translate(0 0)" fill="#9ea9eb"/>
    </g>
    <g id="Group_6775" data-name="Group 6775" transform="matrix(-0.848, 0.53, -0.53, -0.848, 1099.752, 238.213)" opacity="0.461">
      <path id="Path_4161-2" data-name="Path 4161" d="M1.985,0,0,2.249,4.234,4.764Z" transform="translate(6.617 8.14)" fill="#e2c37b"/>
      <path id="Path_4163-2" data-name="Path 4163" d="M101.824,16.279c-10.4-.117-26.743-2.312-51.554-10.067-2.235-.7-4.441-1.459-6.642-2.242C37.155,1.669,15.814-4.615,0,5.894" transform="translate(12.153 0)" fill="none" stroke="#f8dc9a" stroke-linecap="round" stroke-miterlimit="15" stroke-width="1" stroke-dasharray="6"/>
      <path id="Path_4165-2" data-name="Path 4165" d="M0,17.071,3.705,0l7.145,4.5Z" transform="translate(0 8.404)" fill="#f8dc9a"/>
      <path id="Path_4166-2" data-name="Path 4166" d="M17.732,3.176,0,12.571,10.852,0Z" transform="translate(0 12.903)" fill="#ffe5aa"/>
    </g>
    <g id="Group_5681" data-name="Group 5681" transform="translate(770.248 122.297)">
      <path id="Path_611" data-name="Path 611" d="M20.1,157.921H57c-3.949-4.226-6.468-10.626-6.468-17.789v-5.264c0-15.249-9.522-27.613-21.268-27.613-12.041,0-21.8-12.673-21.8-28.3s9.761-28.3,21.8-28.3h3.572c11.745,0,21.268-12.362,21.268-27.613h0C54.109,10.313,62.052,0,71.854,0H210.523c10.91,0,19.755,11.478,19.755,25.641,0,9.682-4.134,18.11-10.234,22.475H244.4c10.159,0,18.394,9.895,18.394,22.1,0,14.627,9.869,26.485,22.044,26.485h3.7c12.48,0,22.6,12.155,22.6,27.151S301.029,151,288.546,151h0c-12.174,0-22.044,11.857-22.044,26.485v5.049c0,12.205-8.235,22.1-18.394,22.1H162.516a17.5,17.5,0,0,1-1.962.111H20.1C8.993,204.747-.01,194.266-.01,181.335s9-23.414,20.109-23.414" transform="translate(6.367 7.939)" fill="#9bc1f9" opacity="0.102"/>
      <g id="Group_3014" data-name="Group 3014" transform="translate(112.697 22.894)">
        <path id="Path_1472" data-name="Path 1472" d="M4185.058,6656.632c19.425,12.88,24.594,29.888,28.251,43.58s17.411,40.919,23.667,49.039,13.678,35.136,9.183,48.316-24.4,39.457-74.611,39.921-78.486-1.33-92.588-26.472a76.583,76.583,0,0,1-3.545-67c6.791-15.282,28.573-29.971,34.442-43.809s16.943-33.112,27.164-39.029S4165.632,6643.753,4185.058,6656.632Z" transform="translate(-4069.297 -6650.771)" fill="#d7eaf5"/>
        <g id="Group_3013" data-name="Group 3013" transform="translate(0 26.981)">
          <path id="Path_1473" data-name="Path 1473" d="M4240.559,6800.663c-18.38,26.937,12.617-13.9,33.176-10.725S4258.94,6773.725,4240.559,6800.663Z" transform="translate(-4117.788 -6717.572)" fill="#cadde8"/>
          <path id="Path_1474" data-name="Path 1474" d="M4100.485,6771.978c-25.489-11.981,27.033.086,38.186,28.978C4123.773,6791.3,4125.974,6783.959,4100.485,6771.978Z" transform="translate(-4076.393 -6712.059)" fill="#cadde8"/>
          <path id="Path_1475" data-name="Path 1475" d="M4132.531,6816.177c18.7,11.146-13.277-17.5-38.887-14.437S4113.835,6805.032,4132.531,6816.177Z" transform="translate(-4074.184 -6722.094)" fill="#f4fbff"/>
          <path id="Path_1476" data-name="Path 1476" d="M4236.092,6819.281c-7.021,4.414,22.364-19.8,41.856-10.628S4243.115,6814.868,4236.092,6819.281Z" transform="translate(-4117.811 -6723.578)" fill="#f4fbff"/>
          <path id="Path_1477" data-name="Path 1477" d="M4248.293,6696.04c7.11-5.892-8.127,1.72-12.572,15.214S4241.183,6701.932,4248.293,6696.04Z" transform="translate(-4117.688 -6690.419)" fill="#cadde8"/>
          <path id="Path_1478" data-name="Path 1478" d="M4156.362,6692.531c-9.438-12.051,12.375,8.879,13.351,22.022S4165.8,6704.582,4156.362,6692.531Z" transform="translate(-4094.082 -6688.925)" fill="#cadde8"/>
          <path id="Path_1479" data-name="Path 1479" d="M4069.331,6832.8s30.715,28.892,81.99,26.03,74.765-2.841,95.639-22.277c2.375,13.262.72,36-21.089,47.593s-68.63,7.485-98.133,6.739-42.6-10.636-51.1-29.412S4069.331,6832.8,4069.331,6832.8Z" transform="translate(-4069.273 -6731.421)" fill="#b3d3e5"/>
        </g>
      </g>
      <rect id="Rectangle_135" data-name="Rectangle 135" width="298.919" height="1.357" transform="translate(0 210.545)" fill="#dee5f0"/>
      <g id="Group_4224" data-name="Group 4224" transform="translate(119.885)">
        <g id="Group_4216" data-name="Group 4216" transform="translate(0 127.654)">
          <path id="Path_1415" data-name="Path 1415" d="M886.276,461.23l63.88.87s17.865-7.476,22.772-7.676,14.65.423,19.156,7.676c4.658,7.5,5.309,20.724-9.045,30.336-13.978,9.36-77.9,18.01-86.66,17.214l-16.161-21.681s-.169-17.769,0-18.615,2.876-8.462,2.876-8.462Z" transform="translate(-830.027 -451.804)" fill="#6176be"/>
          <path id="Path_1416" data-name="Path 1416" d="M949.965,516.637l33.1,12.294-15.085,41.256c-1.683-.736-6.644-2.427-7.218-8.043-.7-6.847,3.257-17.877,3.257-17.877l-21.53-7.007Z" transform="translate(-855.479 -477.215)" fill="#1d3076"/>
          <path id="Path_1418" data-name="Path 1418" d="M999.456,536.558l-3.34-1.241-13.471,41.734a10.149,10.149,0,0,0,1.727.762Z" transform="translate(-871.874 -484.841)" fill="#fff"/>
          <path id="Path_1419" data-name="Path 1419" d="M978.056,562.264c.2.067.663-.907,1.674-1.663.991-.782,2.054-.973,2.037-1.187.028-.2-1.285-.34-2.493.595s-1.42,2.23-1.22,2.249" transform="translate(-869.973 -494.62)" fill="#101d4e"/>
          <path id="Path_1420" data-name="Path 1420" d="M978.427,571.441c.178.117.839-.63,1.943-1,1.091-.4,2.075-.241,2.14-.445.1-.178-1.028-.749-2.389-.259s-1.884,1.631-1.692,1.706" transform="translate(-870.137 -498.813)" fill="#101d4e"/>
          <path id="Path_1421" data-name="Path 1421" d="M982.9,579.61c.11-.167-.794-.815-2.086-.7s-2.076.9-1.939,1.042c.124.174.94-.221,2-.293,1.059-.1,1.93.15,2.024-.042" transform="translate(-870.328 -502.632)" fill="#101d4e"/>
          <path id="Path_1422" data-name="Path 1422" d="M969.94,557.8c.214-.018.274-1.043.767-2.152.472-1.12,1.174-1.867,1.043-2.034-.1-.169-1.164.423-1.728,1.739s-.277,2.491-.083,2.445" transform="translate(-866.586 -492.3)" fill="#263238"/>
          <path id="Path_1423" data-name="Path 1423" d="M961.32,551.061a4.123,4.123,0,0,0,.745-2.07,9.893,9.893,0,0,0,.127-2.4,10.39,10.39,0,0,0-.2-1.417,2.705,2.705,0,0,0-.258-.8.934.934,0,0,0-1.038-.485,1.175,1.175,0,0,0-.783.714,2.878,2.878,0,0,0-.176.814,7.935,7.935,0,0,0-.03,1.447,7.777,7.777,0,0,0,.554,2.362c.536,1.281,1.173,1.883,1.233,1.828.1-.067-.36-.764-.736-2a8.772,8.772,0,0,1-.364-2.223,8.2,8.2,0,0,1,.068-1.32c.045-.479.178-.851.414-.893.089-.014.12-.008.215.13a2.195,2.195,0,0,1,.187.587,11.442,11.442,0,0,1,.225,1.32,12.2,12.2,0,0,1,.035,2.278,15.135,15.135,0,0,0-.221,2.136" transform="translate(-862.503 -488.329)" fill="#263238"/>
          <path id="Path_1424" data-name="Path 1424" d="M958.134,554.5c.057-.059-.518-.724-1.8-1.271a7.121,7.121,0,0,0-3.814-.478,1.818,1.818,0,0,0-1.525.937,1.028,1.028,0,0,0,.26,1.077,3.011,3.011,0,0,0,.685.489,4.885,4.885,0,0,0,1.391.509,5.057,5.057,0,0,0,2.457-.1c1.363-.415,1.913-1.168,1.85-1.21a17.779,17.779,0,0,1-1.974.7,5.071,5.071,0,0,1-2.181-.057,4.528,4.528,0,0,1-1.18-.475c-.415-.225-.708-.518-.6-.666.073-.206.53-.434.941-.476a7.323,7.323,0,0,1,1.308-.1,7.913,7.913,0,0,1,2.207.354c1.232.386,1.907.881,1.978.783" transform="translate(-858.931 -491.928)" fill="#263238"/>
          <path id="Path_1425" data-name="Path 1425" d="M886.888,508.022,854.86,522.878l18.28,39.944c1.788-.954,6-2.113,6.047-8.356.05-6.358-4.135-17.794-4.135-17.794L895.964,528Z" transform="translate(-819.705 -473.698)" fill="#1d3076"/>
          <path id="Path_1427" data-name="Path 1427" d="M854.86,532.093l3.232-1.5,17.016,40.456s-.664.393-1.968.989Z" transform="translate(-819.705 -482.913)" fill="#fff"/>
          <path id="Path_1428" data-name="Path 1428" d="M887.117,555.485c-.2.083-.733-.852-1.8-1.525-1.048-.7-2.119-.809-2.124-1.024-.044-.2,1.255-.439,2.532.4s1.59,2.111,1.392,2.152" transform="translate(-831.272 -491.956)" fill="#101d4e"/>
          <path id="Path_1429" data-name="Path 1429" d="M887.247,564.626c-.168.131-.886-.562-2.015-.847-1.12-.318-2.088-.078-2.168-.275-.115-.17.966-.827,2.362-.446s2.005,1.479,1.821,1.565" transform="translate(-831.216 -496.119)" fill="#101d4e"/>
          <path id="Path_1430" data-name="Path 1430" d="M883.495,573.1c-.123-.159.728-.88,2.025-.863s2.139.73,2.015.886c-.109.184-.953-.147-2.019-.14-1.065-.019-1.912.3-2.021.117" transform="translate(-831.391 -499.913)" fill="#101d4e"/>
          <path id="Path_1431" data-name="Path 1431" d="M896.028,550.336c-.215,0-.355-1.018-.936-2.086-.557-1.076-1.32-1.769-1.2-1.946.09-.177,1.195.329,1.859,1.6s.472,2.461.275,2.436" transform="translate(-835.635 -489.312)" fill="#263238"/>
          <path id="Path_1432" data-name="Path 1432" d="M903.942,542.891a4.128,4.128,0,0,1-.905-2,9.873,9.873,0,0,1-.314-2.387,10.366,10.366,0,0,1,.083-1.428,2.714,2.714,0,0,1,.2-.819.935.935,0,0,1,1-.564,1.175,1.175,0,0,1,.837.651,2.85,2.85,0,0,1,.24.8,7.876,7.876,0,0,1,.143,1.439,7.76,7.76,0,0,1-.367,2.4c-.434,1.32-1.018,1.969-1.086,1.919-.1-.059.3-.788.576-2.054a8.8,8.8,0,0,0,.189-2.243,8.156,8.156,0,0,0-.172-1.311c-.082-.473-.244-.836-.482-.858-.09-.006-.12,0-.2.147a2.165,2.165,0,0,0-.14.6,11.723,11.723,0,0,0-.121,1.333,12.183,12.183,0,0,0,.144,2.273,15.067,15.067,0,0,1,.391,2.113" transform="translate(-839.245 -484.989)" fill="#263238"/>
          <path id="Path_1433" data-name="Path 1433" d="M904.11,546.133c-.062-.056.46-.762,1.691-1.411a7.116,7.116,0,0,1,3.763-.776,1.818,1.818,0,0,1,1.594.814,1.026,1.026,0,0,1-.176,1.091,2.991,2.991,0,0,1-.638.541,4.937,4.937,0,0,1-1.347.618,5.064,5.064,0,0,1-2.458.091c-1.393-.306-2-1.014-1.939-1.06a18.074,18.074,0,0,0,2.024.54,5.079,5.079,0,0,0,2.169-.228,4.536,4.536,0,0,0,1.14-.566c.391-.256.666-.573.55-.712a1.259,1.259,0,0,0-.978-.4,7.244,7.244,0,0,0-1.312,0,7.871,7.871,0,0,0-2.173.526c-1.2.482-1.833,1.024-1.911.932" transform="translate(-839.81 -488.357)" fill="#263238"/>
          <path id="Path_1434" data-name="Path 1434" d="M848.519,459.1s-27.582-10.3-37.739-8.969c-5.675.746-14.553,5.077-15.23,12.353s2.062,15.392,10.914,21.75c10.009,7.189,47.38,27.895,55.871,32.724,9.295,5.285,30.558,17.255,30.558,17.255L905.386,495s-47.4-18.461-49.933-20.323-8.97-4.4-8.97-4.4Z" transform="translate(-795.451 -450.017)" fill="#6176be"/>
          <path id="Path_1435" data-name="Path 1435" d="M996.836,469.573a1.019,1.019,0,0,1-.2-.05l-.553-.169c-.489-.146-2.206-.137-3.146-.36a26.924,26.924,0,0,0-3.246-.332,20.182,20.182,0,0,0-4.142,0,25.7,25.7,0,0,0-5.3,1.16,25.34,25.34,0,0,0-3.326,1.328c-.978.475-4.336,1.923-5.363,2.424-4.127,1.972-5.887,2.249-10.8,4.189-9.83,3.939-19.269,5.807-25.992,7.336-3.375.747-6.1,1.362-7.984,1.808l-2.167.512-.564.128a1.041,1.041,0,0,1-.2.033.96.96,0,0,1,.188-.064l.558-.156c.489-.132,1.215-.334,2.151-.567,1.873-.482,4.6-1.128,7.965-1.9,6.719-1.582,16.129-3.48,25.93-7.407,4.9-1.937,9.508-3.946,13.636-5.9l3.005-1.453a19.289,19.289,0,0,1,2.956-1.139,26.846,26.846,0,0,1,5.575-1.025,25.082,25.082,0,0,1,4.676.038,24.576,24.576,0,0,1,3.468.654c.939.242,1.655.472,2.136.636l.545.2a.986.986,0,0,1,.182.079" transform="translate(-847.876 -457.308)" fill="#5063a3"/>
          <path id="Path_1436" data-name="Path 1436" d="M1034.459,463.792c-.01.048-.839-.1-2.189-.249a33.016,33.016,0,0,0-10.548.543c-1.329.283-2.139.518-2.152.472a2.3,2.3,0,0,1,.553-.222,11.735,11.735,0,0,1,1.6-.708,25.57,25.57,0,0,1,10.547-.559,10.7,10.7,0,0,1,1.618.559,2.291,2.291,0,0,1,.572.164" transform="translate(-886.949 -455.22)" fill="#5063a3"/>
          <path id="Path_1437" data-name="Path 1437" d="M854.5,473.3c-.033.042-.8-.55-2.119-1.369a28.136,28.136,0,0,0-11.354-4.01c-1.543-.2-2.508-.21-2.508-.263,0-.021.745-.033,1.182-.035a14.058,14.058,0,0,1,1.841,0,18.88,18.88,0,0,1,5.38.969A21.606,21.606,0,0,1,852,471.18q1.031.782,1.981,1.663a2.986,2.986,0,0,1,.507.455" transform="translate(-813.033 -457.192)" fill="#5063a3"/>
          <path id="Path_1438" data-name="Path 1438" d="M888.926,541.046" transform="translate(-833.613 -487.18)" fill="#60658d"/>
          <path id="Path_1438-2" data-name="Path 1438" d="M921.334,497.775l-.268-.846c-3.382-1.389-7.815-2.647-11.432-4.133-23.279-9.585-42.125-18.555-56.361-24.413l-.02-.009-.015-.015c-2.379-2.518-4.567-4.737-6.619-6.528a44.768,44.768,0,0,0-5.549-4.18,40.887,40.887,0,0,0-3.807-2.124l-1.022-.476c-.229-.109-.344-.172-.344-.172s.121.045.355.145l1.035.452a37.786,37.786,0,0,1,3.841,2.082,43.963,43.963,0,0,1,5.6,4.155c2.068,1.784,4.271,4,6.66,6.509l-.034-.024,58.475,23.964,10.563,4.337.131.054-.048.133" transform="translate(-811.964 -452.002)" fill="#5063a3"/>
          <path id="Path_1438-3" data-name="Path 1438" d="M890.711,554.2" transform="translate(-834.342 -492.551)" fill="#60658d"/>
        </g>
        <g id="Group_4222" data-name="Group 4222" transform="translate(7.806)">
          <g id="Group_4218" data-name="Group 4218" transform="translate(50.353)">
            <g id="Group_4217" data-name="Group 4217">
              <path id="Path_2446" data-name="Path 2446" d="M902.894,260.718s-8.475-4.785-2.627-12.858c0,0-2.871-22.01,13.686-12.035,3.031,1.826,3.647,5.815,12.87,7.757,9.138,1.923,4.762,10.431,2.576,13.789a46.8,46.8,0,0,0-3.017,5.265l-3.4,7.1Z" transform="translate(-895.561 -232.773)" fill="#4f1c1a"/>
              <path id="Path_2447" data-name="Path 2447" d="M902.894,260.718s-8.475-4.785-2.627-12.858c0,0-2.871-22.01,13.686-12.035,3.031,1.826,3.647,5.815,12.87,7.757,9.138,1.923,4.762,10.431,2.576,13.789a46.8,46.8,0,0,0-3.017,5.265l-3.4,7.1Z" transform="translate(-895.561 -232.773)" fill="#4f1c1a"/>
              <path id="Path_2448" data-name="Path 2448" d="M914.7,286.711l-.186,5.563h0c3.473,4.339,8.118,5.869,11.654-.088l.4-.52-.913-26.033-19.383-1.058v13.533a8.507,8.507,0,0,0,6.4,8.287,14.742,14.742,0,0,0,8.32-.741" transform="translate(-898.855 -245.57)" fill="#fac9a7"/>
              <path id="Path_2449" data-name="Path 2449" d="M934.06,276.677a2.922,2.922,0,0,1,3.1-.994,3.063,3.063,0,0,1,2.093,2.514,3.22,3.22,0,0,1-1.384,2.985,3.393,3.393,0,0,1-3.3.22" transform="translate(-910.198 -250.058)" fill="#fac9a7" stroke="#e2b08f" stroke-miterlimit="10" stroke-width="1"/>
              <path id="Path_2450" data-name="Path 2450" d="M902.419,255.973c.75,2.215,1.171,4.259,3.115,5.559a8.473,8.473,0,0,0,3.951.958c2.443.191,4.9-.283,7.345-.172a15.47,15.47,0,0,1,8.376,2.951c.373.272.853.575,1.258.353.358-.2.411-.68.421-1.088a5.285,5.285,0,0,0-2.642-5.827l-4.594-3.292" transform="translate(-897.28 -241.83)" fill="#4f1c1a"/>
              <path id="Path_2451" data-name="Path 2451" d="M902.068,246.01a18.873,18.873,0,0,0-.006,6.007,8.17,8.17,0,0,0,2.75,5.127,9.555,9.555,0,0,0,6.15,1.679c2.164-.03,4.323-.394,6.484-.266a14.445,14.445,0,0,1,7.24,2.477" transform="translate(-897.037 -237.991)" fill="none" stroke="#451c1a" stroke-miterlimit="10" stroke-width="1"/>
              <path id="Path_2452" data-name="Path 2452" d="M896.7,240.992a14.038,14.038,0,0,0,1.633,10.406,8.242,8.242,0,0,1-4.593-5.452" transform="translate(-893.735 -235.942)" fill="none" stroke="#451c1a" stroke-miterlimit="10" stroke-width="1"/>
              <path id="Path_2453" data-name="Path 2453" d="M917.764,232.458a15.443,15.443,0,0,1,9.052,5.793" transform="translate(-903.545 -232.458)" fill="none" stroke="#451c1a" stroke-miterlimit="10" stroke-width="1"/>
              <path id="Path_2454" data-name="Path 2454" d="M950.771,250.372a6.271,6.271,0,0,1,3.692,9.306" transform="translate(-917.02 -239.771)" fill="none" stroke="#451c1a" stroke-miterlimit="10" stroke-width="1"/>
            </g>
            <path id="Path_2455" data-name="Path 2455" d="M926.989,299.78s-2.642,4.011-6.509,3.679l.046-2.385A15.266,15.266,0,0,0,926.989,299.78Z" transform="translate(-904.654 -259.943)" fill="#e2b08f"/>
          </g>
          <path id="Path_2456" data-name="Path 2456" d="M911.509,309.685s11.573,5.418,15.026,10.522c14.557,21.52,25.21,53.345,28.651,79.1-26.43,16-52.511,19.931-85.772-.588,1.048-23.545,1.175-41.494,1.462-63.4.032-2.434.094-4.984,1.285-7.107a14.737,14.737,0,0,1,4.572-4.413c6.061-4.345,16.409-8.981,22.744-13.5,2.764,2.428,3.214,3.116,6.716,3.116,2.241,0,5.316-3.73,5.316-3.73" transform="translate(-833.453 -263.986)" fill="#fff"/>
          <path id="Path_2457" data-name="Path 2457" d="M847.058,342a224.709,224.709,0,0,1-17.948,28.9c-3.094,4.2-6.434,8.366-10.818,11.2s-10.024,4.177-14.912,2.347c-5.586-2.091-9.139-8.063-9.433-14.02s2.241-11.783,5.894-16.5,33.76-31.386,38.482-35.03c11.767-8.738,21.74-8.312,21.625-8.195" transform="translate(-793.924 -264.404)" fill="#fff"/>
          <path id="Path_2458" data-name="Path 2458" d="M979.871,383.218l3.122,34.043,6.922-1.873Z" transform="translate(-878.547 -294.007)" fill="#edebeb"/>
          <g id="Group_4219" data-name="Group 4219" transform="translate(2.333 30.135)">
            <path id="Path_2459" data-name="Path 2459" d="M818.026,392.317c-.4,3.256,3.484,6.918,2.364,10a14.667,14.667,0,0,1-5.837,7.69,8.925,8.925,0,0,1-9.325.178c-2.469-1.631-3.709-4.6-4.317-7.5-1.66-7.906,2.413-7.342,7.929-9.716" transform="translate(-800.536 -329.162)" fill="#edebeb"/>
            <path id="Path_2460" data-name="Path 2460" d="M863.2,283.383" transform="translate(-833.246 -283.383)" fill="#d6a11a"/>
          </g>
          <g id="Group_4226" data-name="Group 4226" transform="translate(19.092 93.329)">
            <path id="Path_2461" data-name="Path 2461" d="M830.365,390.176a12.343,12.343,0,0,1,7.741,2.871" transform="translate(-830.365 -390.176)" fill="none" stroke="#edebeb" stroke-miterlimit="10" stroke-width="1"/>
            <path id="Path_2462" data-name="Path 2462" d="M830.545,390.8a14.435,14.435,0,0,1,4.584,8.531" transform="translate(-830.438 -390.429)" fill="none" stroke="#edebeb" stroke-miterlimit="10" stroke-width="1"/>
          </g>
          <g id="Group_4220" data-name="Group 4220" transform="translate(2.332 36.16)">
            <path id="Path_2463" data-name="Path 2463" d="M802.444,286.4a1,1,0,0,1,.705-1,1.479,1.479,0,0,1,1.4.333,4.375,4.375,0,0,1,.9,1.195c.487.83.974,1.661,1.442,2.525a4.916,4.916,0,0,0-1.044,1.568,13.65,13.65,0,0,1-2.993-3.526,2.508,2.508,0,0,1-.307-.679A1.939,1.939,0,0,1,802.444,286.4Z" transform="translate(-799.329 -279.107)" fill="#fac9a7"/>
            <path id="Path_2464" data-name="Path 2464" d="M806.024,284.381a1,1,0,0,1,.705-1,1.479,1.479,0,0,1,1.4.332,4.36,4.36,0,0,1,.9,1.195c.488.83.975,1.661,1.442,2.525A4.917,4.917,0,0,0,809.427,289a13.653,13.653,0,0,1-2.994-3.526,2.514,2.514,0,0,1-.307-.68A1.931,1.931,0,0,1,806.024,284.381Z" transform="translate(-801.11 -278.101)" fill="#fac9a7"/>
            <path id="Path_2465" data-name="Path 2465" d="M807.632,286.933c-.127-.215-1.211-1.624-1.269-1.867a1.919,1.919,0,0,1-.1-.412,1,1,0,0,1,.705-1,1.478,1.478,0,0,1,1.4.332" transform="translate(-801.228 -278.237)" fill="none" stroke="#edb993" stroke-miterlimit="10" stroke-width="1"/>
            <path id="Path_2466" data-name="Path 2466" d="M806.341,285.927c1.3.682,1.24,2.528,1.072,3.986a8.844,8.844,0,0,1-1.037,3.84,11.9,11.9,0,0,0-1.741,4.013,11.565,11.565,0,0,0,.472,4.483q4.056,16.855,8.111,33.71a33.4,33.4,0,0,1,1.2,7.418,11.229,11.229,0,0,1-2.115,7.079,6.831,6.831,0,0,1-6.634,2.634c-2.207-.505-3.894-2.3-5.107-4.21-3.315-5.219-4.045-11.643-4.247-17.822a129.787,129.787,0,0,1,1.661-25.35c.93-5.637,2.208-11.576.286-16.492a3.6,3.6,0,0,1-.1-1.068,1.219,1.219,0,0,1,.5-.913,1.234,1.234,0,0,1,1.463.261,3.508,3.508,0,0,1,.756,1.4,3.8,3.8,0,0,0,.832,1.353" transform="translate(-796.249 -279.401)" fill="#fac9a7"/>
            <path id="Path_2467" data-name="Path 2467" d="M809.267,278.654a23.678,23.678,0,0,1-.914-5.187.559.559,0,0,1,.2-.475c.193-.137.514.036.67.213a9.029,9.029,0,0,1,1.522,3.422c.373,1.2.562,2.16,1.62,2.842l0,.055s-.011-.016-.034,0a2.248,2.248,0,0,1-1.045,1.446.641.641,0,0,1-.313.108.609.609,0,0,1-.294-.093,1.591,1.591,0,0,1-.477-.41,3.2,3.2,0,0,1-.352-.632A9.4,9.4,0,0,1,809.267,278.654Z" transform="translate(-802.269 -272.943)" fill="#fac9a7"/>
            <path id="Path_2468" data-name="Path 2468" d="M804.052,288.969c-.127-.215-1.211-1.624-1.269-1.867a1.922,1.922,0,0,1-.1-.412,1,1,0,0,1,.705-1,1.036,1.036,0,0,1,1.16.248" transform="translate(-799.447 -279.242)" fill="none" stroke="#edb993" stroke-miterlimit="10" stroke-width="1"/>
          </g>
          <path id="Path_2469" data-name="Path 2469" d="M887.039,374.114l-16.423,34.939.19-8.506Z" transform="translate(-833.889 -296.47)" fill="#edebeb"/>
          <path id="Path_2470" data-name="Path 2470" d="M983.024,436.748l-16.555,9.5L967.7,462.2s21.5-6.577,28.624-16.018" transform="translate(-873.076 -315.861)" fill="#fac9a7"/>
          <path id="Path_2471" data-name="Path 2471" d="M940.551,309.685c10.444,3.016,21.187,7.873,28.636,15.789a76.956,76.956,0,0,1,16.627,28.331c4.376,12.5,6.739,26.8,1.6,39.06a2.69,2.69,0,0,1-3,1.589c-5.778-1.15-11.353-5.136-14.987-12.584l-5.565-29.077" transform="translate(-862.495 -263.986)" fill="#fff"/>
          <g id="Group_4221" data-name="Group 4221" transform="translate(42.769 112.252)">
            <path id="Path_2472" data-name="Path 2472" d="M887.309,459.231l-6.39-35.248h70.7l-6.39,35.454Z" transform="translate(-880.919 -422.901)" fill="#4f5055"/>
            <path id="Path_2473" data-name="Path 2473" d="M880.919,423.237l1.7-.979,67.507-.1,1.628,1.082Z" transform="translate(-880.919 -422.155)" fill="#030303"/>
            <circle id="Ellipse_370" data-name="Ellipse 370" cx="2.061" cy="2.061" r="2.061" transform="translate(33.352 17.204)" fill="none"/>
            <circle id="Ellipse_371" data-name="Ellipse 371" cx="2.206" cy="2.206" r="2.206" transform="translate(33.352 17.204)" fill="#fef5f4"/>
          </g>
        </g>
        <path id="Path_2474" data-name="Path 2474" d="M920.218,310.3s6.01,6.525,12.032-.614c0,0-3,3.948-6.075,3.9A7.873,7.873,0,0,1,920.218,310.3Z" transform="translate(-846.388 -264.214)" fill="#e2b08f"/>
        <path id="Path_2489" data-name="Path 2489" d="M1004.707,456.335l.227,1.555a51.845,51.845,0,0,1-13.211,7.721l.172-.972A48.937,48.937,0,0,0,1004.707,456.335Z" transform="translate(-875.58 -324.534)" fill="#e0dddc"/>
        <path id="Path_2491" data-name="Path 2491" d="M940.715,309.7" transform="translate(-854.756 -264.217)" fill="none" stroke="#fcfcfc" stroke-miterlimit="10" stroke-width="1"/>
        <path id="Path_2492" data-name="Path 2492" d="M920.218,310.723" transform="translate(-846.388 -264.637)" fill="none" stroke="#fcfcfc" stroke-miterlimit="10" stroke-width="1"/>
        <path id="Path_2493" data-name="Path 2493" d="M921.98,524.182l-12.362,39.167-73.2-41.977" transform="translate(-812.177 -351.495)" fill="none" stroke="#5063a3" stroke-miterlimit="10" stroke-width="1"/>
      </g>
      <g id="Group_4266" data-name="Group 4266" transform="translate(19.496 142.501)">
        <path id="Path_2478" data-name="Path 2478" d="M633.412,506.091q1.62,5.86,2.913,11.8" transform="translate(-621.463 -472.736)" fill="none" stroke="#395e92" stroke-linecap="round" stroke-miterlimit="10" stroke-width="1"/>
        <path id="Path_2475" data-name="Path 2475" d="M629.654,485.075a10.391,10.391,0,0,1-4.427-5.578,20.046,20.046,0,0,1-.978-7.165,37.972,37.972,0,0,1,5.077-18.256,3.556,3.556,0,0,1,2.123-1.973,2.471,2.471,0,0,1,2.369,1.147,6.6,6.6,0,0,1,.9,2.614,48.187,48.187,0,0,1-3.279,27.866,3.2,3.2,0,0,1-.916,1.357C630.078,485.415,629.377,485.463,629.654,485.075Z" transform="translate(-617.777 -451.018)" fill="#6a9dd8"/>
        <path id="Path_2575" data-name="Path 2575" d="M2199.191,4265.3a7.346,7.346,0,0,1-.093-.858,5.151,5.151,0,0,1,0-.913s-16.429,15.185-6.7,24.431c1.313,1.249,1.155-.788,2.319-.9C2200.145,4286.641,2199.191,4265.3,2199.191,4265.3Z" transform="translate(-2181.575 -4254.538)" fill="#1d4f84"/>
        <path id="Path_2476" data-name="Path 2476" d="M631.276,484.065c-2.42-1.51-3.173-4.728-2.986-7.573.386-5.848,3.8-11.161,8.166-15.071s9.648-6.62,14.866-9.286l4.309-2.2c-.472,6.883-1.472,13.853-4.392,20.1s-8,11.757-14.559,13.885C634.866,484.512,632.693,484.95,631.276,484.065Z" transform="translate(-619.75 -449.934)" fill="#3884d6"/>
        <path id="Path_2477" data-name="Path 2477" d="M633.412,483.847c6.089-13.087,10.571-19.661,23.443-32.668" transform="translate(-621.463 -450.492)" fill="none" stroke="#1a5db1" stroke-linecap="round" stroke-miterlimit="10" stroke-width="0.5"/>
        <path id="Path_2479" data-name="Path 2479" d="M615.477,508.228l12.685,6.445" transform="translate(-614.252 -473.595)" fill="none" stroke="#395e92" stroke-linecap="round" stroke-miterlimit="10" stroke-width="1"/>
        <path id="Path_2480" data-name="Path 2480" d="M616.727,545.961l-3.3-20.346h28.978l-3.981,20.346Z" transform="translate(-613.429 -477.81)" fill="#ff9b00"/>
        <path id="Path_2481" data-name="Path 2481" d="M633.712,495.125a23.622,23.622,0,0,1-3.494-8.365" transform="translate(-620.178 -464.964)" fill="none" stroke="#1a5db1" stroke-linecap="round" stroke-miterlimit="10" stroke-width="0.5"/>
        <path id="Path_2482" data-name="Path 2482" d="M639.124,484.354a38.178,38.178,0,0,1-2.373-9.365" transform="translate(-622.677 -459.846)" fill="none" stroke="#1a5db1" stroke-linecap="round" stroke-miterlimit="10" stroke-width="0.5"/>
        <path id="Path_2483" data-name="Path 2483" d="M647.326,474.336a24.312,24.312,0,0,1-.448-8.738" transform="translate(-627.392 -455.771)" fill="none" stroke="#1a5db1" stroke-linecap="round" stroke-miterlimit="10" stroke-width="0.5"/>
        <path id="Path_2484" data-name="Path 2484" d="M655.378,465.8a13.583,13.583,0,0,1-.133-5.613" transform="translate(-630.745 -453.562)" fill="none" stroke="#1a5db1" stroke-linecap="round" stroke-miterlimit="10" stroke-width="0.5"/>
        <path id="Path_2485" data-name="Path 2485" d="M638.585,494.72a29.259,29.259,0,0,0,12.17-1.909" transform="translate(-623.542 -467.322)" fill="none" stroke="#1a5db1" stroke-linecap="round" stroke-miterlimit="10" stroke-width="0.5"/>
        <path id="Path_2486" data-name="Path 2486" d="M645.283,483.447a22.2,22.2,0,0,0,13.1-2.888" transform="translate(-626.833 -462.416)" fill="none" stroke="#1a5db1" stroke-linecap="round" stroke-miterlimit="10" stroke-width="0.5"/>
        <path id="Path_2487" data-name="Path 2487" d="M652.858,473.288a21.223,21.223,0,0,0,10.137-1.085" transform="translate(-629.642 -458.991)" fill="none" stroke="#1a5db1" stroke-linecap="round" stroke-miterlimit="10" stroke-width="0.5"/>
        <path id="Path_2488" data-name="Path 2488" d="M661.914,462.257a15.553,15.553,0,0,0,6.752-2.295" transform="translate(-633.98 -453.592)" fill="none" stroke="#1a5db1" stroke-linecap="round" stroke-miterlimit="10" stroke-width="0.5"/>
        <path id="Path_2495" data-name="Path 2495" d="M1730.013,2851.157h-5.061l-4.53,20.346h5.6Z" transform="translate(-1701.035 -2803.352)" fill="#fe8808"/>
        <path id="Path_2496" data-name="Path 2496" d="M1705.531,2859.649h17.534" transform="translate(-1695.048 -2806.767)" fill="none" stroke="#e7b474" stroke-width="1"/>
      </g>
    </g>
    <g id="Group_6772" data-name="Group 6772" transform="translate(801.628 149.752)">
      <path id="Path_4186" data-name="Path 4186" d="M1.91,78.281,36.674,47.763,68.615,79.2,37.227,120.749Z" transform="translate(-0.725 -47.468)" fill="#b6c3f0"/>
      <g id="Group_6771" data-name="Group 6771" transform="translate(10.877)">
        <path id="Path_4187" data-name="Path 4187" d="M67.793,112.7l-.3-59.486a5.19,5.19,0,0,0-5.15-5.163l-39.5-.293a5.189,5.189,0,0,0-5.228,5.16l-.326,58.769a5.189,5.189,0,0,0,5.058,5.216l40.131,1.011a5.19,5.19,0,0,0,5.32-5.214" transform="translate(-17.284 -47.759)" fill="#fff"/>
        <g id="Group_6770" data-name="Group 6770" transform="translate(14.888 13.027)">
          <path id="Path_4202" data-name="Path 4202" d="M61.058,86.411A9.916,9.916,0,1,1,51.141,76.5a9.917,9.917,0,0,1,9.916,9.916" transform="translate(-41.225 -76.495)" fill="#7cd9a4"/>
          <path id="Path_4203" data-name="Path 4203" d="M49.093,90.411l2.828,3.164,7.243-5.647" transform="translate(-44.212 -80.836)" fill="none" stroke="#fff" stroke-linecap="round" stroke-miterlimit="10" stroke-width="3"/>
        </g>
      </g>
      <path id="Path_4188" data-name="Path 4188" d="M93.17,98.44,66.588,123.577,93.031,148.1a5.619,5.619,0,0,0,.839-3.434l.4-42.167a8.272,8.272,0,0,0-.249-2.195,5.41,5.41,0,0,0-.851-1.861" transform="translate(-25.28 -66.708)" fill="#c2cffc"/>
      <path id="Path_4189" data-name="Path 4189" d="M1.354,159.849A4.382,4.382,0,0,0,6.1,162.443H62.918s4.256.305,5.347-1.672L40.616,134.828s-5.6-7.246-12.581.76Z" transform="translate(-0.514 -79.381)" fill="#cbd6fc"/>
      <path id="Path_4190" data-name="Path 4190" d="M1.185,96.958l26.336,25.395L.84,146.614a5.62,5.62,0,0,1-.8-3.442L.046,101a8.256,8.256,0,0,1,.27-2.192,5.409,5.409,0,0,1,.868-1.853" transform="translate(0 -66.145)" fill="#c2cffc"/>
    </g>
    <g id="Group_6774" data-name="Group 6774" transform="translate(770.248 105.923)">
      <path id="Union_182" data-name="Union 182" d="M107.694,29.617a10.493,10.493,0,0,0,.907-2.843H4.456A4.456,4.456,0,0,1,0,22.318V4.456A4.456,4.456,0,0,1,4.456,0H146.464A3.937,3.937,0,0,1,150.4,3.937v18.9a3.937,3.937,0,0,1-3.937,3.937h-25.8c-5.806,5.956-14.967,6.7-15.58,6.768l-.03,0C104.541,33.543,106.686,31.649,107.694,29.617Z" fill="#d9ecf7"/>
      <g id="Group_6773" data-name="Group 6773" transform="translate(12.476 8.911)">
        <g id="Group_4229" data-name="Group 4229">
          <path id="Path_2497" data-name="Path 2497" d="M2012.561,3741.334v-4.077H2011.3l.1,4.077-3.681-1.409-.394,1.236,3.763,1.111-2.548,3.4,1.068.739,2.366-3.455,2.437,3.455,1.047-.739-2.582-3.4,3.776-1.111-.4-1.236Z" transform="translate(-1948.508 -3737.258)" fill="#9fb9c9"/>
          <path id="Path_2498" data-name="Path 2498" d="M2012.561,3741.334v-4.077H2011.3l.1,4.077-3.681-1.409-.394,1.236,3.763,1.111-2.548,3.4,1.068.739,2.366-3.455,2.437,3.455,1.047-.739-2.582-3.4,3.776-1.111-.4-1.236Z" transform="translate(-1928.903 -3737.258)" fill="#9fb9c9"/>
          <path id="Path_2502" data-name="Path 2502" d="M2012.561,3741.334v-4.077H2011.3l.1,4.077-3.681-1.409-.394,1.236,3.763,1.111-2.548,3.4,1.068.739,2.366-3.455,2.437,3.455,1.047-.739-2.582-3.4,3.776-1.111-.4-1.236Z" transform="translate(-1909.298 -3737.258)" fill="#9fb9c9"/>
          <path id="Path_2503" data-name="Path 2503" d="M2012.561,3741.334v-4.077H2011.3l.1,4.077-3.681-1.409-.394,1.236,3.763,1.111-2.548,3.4,1.068.739,2.366-3.455,2.437,3.455,1.047-.739-2.582-3.4,3.776-1.111-.4-1.236Z" transform="translate(-1889.693 -3737.258)" fill="#9fb9c9"/>
          <path id="Path_2499" data-name="Path 2499" d="M2012.561,3741.334v-4.077H2011.3l.1,4.077-3.681-1.409-.394,1.236,3.763,1.111-2.548,3.4,1.068.739,2.366-3.455,2.437,3.455,1.047-.739-2.582-3.4,3.776-1.111-.4-1.236Z" transform="translate(-1968.114 -3737.258)" fill="#9fb9c9"/>
          <path id="Path_2500" data-name="Path 2500" d="M2012.561,3741.334v-4.077H2011.3l.1,4.077-3.681-1.409-.394,1.236,3.763,1.111-2.548,3.4,1.068.739,2.366-3.455,2.437,3.455,1.047-.739-2.582-3.4,3.776-1.111-.4-1.236Z" transform="translate(-1987.719 -3737.258)" fill="#9fb9c9"/>
          <path id="Path_2501" data-name="Path 2501" d="M2012.561,3741.334v-4.077H2011.3l.1,4.077-3.681-1.409-.394,1.236,3.763,1.111-2.548,3.4,1.068.739,2.366-3.455,2.437,3.455,1.047-.739-2.582-3.4,3.776-1.111-.4-1.236Z" transform="translate(-2007.324 -3737.258)" fill="#9fb9c9"/>
        </g>
      </g>
    </g>
  </g>
</svg>
