<svg xmlns="http://www.w3.org/2000/svg" width="350.001" height="350" viewBox="0 0 350.001 350">
  <g id="Group_8206" data-name="Group 8206" transform="translate(-923 -232)">
    <rect id="Rectangle_2798" data-name="Rectangle 2798" width="350" height="350" transform="translate(923 232)" fill="#fff" opacity="0"/>
    <g id="Group_7117" data-name="Group 7117" transform="translate(84.307 189.185)">
      <path id="Path_4738" data-name="Path 4738" d="M160.317,24.241a4.424,4.424,0,0,1-4.424,4.424H63.767a4.424,4.424,0,1,1,0-8.847h2.805A9.526,9.526,0,0,1,81.686,12.5a18.564,18.564,0,0,1,33.873-2.769,12.289,12.289,0,0,1,18.235,7.24,9.527,9.527,0,0,1,16.99,2.845h5.11a4.423,4.423,0,0,1,4.424,4.424" transform="translate(787.597 216.433)" fill="#ebf4ff"/>
      <path id="Path_4739" data-name="Path 4739" d="M1613.965,148.232a2.365,2.365,0,0,0,2.365,2.365h49.259a2.365,2.365,0,1,0,0-4.73h-1.5a5.093,5.093,0,0,0-8.082-3.912,9.926,9.926,0,0,0-18.111-1.481,6.571,6.571,0,0,0-9.75,3.871,5.094,5.094,0,0,0-9.084,1.521h-2.732a2.365,2.365,0,0,0-2.365,2.365" transform="translate(-479.261 -32.342)" fill="#ebf4ff"/>
      <g id="Group_7114" data-name="Group 7114" transform="translate(838.693 254.742)">
        <path id="Path_4712" data-name="Path 4712" d="M201.944,426.949c-2.574-.42-5.187-.682-7.712-1.3a67.512,67.512,0,0,1-8.121-2.593,52.857,52.857,0,0,1-6.566-3.124,52.3,52.3,0,0,1-10.7-7.964,53.962,53.962,0,0,1-7.611-9.041,61.968,61.968,0,0,1-4.371-7.785,70.911,70.911,0,0,1-3.535-10.158q-1.9-6.249-3.758-12.513a2.72,2.72,0,0,1,.77-2.986c1.8-1.566,3.667-3.056,5.516-4.566,2.01-1.641,4.039-3.259,6.044-4.906,2.25-1.848,4.477-3.725,6.725-5.575q3.158-2.6,6.342-5.165a27.5,27.5,0,0,1,2.946-2.219,3.5,3.5,0,0,1,2.006-.45c6.016.569,12.025,1.215,18.038,1.821,5.256.529,10.515,1.032,15.773,1.55,2.119.209,2.96.811,3.649,3.033,1.459,4.705,2.9,9.417,4.249,14.155a66.94,66.94,0,0,1,1.776,7.616,54.881,54.881,0,0,1,.176,16.438,56.728,56.728,0,0,1-2.536,10.487,52.167,52.167,0,0,1-4.624,9.877,56.546,56.546,0,0,1-11.282,13.447c-.585.515-1.194,1-1.792,1.5l-1.408.423M156.5,372.833c1.373,4.566,2.714,9.135,4.13,13.68a38.424,38.424,0,0,0,2.128,5.836,81.238,81.238,0,0,0,4.477,7.717,36.2,36.2,0,0,0,6.916,7.88,60.938,60.938,0,0,0,7.335,5.508,59.015,59.015,0,0,0,7.9,3.893,44.48,44.48,0,0,0,10.168,2.752,2.166,2.166,0,0,0,2.152-.753c.653-.729,1.394-1.379,2.089-2.07a46.754,46.754,0,0,0,8.163-11.09,45.677,45.677,0,0,0,2.639-5.88,49.07,49.07,0,0,0,2.964-15.073,50.385,50.385,0,0,0-1.979-15.495c-1.191-4.3-2.553-8.552-3.833-12.828a.7.7,0,0,0-.744-.619c-4.144-.371-8.282-.81-12.421-1.237-5.745-.593-11.489-1.2-17.236-1.772a1.949,1.949,0,0,0-1.287.286c-2.038,1.606-4.024,3.277-6.031,4.922q-3.07,2.516-6.147,5.025-3.408,2.793-6.811,5.592c-1.5,1.23-3.011,2.452-4.575,3.725" transform="translate(-149.425 -346.589)" fill="#f0f0f0"/>
        <path id="Path_4713" data-name="Path 4713" d="M243.091,447.965a2.825,2.825,0,0,1,2.616.273c2.5,1.388,5.033,2.7,7.534,4.082.544.3.821.289,1.137-.3,2.988-5.618,6.006-11.221,9.009-16.831a3.027,3.027,0,0,1,3.234-1.655,3.238,3.238,0,0,1,2.779,2.183,3.279,3.279,0,0,1-.218,2.4q-5.555,10.264-11.06,20.555a3.17,3.17,0,0,1-4.306,1.308q-5.655-3.086-11.343-6.112a3.156,3.156,0,0,1-1.781-2.976,2.776,2.776,0,0,1,2.4-2.917" transform="translate(-215.678 -409.683)" fill="#f0f0f0"/>
      </g>
      <path id="Path_4740" data-name="Path 4740" d="M0,13.224a8.165,8.165,0,0,1,.447-.717,2.269,2.269,0,0,1,1.924-.851H49.6c-.718-.73-1.369-1.408-2.037-2.067C45.7,7.762,43.836,5.943,41.982,4.112a3.78,3.78,0,0,1-.574-.732,2.275,2.275,0,0,1,.458-2.86,2.21,2.21,0,0,1,3.02.154q5.976,5.89,11.874,11.86a1.98,1.98,0,0,1-.01,2.73q-5.914,5.954-11.867,11.867a2.133,2.133,0,0,1-2.469.468,2.344,2.344,0,0,1-1.341-2.18,2.632,2.632,0,0,1,.869-1.707c2.534-2.494,5.073-4.984,7.717-7.58h-.692q-23.329,0-46.658.006a2.176,2.176,0,0,1-2.13-1.328A1.624,1.624,0,0,0,0,14.567Z" transform="translate(1002.309 247.62) rotate(-45)" fill="#e9e4f9"/>
      <g id="Group_7115" data-name="Group 7115" transform="translate(897.426 228.099)">
        <g id="Group_7083" data-name="Group 7083">
          <path id="Path_4714" data-name="Path 4714" d="M449.348,467.187a58.858,58.858,0,1,1-58.858-58.858,58.858,58.858,0,0,1,58.858,58.858" transform="translate(-331.632 -408.329)" fill="#e0d7f2"/>
          <path id="Union_791" data-name="Union 791" d="M0,60.586a41.779,41.779,0,0,1,66.165,0A41.778,41.778,0,0,1,0,60.586ZM13.351,19.732A19.732,19.732,0,1,1,33.083,39.465,19.732,19.732,0,0,1,13.351,19.732Z" transform="translate(25.775 20.433)" fill="#fff" stroke="rgba(0,0,0,0)" stroke-miterlimit="10" stroke-width="1"/>
        </g>
        <g id="Group_7084" data-name="Group 7084" transform="translate(84.258 76.98)">
          <path id="Path_4717" data-name="Path 4717" d="M794.363,815.536a18.8,18.8,0,1,1-18.8-18.8,18.8,18.8,0,0,1,18.8,18.8" transform="translate(-756.763 -796.736)" fill="#ffcf50"/>
          <path id="Union_792" data-name="Union 792" d="M13.206,27.493a2.424,2.424,0,0,1-2.424-2.424V16.711H2.424A2.424,2.424,0,0,1,0,14.287V13.2a2.424,2.424,0,0,1,2.424-2.424h8.358V2.424A2.423,2.423,0,0,1,13.206,0h1.082a2.424,2.424,0,0,1,2.424,2.424v8.357h8.357A2.424,2.424,0,0,1,27.493,13.2v1.082a2.424,2.424,0,0,1-2.424,2.424H16.712v8.358a2.424,2.424,0,0,1-2.424,2.424Z" transform="translate(5.053 5.054)" fill="#fff" stroke="rgba(0,0,0,0)" stroke-miterlimit="10" stroke-width="1"/>
        </g>
      </g>
      <path id="Path_4741" data-name="Path 4741" d="M1388.429,211.963a3.638,3.638,0,0,1,2.7,1.17q1.842,1.505,3.707,2.982a.6.6,0,0,0,.869-.116c.63-.685,1.257-1.372,1.873-2.069.742-.839,1.473-1.689,2.208-2.535.988-1.136,1.953-2.293,2.971-3.4.587-.64,1.063-1.429,1.989-1.685a2.876,2.876,0,0,1,3.643,1.876,3.145,3.145,0,0,1-.953,3.159c-.955,1.045-1.867,2.129-2.8,3.193-.75.856-1.5,1.707-2.253,2.563-.913,1.044-1.815,2.1-2.733,3.135-.7.795-1.375,1.626-2.151,2.344a2.751,2.751,0,0,1-3.688.03c-2.346-1.9-4.727-3.767-7.072-5.674a2.839,2.839,0,0,1,1.114-4.965,2.417,2.417,0,0,1,.58-.007" transform="translate(-406.2 -60.677)" fill="#f0f0f0"/>
      <path id="Path_4742" data-name="Path 4742" d="M2206.722,620.531c0,2.4,0,4.741,0,7.087a1.985,1.985,0,0,1-1.351,2.019,1.8,1.8,0,0,1-2.337-1.719c.017-2.44.006-4.881.006-7.384h-.5q-3.492,0-6.983-.005a1.8,1.8,0,0,1-1.682-1.6,1.717,1.717,0,0,1,1.5-2.007c.92-.049,1.843-.061,2.765-.067,1.616-.01,3.232,0,4.872,0,.01-.113.024-.2.024-.289,0-2.395.007-4.789,0-7.183a1.71,1.71,0,0,1,1.63-1.647c1.05.026,1.643.367,1.9,1.194a3.285,3.285,0,0,1,.15.933c.013,2.163.007,4.325.007,6.488v.5h.473c2.174,0,4.347,0,6.521,0a1.935,1.935,0,0,1,1.882.932,1.686,1.686,0,0,1,.02,1.779,1.765,1.765,0,0,1-1.533.965c-2.434.006-4.869,0-7.363,0" transform="translate(-1054.253 -384.553)" fill="#f0f0f0"/>
      <g id="Group_7116" data-name="Group 7116" transform="translate(1015.47 88.815)">
        <g id="Group_7108" data-name="Group 7108" transform="translate(57.994 98.765)">
          <path id="Path_4722" data-name="Path 4722" d="M1851.7,551.318a28.852,28.852,0,1,1-28.851-28.852,28.851,28.851,0,0,1,28.851,28.852" transform="translate(-1793.993 -522.466)" fill="#ffeae3"/>
          <path id="Path_3221" data-name="Path 3221" d="M612.17,217.9v14.214h10.639l2.852-23.334Z" transform="translate(-588.766 -175.26)" fill="#bf6339"/>
          <path id="Path_3280" data-name="Path 3280" d="M622.5,200.382c-3.415,11.488-13.263,8.018-13.263,8.018-7.976-2.158-5.455-18.978-5.455-18.978l7.756-7.254,8.683-1.836,3.87,12.01Z" transform="translate(-585.835 -165.761)" fill="#ff9f73"/>
          <path id="Path_3281" data-name="Path 3281" d="M608.411,175a12.353,12.353,0,0,0-6.216,1.636c-2.374,1.4-4.784,3.945-2.977,8.2,2.688,6.329,10.717-.117,12.987-2.118a2.391,2.391,0,0,1,2.581-.411,3.008,3.008,0,0,1,1.571,2.346c.619,3.091,1.128,7.941,3.109,7.7a10.261,10.261,0,0,1,1.937-.107l1.227.083s3.324-10.863-1.822-14.115l1.821-.987s-.95-1.621-4.029-.1a3.964,3.964,0,0,0-4.229-2.645l.9,1.942A14.623,14.623,0,0,0,608.411,175" transform="translate(-584.223 -163.803)" fill="#42210b"/>
          <path id="Path_3282" data-name="Path 3282" d="M629.5,201.239s4.159-2,4.464,2.14c.243,3.3-3.9,3.593-4.89,1.262" transform="translate(-594.418 -172.58)" fill="#ff9f73"/>
          <path id="Path_3283" data-name="Path 3283" d="M631.2,203.4s2.409-.442,2.034,1.95" transform="translate(-595.127 -173.454)" fill="none" stroke="#bf6339" stroke-linecap="round" stroke-miterlimit="10" stroke-width="0.75"/>
          <path id="Intersection_13" data-name="Intersection 13" d="M0,9.184,5.127,2.7,4.6,7.753,22.455.207,22.484,0l.132.138.166-.07q.513.623,1.031,1.36C24.938,2.66,26.7,4.637,28.807,7.164A28.719,28.719,0,0,1,12.659,12.1,28.738,28.738,0,0,1,0,9.184Z" transform="translate(15.844 45.601)" fill="#3da176" stroke="rgba(0,0,0,0)" stroke-miterlimit="10" stroke-width="1"/>
          <path id="Path_3247" data-name="Path 3247" d="M622.61,222.081l-11.258,8.806-1.16-6.354-2.489,3.662-1.288,8.278,3.863-4.081,2.776,4.916,12.465-12Z" transform="translate(-586.841 -179.702)" fill="#f8f9fa"/>
        </g>
        <g id="Group_7111" data-name="Group 7111" transform="translate(62.997)">
          <g id="Group_7109" data-name="Group 7109">
            <path id="Path_4727" data-name="Path 4727" d="M1870.018,560.478a38.012,38.012,0,1,1-38.012-38.012,38.012,38.012,0,0,1,38.012,38.012" transform="translate(-1793.993 -522.466)" fill="#ffeae3"/>
            <path id="Intersection_14" data-name="Intersection 14" d="M0,8.962.077,8.9C11.976.066,22.06.5,21.943.616l0,.009,0,0c2.795,2.455,3.25,3.151,6.791,3.151,2.25,0,5.331-3.718,5.374-3.771h0A81.619,81.619,0,0,1,51.282,6.97,37.888,37.888,0,0,1,24.554,17.955,37.86,37.86,0,0,1,0,8.962Z" transform="translate(13.302 58.07)" stroke="rgba(0,0,0,0)" stroke-miterlimit="10" stroke-width="1"/>
            <g id="Group_4218" data-name="Group 4218" transform="translate(19.557 11.704)">
              <g id="Group_4217" data-name="Group 4217">
                <path id="Path_2446" data-name="Path 2446" d="M902.946,261.024s-8.569-4.839-2.657-13c0,0-2.9-22.255,13.838-12.17,3.065,1.846,3.688,5.88,13.013,7.843,9.24,1.945,4.815,10.547,2.6,13.942a47.311,47.311,0,0,0-3.051,5.324l-3.442,7.176Z" transform="translate(-895.532 -232.768)" fill="#4f1c1a"/>
                <path id="Path_2447" data-name="Path 2447" d="M902.946,261.024s-8.569-4.839-2.657-13c0,0-2.9-22.255,13.838-12.17,3.065,1.846,3.688,5.88,13.013,7.843,9.24,1.945,4.815,10.547,2.6,13.942a47.311,47.311,0,0,0-3.051,5.324l-3.442,7.176Z" transform="translate(-895.532 -232.768)" fill="#4f1c1a"/>
                <path id="Path_2448" data-name="Path 2448" d="M914.792,286.958l-.188,5.625h0c3.512,4.387,8.209,5.934,11.784-.089l.409-.525-.923-26.323-19.6-1.07v13.683a8.6,8.6,0,0,0,6.468,8.38,14.906,14.906,0,0,0,8.413-.749" transform="translate(-898.772 -245.359)" fill="#fac9a7"/>
                <path id="Path_2449" data-name="Path 2449" d="M934.06,276.689a2.954,2.954,0,0,1,3.131-1,3.1,3.1,0,0,1,2.116,2.542,3.256,3.256,0,0,1-1.4,3.018,3.431,3.431,0,0,1-3.337.223" transform="translate(-909.932 -249.774)" fill="#fac9a7" stroke="#e2b08f" stroke-miterlimit="10" stroke-width="1"/>
                <path id="Path_2450" data-name="Path 2450" d="M902.419,255.979c.758,2.24,1.184,4.306,3.15,5.621a8.568,8.568,0,0,0,3.994.969c2.47.193,4.951-.287,7.427-.174a15.641,15.641,0,0,1,8.469,2.984c.377.275.863.581,1.271.357.362-.2.416-.687.426-1.1a5.344,5.344,0,0,0-2.672-5.892l-4.646-3.329" transform="translate(-897.223 -241.679)" fill="#4f1c1a"/>
                <path id="Path_2451" data-name="Path 2451" d="M902.07,246.01a19.085,19.085,0,0,0-.007,6.074,8.261,8.261,0,0,0,2.781,5.185,9.661,9.661,0,0,0,6.219,1.7c2.188-.03,4.371-.4,6.556-.269a14.606,14.606,0,0,1,7.321,2.5" transform="translate(-896.984 -237.901)" fill="none" stroke="#451c1a" stroke-miterlimit="10" stroke-width="1"/>
                <path id="Path_2452" data-name="Path 2452" d="M896.728,240.992a14.194,14.194,0,0,0,1.651,10.522A8.334,8.334,0,0,1,893.735,246" transform="translate(-893.735 -235.886)" fill="none" stroke="#451c1a" stroke-miterlimit="10" stroke-width="1"/>
                <path id="Path_2453" data-name="Path 2453" d="M917.764,232.458a15.615,15.615,0,0,1,9.153,5.857" transform="translate(-903.387 -232.458)" fill="none" stroke="#451c1a" stroke-miterlimit="10" stroke-width="1"/>
                <path id="Path_2454" data-name="Path 2454" d="M950.771,250.372a6.341,6.341,0,0,1,3.733,9.409" transform="translate(-916.644 -239.653)" fill="none" stroke="#451c1a" stroke-miterlimit="10" stroke-width="1"/>
              </g>
              <path id="Path_2455" data-name="Path 2455" d="M927.062,299.78s-2.672,4.056-6.582,3.72l.046-2.411A15.434,15.434,0,0,0,927.062,299.78Z" transform="translate(-904.477 -259.499)" fill="#e2b08f"/>
            </g>
            <path id="Path_2474" data-name="Path 2474" d="M920.218,310.306s6.077,6.6,12.166-.621c0,0-3.029,3.992-6.143,3.948A7.961,7.961,0,0,1,920.218,310.306Z" transform="translate(-884.815 -251.622)" fill="#e2b08f"/>
            <path id="Path_2491" data-name="Path 2491" d="M940.715,309.7" transform="translate(-893.048 -251.631)" fill="none" stroke="#fcfcfc" stroke-miterlimit="10" stroke-width="1"/>
            <path id="Path_2492" data-name="Path 2492" d="M920.218,310.723" transform="translate(-884.815 -252.04)" fill="none" stroke="#fcfcfc" stroke-miterlimit="10" stroke-width="1"/>
          </g>
          <path id="Path_4732" data-name="Path 4732" d="M1661.651,815.8a3.673,3.673,0,0,0-3.6,3.187l-2.136.268a3.606,3.606,0,0,0-3.364-2.342,3.629,3.629,0,1,0,3.628,3.629,3.922,3.922,0,0,0-.083-.679l1.931-.242a3.629,3.629,0,1,0,3.624-3.821m-9.1,7.74a3,3,0,1,1,3-3,3.03,3.03,0,0,1-3,3m9.1-1.113a3,3,0,1,1,3-3,3.03,3.03,0,0,1-3,3" transform="translate(-1622.069 -780.69)" fill="#691111"/>
        </g>
        <g id="Group_7112" data-name="Group 7112" transform="translate(119.143 70.987)">
          <g id="Group_7107" data-name="Group 7107">
            <circle id="Ellipse_503" data-name="Ellipse 503" cx="24.587" cy="24.587" r="24.587" transform="translate(4.907)" fill="#ffeae3"/>
            <path id="Intersection_12" data-name="Intersection 12" d="M0,16.143l.2-.077c4.015-1.543,7.7-2.948,10.443-5.8a44.156,44.156,0,0,0,3.918-5.3A12.87,12.87,0,0,1,19.285.519a5.515,5.515,0,0,1,6.076.915c-2.371.871-3.267,3.138-3.2,5.422a29.448,29.448,0,0,0,1.4,6.651A44.087,44.087,0,0,1,23.9,34.053c-.158,0-.316,0-.475,0A24.278,24.278,0,0,1,0,16.143Z" transform="translate(6.047 15.115)" fill="#b44644"/>
            <path id="Intersection_11" data-name="Intersection 11" d="M0,3.848A30.836,30.836,0,0,1,11.022.315c.746-.092,3.485-.547,4.2.221S16.489,2.665,18.16,3.3c1.8.689,3.078.536,4.33-.624A3.659,3.659,0,0,0,23.437,0a47.456,47.456,0,0,0,4.691,1.459,24.65,24.65,0,0,1,9.9,5.326A24.516,24.516,0,0,1,20.211,14.43,24.557,24.557,0,0,1,0,3.848Z" transform="translate(9.333 34.743)" fill="#383773"/>
            <path id="Path_2813" data-name="Path 2813" d="M791.818,92.244c.138-.25.192-.115.411-.594a7.333,7.333,0,0,1,2.593-3.061s.371-.93.073-1.267a1.135,1.135,0,0,0-.613-.3,2.787,2.787,0,0,0-1.379-.033,2.663,2.663,0,0,0-1.667,1.8c-.271.822-.671,2.346.5,3.268" transform="translate(-763.604 -67.399)" fill="#b44644"/>
            <path id="Path_2811" data-name="Path 2811" d="M805.187,3.591C803.531,4.764,804,8.554,804,8.554s6.805.63,9.536-1.45a3.791,3.791,0,0,0,1.243-1.418,3.964,3.964,0,0,0,.142-2.244,4.448,4.448,0,0,0-.9-2.208A4.691,4.691,0,0,0,810.49.005a9.85,9.85,0,0,0-3.719.486,4.557,4.557,0,0,0-2.732,2.4c.555.052.662.426,1.148.7" transform="translate(-775.594 12.548)" fill="#b44644"/>
            <path id="Path_2812" data-name="Path 2812" d="M776.669,185.616a3.724,3.724,0,0,1-2.011,1.075l.184-.762Z" transform="translate(-748.655 -158.194)" fill="#e39064"/>
            <path id="Path_2816" data-name="Path 2816" d="M800.328,87.353a6.478,6.478,0,0,1,3.736-3.087,7.187,7.187,0,0,0,2.759-1.353.892.892,0,0,0,.292-.862.665.665,0,0,0-.415-.379,1.738,1.738,0,0,0-.564-.071,5.356,5.356,0,0,0-3.225.781,5.148,5.148,0,0,0-1.4,1.692,10.206,10.206,0,0,0-1.185,3.279" transform="translate(-772.083 -62.515)" fill="#b44644"/>
            <g id="Group_4409" data-name="Group 4409" transform="translate(24.509 19.167)">
              <path id="Path_2808" data-name="Path 2808" d="M757.358,206.759c-.452,2.044-.9,4.089-1.346,6.164.942,1.13,1.855,2.7,3.217,3.175a4.488,4.488,0,0,0,4.224-1.212c.7-.782.643-1.94.851-2.983.181-.91.362-1.82.576-2.909l-3.05-.8a29.062,29.062,0,0,1-4.471-1.435" transform="translate(-756.012 -196.81)" fill="#ffab73"/>
              <path id="Path_2809" data-name="Path 2809" d="M772.813,206.538s2.1,5.016,7.146,4.153l.334-1.69Z" transform="translate(-771.467 -196.607)" fill="#d97a48"/>
              <path id="Path_2810" data-name="Path 2810" d="M775.436,84.547a45.6,45.6,0,0,0-2.623,8.013,5.569,5.569,0,0,0,3.558,2.518,11.1,11.1,0,0,0,4.325-.16,5.649,5.649,0,0,0,2.227-1.069,7.293,7.293,0,0,0,2.143-2.739,11.754,11.754,0,0,0,.62-4.021,10.844,10.844,0,0,0-.753-4.292,7.816,7.816,0,0,0-3.2-.011,15.859,15.859,0,0,0-6.3,1.761" transform="translate(-771.467 -82.612)" fill="#ffab73"/>
              <path id="Path_2814" data-name="Path 2814" d="M762.079,139.919a1.816,1.816,0,0,0-2.043-.7,2.03,2.03,0,0,0-1.307,1.8,2.176,2.176,0,0,0,1.092,1.966,2.128,2.128,0,0,0,2.192-.128" transform="translate(-758.51 -134.602)" fill="#ffab73"/>
              <path id="Path_2815" data-name="Path 2815" d="M762.462,140.236a1.846,1.846,0,0,0-2.426-1.014,2.03,2.03,0,0,0-1.307,1.8,2.176,2.176,0,0,0,1.092,1.966,2.128,2.128,0,0,0,2.192-.128" transform="translate(-758.51 -134.605)" fill="none" stroke="#d97a48" stroke-miterlimit="10" stroke-width="0.5"/>
            </g>
            <path id="Path_2836" data-name="Path 2836" d="M783.633,4.158a3.625,3.625,0,0,0-2.252-2.428" transform="translate(-754.84 10.957)" fill="none" stroke="#b44644" stroke-linecap="round" stroke-miterlimit="10" stroke-width="0.5"/>
            <path id="Path_2837" data-name="Path 2837" d="M808.989,10.829a2.366,2.366,0,0,0,.446-1.7" transform="translate(-780.237 4.149)" fill="none" stroke="#b44644" stroke-linecap="round" stroke-miterlimit="10" stroke-width="0.3"/>
            <path id="Path_2839" data-name="Path 2839" d="M450.148,136.846c2.871-1.562,6.092-2.344,9.123-3.565s6.027-3.037,7.552-5.928" transform="translate(-450.148 -104.601)" fill="none" stroke="#b44644" stroke-linecap="round" stroke-miterlimit="10" stroke-width="0.5"/>
          </g>
          <path id="Path_4733" data-name="Path 4733" d="M1389.449,702.538a.274.274,0,0,1,.3-.168l.031,0,1.192.184a2.876,2.876,0,0,1,1.5-1.395c.047-.019.1-.037.145-.054.067-.023.134-.047.2-.066a3,3,0,0,1,3.38,1.48l.906-.125a2.935,2.935,0,0,1,2.1-2.235c.084-.022.168-.04.252-.055a2.889,2.889,0,0,1,.848-.02,3.029,3.029,0,0,1,1.532.652,2.918,2.918,0,0,1,.99,1.513,3.006,3.006,0,0,1-.9,2.975,2.863,2.863,0,0,1-1.189.647,3.22,3.22,0,0,1-2.774-.647,8.986,8.986,0,0,1-.541-.866s-.195-.28-.26-.286c-.015,0,.015-.151,0-.152-.016-.046-.032-.092-.046-.139-.005-.021-.007-.042-.011-.062a3.187,3.187,0,0,1-.066-.8l-.631.087c.013.041.025.082.036.124a2.957,2.957,0,1,1-5.712,1.532c0-.021-.007-.042-.012-.063a3.168,3.168,0,0,1,.064-1.558l-1.167-.18a.218.218,0,0,1-.16-.328m11.143,2.844a2.392,2.392,0,0,0,1-.548,2.511,2.511,0,0,0,.348-.389,2.438,2.438,0,1,0-4.332-.795,2.474,2.474,0,0,0,2.989,1.731m-6.384.879a2.442,2.442,0,1,0-2.989-1.731,2.468,2.468,0,0,0,2.989,1.731" transform="translate(-1362.382 -679.318)" fill="#297555"/>
        </g>
        <g id="Group_7110" data-name="Group 7110" transform="translate(0 48.717)">
          <path id="Path_4734" data-name="Path 4734" d="M1858.941,554.94a32.474,32.474,0,1,1-32.474-32.474,32.474,32.474,0,0,1,32.474,32.474" transform="translate(-1790.952 -522.466)" fill="#ffeae3"/>
          <path id="Intersection_16" data-name="Intersection 16" d="M.079,51.376a4.873,4.873,0,0,0-.056-1.613,12.856,12.856,0,0,1,3.338-9.439,5.414,5.414,0,0,0,.691-1.035,3.936,3.936,0,0,0,.114-2.3C2.1,27.433,8.2,24.671,8.2,24.671,7.274,22.254,9,16.038,9,16.038.254,13.39,2.787,5.563,2.787,5.563S2.9-.537,11.3.038s5.87,10.354,5.87,10.354a27.447,27.447,0,0,1,7.6-1.151s10.245.345,9.094,8.748c-1.152,8.517-12.547,3.8-12.547,3.8-1.957-.575-1.5.806-1.5.806l.691,2.071L31.628,52.41l-4.139,4.215A32.551,32.551,0,0,1,.079,51.376Z" transform="translate(16.515 7.279)" fill="#402132"/>
          <path id="Path_2340" data-name="Path 2340" d="M14.483,27.49C15.666,16.643,5.394,17.2,1.955,10.329S.645,2.709.725,0" transform="matrix(0.438, 0.899, -0.899, 0.438, 24.708, 30.633)" fill="none" stroke="#381327" stroke-linecap="round" stroke-miterlimit="10" stroke-width="0.5"/>
          <g id="Group_4171" data-name="Group 4171" transform="translate(35.012 25.615)">
            <path id="Path_2359" data-name="Path 2359" d="M108.8,123.2l2.763,18.877,7.6-.575-1.035-14.618Z" transform="translate(-105.35 -112.955)" fill="#fcb093"/>
            <path id="Path_2360" data-name="Path 2360" d="M108.8,123.9s2.3,8.517,9.783,8.173l-.115-2.3Z" transform="translate(-105.35 -112.85)" fill="#e69c87"/>
            <path id="Path_2361" data-name="Path 2361" d="M107.066,119.479s-2.3.115-.691,2.878c1.612,2.647,2.187,1.5,2.187,1.5a9.526,9.526,0,0,0,9.094,7.367c7.712.231,5.3-11.165,5.3-11.165s-.691-5.064-2.878-5.755c0,0-.231,3.453-4.716,4.029a10.56,10.56,0,0,1-6.791-1.151c-.46-.231-1.035-.46-1.381-.231C106.723,117.178,106.606,117.638,107.066,119.479Z" transform="translate(-105.803 -114.3)" fill="#fcb093"/>
          </g>
          <ellipse id="Ellipse_506" data-name="Ellipse 506" cx="6.151" cy="3.588" rx="6.151" ry="3.588" transform="translate(38.914 21.942)" fill="#402132"/>
          <path id="Intersection_15" data-name="Intersection 15" d="M0,13.245A18.218,18.218,0,0,1,7.156,3.111C10.609.693,15.562-.919,22.124.578c3.356.778,6.059,3.083,8.236,6.233A32.344,32.344,0,0,1,9.272,14.588,32.488,32.488,0,0,1,0,13.245Z" transform="translate(26.185 50.36)" fill="#ab6963" stroke="rgba(0,0,0,0)" stroke-miterlimit="10" stroke-width="1"/>
        </g>
      </g>
    </g>
  </g>
</svg>
