<svg xmlns="http://www.w3.org/2000/svg" width="137" height="38" viewBox="0 0 137 38">
  <g id="Group_6996" data-name="Group 6996" transform="translate(-7941 -5415.001)">
    <path id="Path_42373" data-name="Path 42373" d="M126.091,0H9.664c-.351,0-.7.009-1.052.014A18.3,18.3,0,0,0,6.317.182,7.451,7.451,0,0,0,.938,3.437,5.562,5.562,0,0,0,.223,5.245a10.288,10.288,0,0,0-.206,1.9Q0,7.586,0,8.022v21.96c0,.3,0,.581.017.876a10.288,10.288,0,0,0,.206,1.9,5.57,5.57,0,0,0,.716,1.809A6.084,6.084,0,0,0,2.287,36.1a7.284,7.284,0,0,0,1.853,1.12,8.786,8.786,0,0,0,2.176.6,18.492,18.492,0,0,0,2.294.168c.354.006.7.01,1.052.01H127.336c.349,0,.706,0,1.055-.01a18.2,18.2,0,0,0,2.289-.168,8.957,8.957,0,0,0,2.185-.6,7.3,7.3,0,0,0,1.852-1.12,6.284,6.284,0,0,0,1.353-1.534,5.561,5.561,0,0,0,.709-1.809,10.627,10.627,0,0,0,.213-1.9v-.876c.009-.345.009-.688.009-1.039V9.059c0-.348,0-.693-.009-1.037V7.147a10.627,10.627,0,0,0-.213-1.9,5.556,5.556,0,0,0-.709-1.808A7.4,7.4,0,0,0,130.678.182a17.836,17.836,0,0,0-2.289-.168c-.349,0-.706-.01-1.055-.012h-1.245Z" transform="translate(7941 5415.001)" fill="#a6a6a6"/>
    <g id="Group_7000" data-name="Group 7000">
      <g id="Group_7001" data-name="Group 7001">
        <path id="Path_42374" data-name="Path 42374" d="M9.674,36.988c-.35,0-.689,0-1.036-.01a17.668,17.668,0,0,1-2.146-.149,7.763,7.763,0,0,1-1.9-.515,6.261,6.261,0,0,1-1.6-.957,5.238,5.238,0,0,1-1.169-1.314A4.748,4.748,0,0,1,1.2,32.484,9.77,9.77,0,0,1,1,30.72c-.007-.2-.016-.86-.016-.86V8.122S1,7.471,1,7.28a9.637,9.637,0,0,1,.19-1.762,4.782,4.782,0,0,1,.625-1.564A5.944,5.944,0,0,1,4.6,1.677a7.7,7.7,0,0,1,1.891-.512A17.3,17.3,0,0,1,8.64,1.011L9.674,1H127.323l1.046.012a17.111,17.111,0,0,1,2.125.153,7.889,7.889,0,0,1,1.914.515,5.963,5.963,0,0,1,2.765,2.277,4.774,4.774,0,0,1,.612,1.552,10.066,10.066,0,0,1,.194,1.781v.838c.009.353.009.688.009,1.028v19.7c0,.342,0,.676-.009,1.012v.875a9.9,9.9,0,0,1-.2,1.744,4.759,4.759,0,0,1-.625,1.572,5.362,5.362,0,0,1-1.164,1.3,6.269,6.269,0,0,1-1.6.962,7.759,7.759,0,0,1-1.91.517,17.353,17.353,0,0,1-2.14.153c-.336.006-.686.01-1.027.01h-1.24Z" transform="translate(7941.013 5414.996)"/>
        <rect id="Rectangle_2764" data-name="Rectangle 2764" width="137" height="38" transform="translate(7941 5415.001)" fill="none"/>
      </g>
      <g id="Group_6999" data-name="Group 6999">
        <g id="Group_6980" data-name="Group 6980" transform="translate(7952 5424)">
          <g id="Group_6994" data-name="Group 6994">
            <path id="Path_42395" data-name="Path 42395" d="M26.608,12.963V23.551a4.706,4.706,0,0,1-4.7,4.7H11.311a4.7,4.7,0,0,1-4.7-4.7V12.963a4.665,4.665,0,0,1,4.069-4.651.352.352,0,0,1,.1-.02,3.241,3.241,0,0,1,.535-.04H21.9a3.444,3.444,0,0,1,.545.04.126.126,0,0,1,.059.01h.02a4.7,4.7,0,0,1,4.079,4.661" transform="translate(-6.608 -8.252)" fill="#fe6900"/>
            <path id="Union_511" data-name="Union 511" d="M5.266,5.473,5.249,2.542c0-.175.01-.348.01-.52a.648.648,0,0,0-.576-.714.706.706,0,0,0-.094,0c-1.075-.015-2.15,0-3.255,0V5.479H.017Q.017,3.114.011.748C.011.628,0,.509,0,.391S.013.154.019.015C.113.008.209,0,.3,0H5.6a2.931,2.931,0,0,1,.375.052,1.319,1.319,0,0,1,.605,1.271c-.042,1.371-.015,2.741-.015,4.156Zm2.627,0Q7.887,3.03,7.876.584l0,0V0H9.189V5.477Zm-5.25,0V2.348h1.3V5.473Z" transform="translate(6 8.434)" fill="#fefeff" stroke="rgba(0,0,0,0)" stroke-miterlimit="10" stroke-width="1"/>
            <path id="Path_42398" data-name="Path 42398" d="M22.079,8.252A5.346,5.346,0,0,1,16.82,13.7a5.336,5.336,0,0,1-5.239-5.445l-.863.064a6.262,6.262,0,0,0,6.1,6.308,6.25,6.25,0,0,0,6.091-6.319Z" transform="translate(-6.718 -8.252)" fill="#fefeff"/>
          </g>
        </g>
        <g id="Group_6995" data-name="Group 6995" transform="translate(4.186 -0.966)">
          <g id="Group_6981" data-name="Group 6981" transform="translate(7975.814 5422.966)">
            <path id="Path_42383" data-name="Path 42383" d="M36.083,8.263a2.389,2.389,0,0,1,2.557,2.209,2.333,2.333,0,0,1-.013.479,2.4,2.4,0,0,1-2.053,2.7,2.452,2.452,0,0,1-.491.016H34.131V8.263ZM34.97,12.9h1.021a1.7,1.7,0,0,0,1.8-1.593,1.682,1.682,0,0,0-.015-.346,1.7,1.7,0,0,0-1.457-1.921H36.31a1.623,1.623,0,0,0-.319-.013H34.97Z" transform="translate(-34.131 -8)" fill="#fff"/>
            <path id="Path_42384" data-name="Path 42384" d="M39.6,11.636a1.932,1.932,0,1,1,3.847,0,1.932,1.932,0,1,1-3.847,0m3.02,0c0-.884-.4-1.4-1.1-1.4s-1.1.517-1.1,1.4.4,1.4,1.1,1.4,1.1-.517,1.1-1.4" transform="translate(-34.155 -8.006)" fill="#fff"/>
            <path id="Path_42385" data-name="Path 42385" d="M48.528,13.682h-.835l-.843-3h-.067l-.839,3h-.825L43.995,9.6h.816l.731,3.112h.06L46.44,9.6h.77l.838,3.112h.064L48.839,9.6h.805Z" transform="translate(-34.174 -8.006)" fill="#fff"/>
            <path id="Path_42386" data-name="Path 42386" d="M50.593,9.6h.775v.648h.06a1.222,1.222,0,0,1,1.218-.727,1.328,1.328,0,0,1,1.423,1.225,1.37,1.37,0,0,1-.011.293v2.643h-.8V11.242c0-.655-.285-.982-.88-.982a.935.935,0,0,0-.978.89v.006a.839.839,0,0,0,0,.141v2.389h-.805Z" transform="translate(-34.203 -8.006)" fill="#fff"/>
            <rect id="Rectangle_2762" data-name="Rectangle 2762" width="0.804" height="5.675" transform="translate(21.115)" fill="#fff"/>
            <path id="Path_42387" data-name="Path 42387" d="M57.258,11.636a1.932,1.932,0,1,1,3.848-.361,1.991,1.991,0,0,1,0,.361,1.933,1.933,0,0,1-3.848.382,1.887,1.887,0,0,1,0-.382m3.02,0c0-.884-.4-1.4-1.1-1.4s-1.1.517-1.1,1.4.4,1.4,1.1,1.4,1.1-.517,1.1-1.4" transform="translate(-34.233 -8.006)" fill="#fff"/>
            <path id="Path_42388" data-name="Path 42388" d="M61.951,12.524c0-.735.547-1.158,1.517-1.218l1.105-.064v-.348c0-.431-.285-.674-.835-.674-.449,0-.761.165-.85.453h-.783c.083-.7.742-1.15,1.667-1.15,1.022,0,1.6.509,1.6,1.371v2.788H64.6V13.1h-.061a1.374,1.374,0,0,1-1.223.64,1.232,1.232,0,0,1-1.356-1.1,1.059,1.059,0,0,1-.007-.125m2.622-.348v-.341l-1,.064c-.562.038-.816.229-.816.588s.319.58.757.58a.961.961,0,0,0,1.053-.858V12.17Z" transform="translate(-34.254 -8.006)" fill="#fff"/>
            <path id="Path_42389" data-name="Path 42389" d="M66.429,11.629c0-1.294.663-2.106,1.693-2.106a1.343,1.343,0,0,1,1.25.716h.06V8h.805v5.675h-.769v-.644H69.4a1.415,1.415,0,0,1-1.282.708c-1.037,0-1.693-.82-1.693-2.113m.831,0c0,.865.408,1.386,1.1,1.386s1.1-.528,1.1-1.382-.424-1.386-1.1-1.386-1.1.524-1.1,1.382" transform="translate(-34.273 -7.999)" fill="#fff"/>
            <path id="Path_42390" data-name="Path 42390" d="M73.565,11.636a1.932,1.932,0,1,1,3.847,0,1.932,1.932,0,1,1-3.847,0m3.02,0c0-.884-.4-1.4-1.1-1.4s-1.1.517-1.1,1.4.4,1.4,1.1,1.4,1.1-.517,1.1-1.4" transform="translate(-34.305 -8.006)" fill="#fff"/>
            <path id="Path_42391" data-name="Path 42391" d="M78.49,9.6h.775v.648h.06a1.222,1.222,0,0,1,1.218-.727,1.328,1.328,0,0,1,1.423,1.225,1.372,1.372,0,0,1-.011.293v2.643h-.805V11.242c0-.655-.285-.982-.88-.982a.935.935,0,0,0-.978.89v.006a.84.84,0,0,0,0,.141v2.389h-.805Z" transform="translate(-34.326 -8.006)" fill="#fff"/>
            <path id="Path_42392" data-name="Path 42392" d="M86.458,8.579V9.613h.879v.679h-.884v2.091c0,.427.176.614.576.614a2.655,2.655,0,0,0,.308-.017v.671a2.579,2.579,0,0,1-.438.041c-.9,0-1.251-.315-1.251-1.1v-2.3H85V9.613h.647V8.579Z" transform="translate(-34.355 -8.002)" fill="#fff"/>
            <path id="Path_42393" data-name="Path 42393" d="M88.452,8h.8v2.248h.064a1.256,1.256,0,0,1,1.243-.731,1.344,1.344,0,0,1,1.415,1.27,1.321,1.321,0,0,1-.01.251v2.633h-.805V11.236c0-.651-.3-.982-.872-.982a.952.952,0,0,0-1.028.87,1.115,1.115,0,0,0,0,.163v2.387h-.8Z" transform="translate(-34.37 -7.999)" fill="#fff"/>
            <path id="Path_42394" data-name="Path 42394" d="M96.684,12.575a1.654,1.654,0,0,1-1.767,1.18,1.853,1.853,0,0,1-1.9-1.8,1.762,1.762,0,0,1,.017-.3,1.88,1.88,0,0,1,1.613-2.115h0a1.824,1.824,0,0,1,.266-.017c1.135,0,1.82.776,1.82,2.056v.275H93.853V11.9a1.078,1.078,0,0,0,.984,1.165h.1a.978.978,0,0,0,.971-.5Zm-2.831-1.314h2.06A.985.985,0,0,0,95,10.207h-.1a1.043,1.043,0,0,0-1.056,1.03v.026Z" transform="translate(-34.39 -8.006)" fill="#fff"/>
          </g>
          <g id="Group_6987" data-name="Group 6987" transform="translate(7975.814 5432.753)">
            <g id="Group_6985" data-name="Group 6985" transform="translate(0 0)">
              <path id="Path_42399" data-name="Path 42399" d="M9.563,11.39v0ZM.04,0,0,11.435H1.53V1.793l3.314,9.665H6.328l3.236-9.6V11.39h1.452V.021H8.9L5.58,9.647,2.24,0Z" fill="#fff"/>
              <rect id="Rectangle_2765" data-name="Rectangle 2765" width="1.478" height="8.426" transform="translate(13.147 3.055)" fill="#fff"/>
              <rect id="Rectangle_2766" data-name="Rectangle 2766" width="1.543" height="1.543" transform="translate(13.114 0.012)" fill="#fff"/>
            </g>
            <g id="Group_6993" data-name="Group 6993" transform="translate(19.537)">
              <path id="Path_2948" data-name="Path 2948" d="M41.593,26.323H37.286l-1.034,3.054H34.427l4.079-11.3h1.9l4.079,11.3H42.626Zm-3.861-1.409h3.414l-1.683-4.957h-.047Z" transform="translate(-34.427 -17.89)" fill="#fff"/>
              <path id="Path_2949" data-name="Path 2949" d="M54.391,25.553c0,2.56-1.37,4.2-3.438,4.2a2.793,2.793,0,0,1-2.592-1.441h-.039V32.4H46.631V21.434h1.637V22.8H48.3a2.922,2.922,0,0,1,2.623-1.456C53.013,21.348,54.391,23,54.391,25.553Zm-1.738,0c0-1.668-.862-2.764-2.177-2.764-1.292,0-2.161,1.12-2.161,2.764,0,1.66.869,2.771,2.161,2.771C51.791,28.325,52.653,27.236,52.653,25.553Z" transform="translate(-35.68 -18.184)" fill="#fff"/>
              <path id="Path_2950" data-name="Path 2950" d="M64.356,25.553c0,2.56-1.37,4.2-3.438,4.2a2.793,2.793,0,0,1-2.592-1.441h-.039V32.4H56.6V21.434h1.637V22.8h.031a2.922,2.922,0,0,1,2.623-1.456C62.978,21.348,64.356,23,64.356,25.553Zm-1.738,0c0-1.668-.862-2.764-2.177-2.764-1.292,0-2.161,1.12-2.161,2.764,0,1.66.869,2.771,2.161,2.771,1.315,0,2.177-1.089,2.177-2.771Z" transform="translate(-36.703 -18.184)" fill="#fff"/>
              <path id="Path_2951" data-name="Path 2951" d="M71.539,26.21c.125,1.121,1.214,1.856,2.7,1.856,1.425,0,2.451-.736,2.451-1.746,0-.877-.618-1.4-2.083-1.762l-1.464-.353c-2.075-.5-3.038-1.471-3.038-3.046,0-1.95,1.7-3.289,4.111-3.289,2.388,0,4.024,1.339,4.079,3.289H76.59c-.1-1.128-1.034-1.808-2.4-1.808S71.9,20.04,71.9,21.042c0,.8.6,1.269,2.052,1.629l1.245.306c2.318.548,3.282,1.48,3.282,3.132,0,2.114-1.684,3.438-4.362,3.438-2.506,0-4.2-1.293-4.307-3.337Z" transform="translate(-38.066 -17.871)" fill="#fff"/>
              <path id="Path_2952" data-name="Path 2952" d="M83.059,19.3v1.95h1.567v1.339H83.059V27.13c0,.706.314,1.034,1,1.034a5.284,5.284,0,0,0,.556-.039v1.331a4.644,4.644,0,0,1-.939.078c-1.668,0-2.318-.626-2.318-2.224V22.588h-1.2V21.249h1.2V19.3Z" transform="translate(-39.092 -18)" fill="#fff"/>
              <path id="Path_2953" data-name="Path 2953" d="M86.065,25.552c0-2.592,1.527-4.221,3.907-4.221s3.908,1.629,3.908,4.221-1.511,4.221-3.908,4.221S86.065,28.151,86.065,25.552Zm6.092,0c0-1.778-.815-2.827-2.185-2.827s-2.184,1.057-2.184,2.827c0,1.785.814,2.827,2.184,2.827s2.185-1.041,2.185-2.827Z" transform="translate(-39.728 -18.183)" fill="#fff"/>
              <path id="Path_2954" data-name="Path 2954" d="M96.186,21.434H97.8v1.4h.039a1.965,1.965,0,0,1,1.982-1.488,2.608,2.608,0,0,1,.579.063v1.582a2.364,2.364,0,0,0-.76-.1,1.7,1.7,0,0,0-1.762,1.9v4.886H96.186Z" transform="translate(-40.827 -18.184)" fill="#fff"/>
              <path id="Path_2955" data-name="Path 2955" d="M108.649,27.251c-.227,1.5-1.684,2.522-3.547,2.522-2.4,0-3.884-1.606-3.884-4.182s1.5-4.26,3.813-4.26c2.279,0,3.713,1.566,3.713,4.063v.579h-5.818v.1a2.146,2.146,0,0,0,2.216,2.333,1.864,1.864,0,0,0,1.9-1.159Zm-5.716-2.459h4.119A1.981,1.981,0,0,0,105.03,22.7a2.085,2.085,0,0,0-2.1,2.091Z" transform="translate(-41.28 -18.183)" fill="#fff"/>
            </g>
          </g>
        </g>
      </g>
    </g>
  </g>
</svg>
