<svg xmlns="http://www.w3.org/2000/svg" xmlns:xlink="http://www.w3.org/1999/xlink" width="350" height="350" viewBox="0 0 350 350">
  <defs>
    <clipPath id="clip-path">
      <rect id="Rectangle_2991" data-name="Rectangle 2991" width="350" height="350" transform="translate(910 97)" fill="#fff" stroke="#707070" stroke-width="1"/>
    </clipPath>
    <clipPath id="clip-path-2">
      <rect id="Rectangle_2853" data-name="Rectangle 2853" width="96.49" height="50.933" fill="none"/>
    </clipPath>
    <clipPath id="clip-path-3">
      <path id="Path_5419" data-name="Path 5419" d="M231.9,50.1,189.67,59.546l2.112-2.823,40.7-9.579Z" transform="translate(-189.67 -47.143)" fill="none"/>
    </clipPath>
    <linearGradient id="linear-gradient" x1="-1.3" y1="-0.382" x2="-1.294" y2="-0.382" gradientUnits="objectBoundingBox">
      <stop offset="0" stop-color="#06f"/>
      <stop offset="1" stop-color="#025"/>
    </linearGradient>
    <linearGradient id="linear-gradient-2" x1="-1.3" y1="-0.382" x2="-1.294" y2="-0.382" gradientUnits="objectBoundingBox">
      <stop offset="0" stop-color="#0040a1"/>
      <stop offset="0.32" stop-color="#06f"/>
      <stop offset="0.66" stop-color="#9fc5ff"/>
      <stop offset="1" stop-color="#06f"/>
    </linearGradient>
    <clipPath id="clip-path-6">
      <rect id="Rectangle_2842" data-name="Rectangle 2842" width="42.273" height="9.678" fill="none"/>
    </clipPath>
    <clipPath id="clip-path-7">
      <path id="Path_5421" data-name="Path 5421" d="M191.765,66.185l42.078-9.417L233.8,57,191.57,66.446Z" transform="translate(-191.57 -56.768)" fill="none"/>
    </clipPath>
    <linearGradient id="linear-gradient-3" x1="-1.241" y1="-0.919" x2="-1.234" y2="-0.919" gradientUnits="objectBoundingBox">
      <stop offset="0" stop-color="#82adee"/>
      <stop offset="0.557" stop-color="#d5e5ff"/>
      <stop offset="0.793" stop-color="#fff"/>
      <stop offset="1" stop-color="#82adee"/>
    </linearGradient>
    <clipPath id="clip-path-8">
      <path id="Path_5422" data-name="Path 5422" d="M224.118,148.87l-1.266,2.779-3.643-9.03,1.592-2.128Z" transform="translate(-219.209 -140.491)" fill="none"/>
    </clipPath>
    <linearGradient id="linear-gradient-4" x1="-5.576" y1="0.03" x2="-5.55" y2="0.03" gradientUnits="objectBoundingBox">
      <stop offset="0" stop-color="#003380"/>
      <stop offset="1" stop-color="#04a"/>
    </linearGradient>
    <clipPath id="clip-path-10">
      <rect id="Rectangle_2846" data-name="Rectangle 2846" width="3.802" height="9.29" fill="none"/>
    </clipPath>
    <clipPath id="clip-path-11">
      <path id="Path_5423" data-name="Path 5423" d="M226.765,156.378l-3.643-9.03.195-.261,3.607,8.941Z" transform="translate(-223.122 -147.088)" fill="none"/>
    </clipPath>
    <linearGradient id="linear-gradient-5" x1="-9.9" y1="0.035" x2="-9.855" y2="0.035" xlink:href="#linear-gradient-3"/>
    <clipPath id="clip-path-12">
      <path id="Path_5424" data-name="Path 5424" d="M96.49,0S87.48,45.908,29.742,42.246l3.443,8.686L0,25.749,42.228,16.3s-4.779,4.757-6.469,6.745C51.9,27.812,85.747,27.127,96.49,0Z" fill="none"/>
    </clipPath>
    <radialGradient id="radial-gradient" cx="1.048" cy="1.04" r="1.569" gradientTransform="matrix(0, -1, 0.915, 0, -1.63, 0.294)" gradientUnits="objectBoundingBox">
      <stop offset="0" stop-color="#0055d4"/>
      <stop offset="0.294" stop-color="#0055d4"/>
      <stop offset="0.576" stop-color="#80b3ff"/>
      <stop offset="0.577" stop-color="#59f"/>
      <stop offset="0.698" stop-color="#0055d4"/>
      <stop offset="1" stop-color="#0055d4"/>
    </radialGradient>
    <clipPath id="clip-path-13">
      <path id="Path_5425" data-name="Path 5425" d="M60.73,0C49.987,27.127,16.145,27.812,0,23.044.452,22.512,1.126,21.781,1.87,21,17.774,24.868,49.752,23.674,60.73,0Z" transform="translate(0)" fill="none"/>
    </clipPath>
    <linearGradient id="linear-gradient-6" x1="0.035" y1="-0.131" x2="0.039" y2="-0.131" gradientUnits="objectBoundingBox">
      <stop offset="0" stop-color="#2a7fff"/>
      <stop offset="0.194" stop-color="#287cfb"/>
      <stop offset="0.361" stop-color="#2574f0"/>
      <stop offset="0.518" stop-color="#2066df"/>
      <stop offset="0.669" stop-color="#1952c6"/>
      <stop offset="0.817" stop-color="#0f39a5"/>
      <stop offset="0.958" stop-color="#031b7e"/>
      <stop offset="1" stop-color="#001172"/>
    </linearGradient>
    <clipPath id="clip-path-15">
      <rect id="Rectangle_2851" data-name="Rectangle 2851" width="60.73" height="25.306" fill="none"/>
    </clipPath>
    <clipPath id="clip-path-16">
      <path id="Path_5426" data-name="Path 5426" d="M60.731,0C49.987,27.127,16.145,27.812,0,23.044,16.984,26.814,49.509,26.972,60.731,0" transform="translate(0)" fill="none"/>
    </clipPath>
    <linearGradient id="linear-gradient-7" x1="0.041" y1="-0.346" x2="0.045" y2="-0.346" gradientUnits="objectBoundingBox">
      <stop offset="0" stop-color="#0357d5"/>
      <stop offset="0.793" stop-color="#d5e5ff"/>
      <stop offset="1" stop-color="#82adee"/>
    </linearGradient>
    <filter id="Rectangle_2937" x="103.073" y="112.219" width="100.916" height="105.118" filterUnits="userSpaceOnUse">
      <feOffset input="SourceAlpha"/>
      <feGaussianBlur stdDeviation="4" result="blur"/>
      <feFlood flood-opacity="0.078"/>
      <feComposite operator="in" in2="blur"/>
      <feComposite in="SourceGraphic"/>
    </filter>
  </defs>
  <g id="UpdateOneAuthV3" transform="translate(-910 -97)" clip-path="url(#clip-path)">
    <g id="Group_8655" data-name="Group 8655" transform="translate(0 -7.222)">
      <line id="Line_13" data-name="Line 13" x2="350" transform="translate(910 424.24)" fill="none" stroke="rgba(52,52,52,0.26)" stroke-width="1"/>
      <g id="Group_8487" data-name="Group 8487" transform="translate(1088.361 169)">
        <path id="Path_2778" data-name="Path 2778" d="M26.136,5.923,113.276.046a18.386,18.386,0,0,1,7.321.962,17.266,17.266,0,0,1,6,3.588,17.037,17.037,0,0,1,4.062,5.676,17.8,17.8,0,0,1,1.491,7.205V243.756a17.8,17.8,0,0,1-1.491,7.205,17.037,17.037,0,0,1-4.062,5.676,17.266,17.266,0,0,1-6,3.588,18.387,18.387,0,0,1-7.321.962l-87.14-5.877a17.25,17.25,0,0,1-6.625-1.827,18.447,18.447,0,0,1-5.365-4.116,19.141,19.141,0,0,1-3.592-5.806,18.909,18.909,0,0,1-1.318-6.918V24.59A18.654,18.654,0,0,1,19.478,7.754a17.428,17.428,0,0,1,6.658-1.831" transform="translate(-1.299 0)" fill="#50567c"/>
        <path id="Path_2779" data-name="Path 2779" d="M26.32,8.507l77.9-5.446a16.506,16.506,0,0,1,6.913.971A16.179,16.179,0,0,1,116.8,7.623a17.047,17.047,0,0,1,3.835,5.671,18.657,18.657,0,0,1,1.408,7.2V241.384a18.662,18.662,0,0,1-1.408,7.2,17.048,17.048,0,0,1-3.835,5.671,16.191,16.191,0,0,1-5.671,3.591,16.507,16.507,0,0,1-6.913.971l-77.9-5.438a15.7,15.7,0,0,1-6.291-1.821,17.6,17.6,0,0,1-5.09-4.113,19.316,19.316,0,0,1-3.409-5.8,19.819,19.819,0,0,1-1.245-6.928V27.177a19.825,19.825,0,0,1,1.245-6.925,19.309,19.309,0,0,1,3.409-5.805,17.606,17.606,0,0,1,5.09-4.118A15.691,15.691,0,0,1,26.32,8.507" transform="translate(-1.447 -0.424)" fill="#2e3353"/>
        <path id="Path_2780" data-name="Path 2780" d="M20.1,12.2c3.709-.212,83.823-4.911,83.823-4.911,1.783-.112,5.21-.291,9.318-.49l.015,193.537c.008,1.631,0,7.126,0,11.93l-87.142-4.735c-1.673-.1-9.288-.328-12.124-.46L13.9,12.57S16.4,12.409,20.1,12.2Z" transform="translate(0.622 15.993)" fill="#f4f9ff"/>
        <path id="Path_2781" data-name="Path 2781" d="M47.037,17.927,64.728,16.7a1.752,1.752,0,0,1,.738.107,1.685,1.685,0,0,1,.6.387,1.817,1.817,0,0,1,.4.61,2.081,2.081,0,0,1,.147.777,2.222,2.222,0,0,1-.146.795,2.147,2.147,0,0,1-.4.659,2.012,2.012,0,0,1-.6.461,1.885,1.885,0,0,1-.737.2L47.037,21.875a1.691,1.691,0,0,1-.718-.11,1.648,1.648,0,0,1-.58-.384,1.809,1.809,0,0,1-.388-.6,2.077,2.077,0,0,1-.141-.764,2.219,2.219,0,0,1,.141-.782,2.124,2.124,0,0,1,.388-.65,1.966,1.966,0,0,1,.582-.456,1.823,1.823,0,0,1,.717-.2" transform="translate(8.809 -3.312)" fill="#50567c"/>
        <rect id="Rectangle_2026" data-name="Rectangle 2026" width="130.855" height="261.234" transform="translate(0 0)" fill="none"/>
        <ellipse id="Ellipse_485" data-name="Ellipse 485" cx="8.593" cy="10.311" rx="8.593" ry="10.311" transform="translate(56.334 232.013)" fill="#50567c"/>
      </g>
      <path id="Path_2783" data-name="Path 2783" d="M9.132,77.625h0a.341.341,0,0,1,.243.1.984.984,0,0,1,.213.286,1.819,1.819,0,0,1,.149.416,2.133,2.133,0,0,1,.055.485V99.321a2.186,2.186,0,0,1-.055.491,1.986,1.986,0,0,1-.15.433,1.133,1.133,0,0,1-.212.311.384.384,0,0,1-.243.125.343.343,0,0,1-.242-.1.991.991,0,0,1-.212-.291,1.846,1.846,0,0,1-.151-.421,2.1,2.1,0,0,1-.055-.488V79a2.2,2.2,0,0,1,.055-.492,2.088,2.088,0,0,1,.151-.436,1.172,1.172,0,0,1,.212-.315.4.4,0,0,1,.242-.131" transform="translate(988.33 127.222)" fill="#2e3353"/>
      <path id="Path_2784" data-name="Path 2784" d="M9.132,58.559h0a.338.338,0,0,1,.244.094.941.941,0,0,1,.212.284,1.794,1.794,0,0,1,.149.413,2.131,2.131,0,0,1,.055.484V70.7a2.21,2.21,0,0,1-.055.493,2.1,2.1,0,0,1-.15.437,1.185,1.185,0,0,1-.212.317.4.4,0,0,1-.244.132.343.343,0,0,1-.243-.1.941.941,0,0,1-.21-.279,1.828,1.828,0,0,1-.151-.419,2.1,2.1,0,0,1-.055-.481V59.944a2.21,2.21,0,0,1,.055-.493,2.116,2.116,0,0,1,.151-.439,1.213,1.213,0,0,1,.212-.319.4.4,0,0,1,.242-.134" transform="translate(988.33 127.222)" fill="#2e3353"/>
      <path id="Path_2785" data-name="Path 2785" d="M9.132,109.107h0a.345.345,0,0,1,.243.1,1.022,1.022,0,0,1,.213.293,1.947,1.947,0,0,1,.149.425,2.157,2.157,0,0,1,.055.487v20.409a2.184,2.184,0,0,1-.055.49,1.95,1.95,0,0,1-.15.429,1.083,1.083,0,0,1-.212.3.374.374,0,0,1-.244.119.358.358,0,0,1-.243-.11,1.054,1.054,0,0,1-.212-.3,1.911,1.911,0,0,1-.149-.421,2.157,2.157,0,0,1-.055-.487V110.461a2.764,2.764,0,0,1,.055-.58,1.546,1.546,0,0,1,.151-.424.809.809,0,0,1,.212-.258.427.427,0,0,1,.242-.092" transform="translate(988.33 127.222)" fill="#2e3353"/>
      <g id="Group_3895_00000114753155616076144940000018405642260747738003_" transform="translate(1122.842 261.166)">
        <path id="Rectangle_2068_00000159437883977548651690000016045695577660755592_" d="M17.781.62,40.959.275a18.928,18.928,0,0,1,7.129,1.268,18.385,18.385,0,0,1,5.876,3.668,17.317,17.317,0,0,1,3.989,5.51A16.331,16.331,0,0,1,59.421,17.5V39.878a16.371,16.371,0,0,1-1.469,6.781,17.417,17.417,0,0,1-3.989,5.526,18.487,18.487,0,0,1-5.876,3.691,18.967,18.967,0,0,1-7.129,1.3l-23.177-.252a18.447,18.447,0,0,1-6.935-1.427A18.2,18.2,0,0,1,5.2,51.767a17.352,17.352,0,0,1-3.8-5.451A16.4,16.4,0,0,1,0,39.7V17.914a16.638,16.638,0,0,1,1.371-6.623A17.3,17.3,0,0,1,5.136,5.826a18.059,18.059,0,0,1,5.642-3.75A18.716,18.716,0,0,1,17.781.62Z" transform="translate(0 0)" fill="#5d6bc5"/>
        <g id="Group_3894_00000165218263468728221810000007594875501600227503_" transform="translate(9.592 9.804)">
          <path id="Combined-Shape_00000013894758330044040810000017446240467333309844_" d="M9.349,29.664a16.716,16.716,0,0,0,4.557,2.347,17.012,17.012,0,0,0,10.014.227,16.765,16.765,0,0,0,4.716-2.174,1.564,1.564,0,0,1,.519-.248,1.147,1.147,0,0,1,.5-.016,1.268,1.268,0,0,1,.47.2,1.9,1.9,0,0,1,.421.4h0a1.423,1.423,0,0,1,.264.517,1.147,1.147,0,0,1,.019.516,1.054,1.054,0,0,1-.209.453,1.164,1.164,0,0,1-.421.328,19.1,19.1,0,0,1-5.453,2.537A19.829,19.829,0,0,1,13.086,34.5a19.021,19.021,0,0,1-5.273-2.722,1.392,1.392,0,0,1-.389-.42,1.264,1.264,0,0,1-.165-.48,1.312,1.312,0,0,1,.027-.479,1.247,1.247,0,0,1,.186-.418,1.116,1.116,0,0,1,.341-.394,1.145,1.145,0,0,1,.469-.195,1.3,1.3,0,0,1,.533.02,1.531,1.531,0,0,1,.533.25Zm29.059-13.47v.662a18.541,18.541,0,0,1-.3,3.312,17.86,17.86,0,0,1-2.363,6.182,18.447,18.447,0,0,1-2.064,2.742,1.719,1.719,0,0,1-.447.3,1.657,1.657,0,0,1-.512.148,1.311,1.311,0,0,1-.512-.038,1.072,1.072,0,0,1-.447-.254h0a1.647,1.647,0,0,1-.321-.424,1.458,1.458,0,0,1-.158-.485,1.117,1.117,0,0,1,.038-.485.986.986,0,0,1,.267-.422,16.693,16.693,0,0,0,1.73-2.342,15.8,15.8,0,0,0,1.257-2.547,15.3,15.3,0,0,0,1.027-5.518v-.5a.849.849,0,0,1,.019-.488,1.271,1.271,0,0,1,.265-.443,1.895,1.895,0,0,1,.94-.561,1,1,0,0,1,.517.017,1.377,1.377,0,0,1,.468.25,1.782,1.782,0,0,1,.37.405,1.643,1.643,0,0,1,.222.483v0ZM3.22,21.006q.255.794.573,1.558t.7,1.5q.382.734.829,1.438t.957,1.378a.983.983,0,0,1,.261.419,1.118,1.118,0,0,1,.037.479,1.444,1.444,0,0,1-.154.479,1.611,1.611,0,0,1-.314.417,1.035,1.035,0,0,1-.436.248,1.263,1.263,0,0,1-.5.034,1.607,1.607,0,0,1-.5-.149,1.69,1.69,0,0,1-.435-.3h0A15.3,15.3,0,0,1,3.061,26.95a17.227,17.227,0,0,1-.986-1.689,18.812,18.812,0,0,1-.795-1.779c-.233-.6-.434-1.213-.6-1.824a1.37,1.37,0,0,1,.127-1,1.246,1.246,0,0,1,.349-.4,1.321,1.321,0,0,1,.54-.232,1.149,1.149,0,0,1,.5-.008,1.286,1.286,0,0,1,.453.191,1.406,1.406,0,0,1,.358.343,1.344,1.344,0,0,1,.215.451ZM25.34,6.844a11.721,11.721,0,0,1,3.551,3.1,11.361,11.361,0,0,1,1.962,4.06,10.873,10.873,0,0,1-1.522,8.806,11.672,11.672,0,0,1-3.29,3.368A12.659,12.659,0,0,1,17.1,28.2,12.087,12.087,0,0,1,12.6,26.566a11.707,11.707,0,0,1-3.5-3.1,11.354,11.354,0,0,1-1.924-4.029,10.871,10.871,0,0,1,1.492-8.72c.256-.369.523-.728.805-1.074a13,13,0,0,1,.9-1A11.146,11.146,0,0,1,11.4,7.733a10.718,10.718,0,0,1,1.192-.8,1.762,1.762,0,0,1,.535-.16,1.782,1.782,0,0,1,.535.009,1.475,1.475,0,0,1,.471.163,1.032,1.032,0,0,1,.343.3h0a1.568,1.568,0,0,1,.15,1.023,1.346,1.346,0,0,1-.174.451,1.041,1.041,0,0,1-.319.329,9.05,9.05,0,0,0-2.718,2.461,8.633,8.633,0,0,0-1.431,3.14,8.528,8.528,0,0,0,1.239,6.681,8.916,8.916,0,0,0,2.56,2.6,9.463,9.463,0,0,0,3.291,1.377,9.83,9.83,0,0,0,3.592.088,9.588,9.588,0,0,0,3.458-1.269,9.058,9.058,0,0,0,2.75-2.46,8.635,8.635,0,0,0,1.454-3.16,8.528,8.528,0,0,0-1.258-6.731,6.09,6.09,0,0,0-.61-.831,8.9,8.9,0,0,0-.756-.768c-.271-.245-.558-.481-.852-.705s-.6-.439-.9-.643a1.174,1.174,0,0,1-.648-.777,1.362,1.362,0,0,1-.032-.514,1.511,1.511,0,0,1,.162-.515,3.186,3.186,0,0,1,.443-.237,2.376,2.376,0,0,1,.508-.16,1.354,1.354,0,0,1,.509-.006.886.886,0,0,1,.444.226ZM11.57,1.212a1.488,1.488,0,0,1,.16.51,1.366,1.366,0,0,1-.032.511,1.19,1.19,0,0,1-.641.782,16.349,16.349,0,0,0-6.1,5.861,15.85,15.85,0,0,0-1.667,3.806,14.792,14.792,0,0,0-.583,4.088,1.1,1.1,0,0,1-.117.479,1.489,1.489,0,0,1-.307.418,1.549,1.549,0,0,1-.435.3,1.223,1.223,0,0,1-.5.113,1.22,1.22,0,0,1-.5-.111,1.539,1.539,0,0,1-.434-.294,1.479,1.479,0,0,1-.307-.416A1.1,1.1,0,0,1,0,16.776H0a17.763,17.763,0,0,1,.675-4.853A18.236,18.236,0,0,1,2.605,7.486a19.345,19.345,0,0,1,3.05-3.843A20.68,20.68,0,0,1,9.69.576a2.183,2.183,0,0,1,.534-.064,1.961,1.961,0,0,1,.534.074,1.467,1.467,0,0,1,.47.228,1.174,1.174,0,0,1,.342.4Zm16.2-.975A19.517,19.517,0,0,1,31.074,2.26a19.182,19.182,0,0,1,2.808,2.606,18.047,18.047,0,0,1,2.192,3.082A16.493,16.493,0,0,1,37.532,11.4a1.41,1.41,0,0,1,.036.514,1.511,1.511,0,0,1-.145.5,1.3,1.3,0,0,1-.309.407,1.076,1.076,0,0,1-.457.237,1.668,1.668,0,0,1-.544.036,1.731,1.731,0,0,1-.527-.135,1.349,1.349,0,0,1-.429-.29.974.974,0,0,1-.248-.43h0a14.245,14.245,0,0,0-1.261-2.958,15.828,15.828,0,0,0-1.88-2.641,17.57,17.57,0,0,0-2.4-2.261,18.933,18.933,0,0,0-2.816-1.82,1.172,1.172,0,0,1-.65-.776,1.362,1.362,0,0,1-.033-.514,1.516,1.516,0,0,1,.162-.516A.777.777,0,0,1,26.28.413,1.306,1.306,0,0,1,26.7.185a1.534,1.534,0,0,1,.523-.075,1.385,1.385,0,0,1,.54.126Z" transform="translate(0 1.706)" fill="#fff"/>
          <path id="Combined-Shape-2_00000166654142138866442660000013310692923075240893_" d="M5.08.057a1.472,1.472,0,0,1,.506.084A1.384,1.384,0,0,1,6.028.4a1.231,1.231,0,0,1,.312.41,1.286,1.286,0,0,1,.119.55V13.509a5.8,5.8,0,0,1,2.169,1.244,5.288,5.288,0,0,1,1.329,1.989,7.839,7.839,0,0,1,.487,2.672,14.141,14.141,0,0,1-.357,3.291,1.352,1.352,0,0,1-.219.455,1.428,1.428,0,0,1-.365.347,1.319,1.319,0,0,1-.462.193,1.181,1.181,0,0,1-.51-.008h0a1.488,1.488,0,0,1-.478-.208,1.427,1.427,0,0,1-.364-.347,1.192,1.192,0,0,1-.2-.439,1.02,1.02,0,0,1,.008-.485.921.921,0,0,1,.027-.221,1.97,1.97,0,0,1,.059-.19,1.988,1.988,0,0,0,.059-.19.922.922,0,0,0,.027-.221l-1.725,0a1.25,1.25,0,0,1-.506-.112,1.568,1.568,0,0,1-.441-.3,1.494,1.494,0,0,1-.312-.42,1.1,1.1,0,0,1-.118-.482,1.3,1.3,0,0,1,.094-.482,1.31,1.31,0,0,1,.705-.719,1.477,1.477,0,0,1,.579-.114l1.9,0a2.923,2.923,0,0,0-.186-1.039,2.81,2.81,0,0,0-.526-.869A3.108,3.108,0,0,0,6.31,16.2a3.723,3.723,0,0,0-1.058-.389h0a2.7,2.7,0,0,0-.638.212,3.1,3.1,0,0,0-.589.366,2.99,2.99,0,0,0-.492.488,2.487,2.487,0,0,0-.347.58h0A7.147,7.147,0,0,0,2.894,18.6a8.2,8.2,0,0,0-.115,1.181,9.676,9.676,0,0,0,.046,1.212,11.508,11.508,0,0,0,.191,1.227,1.371,1.371,0,0,1-.129,1,1.256,1.256,0,0,1-.354.4,1.343,1.343,0,0,1-.548.233,1.554,1.554,0,0,1-.534.031,1.524,1.524,0,0,1-.518-.154,1.285,1.285,0,0,1-.421-.338,1.224,1.224,0,0,1-.244-.522v-.164a15.686,15.686,0,0,1-.257-3.344,8.253,8.253,0,0,1,.514-2.655,5.341,5.341,0,0,1,1.287-1.953,5.722,5.722,0,0,1,2.063-1.236V4.991l-1.547.177a1.467,1.467,0,0,1-.5-.085,1.383,1.383,0,0,1-.44-.255,1.231,1.231,0,0,1-.311-.41,1.287,1.287,0,0,1-.118-.549,1.354,1.354,0,0,1,.091-.482A1.425,1.425,0,0,1,1.3,2.964a1.254,1.254,0,0,1,.381-.3,1.078,1.078,0,0,1,.478-.117h0l1.891-.182v-.82A1.061,1.061,0,0,1,3.966.968.991.991,0,0,1,4.176.5a1.2,1.2,0,0,1,.9-.44Z" transform="translate(14.042)" fill="#efcb4b"/>
        </g>
      </g>
      <g id="big_mobile" data-name="big mobile" transform="translate(-3748.671 -9450.778)">
        <path id="Path_2778-2" data-name="Path 2778" d="M28.9,6.893,130.313.054a21.4,21.4,0,0,1,8.52,1.12,20.093,20.093,0,0,1,6.987,4.175,19.827,19.827,0,0,1,4.727,6.606,20.715,20.715,0,0,1,1.735,8.385V283.672a20.715,20.715,0,0,1-1.735,8.385,19.827,19.827,0,0,1-4.727,6.606,20.093,20.093,0,0,1-6.987,4.175,21.4,21.4,0,0,1-8.52,1.12L28.9,297.119a20.075,20.075,0,0,1-7.71-2.126,21.468,21.468,0,0,1-6.243-4.79,22.275,22.275,0,0,1-4.18-6.757,22.005,22.005,0,0,1-1.534-8.051V28.617A21.709,21.709,0,0,1,21.156,9.024,20.282,20.282,0,0,1,28.9,6.893" transform="translate(4737 9578)" fill="#50567c"/>
        <path id="Path_2779-2" data-name="Path 2779" d="M28.946,9.406,119.6,3.068a19.209,19.209,0,0,1,8.045,1.13,18.828,18.828,0,0,1,6.6,4.179,19.839,19.839,0,0,1,4.463,6.6,21.713,21.713,0,0,1,1.639,8.375V280.418a21.718,21.718,0,0,1-1.639,8.376,19.839,19.839,0,0,1-4.463,6.6,18.843,18.843,0,0,1-6.6,4.179,19.209,19.209,0,0,1-8.045,1.13l-90.658-6.328a18.275,18.275,0,0,1-7.321-2.119,20.486,20.486,0,0,1-5.924-4.787,22.479,22.479,0,0,1-3.967-6.751,23.065,23.065,0,0,1-1.449-8.062V31.133a23.071,23.071,0,0,1,1.449-8.059A22.471,22.471,0,0,1,15.7,16.318a20.489,20.489,0,0,1,5.924-4.792,18.26,18.26,0,0,1,7.322-2.12" transform="translate(4737 9578)" fill="#2e3353"/>
        <path id="Path_2780-2" data-name="Path 2780" d="M28.945,13.439,119.608,7.28a15.416,15.416,0,0,1,6.464.921,15.158,15.158,0,0,1,5.3,3.368,15.978,15.978,0,0,1,3.58,5.307,17.474,17.474,0,0,1,1.314,6.723V280.176a17.474,17.474,0,0,1-1.314,6.723,15.982,15.982,0,0,1-3.58,5.308,15.173,15.173,0,0,1-5.3,3.368,15.433,15.433,0,0,1-6.464.922l-90.663-6.148a14.686,14.686,0,0,1-5.891-1.7,16.5,16.5,0,0,1-4.775-3.848,18.058,18.058,0,0,1-3.2-5.442,18.539,18.539,0,0,1-1.171-6.487V30.917a18.537,18.537,0,0,1,1.17-6.491,18.078,18.078,0,0,1,3.2-5.442,16.476,16.476,0,0,1,4.776-3.85,14.68,14.68,0,0,1,5.891-1.695" transform="translate(4737 9578)" fill="#f4f9ff"/>
        <path id="Path_2781-2" data-name="Path 2781" d="M60.966,18.319,85.974,16.7a5.048,5.048,0,0,1,2.126.309,4.858,4.858,0,0,1,1.722,1.115,5.238,5.238,0,0,1,1.154,1.759,6,6,0,0,1,.424,2.239,6.4,6.4,0,0,1-.421,2.291,6.187,6.187,0,0,1-1.154,1.9,5.8,5.8,0,0,1-1.725,1.33,5.432,5.432,0,0,1-2.125.572L60.966,29.7a4.874,4.874,0,0,1-2.07-.318,4.748,4.748,0,0,1-1.672-1.108,5.215,5.215,0,0,1-1.117-1.735,5.987,5.987,0,0,1-.407-2.2,6.4,6.4,0,0,1,.407-2.253,6.122,6.122,0,0,1,1.117-1.873A5.665,5.665,0,0,1,58.9,18.893a5.254,5.254,0,0,1,2.066-.574" transform="translate(4737 9578)" fill="#50567c"/>
        <rect id="Rectangle_2026-2" data-name="Rectangle 2026" width="152.283" height="304.012" transform="translate(4737 9578)" fill="none"/>
      </g>
      <g id="Group_8484" data-name="Group 8484" transform="matrix(0.743, 0.669, -0.669, 0.743, 1088.582, 298.605)">
        <g id="Group_8483" data-name="Group 8483" transform="translate(0)" clip-path="url(#clip-path-2)">
          <g id="Group_8453" data-name="Group 8453" transform="translate(0 13.347)">
            <g id="Group_8452" data-name="Group 8452" clip-path="url(#clip-path-3)">
              <rect id="Rectangle_2839" data-name="Rectangle 2839" width="41.715" height="35.594" transform="translate(27.44 32.947) rotate(-143.187)" fill="url(#linear-gradient)"/>
            </g>
          </g>
          <g id="Group_8455" data-name="Group 8455" transform="translate(0 13.347)">
            <g id="Group_8454" data-name="Group 8454" clip-path="url(#clip-path-3)">
              <rect id="Rectangle_2840" data-name="Rectangle 2840" width="41.715" height="35.594" transform="translate(27.44 32.947) rotate(-143.187)" fill="url(#linear-gradient-2)"/>
            </g>
          </g>
          <g id="Group_8462" data-name="Group 8462">
            <g id="Group_8461" data-name="Group 8461" clip-path="url(#clip-path-2)">
              <g id="Group_8460" data-name="Group 8460" transform="translate(0 16.072)" style="mix-blend-mode: screen;isolation: isolate">
                <g id="Group_8459" data-name="Group 8459">
                  <g id="Group_8458" data-name="Group 8458" clip-path="url(#clip-path-6)">
                    <g id="Group_8457" data-name="Group 8457" transform="translate(0)">
                      <g id="Group_8456" data-name="Group 8456" clip-path="url(#clip-path-7)">
                        <rect id="Rectangle_2841" data-name="Rectangle 2841" width="43.293" height="21.154" transform="matrix(-0.96, -0.28, 0.28, -0.96, 38.948, 21.063)" fill="url(#linear-gradient-3)"/>
                      </g>
                    </g>
                  </g>
                </g>
              </g>
            </g>
          </g>
          <g id="Group_8464" data-name="Group 8464" transform="translate(29.542 39.775)">
            <g id="Group_8463" data-name="Group 8463" transform="translate(0)" clip-path="url(#clip-path-8)">
              <rect id="Rectangle_2844" data-name="Rectangle 2844" width="10.617" height="11.876" transform="translate(3.147 13.514) rotate(-143.187)" fill="url(#linear-gradient-4)"/>
            </g>
          </g>
          <g id="Group_8471" data-name="Group 8471">
            <g id="Group_8470" data-name="Group 8470" clip-path="url(#clip-path-2)">
              <g id="Group_8469" data-name="Group 8469" transform="translate(29.542 41.643)" style="mix-blend-mode: screen;isolation: isolate">
                <g id="Group_8468" data-name="Group 8468" transform="translate(0)">
                  <g id="Group_8467" data-name="Group 8467" transform="translate(0)" clip-path="url(#clip-path-10)">
                    <g id="Group_8466" data-name="Group 8466" transform="translate(0 0)">
                      <g id="Group_8465" data-name="Group 8465" clip-path="url(#clip-path-11)">
                        <rect id="Rectangle_2845" data-name="Rectangle 2845" width="6.255" height="9.985" transform="matrix(-0.96, -0.28, 0.28, -0.96, 3.503, 10.314)" fill="url(#linear-gradient-5)"/>
                      </g>
                    </g>
                  </g>
                </g>
              </g>
            </g>
          </g>
          <g id="Group_8473" data-name="Group 8473">
            <g id="Group_8472" data-name="Group 8472" clip-path="url(#clip-path-12)">
              <rect id="Rectangle_2848" data-name="Rectangle 2848" width="107.789" height="98.62" transform="translate(65.71 91.067) rotate(-143.187)" fill="url(#radial-gradient)"/>
            </g>
          </g>
          <g id="Group_8475" data-name="Group 8475" transform="translate(35.76)">
            <g id="Group_8474" data-name="Group 8474" transform="translate(0)" clip-path="url(#clip-path-13)">
              <rect id="Rectangle_2849" data-name="Rectangle 2849" width="65.298" height="58.673" transform="translate(38.926 56.956) rotate(-143.187)" fill="url(#linear-gradient-6)"/>
            </g>
          </g>
          <g id="Group_8482" data-name="Group 8482">
            <g id="Group_8481" data-name="Group 8481" clip-path="url(#clip-path-2)">
              <g id="Group_8480" data-name="Group 8480" transform="translate(35.76)" style="mix-blend-mode: screen;isolation: isolate">
                <g id="Group_8479" data-name="Group 8479">
                  <g id="Group_8478" data-name="Group 8478" clip-path="url(#clip-path-15)">
                    <g id="Group_8477" data-name="Group 8477" transform="translate(0)">
                      <g id="Group_8476" data-name="Group 8476" transform="translate(0)" clip-path="url(#clip-path-16)">
                        <rect id="Rectangle_2850" data-name="Rectangle 2850" width="66.097" height="43.741" transform="matrix(-0.96, -0.28, 0.28, -0.96, 55.953, 44.169)" fill="url(#linear-gradient-7)"/>
                      </g>
                    </g>
                  </g>
                </g>
              </g>
            </g>
          </g>
        </g>
      </g>
      <g id="Group_8486" data-name="Group 8486">
        <g id="Group_4289" data-name="Group 4289" transform="translate(943.5 336.984) rotate(-8)">
          <path id="Path_2707" data-name="Path 2707" d="M18.036,55.085a27.947,27.947,0,0,1-6.449-4.527c-2.615-2.635-3.709-3.273-4.629-7.235s2.482-6.44,1.693-10.051S2.156,29,.382,24.435,3.55,14.769,4.254,10.524-1.252,2.338.868.795,8.862-.287,12.733,4.352s-.108,7.98,2.982,11.282,5.936.462,9.229,1.709S18.718,29.1,18.451,34.9s6.6,3.377,6.493,8.424S18.036,55.085,18.036,55.085Z" transform="translate(0 4.452) rotate(-10)" fill="#8cb37c"/>
          <path id="Path_2708" data-name="Path 2708" d="M7.905,41.85s.135-13.27-1.841-23.733A70.058,70.058,0,0,0,0,0" transform="translate(14.283 18.986) rotate(-8)" fill="none" stroke="#769869" stroke-linecap="round" stroke-width="2"/>
        </g>
        <path id="Path_2709" data-name="Path 2709" d="M3609.688,6769.119s1.592,3.922,3.261,7.22,3.659,6.35,3.659,6.35l.625-1.954-6.168-10.5a5.032,5.032,0,0,1-.662-.363A5.394,5.394,0,0,1,3609.688,6769.119Z" transform="translate(-2636.544 -6398.626)" fill="#62765a"/>
        <g id="Group_4290" data-name="Group 4290" transform="translate(973.035 306.646)">
          <path id="Path_2702" data-name="Path 2702" d="M3695.417,6088.318a40.133,40.133,0,0,0,9.255-6.5c3.753-3.783,5.323-4.7,6.643-10.384s-3.562-9.242-2.429-14.426,9.322-6.135,11.868-12.681-4.547-13.873-5.558-19.966,7.9-11.748,4.86-13.963-11.472-1.552-17.028,5.106.154,11.452-4.28,16.19-8.519.663-13.245,2.453,8.936,16.869,9.318,25.194-9.467,4.848-9.318,12.091S3695.417,6088.318,3695.417,6088.318Z" transform="translate(-3684.512 -6009.262)" fill="#b1d0a4"/>
          <path id="Path_2703" data-name="Path 2703" d="M3772.137,6203.069l-11.278,59.708" transform="translate(-3751.131 -6174.727)" fill="none" stroke="#8db17f" stroke-linecap="round" stroke-width="2"/>
        </g>
        <g id="Group_8485" data-name="Group 8485" transform="translate(26)">
          <path id="Path_2704" data-name="Path 2704" d="M5488.045,4292.292h33.035l-3.087,33.018h-27.355Z" transform="translate(-4552.586 -3901.193)" fill="#e5a65f"/>
          <path id="Path_2706" data-name="Path 2706" d="M3593.662,6818.125h-5.782l2.758,33.142h6.373Z" transform="translate(-2652.594 -6427.026)" fill="#dd9544"/>
          <path id="Path_2705" data-name="Path 2705" d="M5519.574,4357.048h-26.283" transform="translate(-4557.171 -3957.79)" fill="none" stroke="#c78234" stroke-width="1"/>
        </g>
      </g>
      <g id="Group_8654" data-name="Group 8654" transform="translate(1013.072 216.441)">
        <g transform="matrix(1, 0, 0, 1, -103.07, -112.22)" filter="url(#Rectangle_2937)">
          <path id="Rectangle_2937-2" data-name="Rectangle 2937" d="M27.047,12.887l46.144-.662a15.1,15.1,0,0,1,6.1,1.183,15.455,15.455,0,0,1,5,3.4,16,16,0,0,1,3.382,5.112,16.442,16.442,0,0,1,1.242,6.3V76.894a16.442,16.442,0,0,1-1.242,6.3,16,16,0,0,1-3.382,5.112,15.455,15.455,0,0,1-5,3.4,15.1,15.1,0,0,1-6.1,1.183l-46.144-.662A14.56,14.56,0,0,1,21.17,90.9a15.33,15.33,0,0,1-4.78-3.454,16.151,16.151,0,0,1-3.214-5.059A16.569,16.569,0,0,1,12,76.233V28.885a16.569,16.569,0,0,1,1.177-6.156A16.151,16.151,0,0,1,16.39,17.67a15.329,15.329,0,0,1,4.78-3.454A14.56,14.56,0,0,1,27.047,12.887Z" transform="translate(103.07 112.22)" fill="#fff"/>
        </g>
        <g id="OneAuth-whiteBG" transform="translate(24.213 25.49)">
          <g id="Group_8654-2" data-name="Group 8654" transform="translate(0 2.231)">
            <path id="Path_17535" data-name="Path 17535" d="M2.616,6.487a17.346,17.346,0,0,0-1.95,4.429,17.641,17.641,0,0,0-.5,2.381A17.9,17.9,0,0,0,0,15.747q0,.861.08,1.708t.241,1.677q.16.83.4,1.64t.558,1.6q.307.761.68,1.482t.81,1.4q.437.679.937,1.315t1.062,1.224q.562.589,1.169,1.115t1.258.987q.651.461,1.343.856t1.423.721a16.015,16.015,0,0,0,1.538.594,15.728,15.728,0,0,0,3.2.692,16.152,16.152,0,0,0,3.3.02,15.719,15.719,0,0,0,3.214-.655,16,16,0,0,0,1.55-.579q.738-.32,1.438-.709t1.359-.847q.659-.457,1.276-.981t1.187-1.113q.571-.589,1.08-1.226t.955-1.321q.446-.683.827-1.41t.695-1.494q.325-.795.57-1.614t.409-1.658q.164-.839.246-1.7t.082-1.728a17.9,17.9,0,0,0-.172-2.478,17.639,17.639,0,0,0-.509-2.407,17.339,17.339,0,0,0-1.992-4.467,17.162,17.162,0,0,0-1.4-1.92,16.815,16.815,0,0,0-1.633-1.686,16.511,16.511,0,0,0-1.841-1.431A16.286,16.286,0,0,0,23.317.2,1.471,1.471,0,0,0,22.149.156a1.53,1.53,0,0,0-.5.315,1.589,1.589,0,0,0-.36.508,1.636,1.636,0,0,0-.052,1.212,1.59,1.59,0,0,0,.3.519,1.517,1.517,0,0,0,.488.372,13.27,13.27,0,0,1,1.649.943,13.466,13.466,0,0,1,1.5,1.168A13.727,13.727,0,0,1,26.5,6.568,14.044,14.044,0,0,1,28.582,9.9a14.2,14.2,0,0,1,.681,1.874,14.376,14.376,0,0,1,.414,1.96,14.687,14.687,0,0,1-.12,4.772,14.209,14.209,0,0,1-.763,2.608,13.966,13.966,0,0,1-2.935,4.53A13.66,13.66,0,0,1,23.8,27.386a13.1,13.1,0,0,1-2.311,1.273,12.882,12.882,0,0,1-2.5.776,13.107,13.107,0,0,1-5.271-.026,12.891,12.891,0,0,1-2.49-.8,13.109,13.109,0,0,1-2.29-1.287A13.675,13.675,0,0,1,6.9,25.572a13.974,13.974,0,0,1-2.89-4.51,14.213,14.213,0,0,1-.749-2.586,14.692,14.692,0,0,1-.118-4.727,14.376,14.376,0,0,1,.406-1.942A14.118,14.118,0,0,1,5.142,8.194a14.022,14.022,0,0,1,1.123-1.56A13.732,13.732,0,0,1,7.578,5.259,13.479,13.479,0,0,1,9.06,4.086a13.287,13.287,0,0,1,1.634-.953,1.526,1.526,0,0,0,.484-.375,1.6,1.6,0,0,0,.3-.52,1.645,1.645,0,0,0,.09-.6,1.623,1.623,0,0,0-.142-.609,1.559,1.559,0,0,0-.357-.5,1.5,1.5,0,0,0-.5-.309A1.454,1.454,0,0,0,9.413.28a16.3,16.3,0,0,0-2,1.17A16.533,16.533,0,0,0,5.6,2.889,16.838,16.838,0,0,0,3.99,4.575,17.2,17.2,0,0,0,2.615,6.487Z" transform="translate(9.366 9.093)" fill="#226db4"/>
            <path id="Path_17536" data-name="Path 17536" d="M.887,3.169A22.751,22.751,0,0,1,2.9,4.253,22.725,22.725,0,0,1,4.784,5.531Q5.7,6.219,6.545,7T8.172,8.654q.782.876,1.47,1.819t1.281,1.947q.593,1,1.088,2.068t.889,2.182a1.612,1.612,0,0,0,.235.438,1.559,1.559,0,0,0,.342.331,1.532,1.532,0,0,0,.417.209,1.5,1.5,0,0,0,.463.072q.066,0,.133-.006t.133-.018q.066-.012.133-.031t.132-.043a1.546,1.546,0,0,0,.526-.333,1.609,1.609,0,0,0,.35-.5,1.642,1.642,0,0,0,.052-1.224q-.448-1.268-1.01-2.475t-1.235-2.345Q12.9,9.609,12.117,8.541T10.449,6.48Q9.566,5.492,8.6,4.607t-2-1.663A25.74,25.74,0,0,0,4.466,1.5,25.791,25.791,0,0,0,2.187.271,1.479,1.479,0,0,0,1.594.127a1.5,1.5,0,0,0-.582.1A1.548,1.548,0,0,0,.507.546a1.6,1.6,0,0,0-.362.512A1.642,1.642,0,0,0,.092,2.276,1.591,1.591,0,0,0,.4,2.8a1.519,1.519,0,0,0,.491.372Z" transform="translate(34.508)" fill="#226db4"/>
            <path id="Path_17537" data-name="Path 17537" d="M6.431,1.445A1.632,1.632,0,0,0,6.25.837a1.589,1.589,0,0,0-.38-.473A1.537,1.537,0,0,0,5.346.073,1.52,1.52,0,0,0,4.143.2a1.569,1.569,0,0,0-.458.392,1.623,1.623,0,0,0-.283.54,1.644,1.644,0,0,0-.062.632q.028.3.05.594t.036.6q.014.3.021.6t.007.6A24.928,24.928,0,0,1,3.246,7.37a24.772,24.772,0,0,1-.617,3.141,24.475,24.475,0,0,1-1.014,3.022,24.046,24.046,0,0,1-1.4,2.858,1.619,1.619,0,0,0-.2.6,1.652,1.652,0,0,0,.035.612,1.633,1.633,0,0,0,.254.555,1.567,1.567,0,0,0,.646.527A1.509,1.509,0,0,0,2.3,18.613a1.535,1.535,0,0,0,.321-.244,1.583,1.583,0,0,0,.256-.334A27.247,27.247,0,0,0,4.47,14.792a27.724,27.724,0,0,0,1.152-3.427,28.066,28.066,0,0,0,.7-3.563A28.234,28.234,0,0,0,6.56,4.153q0-.339-.008-.678T6.527,2.8q-.016-.339-.04-.677T6.431,1.445Z" transform="translate(45.353 20.669)" fill="#226db4"/>
            <path id="Path_17538" data-name="Path 17538" d="M34.979.718q-.8.823-1.659,1.555t-1.781,1.37q-.92.638-1.9,1.181t-2.005.987a22.17,22.17,0,0,1-2.16.8,21.81,21.81,0,0,1-2.215.57A21.85,21.85,0,0,1,21,7.518a22.354,22.354,0,0,1-2.3.1,22.288,22.288,0,0,1-2.3-.138A21.936,21.936,0,0,1,14.14,7.1,21.891,21.891,0,0,1,11.935,6.5a22.164,22.164,0,0,1-2.143-.839Q8.774,5.2,7.81,4.641t-1.869-1.2q-.9-.649-1.75-1.388T2.567.48a1.508,1.508,0,0,0-.5-.351A1.442,1.442,0,0,0,.94.119a1.483,1.483,0,0,0-.5.342A1.567,1.567,0,0,0,.111.98a1.657,1.657,0,0,0,0,1.187,1.6,1.6,0,0,0,.328.525q.882.937,1.837,1.775T4.253,6.04q1.024.736,2.115,1.366T8.611,8.56a25.191,25.191,0,0,0,2.426.953,24.753,24.753,0,0,0,2.5.691,24.777,24.777,0,0,0,2.557.427,25.3,25.3,0,0,0,2.61.16,25.33,25.33,0,0,0,2.612-.109,24.687,24.687,0,0,0,2.563-.376,24.657,24.657,0,0,0,2.508-.643,25.241,25.241,0,0,0,2.448-.909Q30,8.25,31.1,7.637T33.255,6.3q1.044-.722,2.02-1.55t1.882-1.76a1.585,1.585,0,0,0,.339-.526,1.658,1.658,0,0,0,0-1.2,1.612,1.612,0,0,0-.339-.531,1.547,1.547,0,0,0-.51-.354A1.494,1.494,0,0,0,35.488.37a1.52,1.52,0,0,0-.509.348Z" transform="translate(7.015 41.047)" fill="#226db4"/>
            <path id="Path_17539" data-name="Path 17539" d="M2.911,1.042A1.591,1.591,0,0,0,2.6.508,1.516,1.516,0,0,0,2.133.152,1.451,1.451,0,0,0,1.574.006,1.43,1.43,0,0,0,.985.1,1.479,1.479,0,0,0,.477.424,1.57,1.57,0,0,0,.14.912a1.639,1.639,0,0,0-.048,1.2q.2.574.425,1.139t.475,1.12q.25.555.524,1.1t.571,1.07a1.579,1.579,0,0,0,.248.332,1.514,1.514,0,0,0,.311.244A1.474,1.474,0,0,0,3,7.268a1.439,1.439,0,0,0,.575.041,1.425,1.425,0,0,0,.194-.04,1.445,1.445,0,0,0,.19-.067,1.469,1.469,0,0,0,.184-.1,1.514,1.514,0,0,0,.444-.416,1.6,1.6,0,0,0,.248-.545,1.65,1.65,0,0,0,.034-.6,1.627,1.627,0,0,0-.2-.592Q4.412,4.484,4.17,4t-.463-.969q-.221-.49-.42-.989T2.911,1.042Z" transform="translate(1.457 31.913)" fill="#226db4"/>
            <path id="Path_17540" data-name="Path 17540" d="M16.1,3.023a1.534,1.534,0,0,0,.484-.377,1.616,1.616,0,0,0,.3-.522,1.654,1.654,0,0,0,.09-.6,1.626,1.626,0,0,0-.142-.61,1.556,1.556,0,0,0-.358-.5,1.489,1.489,0,0,0-.5-.308A1.453,1.453,0,0,0,14.82.168a25.807,25.807,0,0,0-3.155,1.858A26.17,26.17,0,0,0,8.8,4.306,26.645,26.645,0,0,0,6.275,6.974a27.3,27.3,0,0,0-3.942,6.414,27.579,27.579,0,0,0-1.287,3.6,27.914,27.914,0,0,0-.782,3.755A28.327,28.327,0,0,0,0,24.6q0,.338.008.678t.024.678q.016.339.04.677t.056.672a1.628,1.628,0,0,0,.158.563,1.57,1.57,0,0,0,.33.449,1.5,1.5,0,0,0,.458.3,1.428,1.428,0,0,0,.543.108h.075l.038,0,.038,0a1.443,1.443,0,0,0,.569-.183,1.518,1.518,0,0,0,.442-.385,1.6,1.6,0,0,0,.272-.531A1.641,1.641,0,0,0,3.112,27q-.028-.3-.05-.595t-.036-.6q-.014-.3-.021-.6T3,24.6a25.015,25.015,0,0,1,.233-3.413,24.64,24.64,0,0,1,.692-3.318A24.213,24.213,0,0,1,6.633,11.7,24.021,24.021,0,0,1,8.547,9.03a23.526,23.526,0,0,1,2.237-2.356,23.1,23.1,0,0,1,2.529-2.012A22.771,22.771,0,0,1,16.1,3.024Z" transform="translate(0 0.295)" fill="#226db4"/>
          </g>
          <path id="Path_17541" data-name="Path 17541" d="M14.136,29.266a12.588,12.588,0,0,0-.127-1.788,11.81,11.81,0,0,0-.372-1.7,10.73,10.73,0,0,0-.605-1.573A9.492,9.492,0,0,0,12.2,22.8a8.358,8.358,0,0,0-.791-.955,7.19,7.19,0,0,0-.877-.774,6.319,6.319,0,0,0-.95-.586,5.77,5.77,0,0,0-1.01-.392V1.642a1.629,1.629,0,0,0-.12-.617,1.575,1.575,0,0,0-.327-.5A1.507,1.507,0,0,0,7.644.188,1.462,1.462,0,0,0,7.05.069,1.479,1.479,0,0,0,6.456.2a1.545,1.545,0,0,0-.485.345,1.614,1.614,0,0,0-.327.507,1.646,1.646,0,0,0-.12.619V3.252l-2.352.02a1.471,1.471,0,0,0-.592.13,1.539,1.539,0,0,0-.483.344,1.609,1.609,0,0,0-.326.506,1.652,1.652,0,0,0,0,1.234,1.575,1.575,0,0,0,.326.5,1.505,1.505,0,0,0,.483.336,1.458,1.458,0,0,0,.592.12l2.352-.017V20.1a5.785,5.785,0,0,0-1.007.4,6.337,6.337,0,0,0-.946.589,7.2,7.2,0,0,0-.872.775,8.357,8.357,0,0,0-.786.954,9.495,9.495,0,0,0-.82,1.4,10.724,10.724,0,0,0-.6,1.567,11.8,11.8,0,0,0-.369,1.692A12.589,12.589,0,0,0,0,29.255q0,.539.044,1.065t.132,1.04q.088.513.219,1.011T.7,33.35a1.594,1.594,0,0,0,.321.533,1.53,1.53,0,0,0,.475.352,1.475,1.475,0,0,0,.567.141,1.46,1.46,0,0,0,.6-.1,1.5,1.5,0,0,0,.511-.334,1.585,1.585,0,0,0,.337-.5,1.64,1.64,0,0,0,.036-1.212c-.082-.227-.155-.462-.218-.7s-.115-.487-.158-.737-.075-.5-.1-.761-.032-.516-.032-.775a9.366,9.366,0,0,1,.087-1.278,8.5,8.5,0,0,1,.254-1.2,7.46,7.46,0,0,1,.414-1.1A6.362,6.362,0,0,1,4.36,24.7a5,5,0,0,1,.6-.7,3.806,3.806,0,0,1,.659-.514,2.986,2.986,0,0,1,.7-.316,2.535,2.535,0,0,1,1.46,0,2.983,2.983,0,0,1,.7.315,3.8,3.8,0,0,1,.66.513,4.986,4.986,0,0,1,.6.7,6.222,6.222,0,0,1,.448.734,7.07,7.07,0,0,1,.36.814,7.93,7.93,0,0,1,.268.881,8.708,8.708,0,0,1,.173.936H8.577a1.472,1.472,0,0,0-.594.125,1.526,1.526,0,0,0-.485.34,1.593,1.593,0,0,0-.327.5,1.652,1.652,0,0,0,0,1.236,1.6,1.6,0,0,0,.327.5,1.53,1.53,0,0,0,.485.341,1.474,1.474,0,0,0,.595.126l2.282,0q-.03.134-.064.267t-.072.262q-.038.13-.08.257t-.087.252a1.641,1.641,0,0,0,.032,1.216,1.6,1.6,0,0,0,.337.5,1.525,1.525,0,0,0,.513.339q.067.027.136.047t.137.033q.069.013.137.02t.137.007a1.474,1.474,0,0,0,.451-.07,1.512,1.512,0,0,0,.408-.2,1.545,1.545,0,0,0,.337-.321,1.6,1.6,0,0,0,.236-.426q.157-.424.279-.863t.212-.889q.089-.451.143-.913t.075-.935q0-.02,0-.041t0-.041q0-.021,0-.042t0-.042s0-.009,0-.013,0-.009,0-.013,0-.009,0-.013V29.6q0-.041,0-.083t0-.083q0-.041,0-.083T14.136,29.266Z" transform="translate(18.665 0)" fill="#f9b21d"/>
        </g>
      </g>
      <g id="Group_5997" data-name="Group 5997" transform="translate(950.961 262.988)">
        <circle id="Ellipse_399" data-name="Ellipse 399" cx="15" cy="15" r="15" fill="rgba(255,185,1,0.09)"/>
        <g id="Group_5969" data-name="Group 5969" transform="translate(7 8)">
          <g id="Group_5968" data-name="Group 5968">
            <path id="Path_3370" data-name="Path 3370" d="M.02,30.349,0,35.369H7.077l-.045-5.909Z" transform="translate(0 -28.3)" fill="#f25022"/>
            <path id="Path_3371" data-name="Path 3371" d="M213,0l-8.039,1.036-.019,6.044,8.077-.019Z" transform="translate(-197.014)" fill="#7fba00"/>
            <path id="Path_3372" data-name="Path 3372" d="M204.956,205.727l-.019,6.024,8.077,1.017L213,205.727Z" transform="translate(-197.014 -197.769)" fill="#ffb901"/>
            <path id="Path_3373" data-name="Path 3373" d="M.184,205.259v5.027l7.06.883-.019-5.928Z" transform="translate(-0.177 -197.3)" fill="#01a4ef"/>
          </g>
        </g>
      </g>
      <g id="Group_5900" data-name="Group 5900" transform="translate(951.634 220.569)">
        <circle id="Ellipse_396" data-name="Ellipse 396" cx="15" cy="15" r="15" fill="rgba(127,186,0,0.1)"/>
        <path id="Path_3288" data-name="Path 3288" d="M234.714,184.5l.68-.021a.312.312,0,0,0,.289-.323v-.377a1.3,1.3,0,0,0-.914-1.278l-.027-.007a1.072,1.072,0,0,0-.262-.031h-3.4a1.907,1.907,0,0,1-1.008-.29,3.52,3.52,0,0,1-.882-.713,6.725,6.725,0,0,0-.978-1.046,2.663,2.663,0,0,0-1.713-.625h-4.377a1.172,1.172,0,0,0-.56.14,1.359,1.359,0,0,0-.581.6,1.405,1.405,0,0,0-.134.616v12.666a2.118,2.118,0,0,0,.266,1.038l.013.023a1.812,1.812,0,0,0,1.567.922h11.771a2.028,2.028,0,0,0,.869-.194,2.6,2.6,0,0,0,1.4-1.5,2.364,2.364,0,0,0,.114-.74v-7.171a1.105,1.105,0,0,0-.515-.857,1.282,1.282,0,0,0-.712-.208H224.691a1.449,1.449,0,0,0-1.043.434.914.914,0,0,0-.294.631v7.483a1,1,0,0,1-.2.621.615.615,0,0,1-.491.251.5.5,0,0,1-.539-.466c0-.011,0-.023,0-.035V181.392a.214.214,0,0,1,.205-.222h4.194a1.661,1.661,0,0,1,.99.332,4.007,4.007,0,0,1,1.029,1.089,3.115,3.115,0,0,0,2.049,1.143,1.864,1.864,0,0,0,.327.029h3.5v.418a.309.309,0,0,0,.3.322h.011" transform="translate(-214.105 -172.302)" fill="#7fba00"/>
      </g>
      <g id="Group_5996" data-name="Group 5996" transform="translate(951 179.222)">
        <circle id="Ellipse_397" data-name="Ellipse 397" cx="15" cy="15" r="15" fill="rgba(235,243,255,0.84)"/>
        <g id="vault_2_" data-name="vault (2)" transform="translate(7 7)">
          <path id="Path_3384" data-name="Path 3384" d="M15.176,18H13.608a1.1,1.1,0,0,1-1.1-1.1v-.643a.157.157,0,0,0-.157-.157H7.647a.157.157,0,0,0-.157.157V16.9a1.1,1.1,0,0,1-1.1,1.1H4.824a1.1,1.1,0,0,1-1.1-1.1v-.85A2.2,2.2,0,0,1,2,13.906V4.2A2.2,2.2,0,0,1,4.2,2H15.8A2.2,2.2,0,0,1,18,4.2v9.71a2.2,2.2,0,0,1-1.725,2.146v.85A1.1,1.1,0,0,1,15.176,18ZM7.647,15.161h4.706a1.1,1.1,0,0,1,1.1,1.1V16.9a.157.157,0,0,0,.157.157h1.569a.157.157,0,0,0,.157-.157V15.631a.47.47,0,0,1,.471-.471,1.257,1.257,0,0,0,1.255-1.255V4.2A1.257,1.257,0,0,0,15.8,2.941H4.2A1.257,1.257,0,0,0,2.941,4.2v9.71A1.257,1.257,0,0,0,4.2,15.161a.47.47,0,0,1,.471.471V16.9a.157.157,0,0,0,.157.157H6.392a.157.157,0,0,0,.157-.157v-.643A1.1,1.1,0,0,1,7.647,15.161Z" transform="translate(-2 -2)" fill="#226eb3" opacity="0.9"/>
          <g id="Group_5993" data-name="Group 5993" transform="translate(3.547 4.177)">
            <path id="Path_3385" data-name="Path 3385" d="M292.013,439.652a.487.487,0,0,1-.283-.092.482.482,0,0,1-.106-.674l1.568-2.157a.483.483,0,0,1,.781.568l-1.568,2.157A.487.487,0,0,1,292.013,439.652Z" transform="translate(-290.566 -433.883)" fill="#e42528" opacity="0.9"/>
            <path id="Path_3386" data-name="Path 3386" d="M391.025,439.6a.482.482,0,0,1-.391-.2l-1.568-2.157a.483.483,0,1,1,.781-.568l1.568,2.157a.483.483,0,0,1-.106.674A.478.478,0,0,1,391.025,439.6Z" transform="translate(-386.441 -433.828)" fill="#e42528" opacity="0.9"/>
            <path id="Path_3387" data-name="Path 3387" d="M389.383,275.712a.482.482,0,0,1-.483-.483v-2.646a.483.483,0,1,1,.966,0v2.646A.482.482,0,0,1,389.383,275.712Z" transform="translate(-386.368 -272.1)" fill="#e42528" opacity="0.9"/>
            <path id="Path_3388" data-name="Path 3388" d="M389.423,387.623a.483.483,0,0,1-.148-.943l2.532-.816a.483.483,0,0,1,.3.919l-2.532.816A.485.485,0,0,1,389.423,387.623Z" transform="translate(-386.408 -384.009)" fill="#e42528" opacity="0.9"/>
            <path id="Path_3389" data-name="Path 3389" d="M234.645,387.614a.467.467,0,0,1-.148-.024l-2.532-.816a.483.483,0,0,1,.3-.919l2.53.816a.483.483,0,0,1-.148.943Z" transform="translate(-231.631 -384)" fill="#e42528" opacity="0.9"/>
          </g>
          <path id="Path_3390" data-name="Path 3390" d="M732.183,278.546a.482.482,0,0,1-.483-.483v-4.781a.483.483,0,1,1,.966,0v4.781A.482.482,0,0,1,732.183,278.546Z" transform="translate(-720.272 -268.612)" fill="#226eb3" opacity="0.9"/>
        </g>
      </g>
    </g>
  </g>
</svg>
