<svg xmlns="http://www.w3.org/2000/svg" xmlns:xlink="http://www.w3.org/1999/xlink" width="350" height="350" viewBox="0 0 350 350"><defs><clipPath id="a"><rect width="270.897" height="156.45" fill="#69b1f8"/></clipPath><clipPath id="b"><rect width="23.192" height="22.382" fill="none"/></clipPath><clipPath id="c"><path d="M.475.506,24.7.661V27.308L.475,27.448Z" transform="translate(-0.475 -0.506)" fill="#fff" stroke="#6a75ce" stroke-width="1"/></clipPath><clipPath id="d"><path d="M.475.506,24.7.66V26.242l-24.226.13Z" transform="translate(-0.475 -0.506)" fill="#fff" stroke="#8894f4" stroke-width="1"/></clipPath></defs><g transform="translate(-839.385 -99.767)"><g transform="translate(839.385 205.424)"><path d="M3.083.018,47.562.273a2.777,2.777,0,0,1,1.15.256,2.978,2.978,0,0,1,.938.686,3.226,3.226,0,0,1,.632,1.013,3.384,3.384,0,0,1,.232,1.237V23.043a3.386,3.386,0,0,1-.232,1.237,3.229,3.229,0,0,1-.632,1.013,2.98,2.98,0,0,1-.939.687,2.779,2.779,0,0,1-1.15.257l-44.478.276a2.926,2.926,0,0,1-1.2-.248,3.06,3.06,0,0,1-.98-.69,3.244,3.244,0,0,1-.661-1.029A3.377,3.377,0,0,1,0,23.282V3.249A3.377,3.377,0,0,1,.243,1.985,3.245,3.245,0,0,1,.9.956a3.061,3.061,0,0,1,.98-.69A2.926,2.926,0,0,1,3.083.018Z" fill="#dbd9ef"/><path d="M3.077.018l44.4.255a2.77,2.77,0,0,1,1.148.256,2.973,2.973,0,0,1,.937.685A3.224,3.224,0,0,1,50.2,2.226a3.384,3.384,0,0,1,.231,1.236V22.035a3.385,3.385,0,0,1-.231,1.236,3.225,3.225,0,0,1-.631,1.012,2.974,2.974,0,0,1-.937.686,2.771,2.771,0,0,1-1.148.256l-44.4.255a2.92,2.92,0,0,1-1.2-.248,3.056,3.056,0,0,1-.979-.69,3.244,3.244,0,0,1-.66-1.028A3.378,3.378,0,0,1,0,22.251V3.246A3.376,3.376,0,0,1,.242,1.984,3.243,3.243,0,0,1,.9.955,3.056,3.056,0,0,1,1.88.266,2.919,2.919,0,0,1,3.077.018Z" transform="translate(1.928 0.011)" fill="#f6f5ff"/><g transform="translate(7.653 7.564)"><path d="M10.438,4.721,9.915,3.075,6.135,4.558V.014l-1.577,0V4.648L.528,3.066,0,4.719l4.078,1.6L1.5,9.661,2.7,10.8l2.53-3.285,2.524,3.272,1.2-1.138L6.384,6.316Z" fill="#6a75ce"/><path d="M10.312,4.692,9.8,3.056,6.061,4.53V.014L4.5.011V4.62L.522,3.047,0,4.69,4.029,6.278,1.482,9.6l1.187,1.129,2.5-3.265,2.494,3.252L8.843,9.588,6.307,6.277Z" transform="translate(13.434 0.031)" fill="#6a75ce"/><path d="M10.176,4.661l-.51-1.625L5.981,4.5V.014L4.444.01V4.59L.516,3.027,0,4.659,3.976,6.237l-2.514,3.3L2.634,10.66,5.1,7.417l2.461,3.231L8.726,9.524l-2.5-3.289Z" transform="translate(28.057 0.066)" fill="#6a75ce"/></g><g transform="translate(8.66 7.607)"><path d="M10.429,4.5l-.523-1.57L6.13,4.348V.014l-1.575,0V4.434L.528,2.924,0,4.5,4.075,6.025,1.5,9.214,2.7,10.3,5.227,7.165l2.522,3.121L8.943,9.2,6.379,6.024Z" fill="#8894f4"/><path d="M10.307,4.477,9.79,2.916,6.058,4.322V.014L4.5.01v4.4l-3.98-1.5L0,4.474,4.027,5.989,1.481,9.16l1.187,1.077,2.5-3.114,2.492,3.1,1.18-1.079L6.3,5.988Z" transform="translate(12.949 0.03)" fill="#8894f4"/><path d="M10.176,4.448,9.666,2.9l-3.684,1.4V.014L4.444.01V4.379L.516,2.888,0,4.445,3.976,5.951,1.462,9.1l1.172,1.07L5.1,7.077,7.561,10.16,8.726,9.088,6.224,5.95Z" transform="translate(27.05 0.063)" fill="#8894f4"/></g></g><g transform="translate(881.464 134.096)"><path d="M19.139.175A17.99,17.99,0,0,1,26.5,1.82a19.01,19.01,0,0,1,5.974,4.34,20.3,20.3,0,0,1,4.01,6.376,21.347,21.347,0,0,1,0,15.552,20.3,20.3,0,0,1-4.01,6.376A19.01,19.01,0,0,1,26.5,38.8a18.029,18.029,0,0,1-14.771.125,18.964,18.964,0,0,1-6.089-4.29,20.263,20.263,0,0,1-4.124-6.425,21.344,21.344,0,0,1,0-15.8A20.263,20.263,0,0,1,5.64,5.986,18.964,18.964,0,0,1,11.729,1.7,17.968,17.968,0,0,1,19.139.175Z" fill="#dbd9ef"/><path d="M19.106.175a17.946,17.946,0,0,1,7.348,1.643,18.978,18.978,0,0,1,5.964,4.336,20.28,20.28,0,0,1,4,6.37,21.346,21.346,0,0,1,0,15.539,20.28,20.28,0,0,1-4,6.37,18.978,18.978,0,0,1-5.964,4.336,17.984,17.984,0,0,1-14.746.125A18.931,18.931,0,0,1,5.63,34.607a20.248,20.248,0,0,1-4.117-6.419,21.342,21.342,0,0,1,0-15.788A20.248,20.248,0,0,1,5.63,5.98a18.931,18.931,0,0,1,6.078-4.287A17.924,17.924,0,0,1,19.106.175Z" transform="translate(1.917 0.018)" fill="#f5f4ff"/><g transform="translate(7.483 9.207)"><path d="M3.928.008h0A3.684,3.684,0,0,1,5.452.339a3.926,3.926,0,0,1,1.242.9,4.217,4.217,0,0,1,.837,1.326,4.392,4.392,0,0,1,.307,1.621V4.21a4.631,4.631,0,0,1-.177,1.126,4.546,4.546,0,0,1-.433,1.02,4.406,4.406,0,0,1-.657.869,4.205,4.205,0,0,1-.849.674l.816.87a.861.861,0,0,1,.115.137.893.893,0,0,1,.085.158.922.922,0,0,1,.053.174.951.951,0,0,1,0,.35.926.926,0,0,1-.043.158.9.9,0,0,1-.07.147.882.882,0,0,1-.1.132l-.018.019L5.539,11.12l.627.674a.835.835,0,0,1,.109.132.87.87,0,0,1,.081.152.9.9,0,0,1,.05.167.913.913,0,0,1,0,.351.9.9,0,0,1-.05.166.878.878,0,0,1-.08.152.847.847,0,0,1-.108.133L4.5,14.834a.833.833,0,0,1-.125.111.818.818,0,0,1-.142.082.794.794,0,0,1-.154.051.764.764,0,0,1-.161.018A.775.775,0,0,1,3.6,15.03a.793.793,0,0,1-.142-.081.841.841,0,0,1-.126-.111l-.881-.947a1.128,1.128,0,0,1-.125-.157,1.165,1.165,0,0,1-.1-.177,1.2,1.2,0,0,1-.065-.192,1.222,1.222,0,0,1-.032-.2l0-.046V7.938a3.946,3.946,0,0,1-.884-.661A4.129,4.129,0,0,1,.577,6.4,4.322,4.322,0,0,1,.15,5.359,4.492,4.492,0,0,1,0,4.206a4.408,4.408,0,0,1,.31-1.63,4.246,4.246,0,0,1,.843-1.334A3.955,3.955,0,0,1,2.4.341,3.7,3.7,0,0,1,3.927.008Zm2.8,4.171A3.132,3.132,0,0,0,6.5,3.022a3.009,3.009,0,0,0-.6-.945,2.805,2.805,0,0,0-.887-.639,2.618,2.618,0,0,0-2.178,0,2.833,2.833,0,0,0-.894.645,3.037,3.037,0,0,0-.6.954,3.15,3.15,0,0,0-.221,1.165,3.205,3.205,0,0,0,.124.886,3.076,3.076,0,0,0,.353.789,2.927,2.927,0,0,0,.552.647,2.8,2.8,0,0,0,.722.458l.38.148v5.918l.669.719,1.256-1.345L3.953,11.111,5.57,9.422l-1.876-2,.888-.294a3,3,0,0,0,.849-.443A3.149,3.149,0,0,0,6.1,6.011a3.286,3.286,0,0,0,.445-.856A3.358,3.358,0,0,0,6.724,4.178ZM3.918,1.727a1.507,1.507,0,0,1,.623.135,1.608,1.608,0,0,1,.509.367,1.728,1.728,0,0,1,.343.544,1.817,1.817,0,0,1,0,1.329,1.727,1.727,0,0,1-.343.544,1.606,1.606,0,0,1-.509.367,1.509,1.509,0,0,1-1.246,0,1.608,1.608,0,0,1-.51-.367A1.728,1.728,0,0,1,2.44,4.1a1.817,1.817,0,0,1,0-1.331,1.726,1.726,0,0,1,.344-.544,1.606,1.606,0,0,1,.51-.367A1.507,1.507,0,0,1,3.918,1.727Zm0,2.226a.457.457,0,0,0,.189-.041A.486.486,0,0,0,4.261,3.8a.52.52,0,0,0,.1-.164.546.546,0,0,0,0-.4.52.52,0,0,0-.1-.164.487.487,0,0,0-.154-.111.459.459,0,0,0-.377,0,.487.487,0,0,0-.154.11.52.52,0,0,0-.1.164.545.545,0,0,0,0,.4.521.521,0,0,0,.1.164.487.487,0,0,0,.154.111A.459.459,0,0,0,3.918,3.953Z" transform="translate(17.948 6.877)" fill="#6a75ce"/><path d="M4.8.024A4.54,4.54,0,0,1,6.665.433a4.826,4.826,0,0,1,1.52,1.1A5.15,5.15,0,0,1,9.209,3.147a5.37,5.37,0,0,1,0,3.947A5.113,5.113,0,0,1,8.185,8.706a4.789,4.789,0,0,1-1.52,1.088,4.54,4.54,0,0,1-3.727,0A4.822,4.822,0,0,1,1.41,8.7,5.148,5.148,0,0,1,.379,7.078a5.371,5.371,0,0,1,0-3.962A5.111,5.111,0,0,1,1.41,1.5,4.786,4.786,0,0,1,2.938.415,4.523,4.523,0,0,1,4.8.024Zm0,8.667a3.2,3.2,0,0,0,1.314-.28A3.378,3.378,0,0,0,7.19,7.645a3.6,3.6,0,0,0,.723-1.136,3.78,3.78,0,0,0,0-2.782,3.628,3.628,0,0,0-.723-1.14,3.4,3.4,0,0,0-1.073-.772A3.206,3.206,0,0,0,3.487,1.8a3.376,3.376,0,0,0-1.077.765A3.6,3.6,0,0,0,1.684,3.7a3.78,3.78,0,0,0,0,2.79,3.627,3.627,0,0,0,.727,1.142,3.4,3.4,0,0,0,1.077.771A3.2,3.2,0,0,0,4.8,8.691Z" transform="translate(5.082)" fill="#6a75ce"/><path d="M16.978,9.122,1.921,9.19a1.83,1.83,0,0,1-.913-.239,1.905,1.905,0,0,1-.383-.287,2,2,0,0,1-.31-.385A2.076,2.076,0,0,1,.1,7.828,2.13,2.13,0,0,1,.158,6.364,11.073,11.073,0,0,1,1.216,4.375a9.837,9.837,0,0,1,1.858-2.07A9.45,9.45,0,0,1,5.93.675,11.972,11.972,0,0,1,9.976,0,9.947,9.947,0,0,1,11.77.158,10.206,10.206,0,0,1,13.508.63a10.453,10.453,0,0,1,1.64.773,10.657,10.657,0,0,1,1.5,1.059.735.735,0,0,1,.18.227.785.785,0,0,1,.082.273.8.8,0,0,1-.02.286.768.768,0,0,1-.126.265.715.715,0,0,1-.213.193.673.673,0,0,1-.256.088.66.66,0,0,1-.268-.021.683.683,0,0,1-.249-.134,9.466,9.466,0,0,0-1.313-.928,8.889,8.889,0,0,0-1.417-.67,8.667,8.667,0,0,0-1.5-.4A8.809,8.809,0,0,0,9.982,1.5a12.04,12.04,0,0,0-1.735.13,9.821,9.821,0,0,0-1.582.371,8.482,8.482,0,0,0-1.422.61,7.939,7.939,0,0,0-1.258.847,8.059,8.059,0,0,0-.912.882,8.7,8.7,0,0,0-.71.921,9.351,9.351,0,0,0-.529.894c-.149.286-.271.557-.371.8a.545.545,0,0,0-.039.164.521.521,0,0,0,.008.14.553.553,0,0,0,.034.11.537.537,0,0,0,.038.073.53.53,0,0,0,.05.067.518.518,0,0,0,.084.078.464.464,0,0,0,.121.064.479.479,0,0,0,.162.026l15.057-.058a.66.66,0,0,1,.273.058.7.7,0,0,1,.223.16.75.75,0,0,1,.15.237.8.8,0,0,1,0,.583.759.759,0,0,1-.15.239.706.706,0,0,1-.223.161A.663.663,0,0,1,16.978,9.122Z" transform="translate(0 11.893)" fill="#6a75ce"/></g><g transform="translate(8.497 9.211)"><path d="M3.928.008h0A3.684,3.684,0,0,1,5.452.339a3.926,3.926,0,0,1,1.242.9,4.217,4.217,0,0,1,.837,1.326,4.392,4.392,0,0,1,.307,1.621V4.21a4.631,4.631,0,0,1-.177,1.126,4.546,4.546,0,0,1-.433,1.02,4.406,4.406,0,0,1-.657.869,4.205,4.205,0,0,1-.849.674l.816.87a.861.861,0,0,1,.115.137.893.893,0,0,1,.085.158.923.923,0,0,1,.053.174.951.951,0,0,1,0,.35.925.925,0,0,1-.043.158.9.9,0,0,1-.07.147.882.882,0,0,1-.1.132l-.018.019L5.539,11.12l.627.674a.835.835,0,0,1,.109.132.87.87,0,0,1,.081.152.9.9,0,0,1,.05.167.913.913,0,0,1,0,.351.9.9,0,0,1-.05.166.878.878,0,0,1-.08.152.847.847,0,0,1-.108.133L4.5,14.834a.833.833,0,0,1-.125.111.818.818,0,0,1-.142.082.794.794,0,0,1-.154.051.764.764,0,0,1-.161.018A.775.775,0,0,1,3.6,15.03a.793.793,0,0,1-.142-.081.841.841,0,0,1-.126-.111l-.881-.947a1.128,1.128,0,0,1-.125-.157,1.165,1.165,0,0,1-.1-.177,1.2,1.2,0,0,1-.065-.192,1.222,1.222,0,0,1-.032-.2l0-.046V7.938a3.946,3.946,0,0,1-.884-.661A4.129,4.129,0,0,1,.577,6.4,4.322,4.322,0,0,1,.15,5.359,4.492,4.492,0,0,1,0,4.206a4.408,4.408,0,0,1,.31-1.63,4.246,4.246,0,0,1,.843-1.334A3.955,3.955,0,0,1,2.4.341,3.7,3.7,0,0,1,3.927.008Zm2.8,4.171A3.132,3.132,0,0,0,6.5,3.022a3.009,3.009,0,0,0-.6-.945,2.805,2.805,0,0,0-.887-.639,2.618,2.618,0,0,0-2.178,0,2.833,2.833,0,0,0-.894.645,3.037,3.037,0,0,0-.6.954,3.15,3.15,0,0,0-.221,1.165,3.205,3.205,0,0,0,.124.886,3.076,3.076,0,0,0,.353.789,2.927,2.927,0,0,0,.552.647,2.8,2.8,0,0,0,.722.458l.38.148v5.918l.669.719,1.256-1.345L3.953,11.111,5.57,9.422l-1.876-2,.888-.294a3,3,0,0,0,.849-.443A3.148,3.148,0,0,0,6.1,6.011a3.286,3.286,0,0,0,.445-.856A3.358,3.358,0,0,0,6.724,4.178ZM3.918,1.727a1.507,1.507,0,0,1,.623.135,1.608,1.608,0,0,1,.509.367,1.728,1.728,0,0,1,.343.544,1.817,1.817,0,0,1,0,1.329,1.727,1.727,0,0,1-.343.544,1.606,1.606,0,0,1-.509.367,1.509,1.509,0,0,1-1.246,0,1.608,1.608,0,0,1-.51-.367A1.728,1.728,0,0,1,2.44,4.1a1.817,1.817,0,0,1,0-1.331,1.726,1.726,0,0,1,.344-.544,1.606,1.606,0,0,1,.51-.367A1.507,1.507,0,0,1,3.918,1.727Zm0,2.226a.457.457,0,0,0,.189-.041A.486.486,0,0,0,4.261,3.8a.52.52,0,0,0,.1-.164.546.546,0,0,0,0-.4.52.52,0,0,0-.1-.164.487.487,0,0,0-.154-.111.459.459,0,0,0-.377,0,.487.487,0,0,0-.154.11.52.52,0,0,0-.1.164.545.545,0,0,0,0,.4.521.521,0,0,0,.1.164.487.487,0,0,0,.154.111A.459.459,0,0,0,3.918,3.953Z" transform="translate(16.933 6.873)" fill="#8894f4"/><path d="M4.8.024A4.536,4.536,0,0,1,6.661.433a4.823,4.823,0,0,1,1.519,1.1A5.149,5.149,0,0,1,9.2,3.146a5.37,5.37,0,0,1,0,3.945A5.111,5.111,0,0,1,8.18,8.7,4.786,4.786,0,0,1,6.661,9.791a4.535,4.535,0,0,1-3.725,0A4.819,4.819,0,0,1,1.41,8.7,5.147,5.147,0,0,1,.379,7.076a5.37,5.37,0,0,1,0-3.961A5.109,5.109,0,0,1,1.41,1.5,4.783,4.783,0,0,1,2.936.415,4.519,4.519,0,0,1,4.8.024Zm0,8.664a3.192,3.192,0,0,0,1.313-.28,3.376,3.376,0,0,0,1.072-.766,3.6,3.6,0,0,0,.723-1.136,3.78,3.78,0,0,0,0-2.782,3.627,3.627,0,0,0-.723-1.14,3.4,3.4,0,0,0-1.072-.772A3.2,3.2,0,0,0,3.485,1.8a3.374,3.374,0,0,0-1.076.765A3.6,3.6,0,0,0,1.683,3.7a3.78,3.78,0,0,0,0,2.789,3.626,3.626,0,0,0,.727,1.141,3.4,3.4,0,0,0,1.076.77A3.2,3.2,0,0,0,4.8,8.689Z" transform="translate(4.767 0)" fill="#8894f4"/><path d="M16.962,9.118,1.919,9.186a1.828,1.828,0,0,1-.912-.239A1.9,1.9,0,0,1,.624,8.66a2,2,0,0,1-.31-.384A2.076,2.076,0,0,1,.1,7.824,2.13,2.13,0,0,1,.158,6.362,11.07,11.07,0,0,1,1.215,4.373,9.83,9.83,0,0,1,3.072,2.3,9.44,9.44,0,0,1,5.925.675,11.957,11.957,0,0,1,9.967,0,9.934,9.934,0,0,1,11.76.158,10.193,10.193,0,0,1,13.5.63a10.441,10.441,0,0,1,1.639.773,10.647,10.647,0,0,1,1.5,1.058.734.734,0,0,1,.18.226.785.785,0,0,1,.082.273.8.8,0,0,1-.02.286.768.768,0,0,1-.126.265.715.715,0,0,1-.212.192.672.672,0,0,1-.256.088.659.659,0,0,1-.268-.021.682.682,0,0,1-.248-.134,9.458,9.458,0,0,0-1.311-.927,8.879,8.879,0,0,0-1.416-.67,8.656,8.656,0,0,0-1.5-.4A8.8,8.8,0,0,0,9.973,1.5a12.024,12.024,0,0,0-1.733.13A9.809,9.809,0,0,0,6.66,2a8.472,8.472,0,0,0-1.421.609,7.932,7.932,0,0,0-1.256.847,8.053,8.053,0,0,0-.911.881,8.7,8.7,0,0,0-.709.92,9.348,9.348,0,0,0-.529.893c-.149.286-.271.556-.37.8a.545.545,0,0,0-.039.163.521.521,0,0,0,.008.14.553.553,0,0,0,.034.11.537.537,0,0,0,.038.073.53.53,0,0,0,.05.067.518.518,0,0,0,.084.078.464.464,0,0,0,.121.064.478.478,0,0,0,.161.026l15.043-.058a.659.659,0,0,1,.273.058.7.7,0,0,1,.223.159.75.75,0,0,1,.15.237.8.8,0,0,1,0,.582.758.758,0,0,1-.15.238.705.705,0,0,1-.223.161A.662.662,0,0,1,16.962,9.118Z" transform="translate(0 11.889)" fill="#8894f4"/></g></g><g transform="translate(882.187 159.678)" opacity="0.05" style="isolation:isolate"><g transform="translate(0)"><g clip-path="url(#a)"><path d="M253.39,242.723H221.26a18.614,18.614,0,0,0,5.632-13.594v-4.022c0-11.652,8.29-21.1,18.517-21.1,10.483,0,18.981-9.683,18.981-21.628s-8.5-21.628-18.981-21.628H242.3c-10.227,0-18.517-9.446-18.517-21.1,0-9.723-6.917-17.6-15.451-17.6H87.6c-9.5,0-17.2,8.773-17.2,19.6,0,7.4,3.6,13.84,8.91,17.173H58.1c-8.844,0-16.015,7.561-16.015,16.887,0,11.177-8.591,20.238-19.195,20.238H19.673C8.808,195.943,0,205.231,0,216.689s8.808,20.745,19.673,20.745c10.6,0,19.195,9.06,19.195,20.238v3.858c0,9.327,7.17,16.887,16.015,16.887H129.4q.843.083,1.708.085H253.39a17.894,17.894,0,0,0,0-35.779" transform="translate(0 -122.052)" fill="#0062ff"/></g></g></g><ellipse cx="41.547" cy="3.266" rx="41.547" ry="3.266" transform="translate(1038.813 443.235)" fill="#f5f5f5"/><g transform="translate(1056.493 426.171)"><path d="M47.578,0l-28.1.091L3.211,9.516A6.49,6.49,0,0,0,.262,13.055c-.362,1.1-.921,5.875-.273,7.273h47.59Z" transform="translate(0.309 0)" fill="#bf7753"/><path d="M33.575,14.371s-4.282-3.414-8.478-2.817" transform="translate(-14.941 -6.98)" fill="#8b4d2e"/><path d="M40.323,11.541s-4.282-3.414-8.478-2.817" transform="translate(-19.034 -5.259)" fill="#8b4d2e"/><path d="M44.894,9.146s-4.282-3.414-8.478-2.817" transform="translate(-21.807 -3.803)" fill="#8b4d2e"/><path d="M16.239,26.807l-.5-.018-.5-.015a4.058,4.058,0,0,0-.832-2.263C13.267,22.961,11.077,22,8.074,21.739l.087-1a12.7,12.7,0,0,1,4.662,1.208,6.664,6.664,0,0,1,2.434,2.029A4.96,4.96,0,0,1,16.239,26.807Z" transform="translate(-4.641 -12.911)" fill="#8b4d2e"/></g><g transform="matrix(0.53, -0.848, 0.848, 0.53, 1146.561, 431.845)"><path d="M47.478,0,19.447.05,3.227,9.474A6.472,6.472,0,0,0,.29,13.017c-.359,1.1-.471,6.051.177,7.453l47.48.069Z" transform="translate(0 0)" fill="#bf7753"/><path d="M8.462,2.9S4.186-.524,0,.069" transform="translate(9.841 4.462)" fill="#8b4d2e"/><path d="M8.462,2.9S4.186-.524,0,.069" transform="translate(12.488 3.353)" fill="#8b4d2e"/><path d="M8.462,2.9S4.186-.524,0,.069" transform="translate(14.28 2.415)" fill="#8b4d2e"/><path d="M8.462,2.9S4.186-.524,0,.069" transform="translate(15.987 1.048)" fill="#8b4d2e"/><path d="M8.111,5.589l-.5-.017-.5-.014a4.094,4.094,0,0,0-.834-2.271C5.137,1.731,2.951.766-.045.5l.089-1A12.653,12.653,0,0,1,4.7.72a6.683,6.683,0,0,1,2.43,2.037A5,5,0,0,1,8.111,5.589Z" transform="translate(3.183 8.285)" fill="#8b4d2e"/></g><path d="M29.35,6.625A31.949,31.949,0,0,1,14.518,9.961C6.706,9.553,0,4.523,0,4.523L2.129,3.285,29.09,0Z" transform="matrix(0.616, -0.788, 0.788, 0.616, 1149.828, 411.509)" fill="#8b4d2e"/><path d="M-2943.381-17192.439s-7.9,3.822-15.727,3.428-13.428-5.953-13.428-5.953l2.135-1.238,27.02-3.322Z" transform="translate(4047.732 17621.705)" fill="#8b4d2e"/><path d="M206.93,134.214,179.737,285.4s15.018,9.527,30.777.441L236.5,174.086l.3-1.239,9.45-43.128-37.536-1.126Z" transform="translate(893.418 140.149)" fill="#f7eee4"/><path d="M225.818,159.762a29.39,29.39,0,0,0,5,17.352c9.928,13.922,37.66,57.618,37.66,57.618s-8.137,17.721-12.233,22.508c-1.479,1.728-7.021,5.7-7.021,5.7l-36.39-49.706Z" transform="translate(903.882 156.436)" fill="#efe3d8"/><path d="M.491,123.533l-.981-.192c.146-.746,14.676-74.93,20.867-106.186l.981.194C15.166,48.6.637,122.787.491,123.533Z" transform="translate(1088.252 301.487)" fill="#e5d8ca"/><path d="M225.965,159.756,218.191,220.6l-5.355-7.362Z" transform="translate(904.357 156.516)" fill="#e5d8ca"/><path d="M136.622,43.485s3.614-.006,4.282,0c.288.238-1.906,1.928.787,3.835a132.017,132.017,0,0,0,13.754,8.489,120.175,120.175,0,0,0,20.207,8.629A90.216,90.216,0,0,0,200.1,68.8a115.866,115.866,0,0,1,4.061,16.433,136.9,136.9,0,0,1,1.525,38.946,99.956,99.956,0,0,1-17.022,46.555c-10.525,15.108-23.517,28.625-48.328,39.77-.008,0-4.113.226-4.367.333a83.256,83.256,0,0,1-14.251-5.642,106.832,106.832,0,0,1-29.594-21.464A97.986,97.986,0,0,1,67.6,139.579c-4.965-19.241-5.546-44.55,1.931-74.113a44.8,44.8,0,0,0,5.562.155A85.94,85.94,0,0,0,89.96,63.906a105.2,105.2,0,0,0,21.4-6.789c8.973-3.953,17.505-7.651,25.261-13.632" transform="translate(870.47 116.255)" fill="#689ce5"/><path d="M138.807,43.44s1.691,1.522,4.747,3.822a122.439,122.439,0,0,0,12.89,8.465,109.112,109.112,0,0,0,18.957,8.6,80.083,80.083,0,0,0,22.951,4.341,121.993,121.993,0,0,1,3.811,16.428,145.594,145.594,0,0,1,1.433,38.94,104.007,104.007,0,0,1-15.981,46.538c-9.982,15.244-25.543,29.4-49.438,40a75.215,75.215,0,0,1-13.351-5.657A98.924,98.924,0,0,1,74.2,139.384c-4.64-19.194-5.109-43.107,1.876-72.6a38.951,38.951,0,0,0,5.2.148,75.611,75.611,0,0,0,13.906-1.726,94.145,94.145,0,0,0,20.029-6.8A112.553,112.553,0,0,0,138.807,43.44" transform="translate(872.496 116.238)" fill="#b1d1ff"/><path d="M137.507,48.484s1.556,1.4,4.37,3.516a112.591,112.591,0,0,0,11.87,7.767,100.418,100.418,0,0,0,17.472,7.891A73.866,73.866,0,0,0,192.4,71.625a112.287,112.287,0,0,1,3.517,15.138,133.961,133.961,0,0,1,1.323,35.9,95.731,95.731,0,0,1-14.747,42.874c-9.206,14.034-23.548,27.046-45.554,36.765a69.418,69.418,0,0,1-12.283-5.231,91.107,91.107,0,0,1-46.511-60.307c-4.255-17.636-4.688-39.611,1.721-66.715a35.819,35.819,0,0,0,4.772.13A69.4,69.4,0,0,0,97.4,68.574a86.659,86.659,0,0,0,18.4-6.285,103.811,103.811,0,0,0,21.7-13.8" transform="translate(873.792 117.716)" fill="#7aadf4"/><path d="M129.969,154.662a1.652,1.652,0,0,1,0,.632,1.607,1.607,0,0,1-.21.552,1.267,1.267,0,0,1-.377.391.971.971,0,0,1-.5.163l-12.714.485a.933.933,0,0,1-.5-.122,1.14,1.14,0,0,1-.383-.362,1.493,1.493,0,0,1-.212-.525,1.7,1.7,0,0,1,0-.63l3.456-19.45a8.587,8.587,0,0,1-1.911-1.6,10.153,10.153,0,0,1-1.483-2.17,11.658,11.658,0,0,1-.964-2.626,12.962,12.962,0,0,1,.341-7.113,11.2,11.2,0,0,1,1.859-3.4,8.952,8.952,0,0,1,2.751-2.305,7.3,7.3,0,0,1,3.349-.869,7.144,7.144,0,0,1,3.346.8,8.561,8.561,0,0,1,2.716,2.23,10.792,10.792,0,0,1,1.825,3.322,12.593,12.593,0,0,1,.668,4.084,12.905,12.905,0,0,1-.351,3.006,12.01,12.01,0,0,1-.985,2.681,10.646,10.646,0,0,1-1.521,2.234,8.989,8.989,0,0,1-1.957,1.659Z" transform="translate(885.803 137.872)" fill="#5282c5"/><path d="M132.9,154.621a1.7,1.7,0,0,1,0,.63,1.61,1.61,0,0,1-.21.552,1.277,1.277,0,0,1-.376.391.962.962,0,0,1-.5.163l-12.666.483a.936.936,0,0,1-.5-.122,1.149,1.149,0,0,1-.381-.362,1.485,1.485,0,0,1-.216-.531,1.694,1.694,0,0,1,0-.629l3.448-19.42a8.576,8.576,0,0,1-1.9-1.594,10.154,10.154,0,0,1-1.48-2.167,11.617,11.617,0,0,1-.96-2.622,12.971,12.971,0,0,1,.339-7.106,11.209,11.209,0,0,1,1.854-3.393,8.927,8.927,0,0,1,2.74-2.309,7.229,7.229,0,0,1,3.342-.865,7.1,7.1,0,0,1,3.327.8,8.545,8.545,0,0,1,2.7,2.227,10.768,10.768,0,0,1,1.818,3.318,12.6,12.6,0,0,1,.665,4.079,12.965,12.965,0,0,1-.35,3,12,12,0,0,1-.981,2.679,10.633,10.633,0,0,1-1.514,2.231,8.975,8.975,0,0,1-1.949,1.658Z" transform="translate(886.685 137.874)"/><path d="M131.44,154.632a1.7,1.7,0,0,1,0,.63,1.609,1.609,0,0,1-.21.552,1.267,1.267,0,0,1-.377.391.966.966,0,0,1-.5.163l-12.689.483a.932.932,0,0,1-.5-.122,1.14,1.14,0,0,1-.382-.362,1.477,1.477,0,0,1-.217-.531,1.7,1.7,0,0,1,0-.63l3.454-19.431a8.559,8.559,0,0,1-1.907-1.594,10.2,10.2,0,0,1-1.478-2.168,11.647,11.647,0,0,1-.963-2.624,12.973,12.973,0,0,1,.341-7.109,11.225,11.225,0,0,1,1.852-3.4,8.957,8.957,0,0,1,2.746-2.308,7.277,7.277,0,0,1,3.348-.866,7.127,7.127,0,0,1,3.334.8,8.561,8.561,0,0,1,2.7,2.228,10.794,10.794,0,0,1,1.834,3.321,12.6,12.6,0,0,1,.655,4.082,12.962,12.962,0,0,1-.35,3,12.017,12.017,0,0,1-.984,2.68,10.652,10.652,0,0,1-1.517,2.232,8.968,8.968,0,0,1-1.953,1.659Z" transform="translate(886.245 137.868)" fill="#f3f7fd"/><path d="M130.685,83a9.551,9.551,0,0,1-.507,3.1,8.141,8.141,0,0,1-1.387,2.519,6.449,6.449,0,0,1-2.062,1.683,5.383,5.383,0,0,1-2.533.591,5.545,5.545,0,0,1-2.543-.673,6.852,6.852,0,0,1-2.083-1.762,8.588,8.588,0,0,1-1.407-2.592,9.735,9.735,0,0,1-.517-3.152,9.546,9.546,0,0,1,.517-3.126,8.13,8.13,0,0,1,1.407-2.534,6.428,6.428,0,0,1,2.083-1.672,5.374,5.374,0,0,1,2.543-.563,5.556,5.556,0,0,1,2.533.7,6.877,6.877,0,0,1,2.062,1.772,8.594,8.594,0,0,1,1.387,2.58A9.72,9.72,0,0,1,130.686,83" transform="translate(886.95 125.722)" fill="#e5f1ff"/><path d="M140.124,99.193a20.4,20.4,0,0,1-2.751,3.415,17.793,17.793,0,0,1-3.318,2.6,15.661,15.661,0,0,1-3.78,1.664,14.9,14.9,0,0,1-8.28-.012,16.14,16.14,0,0,1-3.825-1.679,18.427,18.427,0,0,1-3.4-2.64,21.218,21.218,0,0,1-2.853-3.467,20.078,20.078,0,0,1,2.515-4.3,17.141,17.141,0,0,1,3.339-3.305,14.488,14.488,0,0,1,3.97-2.1,13.165,13.165,0,0,1,8.813.119,14.666,14.666,0,0,1,3.893,2.171,17.372,17.372,0,0,1,3.242,3.311,20.272,20.272,0,0,1,2.43,4.22" transform="translate(885.179 129.848)" fill="#e5f1ff"/><path d="M126.86,115.583a17.36,17.36,0,0,1-4.493-.594,18.344,18.344,0,0,1-4.234-1.735,20.282,20.282,0,0,1-3.829-2.805,23,23,0,0,1-3.277-3.8q-.548-.793-1.035-1.632t-.912-1.72q-.426-.881-.786-1.8t-.658-1.879q-.307-.992-.537-2.007t-.384-2.051q-.155-1.035-.233-2.085t-.077-2.112q0-1.229.1-2.434t.308-2.386q.2-1.178.512-2.326t.713-2.258q.391-1.071.867-2.082t1.031-1.959q.554-.947,1.189-1.828t1.344-1.69q.707-.807,1.472-1.522a20.172,20.172,0,0,1,1.58-1.335,19.047,19.047,0,0,1,1.681-1.141,18.532,18.532,0,0,1,1.775-.946,17.818,17.818,0,0,1,1.909-.757,17.288,17.288,0,0,1,7.988-.672,17.339,17.339,0,0,1,1.975.417,17.8,17.8,0,0,1,1.927.647,18.532,18.532,0,0,1,1.872.873A19.382,19.382,0,0,1,136.383,71a20.368,20.368,0,0,1,1.632,1.228q.79.66,1.529,1.407c.49.5.964,1.024,1.417,1.578s.884,1.133,1.289,1.73.785,1.214,1.138,1.849.681,1.291.982,1.964.576,1.364.824,2.071q.387,1.1.676,2.232t.485,2.284q.195,1.154.292,2.331t.1,2.37q0,1.024-.072,2.034t-.216,2q-.143.994-.358,1.969t-.5,1.926q-.275.92-.613,1.805t-.736,1.735q-.4.848-.857,1.657t-.975,1.573a22.094,22.094,0,0,1-3.154,3.739,19.547,19.547,0,0,1-3.729,2.774,17.787,17.787,0,0,1-4.179,1.726,17.176,17.176,0,0,1-4.494.594m0-45.14a15.481,15.481,0,0,0-3.564.3,15.679,15.679,0,0,0-3.391,1.1,16.755,16.755,0,0,0-3.139,1.877,18.754,18.754,0,0,0-2.8,2.618,20.527,20.527,0,0,0-2.3,3.214,21.9,21.9,0,0,0-1.69,3.645,23.6,23.6,0,0,0-1.04,3.98,25.063,25.063,0,0,0-.355,4.22q0,.942.068,1.871t.206,1.848q.136.916.341,1.815c.136.6.293,1.193.474,1.778q.261.85.583,1.668t.7,1.6q.377.783.81,1.53t.92,1.451a20.548,20.548,0,0,0,2.93,3.4,18.109,18.109,0,0,0,3.428,2.515,16.359,16.359,0,0,0,3.794,1.559,15.652,15.652,0,0,0,4.032.54,15.49,15.49,0,0,0,4.036-.525,15.958,15.958,0,0,0,3.75-1.539,17.487,17.487,0,0,0,3.348-2.481,19.713,19.713,0,0,0,2.832-3.347q.46-.682.87-1.4t.764-1.474q.356-.756.658-1.543c.2-.525.382-1.061.548-1.606q.253-.846.444-1.711t.32-1.749q.128-.881.191-1.78t.064-1.806a25.323,25.323,0,0,0-.337-4.128,24.31,24.31,0,0,0-.992-3.929,23.02,23.02,0,0,0-1.616-3.644,21.848,21.848,0,0,0-2.215-3.271,19.966,19.966,0,0,0-2.713-2.732,17.788,17.788,0,0,0-3.065-2.039,16.19,16.19,0,0,0-3.342-1.3,15.711,15.711,0,0,0-3.545-.522" transform="translate(883.488 123.611)" fill="#5282c5"/><path d="M127.364,115.07a15.917,15.917,0,0,1-4.274-.591,16.987,16.987,0,0,1-4.024-1.722,19.255,19.255,0,0,1-3.638-2.78,22.475,22.475,0,0,1-3.111-3.769q-.519-.783-.98-1.612t-.863-1.7q-.4-.871-.744-1.78t-.621-1.857q-.291-.979-.507-1.981t-.364-2.023q-.145-1.022-.219-2.058t-.073-2.084q0-1.211.1-2.4t.291-2.353q.195-1.164.483-2.3t.673-2.23q.371-1.059.821-2.059t.976-1.938q.527-.938,1.127-1.809t1.273-1.674q.672-.8,1.4-1.511a19.488,19.488,0,0,1,1.5-1.324,18.22,18.22,0,0,1,1.6-1.134,17.372,17.372,0,0,1,1.686-.939,16.366,16.366,0,0,1,1.814-.754,15.732,15.732,0,0,1,1.86-.521,15.483,15.483,0,0,1,1.9-.287,15.818,15.818,0,0,1,1.927-.052,16,16,0,0,1,1.92.181,15.838,15.838,0,0,1,1.881.413,16.106,16.106,0,0,1,1.834.639,17.221,17.221,0,0,1,1.783.863,18.9,18.9,0,0,1,1.647,1.035,19.268,19.268,0,0,1,1.552,1.216q.752.652,1.453,1.394t1.349,1.564q.646.824,1.223,1.71t1.079,1.83q.5.944.933,1.943t.782,2.049q.366,1.088.641,2.2t.458,2.257q.185,1.141.276,2.3t.093,2.342q0,1.012-.068,2.009T146,95.764c-.09.654-.2,1.3-.339,1.946s-.293,1.276-.474,1.9q-.261.908-.582,1.785t-.7,1.715q-.379.838-.814,1.638t-.925,1.558a21.608,21.608,0,0,1-3,3.709,18.6,18.6,0,0,1-3.549,2.751,16.513,16.513,0,0,1-3.974,1.713,15.751,15.751,0,0,1-4.277.587m0-44.635a14.042,14.042,0,0,0-3.36.3,14.347,14.347,0,0,0-3.2,1.09,15.673,15.673,0,0,0-2.958,1.852,18.021,18.021,0,0,0-2.641,2.581,20.353,20.353,0,0,0-2.178,3.178,22.315,22.315,0,0,0-1.6,3.6,24.2,24.2,0,0,0-.984,3.938,25.926,25.926,0,0,0-.335,4.174c0,.62.021,1.239.065,1.852s.107,1.223.194,1.828.194,1.2.322,1.8.279,1.18.449,1.759q.248.84.551,1.649t.66,1.582q.356.774.766,1.512t.868,1.434a20.057,20.057,0,0,0,2.764,3.354,17.149,17.149,0,0,0,3.232,2.478,15.145,15.145,0,0,0,3.577,1.537,14.16,14.16,0,0,0,3.8.533,14.015,14.015,0,0,0,3.805-.517,14.669,14.669,0,0,0,3.541-1.517,16.571,16.571,0,0,0,3.162-2.444,19.357,19.357,0,0,0,2.675-3.3q.436-.676.825-1.387t.724-1.46q.338-.746.623-1.526t.519-1.59q.242-.838.423-1.7t.3-1.733q.122-.875.182-1.765t.062-1.791a26.2,26.2,0,0,0-.32-4.088,25.033,25.033,0,0,0-.94-3.891,23.245,23.245,0,0,0-1.534-3.6,21.453,21.453,0,0,0-2.1-3.234,19.142,19.142,0,0,0-2.562-2.691,16.682,16.682,0,0,0-2.892-2.006,14.934,14.934,0,0,0-3.153-1.28,14.227,14.227,0,0,0-3.343-.509" transform="translate(883.952 123.611)" fill="#e5f1ff"/><g transform="translate(1110.806 203.056)"><path d="M15.4,16.153c.534,3.34,1.08,6.684,1.6,10.075-1.126,1.847-2.217,4.407-3.844,5.19a4.481,4.481,0,0,1-5.044-1.982c-.831-1.279-.768-3.171-1.016-4.876-.216-1.491-.377-3.73-.633-5.5l3.589-.554A28.587,28.587,0,0,0,15.4,16.157" transform="translate(0.663 2.566)" fill="#fdd0b4"/><path d="M15.4,16.133s-2.546,6.548-8.575,5.525l-.363-2.6Z" transform="translate(0.663 2.566)" fill="#f4c2a2"/><path d="M12.25,6.569a53.892,53.892,0,0,1,3.132,9.514,6.651,6.651,0,0,1-4.254,2.988,13.325,13.325,0,0,1-5.164-.19A6.772,6.772,0,0,1,3.3,17.611,8.66,8.66,0,0,1,.745,14.357,13.893,13.893,0,0,1,0,9.58a12.8,12.8,0,0,1,.9-5.1,9.379,9.379,0,0,1,3.819-.013,19.022,19.022,0,0,1,7.523,2.087" transform="translate(0.682 2.639)" fill="#fdd0b4"/><g transform="translate(0 0)"><g clip-path="url(#b)"><path d="M2.11,7.083a5.294,5.294,0,0,0,2.6,1.376,2.047,2.047,0,0,1-.56-1.376A9.556,9.556,0,0,0,10.238,10.5a4.254,4.254,0,0,1-.674-2.875s.175,2.129,3.119,2.5a1.92,1.92,0,0,0,1.139,2.065s2.226-.849,2.873,1.087a2.564,2.564,0,0,1-3.3,3.023l.888,4.007a1.234,1.234,0,0,0,.172.412l.017.026a3.953,3.953,0,0,0,5.82.661,1.643,1.643,0,0,1,.7-.363,3.177,3.177,0,0,0,1.583-.775,1.71,1.71,0,0,0,.368-2.2,2.364,2.364,0,0,1-.121-2.455,2.276,2.276,0,0,0,.192-1.623,3.641,3.641,0,0,0-1.687-2.037s-1.616-.442-1.436-2.819c0,0-.754-8.424-6.355-8.9a6.759,6.759,0,0,0-2.3-.158A10.712,10.712,0,0,1,8.373.107L8.191.081A7.126,7.126,0,0,0,4.148.629c-1.728.813-4.39,1.9-3.162,10.2Z" transform="translate(-0.002 0)" fill="#332415"/></g></g><path d="M12.766,10.615a2.174,2.174,0,0,1,2.441-.831,2.415,2.415,0,0,1,1.56,2.137,2.583,2.583,0,0,1-1.306,2.334,2.546,2.546,0,0,1-2.618-.151" transform="translate(0.645 2.606)" fill="#fdd0b4"/><path d="M14.279,14.793a2.8,2.8,0,0,1-1.576-.487l.281-.413a2.3,2.3,0,0,0,2.358.139,2.328,2.328,0,0,0,1.175-2.1,2.16,2.16,0,0,0-1.4-1.91L15.084,10a1.961,1.961,0,0,0-2.543,1.078l-.463-.188A2.462,2.462,0,0,1,15.27,9.539l.03.012a2.659,2.659,0,0,1,1.718,2.356,2.828,2.828,0,0,1-1.431,2.562l-.008,0A2.8,2.8,0,0,1,14.279,14.793Z" transform="translate(0.646 2.606)" fill="#f4c2a2"/></g><path d="M212.449,109.378c.094,4.279-22.827,4.992-22.731,9.273-5.879,3.542-14.479-.06-20.8,2.619-2.061-.177-3.546.034-5.626-.165a1.517,1.517,0,0,0-.608.023.51.51,0,0,0-.373.43c-.01.319.356.5.66.6l2.286.745a70.947,70.947,0,0,0-6.163,3.872c-.561.4-1.182.987-1.009,1.651q16.242-3.538,32.4-7.582c1.864-.462,3.985-1.145,4.693-2.919.563-6.738,16.142.336,16.635-6.288-3.234.247,3.242-.574,0,0" transform="translate(887.185 138.095)" fill="#fdd0b4"/><path d="M167.437,131.884s-1.505-6.884-1.129-6.937S196.7,112.6,196.7,112.6l32.362-18.17,14.145,4.515s-15.467,17.785-43.755,28.039c-9.031,3.274-20.756,3.593-32.018,4.9" transform="translate(889.35 133.623)" fill="#a7a3b2"/><path d="M241.269,137.625l11.941,34.024c-11.625,3.579-23.757,9.461-35.787,9.341-18.39-.186-25.043-10.264-25.043-10.264.064-15.126,15.549-44.717,20.013-56.434a3.614,3.614,0,0,0,1.848-3.331,4.488,4.488,0,0,0-.127-1.048V109.9c3.563-8.687,6.615-14.287,6.615-14.287s3.188,2.164,4.361,2.161c1.362,0,5.06-2.53,5.06-2.53s9.181,5.509,15.128,25.634c.494,1.691,1.221,3.787,1.658,5.688.55,2.318,2.317,8.937,2.756,11.6,0,0-4.518-1.709-8.424-.539" transform="translate(896.639 133.774)" fill="#96939e"/><path d="M241.269,135.974l11.129,33.59c-11.625,3.521-22.944,9.2-34.975,9.078-18.39-.183-25.043-8.533-25.043-8.533.064-14.883,15.549-45.565,20.013-57.094a3.546,3.546,0,0,0,1.848-3.277,4.373,4.373,0,0,0-.127-1.033v-.01a136.438,136.438,0,0,1,6.842-14.232,14.348,14.348,0,0,0,4.823.879,13.6,13.6,0,0,0,4.685-1.145s8.868,5.5,14.815,25.3c.494,1.664,1.221,3.726,1.658,5.6.55,2.281,2.317,8.793,2.756,11.411,0,0-4.518-1.681-8.424-.53" transform="translate(896.639 133.491)" fill="#a7a3b2"/><path d="M228.811,119.78l1.386,11.712,6.361-13.277-2.156-1.19Z" transform="translate(907.93 140.384)" fill="#a7a3b2"/><path d="M241.957,105.846s14.5,29.829,5.349,36.229c0,0-23.079,15-52.9,3l.854-5.7s35.4,1.6,42.84-10.8" transform="translate(897.268 139.551)" fill="#a6a2b1"/><path d="M197.532,145.011s9.105-27.586,15.787-33.986" transform="translate(897.743 137.263)" fill="#96939e"/><path d="M238.5,126.155c-7.442,12.4-42.839,10.8-42.839,10.8l-.964,4.83c29.816,12,50.957-.225,50.957-.225l-1-2.4" transform="translate(897.356 143.091)" fill="#96939e"/><path d="M222.149,109.8l6.369,22.133-2.009,1.6Z" transform="translate(905.865 138.214)" fill="#96939e"/><g transform="translate(1004.706 243.299)"><path d="M151.454,129.245V134.6l5.478,0v11.225h-11.26l-2.687-2.677-2.638,2.63-11.263,0V134.749h5.532v-5.539Z" transform="translate(-126.952 -98.221)" fill="#efab3f"/><path d="M151.454,129.245V134.6l5.478,0v11.225h-11.26l-2.687-2.677-2.638,2.63-11.263,0V134.749h5.532v-5.539Z" transform="translate(-125.042 -100.11)" fill="#ffbb4e"/><path d="M127.68,122.09a5.726,5.726,0,0,0,3.863,9.772v.023l70.99,0V120.411l-70.987,0v.009a5.741,5.741,0,0,0-3.864,1.673" transform="translate(-125.998 -99.982)" fill="#efab3f"/><path d="M127.68,122.09a5.726,5.726,0,0,0,3.863,9.772v.023l70.99,0V120.411l-70.987,0v.009a5.741,5.741,0,0,0-3.864,1.673" transform="translate(-125.998 -102.801)" fill="#ffbb4e"/><path d="M223.658,113.646a23.231,23.231,0,0,1,0,32.965,23.5,23.5,0,0,1-33.123,0,23.23,23.23,0,0,1,0-32.962,23.5,23.5,0,0,1,33.124,0Zm-27.874,27.741a15.834,15.834,0,0,0,22.316,0,15.652,15.652,0,0,0,0-22.209,15.833,15.833,0,0,0-22.313,0,15.651,15.651,0,0,0,0,22.209h0" transform="translate(-109.063 -105.827)" fill="#efab3f"/><path d="M.679,0H3.848l0,11.472H.75A23.392,23.392,0,0,1,.679,0Z" transform="translate(72.685 17.608)" fill="#efab3f"/><path d="M.288-.5h4.06l0,12.472H.363l-.1-.374A23.941,23.941,0,0,1,.194-.12Zm3.06,1H1.074A22.948,22.948,0,0,0,1.14,10.972H3.349Z" transform="translate(72.685 17.608)" fill="rgba(0,0,0,0)"/><path d="M223.658,113.656a23.384,23.384,0,1,1-33.125,0,23.293,23.293,0,0,1,33.125,0ZM195.784,141.44a15.754,15.754,0,1,0,0-22.245,15.817,15.817,0,0,0,0,22.245h0" transform="translate(-109.063 -106.817)" fill="#ffbb4e"/></g><path d="M192.364,131.183c-.35.039-.785.2-.717.609a.561.561,0,0,0,.367.439,6.914,6.914,0,0,1,2.524,1.68.627.627,0,0,1-.445.247s-2.581.632-3.357.316c-1.547-.626-2.083-2.5-3.184-3.645a1.179,1.179,0,0,0-.655-.415c-.267-.035-.563.216-.482.461-.918,1.723,1.092,5.007,1.092,5.007a29.979,29.979,0,0,0,1.953,2.778,4.868,4.868,0,0,0,3.661,1.4c1.779-.1,2.228-.142,3.906-.22.058-.008.128-.008.193-.01.153.013.3.035.457.05.042,0,.092.01.135.013,0,0,.969-3.628.595-4.8a9.893,9.893,0,0,0-.745-.84,13.073,13.073,0,0,0-1.64-1.47s-2.245-1.736-3.657-1.6" transform="translate(895.814 144.38)" fill="#fdd0b4"/><path d="M195.177,133.357c0,.007,0,.007-.014.01-1.6,1.517-.633,5.586-.633,5.586l.648.039.128.01.007,0s.969-3.628.595-4.8a4.232,4.232,0,0,0-.731-.85" transform="translate(898.283 145.265)" fill="#d6a384"/><path d="M238.333,125.488c-7.442,12.4-42.75,10.16-42.75,10.16l-.715,4.684c29.816,12,52.315-2.3,52.315-2.3l-2.32-.776" transform="translate(897.41 142.892)" fill="#96939e"/><path d="M248.442,137.609a60.312,60.312,0,0,1-53.75,4.376l.855-5.7s35.4,1.6,42.839-10.8" transform="translate(897.355 142.89)" fill="#a7a3b2"/><g transform="translate(871.274 282.294)"><path d="M19.514.169a18.725,18.725,0,0,1,7.5,1.633,19.355,19.355,0,0,1,6.089,4.312,20.1,20.1,0,0,1,4.086,6.336,20.732,20.732,0,0,1,0,15.458,20.125,20.125,0,0,1-4.086,6.34,19.379,19.379,0,0,1-6.089,4.317,18.806,18.806,0,0,1-15.058.133,19.326,19.326,0,0,1-6.208-4.262A20.081,20.081,0,0,1,1.546,28.05a20.73,20.73,0,0,1,0-15.711,20.105,20.105,0,0,1,4.205-6.39,19.351,19.351,0,0,1,6.208-4.267A18.722,18.722,0,0,1,19.514.169Z" transform="translate(0 0.984)" fill="#dbd9ef"/><path d="M19.478.177a18.682,18.682,0,0,1,7.49,1.634,19.332,19.332,0,0,1,6.078,4.311,20.1,20.1,0,0,1,4.079,6.332,20.73,20.73,0,0,1,0,15.444,20.1,20.1,0,0,1-4.079,6.332,19.332,19.332,0,0,1-6.078,4.311,18.756,18.756,0,0,1-15.031.126,19.3,19.3,0,0,1-6.2-4.261,20.076,20.076,0,0,1-4.2-6.382,20.728,20.728,0,0,1,0-15.7,20.076,20.076,0,0,1,4.2-6.382,19.3,19.3,0,0,1,6.2-4.261A18.669,18.669,0,0,1,19.478.177Z" transform="translate(2.021)" fill="#f6f5ff"/><g transform="translate(9.47 6.044)" clip-path="url(#c)"><path d="M12.154.077a11.1,11.1,0,0,1,4.625,1.039,11.658,11.658,0,0,1,2.066,1.237,12.582,12.582,0,0,1,1.833,1.681,13.31,13.31,0,0,1,1.5,2.032,13.721,13.721,0,0,1,1.1,2.28,14.247,14.247,0,0,1,.673,2.471,14.932,14.932,0,0,1,0,5.21,14.24,14.24,0,0,1-.673,2.47,13.711,13.711,0,0,1-1.1,2.279,13.3,13.3,0,0,1-1.5,2.031,12.57,12.57,0,0,1-1.833,1.68,11.649,11.649,0,0,1-2.066,1.235,11.113,11.113,0,0,1-9.269.049,11.629,11.629,0,0,1-2.087-1.221,12.55,12.55,0,0,1-1.859-1.676,13.285,13.285,0,0,1-1.525-2.038,13.7,13.7,0,0,1-1.118-2.3,14.239,14.239,0,0,1-.687-2.494,14.931,14.931,0,0,1,0-5.267A14.233,14.233,0,0,1,.921,8.287,13.694,13.694,0,0,1,2.039,5.992,13.273,13.273,0,0,1,3.565,3.955,12.539,12.539,0,0,1,5.423,2.281,11.62,11.62,0,0,1,7.51,1.061,11.085,11.085,0,0,1,12.154.077Zm0,25.181a9.766,9.766,0,0,0,4.075-.912,10.281,10.281,0,0,0,1.822-1.09,11.114,11.114,0,0,0,1.619-1.483A11.8,11.8,0,0,0,21,19.968a12.185,12.185,0,0,0,.975-2.028,12.677,12.677,0,0,0,.6-2.2,13.318,13.318,0,0,0,0-4.641,12.683,12.683,0,0,0-.6-2.2A12.193,12.193,0,0,0,21,6.873a11.808,11.808,0,0,0-1.334-1.806,11.124,11.124,0,0,0-1.619-1.484A10.289,10.289,0,0,0,16.23,2.492a9.774,9.774,0,0,0-8.166-.043A10.257,10.257,0,0,0,6.225,3.526,11.088,11.088,0,0,0,4.586,5a11.777,11.777,0,0,0-1.354,1.81,12.171,12.171,0,0,0-.992,2.04,12.671,12.671,0,0,0-.61,2.218,13.317,13.317,0,0,0,0,4.686,12.677,12.677,0,0,0,.61,2.218,12.179,12.179,0,0,0,.992,2.041,11.787,11.787,0,0,0,1.354,1.811,11.1,11.1,0,0,0,1.639,1.479,10.265,10.265,0,0,0,1.839,1.078,9.758,9.758,0,0,0,4.091.874Z" transform="translate(0.026 0.057)" fill="#6a75ce"/><path d="M6.856,13.917a.657.657,0,0,1-.219-.037.67.67,0,0,1-.1-.047.7.7,0,0,1-.1-.067L0,8.576V.75A.788.788,0,0,1,.055.458.752.752,0,0,1,.206.22.7.7,0,0,1,.43.061a.667.667,0,0,1,.548,0A.708.708,0,0,1,1.2.224a.759.759,0,0,1,.151.239.791.791,0,0,1,.055.292V7.83l5.871,4.742a.73.73,0,0,1,.184.222.782.782,0,0,1,.087.271.8.8,0,0,1-.015.286.77.77,0,0,1-.121.268.733.733,0,0,1-.116.128.694.694,0,0,1-.136.093.674.674,0,0,1-.15.057A.662.662,0,0,1,6.856,13.917Z" transform="translate(11.381 6.038)" fill="#6a75ce"/></g><g transform="translate(9.47 6.114)" clip-path="url(#d)"><path d="M12.154.077a11.468,11.468,0,0,1,4.618,1,11.766,11.766,0,0,1,2.064,1.187,12.418,12.418,0,0,1,1.832,1.614,12.856,12.856,0,0,1,1.5,1.957,12.993,12.993,0,0,1,1.1,2.2,13.3,13.3,0,0,1,.675,2.381,13.838,13.838,0,0,1,0,5.021,13.292,13.292,0,0,1-.675,2.38,12.977,12.977,0,0,1-1.1,2.2,12.837,12.837,0,0,1-1.5,1.956,12.4,12.4,0,0,1-1.832,1.612,11.75,11.75,0,0,1-2.064,1.185,11.5,11.5,0,0,1-9.255.045,11.748,11.748,0,0,1-2.085-1.172,12.4,12.4,0,0,1-1.857-1.608,12.84,12.84,0,0,1-1.53-1.963A12.984,12.984,0,0,1,.924,17.85a13.3,13.3,0,0,1-.689-2.4,13.838,13.838,0,0,1,0-5.076,13.287,13.287,0,0,1,.689-2.4,12.968,12.968,0,0,1,1.121-2.21A12.821,12.821,0,0,1,3.575,3.8,12.38,12.38,0,0,1,5.432,2.19,11.732,11.732,0,0,1,7.517,1.02,11.453,11.453,0,0,1,12.154.077Zm0,24.174a10.129,10.129,0,0,0,4.082-.875,10.382,10.382,0,0,0,1.825-1.046,10.953,10.953,0,0,0,1.62-1.424,11.337,11.337,0,0,0,1.329-1.727,11.46,11.46,0,0,0,.972-1.939,11.735,11.735,0,0,0,.6-2.1,12.216,12.216,0,0,0,0-4.436,11.745,11.745,0,0,0-.6-2.1,11.474,11.474,0,0,0-.972-1.94A11.353,11.353,0,0,0,19.681,4.93,10.97,10.97,0,0,0,18.061,3.5a10.4,10.4,0,0,0-1.825-1.048,10.162,10.162,0,0,0-8.179-.043A10.367,10.367,0,0,0,6.216,3.447a10.938,10.938,0,0,0-1.64,1.42A11.325,11.325,0,0,0,3.227,6.6a11.452,11.452,0,0,0-.989,1.951,11.732,11.732,0,0,0-.608,2.12,12.215,12.215,0,0,0,0,4.479,11.741,11.741,0,0,0,.608,2.121,11.466,11.466,0,0,0,.989,1.952,11.342,11.342,0,0,0,1.349,1.733,10.955,10.955,0,0,0,1.64,1.421,10.381,10.381,0,0,0,1.841,1.036,10.129,10.129,0,0,0,4.1.84Z" transform="translate(0.026 0.025)" fill="#8894f4"/><path d="M6.856,13.423a.656.656,0,0,1-.213-.035.669.669,0,0,1-.1-.044.7.7,0,0,1-.1-.063L0,8.287V.75A.788.788,0,0,1,.055.458.752.752,0,0,1,.206.22.7.7,0,0,1,.43.061a.667.667,0,0,1,.548,0A.708.708,0,0,1,1.2.224a.759.759,0,0,1,.151.239.791.791,0,0,1,.055.292V7.524l5.86,4.546a.728.728,0,0,1,.188.218.781.781,0,0,1,.092.269.8.8,0,0,1-.01.286.772.772,0,0,1-.116.27.735.735,0,0,1-.116.133.7.7,0,0,1-.138.1.674.674,0,0,1-.153.059A.662.662,0,0,1,6.856,13.423Z" transform="translate(11.381 5.769)" fill="#8894f4"/></g></g><g transform="translate(967.307 99.767)"><path d="M19.034.173a17.9,17.9,0,0,1,7.321,1.635A18.906,18.906,0,0,1,32.3,6.122a20.175,20.175,0,0,1,3.988,6.339,21.213,21.213,0,0,1,0,15.461A20.175,20.175,0,0,1,32.3,34.26a18.906,18.906,0,0,1-5.942,4.314,17.938,17.938,0,0,1-14.691.123,18.861,18.861,0,0,1-6.055-4.265,20.143,20.143,0,0,1-4.1-6.387,21.21,21.21,0,0,1,0-15.708,20.143,20.143,0,0,1,4.1-6.387,18.861,18.861,0,0,1,6.055-4.265A17.877,17.877,0,0,1,19.034.173Z" fill="#dbd9ef"/><path d="M19,.173a17.851,17.851,0,0,1,7.307,1.633,18.871,18.871,0,0,1,5.931,4.31,20.158,20.158,0,0,1,3.981,6.333,21.212,21.212,0,0,1,0,15.447,20.159,20.159,0,0,1-3.981,6.333,18.872,18.872,0,0,1-5.931,4.31,17.89,17.89,0,0,1-14.664.123A18.825,18.825,0,0,1,5.6,34.4,20.126,20.126,0,0,1,1.5,28.019a21.209,21.209,0,0,1,0-15.693A20.127,20.127,0,0,1,5.6,5.944a18.827,18.827,0,0,1,6.044-4.262A17.83,17.83,0,0,1,19,.173Z" transform="translate(2.058 0.061)" fill="#f6f5ff"/><g transform="translate(8.038 7.067)"><path d="M5.206,13.312a4.739,4.739,0,0,0-.123-.554,3.688,3.688,0,0,0-.186-.506,3.17,3.17,0,0,0-.593-.879,1.119,1.119,0,0,0-.382-.255,1.463,1.463,0,0,0-.482-.109,1.354,1.354,0,0,0-.5.063,1.063,1.063,0,0,0-.426.261,3.473,3.473,0,0,0-.438.544,3.37,3.37,0,0,0-.31.6,3.644,3.644,0,0,0-.188.652,4.288,4.288,0,0,0-.074.7c0,.138,0,.276.006.415s.019.278.036.417.037.277.06.415.05.274.079.409a1.347,1.347,0,0,1,.032.422.707.707,0,0,1-.1.308.75.75,0,0,1-.217.219,1.486,1.486,0,0,1-.314.157.361.361,0,0,1-.236,0,.74.74,0,0,1-.247-.139,1.1,1.1,0,0,1-.214-.239,1.026,1.026,0,0,1-.137-.3,7.628,7.628,0,0,1-.22-1.182A6.369,6.369,0,0,1,.02,13.565a5.82,5.82,0,0,1,.206-1.139,5.971,5.971,0,0,1,.444-1.11A4.866,4.866,0,0,1,1,10.772,3.722,3.722,0,0,1,1.39,10.3,3.078,3.078,0,0,1,1.859,9.9a2.879,2.879,0,0,1,.554-.294.863.863,0,0,0,.1-.046A.336.336,0,0,0,2.6,9.5a.263.263,0,0,0,.057-.1.423.423,0,0,0,.02-.142q0-.734-.006-1.468t0-1.468q0-.734,0-1.468t0-1.468c0-.01,0-.02,0-.032s0-.023,0-.037l0-.048c0-.019,0-.04-.006-.065-.063,0-.126.006-.189.009l-.188.007c-.062,0-.125.006-.186.012s-.123.014-.184.025a1.193,1.193,0,0,1-.476,0A.749.749,0,0,1,1.092,3.1a.721.721,0,0,1-.2-.282.9.9,0,0,1-.059-.351.846.846,0,0,1,.055-.283.777.777,0,0,1,.141-.234.723.723,0,0,1,.211-.166.714.714,0,0,1,.265-.077l.219-.019.219-.017.219-.013q.11-.005.219-.007A.392.392,0,0,0,2.5,1.636a.158.158,0,0,0,.072-.044.191.191,0,0,0,.04-.079.564.564,0,0,0,.016-.119c0-.076.008-.153.013-.23s.011-.154.02-.231S2.677.779,2.69.7s.03-.149.05-.222a.59.59,0,0,1,.1-.2A.646.646,0,0,1,3.006.13a.7.7,0,0,1,.2-.088.671.671,0,0,1,.215-.02.706.706,0,0,1,.22.053.782.782,0,0,1,.2.118A.773.773,0,0,1,4,.365.706.706,0,0,1,4.09.579c.01.04.018.08.025.121s.012.082.017.123.007.083.009.125,0,.083,0,.124q0,1,0,2.008t0,2.008q0,1,0,2.008t0,2.008a1.555,1.555,0,0,0,.008.184.467.467,0,0,0,.04.149.364.364,0,0,0,.1.123.732.732,0,0,0,.18.105,2.829,2.829,0,0,1,.506.285,3.1,3.1,0,0,1,.437.376,3.67,3.67,0,0,1,.372.453,4.51,4.51,0,0,1,.31.516,5.419,5.419,0,0,1,.232.514q.1.261.178.532t.128.551q.052.28.081.571.034.326.034.646a6.209,6.209,0,0,1-.031.633,6.279,6.279,0,0,1-.094.624q-.063.31-.157.618a.914.914,0,0,1-.135.27.924.924,0,0,1-.2.2.709.709,0,0,1-.238.115.452.452,0,0,1-.237,0,.887.887,0,0,1-.295-.146.805.805,0,0,1-.206-.232.828.828,0,0,1-.1-.3.95.95,0,0,1,.011-.338c.011-.053.022-.1.034-.158s.024-.106.037-.161l.04-.167L5.21,14.9c-.119,0-.237,0-.354,0l-.349-.005c-.116,0-.231,0-.345,0s-.229.008-.342.017a.525.525,0,0,1-.272-.056.837.837,0,0,1-.243-.184,1.048,1.048,0,0,1-.181-.268.9.9,0,0,1-.085-.307.591.591,0,0,1,.046-.273.789.789,0,0,1,.159-.242.873.873,0,0,1,.239-.177.755.755,0,0,1,.285-.08c.059,0,.118-.007.177-.008l.177,0H5.206" transform="translate(9.31 0)" fill="#6a75ce"/><path d="M16.063,6.928a10.328,10.328,0,0,1-.124,1.42,8.589,8.589,0,0,1-.316,1.316,7.97,7.97,0,0,1-.516,1.224,8.363,8.363,0,0,1-.724,1.143,8.123,8.123,0,0,1-.974,1.085,7.631,7.631,0,0,1-1.113.856,7.952,7.952,0,0,1-1.244.639,9.082,9.082,0,0,1-1.368.433c-.152.035-.305.067-.46.1s-.311.051-.468.068-.314.03-.471.036-.313.006-.467,0A8.974,8.974,0,0,1,6.5,15.082a7.95,7.95,0,0,1-1.25-.355,7.579,7.579,0,0,1-1.177-.562,7.872,7.872,0,0,1-1.1-.78,9.149,9.149,0,0,1-.929-.9,8.073,8.073,0,0,1-.767-1.01A7.6,7.6,0,0,1,.69,10.351,7.729,7.729,0,0,1,.284,9.115c-.048-.2-.091-.4-.129-.607S.085,8.1.06,7.891.017,7.477.008,7.27,0,6.857.006,6.653a8.46,8.46,0,0,1,.155-1.3,7.894,7.894,0,0,1,.9-2.392A8.4,8.4,0,0,1,1.8,1.879q.205-.256.425-.494T2.678.928Q2.915.709,3.17.511T3.7.136a.69.69,0,0,1,.286-.1A.868.868,0,0,1,4.3.053a.891.891,0,0,1,.288.126A.739.739,0,0,1,4.8.4a.651.651,0,0,1,.089.26.87.87,0,0,1-.122.559.673.673,0,0,1-.2.206,7.376,7.376,0,0,0-.931.733,6.45,6.45,0,0,0-.773.857,6.118,6.118,0,0,0-.6.984,6.392,6.392,0,0,0-.42,1.116c-.048.174-.092.352-.13.532s-.071.361-.1.544-.046.365-.057.548-.015.364-.009.545a6.753,6.753,0,0,0,.126,1.1,6.369,6.369,0,0,0,.3,1.038,6.45,6.45,0,0,0,.473.975A7,7,0,0,0,3.1,11.3a6.752,6.752,0,0,0,.634.665,6.466,6.466,0,0,0,.7.558,6.585,6.585,0,0,0,.768.455,7.106,7.106,0,0,0,.833.355c.173.061.348.116.524.163s.354.087.533.117a5.075,5.075,0,0,0,.541.063,4.508,4.508,0,0,0,.546,0,7.574,7.574,0,0,0,1.213-.169,6.6,6.6,0,0,0,1.134-.363,6.339,6.339,0,0,0,1.05-.568,6.793,6.793,0,0,0,.963-.784,6.866,6.866,0,0,0,.7-.794,6.322,6.322,0,0,0,.953-1.822,6.75,6.75,0,0,0,.25-1.024,7.153,7.153,0,0,0,.1-1.068,6.585,6.585,0,0,0-.069-1.049,6.459,6.459,0,0,0-.238-1.026,6.786,6.786,0,0,0-.411-1,7.023,7.023,0,0,0-.431-.739,6.439,6.439,0,0,0-.51-.665,6.25,6.25,0,0,0-.592-.59,6.447,6.447,0,0,0-.676-.514,1.061,1.061,0,0,1-.207-.177.824.824,0,0,1-.139-.214A.748.748,0,0,1,11.2.864.861.861,0,0,1,11.224.59a.862.862,0,0,1,.084-.214A.71.71,0,0,1,11.442.2a.6.6,0,0,1,.4-.163.971.971,0,0,1,.166.01,1.2,1.2,0,0,1,.169.037,1.272,1.272,0,0,1,.163.061,1.142,1.142,0,0,1,.148.08A7.3,7.3,0,0,1,14.145,1.7a7.773,7.773,0,0,1,.644.9,8.73,8.73,0,0,1,.527,1c.092.2.177.409.254.618s.145.419.2.632a6.5,6.5,0,0,1,.143.649,5.835,5.835,0,0,1,.073.669c0,.075.009.149.015.222s.013.143.021.21.014.13.021.187.012.109.017.153" transform="translate(4.563 5.753)" fill="#6a75ce"/><path d="M7.892,3.978A13.769,13.769,0,0,1,6.3,3.865a13.006,13.006,0,0,1-1.543-.3,12.856,12.856,0,0,1-1.5-.482,13.317,13.317,0,0,1-1.449-.67c-.123-.066-.245-.136-.365-.208s-.239-.147-.357-.224S.858,1.83.741,1.752L.392,1.516a.924.924,0,0,1-.253-.251.813.813,0,0,1-.125-.3A.8.8,0,0,1,.02.635.885.885,0,0,1,.162.321.584.584,0,0,1,.373.139.754.754,0,0,1,.656.06.9.9,0,0,1,.968.09a.945.945,0,0,1,.3.143A12,12,0,0,0,2.3.891a11.428,11.428,0,0,0,1.077.542A11.211,11.211,0,0,0,4.5,1.856a11.349,11.349,0,0,0,1.173.3q.394.08.791.127t.795.065q.4.017.8.005t.8-.051a10.491,10.491,0,0,0,1.212-.191,11.022,11.022,0,0,0,1.167-.323q.573-.192,1.127-.443T13.456.8c.059-.033.117-.069.175-.106s.114-.076.171-.114.113-.077.171-.114.116-.072.175-.105c.036-.02.073-.039.111-.056s.077-.034.117-.048A.987.987,0,0,1,14.5.218.713.713,0,0,1,14.615.2a1.242,1.242,0,0,1,.3.018.619.619,0,0,1,.222.088.553.553,0,0,1,.158.162A.969.969,0,0,1,15.4.712a.67.67,0,0,1,.029.247.768.768,0,0,1-.061.249.877.877,0,0,1-.144.23A.974.974,0,0,1,15,1.627l-.387.241q-.194.12-.389.238t-.392.231q-.2.113-.4.221-.391.209-.8.383t-.82.316q-.415.142-.84.255t-.857.2c-.183.037-.368.067-.553.092s-.372.046-.559.065-.374.036-.561.053-.374.036-.561.057" transform="translate(4.777 21.663)" fill="#6a75ce"/><path d="M0,11.038A13.6,13.6,0,0,1,.112,9.581,12.962,12.962,0,0,1,.789,6.82a13.625,13.625,0,0,1,.559-1.312q.2-.411.426-.8t.473-.767q.249-.375.521-.732t.57-.7q.308-.352.639-.672t.682-.611q.351-.292.721-.557t.757-.51a.788.788,0,0,1,.3-.115.7.7,0,0,1,.3.016A.741.741,0,0,1,7,.2a.9.9,0,0,1,.213.251.65.65,0,0,1,.083.265A.839.839,0,0,1,7.27,1a.863.863,0,0,1-.123.271.73.73,0,0,1-.213.207q-.377.235-.734.5t-.693.549q-.336.288-.65.6t-.605.663A12.146,12.146,0,0,0,3.39,4.953,11.485,11.485,0,0,0,2.682,6.2,11.37,11.37,0,0,0,2.133,7.53a11.811,11.811,0,0,0-.385,1.422q-.061.3-.11.6t-.082.6q-.033.3-.048.6t-.009.61a.891.891,0,0,1-.053.322.9.9,0,0,1-.155.27.88.88,0,0,1-.232.2.8.8,0,0,1-.282.1.441.441,0,0,1-.209-.028A.857.857,0,0,1,.344,12.1a.938.938,0,0,1-.189-.189.634.634,0,0,1-.11-.227,1.3,1.3,0,0,1-.027-.167c-.006-.056-.009-.112-.01-.168s0-.11,0-.163,0-.1,0-.152" transform="translate(0 1.582)" fill="#6a75ce"/><path d="M.35.1A.7.7,0,0,1,.536.023.768.768,0,0,1,.732,0a.883.883,0,0,1,.2.029A.983.983,0,0,1,1.119.1l.143.072L1.4.251l.141.078q.07.04.138.083.385.242.752.51t.713.563q.346.295.67.617t.625.675q.44.515.827,1.065a13.154,13.154,0,0,1,.716,1.135,12.426,12.426,0,0,1,.6,1.21,12.218,12.218,0,0,1,.466,1.29c.013.043.026.087.039.131s.025.088.035.133.02.089.027.134a1.221,1.221,0,0,1,.014.135,1.155,1.155,0,0,1-.017.281.631.631,0,0,1-.083.215.587.587,0,0,1-.153.161.976.976,0,0,1-.227.119.631.631,0,0,1-.261.041.654.654,0,0,1-.254-.067.735.735,0,0,1-.22-.167.865.865,0,0,1-.16-.259c-.045-.112-.087-.226-.127-.341s-.079-.23-.118-.345-.078-.231-.118-.345-.082-.229-.127-.341q-.159-.4-.35-.776t-.41-.736q-.219-.359-.464-.7T3.56,4.077q-.262-.324-.546-.62t-.587-.566q-.3-.271-.623-.52t-.656-.48q-.086-.059-.173-.115T.8,1.669L.619,1.563.44,1.458a.941.941,0,0,1-.3-.277A.8.8,0,0,1,.006.835.747.747,0,0,1,.048.474.835.835,0,0,1,.275.149L.292.134.311.12.33.107.35.1" transform="translate(17.432 1.422)" fill="#6a75ce"/><path d="M4.125.828q.012.1.022.194t.016.195c0,.065.006.13.007.195s0,.13,0,.195a15,15,0,0,1-.206,1.84,13.946,13.946,0,0,1-.429,1.762,13.657,13.657,0,0,1-.654,1.685A14.119,14.119,0,0,1,1.995,8.5q-.077.122-.159.24t-.166.235q-.084.117-.17.232l-.172.23a.836.836,0,0,1-.229.212.731.731,0,0,1-.269.1A.682.682,0,0,1,.551,9.74a.7.7,0,0,1-.26-.131.787.787,0,0,1-.2-.231A.714.714,0,0,1,0,9.1.828.828,0,0,1,.03,8.8a1.106,1.106,0,0,1,.138-.308C.282,8.315.4,8.138.516,7.96s.235-.355.35-.533.228-.359.335-.541.21-.368.3-.558q.22-.44.4-.9T2.221,4.5q.136-.472.226-.959a9.746,9.746,0,0,0,.13-.988q.018-.223.034-.447t.031-.447q.014-.224.027-.447T2.692.767A1.056,1.056,0,0,1,2.745.479.788.788,0,0,1,2.865.25.634.634,0,0,1,3.044.09.61.61,0,0,1,3.271.011a.837.837,0,0,1,.31.013.715.715,0,0,1,.26.119.646.646,0,0,1,.184.209.674.674,0,0,1,.08.283q0,.024,0,.048t0,.048q0,.024.005.048l.006.048" transform="translate(20.965 11.57)" fill="#6a75ce"/><path d="M.726.012A1.057,1.057,0,0,1,.991.04a.575.575,0,0,1,.2.094A.565.565,0,0,1,1.344.3a1.021,1.021,0,0,1,.1.255q.135.494.305.97t.378.932q.207.457.451.895t.524.857c.047.07.094.142.141.214s.091.145.135.219.084.149.122.225.073.154.1.233a.528.528,0,0,1,.033.239.675.675,0,0,1-.068.237.837.837,0,0,1-.355.366.676.676,0,0,1-.232.072.754.754,0,0,1-.242-.01.717.717,0,0,1-.223-.085.6.6,0,0,1-.174-.155q-.311-.419-.595-.854t-.534-.891q-.25-.456-.463-.935T.371,2.1c-.028-.085-.057-.17-.086-.255S.228,1.677.2,1.592s-.056-.17-.083-.256S.065,1.165.041,1.079A1.074,1.074,0,0,1,.011.634.857.857,0,0,1,.148.277.649.649,0,0,1,.4.054.526.526,0,0,1,.726.012" transform="translate(0.413 15.137)" fill="#6a75ce"/></g><g transform="translate(9.05 7.069)"><path d="M5.2,13.309a4.739,4.739,0,0,0-.123-.554,3.687,3.687,0,0,0-.186-.506A3.169,3.169,0,0,0,4.3,11.37a1.118,1.118,0,0,0-.382-.255,1.462,1.462,0,0,0-.482-.109,1.353,1.353,0,0,0-.5.063,1.062,1.062,0,0,0-.426.261,3.472,3.472,0,0,0-.438.544,3.369,3.369,0,0,0-.31.6,3.644,3.644,0,0,0-.188.652,4.288,4.288,0,0,0-.074.7c0,.138,0,.276.006.415s.019.278.036.417.037.277.06.415.05.274.079.409a1.347,1.347,0,0,1,.032.422.707.707,0,0,1-.1.308.749.749,0,0,1-.217.219,1.486,1.486,0,0,1-.314.157.361.361,0,0,1-.236,0,.74.74,0,0,1-.247-.139,1.1,1.1,0,0,1-.214-.239,1.026,1.026,0,0,1-.137-.3,7.628,7.628,0,0,1-.22-1.182A6.369,6.369,0,0,1,.02,13.562a5.82,5.82,0,0,1,.206-1.139,5.971,5.971,0,0,1,.444-1.11A4.865,4.865,0,0,1,1,10.77a3.72,3.72,0,0,1,.393-.476A3.077,3.077,0,0,1,1.858,9.9a2.878,2.878,0,0,1,.554-.294.862.862,0,0,0,.1-.046A.336.336,0,0,0,2.6,9.5a.263.263,0,0,0,.057-.1.423.423,0,0,0,.02-.142q0-.734-.006-1.467t0-1.467q0-.734,0-1.467t0-1.467c0-.01,0-.02,0-.032s0-.023,0-.037l0-.048c0-.019,0-.04-.006-.065-.063,0-.126.006-.189.009l-.188.007c-.062,0-.125.006-.186.012s-.123.014-.184.025a1.193,1.193,0,0,1-.476,0A.748.748,0,0,1,1.091,3.1a.72.72,0,0,1-.2-.282.9.9,0,0,1-.059-.351A.846.846,0,0,1,.89,2.184a.777.777,0,0,1,.141-.234.723.723,0,0,1,.211-.165.714.714,0,0,1,.265-.077l.219-.019.219-.017.219-.013q.11-.005.219-.007A.392.392,0,0,0,2.5,1.636a.158.158,0,0,0,.072-.044.191.191,0,0,0,.04-.079.564.564,0,0,0,.016-.119c0-.076.008-.153.013-.23s.011-.154.02-.231S2.676.779,2.689.7s.03-.149.05-.222a.59.59,0,0,1,.1-.2A.646.646,0,0,1,3,.13a.7.7,0,0,1,.2-.088.671.671,0,0,1,.215-.02.706.706,0,0,1,.22.053.781.781,0,0,1,.2.118.773.773,0,0,1,.155.172.706.706,0,0,1,.095.214c.01.04.018.08.025.121s.012.082.017.123.007.083.009.125,0,.083,0,.124q0,1,0,2.007t0,2.008q0,1,0,2.008t0,2.007a1.555,1.555,0,0,0,.008.184.467.467,0,0,0,.04.149.364.364,0,0,0,.1.123.731.731,0,0,0,.18.105,2.828,2.828,0,0,1,.506.285,3.1,3.1,0,0,1,.437.375,3.669,3.669,0,0,1,.372.453,4.509,4.509,0,0,1,.31.516,5.418,5.418,0,0,1,.232.514q.1.261.178.532t.127.55q.052.28.081.57.034.326.034.645a6.209,6.209,0,0,1-.031.633,6.279,6.279,0,0,1-.094.624q-.063.31-.157.618a.914.914,0,0,1-.135.27.924.924,0,0,1-.2.2.709.709,0,0,1-.238.115.451.451,0,0,1-.237,0,.886.886,0,0,1-.295-.146.805.805,0,0,1-.206-.232.828.828,0,0,1-.1-.3.95.95,0,0,1,.011-.338c.011-.053.022-.1.034-.158s.024-.106.037-.161l.04-.167.041-.177c-.119,0-.237,0-.354,0L4.5,14.886c-.116,0-.23,0-.345,0s-.228.008-.342.017a.525.525,0,0,1-.272-.056.837.837,0,0,1-.243-.184,1.047,1.047,0,0,1-.181-.268.9.9,0,0,1-.085-.307.591.591,0,0,1,.046-.273.789.789,0,0,1,.159-.241.873.873,0,0,1,.239-.177.755.755,0,0,1,.285-.08c.059,0,.118-.007.177-.008l.177,0H5.2" transform="translate(8.797 0)" fill="#8894f4"/><path d="M15.056,6.925a11,11,0,0,1-.116,1.42,9.067,9.067,0,0,1-.3,1.316,8.265,8.265,0,0,1-.484,1.224,8.458,8.458,0,0,1-.679,1.143,7.968,7.968,0,0,1-.913,1.084,7.211,7.211,0,0,1-2.209,1.494,8.132,8.132,0,0,1-1.283.433c-.142.035-.286.067-.431.095s-.292.051-.439.068-.294.03-.441.036-.293.006-.438,0a7.911,7.911,0,0,1-1.233-.16,7.1,7.1,0,0,1-1.171-.355,6.918,6.918,0,0,1-1.1-.562,7.4,7.4,0,0,1-1.028-.78,8.861,8.861,0,0,1-.87-.9,8.043,8.043,0,0,1-.719-1.01,7.781,7.781,0,0,1-.555-1.121A8.1,8.1,0,0,1,.266,9.111c-.045-.2-.085-.4-.121-.606S.08,8.094.057,7.887s-.04-.414-.049-.621S0,6.854.005,6.65a9,9,0,0,1,.145-1.3A8.347,8.347,0,0,1,.479,4.119,8.163,8.163,0,0,1,.99,2.96a8.442,8.442,0,0,1,.693-1.082q.192-.256.4-.494T2.509.927Q2.731.708,2.97.51t.5-.375a.621.621,0,0,1,.268-.1.763.763,0,0,1,.292.018A.809.809,0,0,1,4.3.178.718.718,0,0,1,4.5.4a.68.68,0,0,1,.084.26A.909.909,0,0,1,4.57.947a.888.888,0,0,1-.1.27.656.656,0,0,1-.183.206,7,7,0,0,0-.873.732,6.326,6.326,0,0,0-.724.856A6.2,6.2,0,0,0,2.125,4a6.662,6.662,0,0,0-.393,1.116c-.045.174-.086.352-.122.532s-.067.361-.091.544-.043.365-.053.548-.014.364-.008.544a7.183,7.183,0,0,0,.118,1.1A6.642,6.642,0,0,0,2.3,10.389a7.012,7.012,0,0,0,.6.907,6.587,6.587,0,0,0,.594.665,6.1,6.1,0,0,0,1.378,1.013,6.444,6.444,0,0,0,.781.355c.162.061.326.116.491.163s.332.087.5.117a4.473,4.473,0,0,0,.507.063,3.961,3.961,0,0,0,.512,0A6.683,6.683,0,0,0,8.8,13.505a5.913,5.913,0,0,0,1.063-.363,5.833,5.833,0,0,0,.985-.568,6.466,6.466,0,0,0,.9-.784A6.749,6.749,0,0,0,12.405,11a6.443,6.443,0,0,0,.517-.872,6.565,6.565,0,0,0,.376-.949,7.123,7.123,0,0,0,.235-1.024,7.615,7.615,0,0,0,.09-1.068,7.015,7.015,0,0,0-.065-1.049,6.823,6.823,0,0,0-.223-1.026,7.046,7.046,0,0,0-.385-1,7.146,7.146,0,0,0-.4-.739,6.409,6.409,0,0,0-.478-.665,6.06,6.06,0,0,0-1.188-1.1,1.015,1.015,0,0,1-.194-.177.831.831,0,0,1-.131-.214A.789.789,0,0,1,10.5.862a.917.917,0,0,1,.023-.274A.9.9,0,0,1,10.6.374.706.706,0,0,1,10.723.2a.566.566,0,0,1,.168-.117A.541.541,0,0,1,11.1.038a.854.854,0,0,1,.155.01,1.064,1.064,0,0,1,.158.037,1.146,1.146,0,0,1,.153.061,1.051,1.051,0,0,1,.139.08A6.951,6.951,0,0,1,12.539.9a7.123,7.123,0,0,1,.718.79,7.781,7.781,0,0,1,.6.9,8.94,8.94,0,0,1,.495,1c.086.2.166.409.238.618s.136.419.191.632.1.43.134.649a6.21,6.21,0,0,1,.068.669c0,.075.009.149.014.222s.013.143.019.21.014.13.02.187.012.109.016.153" transform="translate(4.559 5.753)" fill="#8894f4"/><path d="M7.375,3.975a12.048,12.048,0,0,1-1.486-.114,11.456,11.456,0,0,1-1.442-.3,11.466,11.466,0,0,1-1.4-.482A12.085,12.085,0,0,1,1.7,2.412c-.115-.066-.229-.136-.341-.208s-.223-.147-.333-.224S.8,1.826.693,1.747L.366,1.511A.9.9,0,0,1,.13,1.261a.846.846,0,0,1-.117-.3A.859.859,0,0,1,.019.631.915.915,0,0,1,.151.317a.557.557,0,0,1,.2-.181A.67.67,0,0,1,.613.057.793.793,0,0,1,.9.086a.86.86,0,0,1,.282.143,11.154,11.154,0,0,0,.96.659,10.427,10.427,0,0,0,1.006.542A10.062,10.062,0,0,0,4.2,1.852a10.053,10.053,0,0,0,1.1.3q.369.08.739.127t.743.065q.372.017.747.006T8.279,2.3a9.217,9.217,0,0,0,1.133-.19A9.781,9.781,0,0,0,10.5,1.789a10.95,10.95,0,0,0,1.053-.443Q12.074,1.1,12.577.8c.056-.033.11-.069.163-.106s.107-.076.16-.114.106-.077.16-.114.108-.072.164-.105c.033-.02.068-.039.1-.056s.072-.034.109-.048a.877.877,0,0,1,.112-.034A.626.626,0,0,1,13.661.2a1.088,1.088,0,0,1,.279.019.558.558,0,0,1,.207.088A.538.538,0,0,1,14.3.471a1,1,0,0,1,.1.241.714.714,0,0,1,.027.247.812.812,0,0,1-.057.249.888.888,0,0,1-.135.23.929.929,0,0,1-.208.189l-.362.24q-.181.12-.363.238t-.367.231q-.185.113-.372.221-.366.209-.744.383t-.767.316q-.388.142-.786.254t-.8.2c-.171.037-.344.066-.517.092s-.348.046-.522.065-.35.036-.525.053-.35.035-.524.057" transform="translate(4.773 21.66)" fill="#8894f4"/><path d="M0,11.033A13.6,13.6,0,0,1,.112,9.576a12.961,12.961,0,0,1,.677-2.76A13.622,13.622,0,0,1,1.347,5.5q.2-.411.425-.8t.473-.767q.248-.374.521-.731t.57-.7q.308-.352.639-.672t.682-.611q.351-.291.721-.557T6.133.158a.787.787,0,0,1,.3-.114.7.7,0,0,1,.295.016A.74.74,0,0,1,6.992.2.9.9,0,0,1,7.2.447a.65.65,0,0,1,.082.265A.839.839,0,0,1,7.263,1a.863.863,0,0,1-.123.271.729.729,0,0,1-.213.207q-.376.235-.733.5T5.5,2.525q-.336.288-.65.6t-.6.663a12.14,12.14,0,0,0-.861,1.159A11.39,11.39,0,0,0,2.131,7.527a11.81,11.81,0,0,0-.385,1.422q-.061.3-.11.6t-.082.6q-.033.3-.048.6t-.009.61a.891.891,0,0,1-.053.322.9.9,0,0,1-.155.27.879.879,0,0,1-.232.2.8.8,0,0,1-.282.1.44.44,0,0,1-.209-.028A.856.856,0,0,1,.344,12.1a.937.937,0,0,1-.189-.189.634.634,0,0,1-.11-.227,1.3,1.3,0,0,1-.027-.167c-.006-.056-.009-.112-.01-.168s0-.11,0-.163,0-.1,0-.152" transform="translate(0 1.584)" fill="#8894f4"/><path d="M.35.1A.7.7,0,0,1,.536.023.768.768,0,0,1,.732,0a.883.883,0,0,1,.2.029A.983.983,0,0,1,1.119.1l.143.072L1.4.251l.141.078q.07.04.138.083.385.242.752.51t.713.563q.346.295.67.617t.625.675q.44.515.827,1.065a13.155,13.155,0,0,1,.716,1.135,12.426,12.426,0,0,1,.6,1.21,12.218,12.218,0,0,1,.466,1.29c.013.043.026.087.039.131s.025.088.035.133.02.089.027.134a1.221,1.221,0,0,1,.014.135,1.155,1.155,0,0,1-.017.281.631.631,0,0,1-.083.215.587.587,0,0,1-.153.161.976.976,0,0,1-.227.119.631.631,0,0,1-.261.041.654.654,0,0,1-.254-.067.735.735,0,0,1-.22-.167.865.865,0,0,1-.16-.259c-.045-.112-.087-.226-.127-.341s-.079-.23-.118-.345-.078-.231-.118-.345-.082-.229-.127-.341q-.159-.4-.35-.776t-.41-.736q-.219-.359-.464-.7T3.56,4.077q-.262-.324-.546-.62t-.587-.566q-.3-.271-.623-.52t-.656-.48q-.086-.059-.173-.115T.8,1.669L.619,1.563.44,1.458a.941.941,0,0,1-.3-.277A.8.8,0,0,1,.006.835.747.747,0,0,1,.048.474.835.835,0,0,1,.275.149L.292.134.311.12.33.107.35.1" transform="translate(16.42 1.42)" fill="#8894f4"/><path d="M4.125.828q.012.1.022.194t.016.195c0,.065.006.13.007.195s0,.13,0,.195a15,15,0,0,1-.206,1.84,13.946,13.946,0,0,1-.429,1.762,13.657,13.657,0,0,1-.654,1.685A14.119,14.119,0,0,1,1.995,8.5q-.077.122-.159.24t-.166.235q-.084.117-.17.232l-.172.23a.836.836,0,0,1-.229.212.731.731,0,0,1-.269.1A.682.682,0,0,1,.551,9.74a.7.7,0,0,1-.26-.131.787.787,0,0,1-.2-.231A.714.714,0,0,1,0,9.1.828.828,0,0,1,.03,8.8a1.106,1.106,0,0,1,.138-.308C.282,8.315.4,8.138.516,7.96s.235-.355.35-.533.228-.359.335-.541.21-.368.3-.558q.22-.44.4-.9T2.221,4.5q.136-.472.226-.959a9.746,9.746,0,0,0,.13-.988q.018-.223.034-.447t.031-.447q.014-.224.027-.447T2.692.767A1.056,1.056,0,0,1,2.745.479.788.788,0,0,1,2.865.25.634.634,0,0,1,3.044.09.61.61,0,0,1,3.271.011a.837.837,0,0,1,.31.013.715.715,0,0,1,.26.119.646.646,0,0,1,.184.209.674.674,0,0,1,.08.283q0,.024,0,.048t0,.048q0,.024.005.048l.006.048" transform="translate(19.954 11.567)" fill="#8894f4"/><path d="M.726.012A1.055,1.055,0,0,1,.99.04a.574.574,0,0,1,.2.094A.565.565,0,0,1,1.343.3a1.021,1.021,0,0,1,.1.255q.134.494.3.969t.378.932q.207.456.45.894T3.1,4.21c.047.07.094.142.14.214s.091.145.134.219.084.149.122.225.073.154.1.233a.528.528,0,0,1,.033.239.675.675,0,0,1-.068.237.836.836,0,0,1-.355.365.675.675,0,0,1-.232.071A.753.753,0,0,1,2.739,6a.716.716,0,0,1-.223-.085.594.594,0,0,1-.174-.155q-.311-.418-.594-.853t-.534-.891q-.25-.456-.463-.934T.371,2.1c-.028-.085-.057-.17-.086-.254S.227,1.676.2,1.592s-.056-.17-.083-.256S.065,1.165.041,1.078A1.074,1.074,0,0,1,.011.634.856.856,0,0,1,.148.277.648.648,0,0,1,.4.054.525.525,0,0,1,.726.012" transform="translate(0.412 15.133)" fill="#8894f4"/></g></g><g transform="translate(1069.734 115.808)"><path d="M18.974.173a17.794,17.794,0,0,1,7.3,1.634A18.849,18.849,0,0,1,32.2,6.121a20.185,20.185,0,0,1,3.976,6.339,21.277,21.277,0,0,1,0,15.462A20.185,20.185,0,0,1,32.2,34.261a18.849,18.849,0,0,1-5.924,4.314,17.829,17.829,0,0,1-14.645.123,18.8,18.8,0,0,1-6.036-4.266A20.152,20.152,0,0,1,1.5,28.045a21.274,21.274,0,0,1,0-15.708A20.152,20.152,0,0,1,5.591,5.95a18.8,18.8,0,0,1,6.036-4.266A17.772,17.772,0,0,1,18.974.173Z" fill="#dbd9ef"/><path d="M18.938.172a17.748,17.748,0,0,1,7.284,1.633,18.815,18.815,0,0,1,5.913,4.31A20.169,20.169,0,0,1,36.1,12.448a21.276,21.276,0,0,1,0,15.448,20.169,20.169,0,0,1-3.968,6.333,18.815,18.815,0,0,1-5.913,4.31,17.781,17.781,0,0,1-14.617.123A18.767,18.767,0,0,1,5.581,34.4,20.135,20.135,0,0,1,1.5,28.019a21.272,21.272,0,0,1,0-15.693A20.135,20.135,0,0,1,5.581,5.944a18.767,18.767,0,0,1,6.025-4.262A17.725,17.725,0,0,1,18.938.172Z" transform="translate(2.07 0.02)" fill="#f6f5ff"/><g transform="translate(12.047 11.709)"><path d="M2,16.952H1.945l-.051,0-.051,0-.051,0-.05-.006-.05-.007-.049-.008L1.6,16.912,1.546,16.9,1.5,16.888l-.048-.013L1.4,16.86l-.046-.016-.046-.017-.046-.018-.045-.019-.044-.02-.044-.022-.043-.023L1.046,16.7,1,16.676.962,16.65l-.041-.027L.881,16.6l-.039-.029L.8,16.536.765,16.5l-.037-.032L.691,16.44l-.036-.034L.62,16.372l-.034-.036L.552,16.3l-.033-.037-.032-.038-.031-.039-.03-.04L.4,16.107l-.028-.041-.027-.042-.026-.042-.026-.043-.025-.044L.241,15.85.218,15.8.2,15.758l-.021-.047-.02-.048-.018-.048-.017-.048L.1,15.519l-.015-.05-.014-.05-.013-.05q-.006-.025-.012-.051t-.01-.051q-.005-.026-.01-.052t-.008-.052q0-.026-.007-.053T.01,15.057q0-.027,0-.054t0-.054q0-.027,0-.054t0-.055V13.785H.013q0-.011,0-.022t0-.022,0-.022l0-.022,0-.021,0-.021,0-.021,0-.021,0-.021,0-.021.005-.02.006-.02.006-.02.007-.02.007-.019.007-.02.008-.019.008-.019L.1,13.4l.009-.018.01-.018.01-.018.01-.017.011-.017.011-.017.011-.016.012-.016.012-.016.013-.015.013-.015L.234,13.2l.013-.015.014-.014.014-.014.015-.013L.3,13.13l.015-.013L.334,13.1l.015-.012.016-.011.016-.011L.4,13.058l.017-.01.017-.01.017-.01.017-.009.017-.009L.5,13l.018-.007.018-.007.018-.007.019-.006.019-.006.019-.006.019-.005.019,0,.02,0,.02,0,.02,0,.02,0,.02,0H.873l.02,0,.02,0,.02,0,.02,0,.019,0,.02,0,.019,0,.019.005.019.006.019.006.019.007.018.007L1.123,13l.018.008.017.009.017.009.017.01.017.01.016.01.016.011.016.011.016.011.015.012.015.013.015.013.015.013.014.013.014.014.014.014.013.015.013.015.013.015.012.015.012.016.012.016.011.016.011.017.011.017.01.017.01.017.01.018.009.018.008.018.008.019.008.019.007.019.007.019.007.02.006.02.006.02.005.02,0,.02,0,.021,0,.021,0,.021,0,.021,0,.021,0,.022q0,.011,0,.022t0,.022,0,.022s0,.007,0,.01,0,.007,0,.01,0,.007,0,.01,0,.006,0,.01v.1l0,.009,0,.009v.9s0,.008,0,.011,0,.007,0,.011V14.9l0,.011,0,.01,0,.01,0,.01,0,.01,0,.01,0,.01,0,.01,0,.01,0,.009,0,.009,0,.009,0,.009,0,.009,0,.009,0,.009.005.009.005.008.006.009.006.008.006.008.006.008.006.008.006.008.007.007.007.007.007.007.007.007.007.007.007.007.008.006.008.006.008.006.008.006.008.005.008.005L1.8,15.2l.008,0,.008.005.009,0,.009,0,.009,0,.009,0,.009,0,.009,0,.009,0,.01,0,.01,0,.01,0,.01,0,.01,0,.01,0H2l11.9-.037h.06l.01,0,.01,0,.009,0,.009,0,.009,0,.009,0,.009,0,.009,0,.009,0,.009,0,.009,0,.009,0,.009,0,.008-.005.008,0,.008-.005.008-.005.008-.005.008-.006.008-.006.008-.006.008-.006.007-.007.007-.007.007-.007.007-.007.007-.007.007-.007.006-.008.006-.008.006-.008.006-.008.006-.008.006-.009.005-.008,0-.009,0-.009,0-.009,0-.009,0-.009,0-.009,0-.009,0-.009,0-.01,0-.01,0-.01,0-.01,0-.01,0-.01,0-.01,0-.01,0-.011v-.042s0-.007,0-.011,0-.007,0-.011V2.161s0-.007,0-.011,0-.007,0-.011V2.1l0-.01,0-.011,0-.01,0-.01,0-.01,0-.01,0-.01,0-.01,0-.01,0-.01,0-.009,0-.009,0-.009,0-.009,0-.009,0-.009,0-.009-.005-.008-.006-.009-.006-.008L14.211,1.9l-.006-.008L14.2,1.886l-.006-.007-.007-.007-.007-.007-.007-.007-.007-.007-.007-.007-.007-.006-.008-.007-.008-.006-.008-.006-.008-.006-.008-.006L14.1,1.8,14.1,1.8l-.008,0-.008,0-.009,0-.009,0-.009,0-.009,0-.009,0-.009,0-.009,0-.009,0-.009,0-.009,0-.009,0-.01,0-.01,0-.01,0H13.9L2,1.7H1.935l-.01,0-.01,0-.01,0-.01,0-.01,0-.01,0-.009,0-.009,0-.009,0-.009,0-.009,0-.009,0-.009,0-.008,0-.008,0-.008.005-.008.006-.008.006-.008.006-.008.006-.008.006L1.742,1.8l-.007.006-.007.007-.007.007-.007.007-.007.007L1.7,1.841l-.006.007-.006.007-.006.008-.006.008-.006.008-.006.009L1.66,1.9l-.005.009,0,.009,0,.009,0,.009,0,.009,0,.009,0,.009,0,.01,0,.01,0,.01,0,.01,0,.01,0,.01,0,.01,0,.01,0,.011,0,.011V2.1s0,.007,0,.011,0,.007,0,.011v.907l0,.01,0,.01v.1s0,.007,0,.01,0,.007,0,.01,0,.007,0,.01,0,.006,0,.01,0,.015,0,.022,0,.015,0,.022,0,.014,0,.021l0,.021q0,.011,0,.022l0,.021,0,.021,0,.021,0,.02,0,.02-.005.02-.006.02-.006.02-.007.02L1.555,3.5l-.007.019-.008.019-.008.019-.008.018-.009.018L1.5,3.61l-.01.017-.01.017-.011.017-.011.017-.011.016-.012.016-.012.016-.012.015L1.4,3.758l-.013.015-.013.014L1.363,3.8l-.014.014-.014.013-.015.013L1.3,3.854l-.015.012-.015.012-.016.012L1.242,3.9l-.016.011-.016.011-.017.01-.017.009-.017.009-.017.009-.018.008L1.1,3.976l-.018.007-.019.007L1.049,4,1.03,4l-.019.005-.019,0-.02,0-.019,0-.02,0-.02,0-.02,0-.02,0H.75l-.02,0-.02,0-.02,0-.02,0-.02,0-.019,0L.612,4.007.593,4,.574,4,.555,3.989.537,3.982.519,3.974.5,3.966.483,3.958.465,3.949.448,3.94.431,3.931l-.017-.01L.4,3.91.381,3.9.365,3.888.349,3.877.334,3.865.319,3.852.3,3.839.289,3.826.275,3.813.261,3.8.247,3.784.234,3.77.221,3.755.208,3.74.195,3.724.183,3.708.171,3.692.16,3.675.149,3.658.138,3.641l-.01-.017-.01-.018-.01-.018L.1,3.571.092,3.552.083,3.534.076,3.515.068,3.5.061,3.476l-.007-.02-.006-.02-.006-.02L.038,3.4l0-.021,0-.021,0-.021,0-.021,0-.021q0-.011,0-.022l0-.021q0-.011,0-.022t0-.022,0-.022H0V2.12q0-.027,0-.054t0-.054q0-.027,0-.054t0-.054q0-.027.006-.053T.023,1.8q0-.026.008-.052t.01-.052q0-.026.01-.051l.012-.051.013-.051.014-.05L.1,1.441l.016-.049.017-.048L.157,1.3l.02-.047L.2,1.2l.022-.046.023-.046.024-.045.025-.044L.315.979.341.936.369.895.4.854.426.814l.03-.04L.487.735.519.7.552.66.586.624.62.589.655.554.691.521.727.488.765.456.8.425.842.4.881.367.922.339.962.311,1,.285,1.046.261,1.089.237,1.132.214,1.176.192,1.221.172,1.266.153,1.311.134,1.357.117,1.4.1,1.451.086,1.5.073,1.546.061,1.6.049,1.644.04,1.693.031l.05-.007.05-.006.051,0,.051,0,.051,0H2L13.9.053h.051l.051,0,.05,0,.05,0,.05.006L14.2.079l.049.009L14.3.1l.048.011.047.013.047.014.047.015.046.016.045.017L14.623.2l.044.019.044.021.043.022L14.8.288l.042.024.042.025.041.026.04.027L15,.419l.039.029.038.03.038.031.037.032.036.033.035.034.035.034.034.035.033.036L15.36.75l.031.038.03.039.03.039.029.04.028.041.027.041.026.043.025.043.024.044.023.045.022.045.021.046.02.046.019.047.018.047.017.048.016.049.015.049.014.05.013.05.012.051.011.051q.005.026.009.051t.008.052q0,.026.007.053t.006.053q0,.027,0,.053t0,.054q0,.027,0,.054t0,.054V14.794q0,.027,0,.054t0,.054q0,.027,0,.054t0,.053q0,.027-.006.053t-.007.053q0,.026-.008.052t-.009.051l-.011.051-.012.051-.013.05-.014.049-.015.049-.016.049-.017.048-.018.047-.019.047-.02.047-.021.046-.022.045-.023.044-.024.044-.025.043-.026.042-.027.042-.028.041-.029.04-.03.039-.03.039-.031.038-.032.037-.033.036-.034.036-.035.035-.035.034-.036.033-.037.032-.038.031-.038.03L15,16.543l-.04.028-.04.027-.041.026-.042.025-.042.024-.043.023-.043.022-.044.02-.044.02-.045.018-.045.017-.046.016-.047.015-.047.014-.047.013-.048.011-.048.01-.049.009-.049.007-.05.006-.05,0-.05,0-.051,0H13.9ZM6.575,13.1q-.035-.01-.069-.024t-.068-.031q-.033-.017-.066-.037t-.063-.044l-.035-.027-.034-.029-.032-.031-.03-.032L6.15,12.81l-.026-.036L6.1,12.737,6.076,12.7l-.02-.04q-.01-.02-.018-.041t-.016-.042q-.007-.021-.013-.043T6,12.487q-.005-.022-.009-.045T5.981,12.4q0-.023,0-.046t0-.046q0-.023,0-.046t0-.046q0-.023.006-.045t.008-.045q0-.022.01-.044t.013-.043q.007-.021.015-.042t.017-.041l.02-.04.022-.039.024-.038.026-.037.028-.035.03-.034.032-.032L8.453,9.326l-7.642,0a.763.763,0,0,1-.081,0,.749.749,0,0,1-.156-.034A.74.74,0,0,1,.5,9.262a.756.756,0,0,1-.07-.035.78.78,0,0,1-.066-.042Q.333,9.162.3,9.136T.247,9.081Q.22,9.052.2,9.021T.149,8.955q-.022-.034-.04-.07T.076,8.812Q.06,8.773.049,8.733t-.02-.081Q.021,8.611.017,8.568t0-.087q0-.044,0-.086T.029,8.31q.008-.041.02-.081t.027-.078q.015-.038.033-.074t.04-.07Q.171,7.974.2,7.942t.052-.06Q.274,7.853.3,7.827t.061-.049a.781.781,0,0,1,.066-.042A.756.756,0,0,1,.5,7.7a.742.742,0,0,1,.15-.05A.753.753,0,0,1,.73,7.638a.763.763,0,0,1,.081,0l7.642,0L6.23,5.268,6.2,5.236,6.168,5.2,6.14,5.167,6.114,5.13l-.024-.038-.022-.039-.02-.04q-.009-.02-.017-.041t-.015-.043Q6.01,4.907,6,4.885t-.01-.044q0-.022-.008-.045T5.98,4.751q0-.023,0-.046t0-.046q0-.023,0-.047t0-.046q0-.023.007-.046T6,4.476q.005-.022.012-.044t.013-.043q.007-.021.016-.042T6.056,4.3l.02-.04L6.1,4.226l.024-.037.026-.036.028-.034.03-.032.032-.031.034-.029L6.309,4q.031-.024.063-.044t.066-.037q.033-.017.068-.031t.069-.024q.035-.01.07-.017t.071-.01q.036,0,.072,0t.072,0q.036,0,.071.009T7,3.859q.035.009.069.022t.067.029q.033.016.065.035t.063.041q.031.022.06.048t.056.054l3.528,3.8.028.03.027.031.025.032.024.033.021.034.02.036.018.037.016.037L11.1,8.2q.007.019.013.039t.011.039q.005.02.009.04t.007.041q0,.021.005.041t0,.042q0,.021,0,.042t0,.042q0,.021,0,.042t-.005.041q0,.021-.007.041t-.009.04q-.005.02-.011.039t-.013.039l-.015.038-.016.037-.018.037-.02.036-.021.034-.024.033-.025.032-.027.03-.028.029-3.528,3.8q-.027.028-.056.054t-.06.048q-.031.022-.063.041t-.065.035q-.033.016-.067.029T7,13.1q-.035.009-.07.016t-.071.009H6.8l-.057,0-.057-.006-.056-.01Z" fill="#6a75ce"/><path d="M1.886,16.943a1.7,1.7,0,0,1-.734-.163,1.881,1.881,0,0,1-.6-.452,2.141,2.141,0,0,1-.4-.672A2.338,2.338,0,0,1,0,14.831v-1.06a.928.928,0,0,1,.059-.328.857.857,0,0,1,.161-.268.757.757,0,0,1,.239-.181.687.687,0,0,1,.588,0,.755.755,0,0,1,.24.18.851.851,0,0,1,.162.267.921.921,0,0,1,.059.327c0,.008,0,.015,0,.023s0,.015,0,.023,0,.015,0,.023,0,.016,0,.024v.966a.463.463,0,0,0,.03.165.428.428,0,0,0,.082.135.381.381,0,0,0,.121.09.345.345,0,0,0,.148.033l11.249-.035a.338.338,0,0,0,.146-.033.375.375,0,0,0,.119-.091.429.429,0,0,0,.08-.134.471.471,0,0,0,.029-.165V2.158a.468.468,0,0,0-.029-.164.428.428,0,0,0-.08-.134.375.375,0,0,0-.119-.09.339.339,0,0,0-.146-.033L1.886,1.7a.346.346,0,0,0-.148.033.382.382,0,0,0-.121.09.428.428,0,0,0-.082.134.46.46,0,0,0-.03.165V3.1c0,.007,0,.014,0,.022s0,.015,0,.022,0,.015,0,.022,0,.014,0,.021a.933.933,0,0,1-.059.329.859.859,0,0,1-.162.269.756.756,0,0,1-.24.181.682.682,0,0,1-.588,0A.758.758,0,0,1,.22,3.778a.864.864,0,0,1-.161-.27A.939.939,0,0,1,0,3.179V2.119a2.337,2.337,0,0,1,.148-.824,2.142,2.142,0,0,1,.4-.672,1.881,1.881,0,0,1,.6-.452A1.7,1.7,0,0,1,1.886.007L13.135.051a1.678,1.678,0,0,1,.724.168,1.888,1.888,0,0,1,.593.453,2.155,2.155,0,0,1,.4.67,2.332,2.332,0,0,1,.147.82V14.787a2.334,2.334,0,0,1-.147.82,2.154,2.154,0,0,1-.4.67,1.887,1.887,0,0,1-.593.453,1.679,1.679,0,0,1-.724.168Zm4.065-3.989a.751.751,0,0,1-.125-.119.8.8,0,0,1-.1-.145.836.836,0,0,1-.064-.166.863.863,0,0,1-.029-.18.888.888,0,0,1,.051-.36.854.854,0,0,1,.077-.16.785.785,0,0,1,.108-.137L7.977,9.318l-7.224,0A.683.683,0,0,1,.46,9.255.752.752,0,0,1,.22,9.074.857.857,0,0,1,.059,8.8a.951.951,0,0,1,0-.66.868.868,0,0,1,.161-.27A.759.759,0,0,1,.46,7.692a.676.676,0,0,1,.294-.067l7.224,0L5.872,5.26a.8.8,0,0,1-.108-.137.855.855,0,0,1-.077-.16A.88.88,0,0,1,5.635,4.6a.871.871,0,0,1,.029-.181.833.833,0,0,1,.064-.166.785.785,0,0,1,.1-.145.735.735,0,0,1,.125-.118A.759.759,0,0,1,6.2,3.858a.706.706,0,0,1,.532.043.775.775,0,0,1,.229.177l3.334,3.8a.776.776,0,0,1,.1.124.846.846,0,0,1,.073.144.88.88,0,0,1,0,.646.853.853,0,0,1-.073.144.8.8,0,0,1-.1.125l-3.334,3.8a.843.843,0,0,1-.122.11.763.763,0,0,1-.135.08.715.715,0,0,1-.144.048.7.7,0,0,1-.389-.025.721.721,0,0,1-.114-.053A.76.76,0,0,1,5.951,12.953Z" transform="translate(0.881 0.005)" fill="#8894f4"/></g></g></g></svg>