<?xml version="1.0" encoding="utf-8"?>
<!-- Generator: Adobe Illustrator 27.5.0, SVG Export Plug-In . SVG Version: 6.00 Build 0)  -->
<svg version="1.1" id="Layer_1" xmlns="http://www.w3.org/2000/svg" xmlns:xlink="http://www.w3.org/1999/xlink" x="0px" y="0px"
	 viewBox="0 0 300 240" style="enable-background:new 0 0 300 240;" xml:space="preserve">
<style type="text/css">
	.st0{opacity:0;fill:#F2F2F2;}
	.st1{fill:#4E5BBC;}
	.st2{fill:#FFFFFF;}
	.st3{fill:#E9CA62;}
	.st4{fill:#EAECF2;}
	.st5{opacity:0.33;fill:none;stroke:#41465A;stroke-width:2;stroke-linecap:round;enable-background:new    ;}
	.st6{fill:#E0E0E5;}
	.st7{fill:#F4C91B;}
	.st8{fill:none;stroke:#E0E0E5;stroke-linecap:round;stroke-linejoin:round;}
	.st9{fill:none;stroke:#D63A31;stroke-width:2;}
	.st10{fill:none;stroke:#E0E0E5;stroke-width:1.15;}
	.st11{fill:#FDB194;}
	.st12{fill:#393E4D;}
	.st13{fill:#404559;}
	.st14{fill:#3D4252;}
	.st15{fill:#41465A;}
	.st16{fill:#5B69CA;}
	.st17{fill:#191847;}
	.st18{fill:#21252B;}
	.st19{fill:none;stroke:#E0E0E5;stroke-width:2;stroke-linecap:round;stroke-linejoin:round;}
	.st20{fill:none;stroke:#E0E0E5;stroke-width:2;stroke-linecap:round;}
	.st21{fill:none;}
</style>
<g>
	<rect x="-0.4" y="0.4" class="st0" width="300" height="240"/>
	<g>
		<g>
			<g>
				<path class="st1" d="M183.7,20.4h83.5c2,0,3.5,1.7,3.5,3.7v174.3h-90.5V24.1C180.2,22.1,181.7,20.4,183.7,20.4z"/>
			</g>
			<g id="Group_6633" transform="translate(0 0)">
				<path id="Path_4016" class="st1" d="M217.8,34.8h13.4c1.4,0,2.8,0.3,4.1,0.8c2.5,1.1,4.5,3.1,5.6,5.6c0.5,1.3,0.8,2.7,0.8,4.1
					v13.4c0,1.4-0.3,2.8-0.8,4.1c-1.1,2.5-3.1,4.5-5.6,5.6c-1.3,0.5-2.7,0.8-4.1,0.8h-13.4c-1.4,0-2.8-0.3-4.1-0.8
					c-2.5-1.1-4.5-3.1-5.6-5.6c-0.5-1.3-0.8-2.7-0.8-4.1V45.3C207.3,39.5,212,34.8,217.8,34.8C217.7,34.8,217.7,34.8,217.8,34.8
					L217.8,34.8"/>
				<g>
					<path id="Path_4017" class="st2" d="M216.8,62.7c1.1,0.8,2.3,1.5,3.6,1.9c3.9,1.4,8.1,0.7,11.5-1.7c0.1-0.1,0.3-0.2,0.4-0.2
						c0.1,0,0.3,0,0.4,0c0.1,0,0.3,0.1,0.4,0.2c0.1,0.1,0.2,0.2,0.3,0.3c0.1,0.1,0.2,0.3,0.2,0.4c0,0.1,0,0.3,0,0.4
						c-0.1,0.3-0.2,0.5-0.5,0.6c-5.2,3.8-12.4,3.7-17.5-0.3c-0.1-0.1-0.2-0.2-0.3-0.3c-0.1-0.1-0.1-0.3-0.1-0.4c0-0.1,0-0.3,0-0.4
						c0-0.1,0.1-0.2,0.1-0.3c0.1-0.1,0.2-0.2,0.3-0.3c0.1-0.1,0.2-0.1,0.4-0.2c0.1,0,0.3,0,0.4,0C216.5,62.5,216.6,62.6,216.8,62.7
						L216.8,62.7z M239.3,51.5V52c0,0.9-0.1,1.8-0.2,2.7c-0.2,0.9-0.4,1.8-0.7,2.6c-0.6,1.7-1.5,3.3-2.7,4.7
						c-0.1,0.1-0.2,0.2-0.3,0.3c-0.1,0.1-0.3,0.1-0.4,0.1c-0.1,0-0.3,0-0.4,0c-0.1,0-0.2-0.1-0.3-0.2c-0.1-0.1-0.2-0.2-0.2-0.3
						c-0.1-0.1-0.1-0.3-0.1-0.4c0-0.1,0-0.3,0-0.4c0-0.1,0.1-0.3,0.2-0.3c1.3-1.6,2.2-3.5,2.8-5.5c0.3-1.1,0.3-2.2,0.3-3.3l0-0.3
						c0-0.1,0-0.3,0-0.4c0-0.1,0.1-0.3,0.2-0.4c0.1-0.1,0.2-0.2,0.3-0.3c0.1-0.1,0.3-0.1,0.4-0.2c0.1,0,0.3,0,0.4,0
						c0.1,0,0.3,0.1,0.4,0.2c0.1,0.1,0.2,0.2,0.3,0.3C239.2,51.2,239.3,51.3,239.3,51.5L239.3,51.5z M211.9,55.4
						c0.1,0.4,0.3,0.9,0.5,1.3c0.2,0.4,0.4,0.8,0.6,1.3c0.2,0.4,0.4,0.8,0.7,1.2c0.2,0.4,0.5,0.8,0.8,1.2c0.1,0.1,0.2,0.2,0.2,0.3
						c0,0.1,0,0.3,0,0.4c0,0.1-0.1,0.3-0.1,0.4c-0.1,0.1-0.1,0.2-0.2,0.3c-0.1,0.1-0.2,0.2-0.3,0.2c-0.1,0-0.3,0-0.4,0
						c-0.1,0-0.3-0.1-0.4-0.1c-0.1-0.1-0.2-0.1-0.3-0.3c-0.3-0.4-0.6-0.8-0.9-1.3c-0.3-0.5-0.5-0.9-0.8-1.4c-0.2-0.5-0.4-1-0.6-1.5
						c-0.2-0.5-0.3-1-0.5-1.5c-0.1-0.3,0-0.6,0.1-0.8c0.1-0.1,0.2-0.2,0.3-0.3c0.1-0.1,0.3-0.2,0.4-0.2c0.1,0,0.3,0,0.4,0
						c0.1,0,0.3,0.1,0.4,0.2C211.7,54.9,211.9,55.2,211.9,55.4L211.9,55.4z M229.2,43.7c1.1,0.7,2,1.5,2.7,2.6
						c1.4,2.1,2,4.6,1.7,7.1c-0.6,3.9-3.4,7-7.2,7.9c-1.2,0.3-2.4,0.3-3.6,0.2c-1.3-0.2-2.5-0.7-3.5-1.4c-1.1-0.7-2-1.5-2.7-2.6
						c-1.7-2.4-2.2-5.6-1.4-8.5c0.3-1.1,0.9-2,1.5-2.9c0-0.1,0.1-0.1,0.1-0.2c0.2-0.3,0.5-0.6,0.7-0.8c0.3-0.3,0.5-0.5,0.8-0.8
						c0.3-0.2,0.6-0.5,0.9-0.7c0.3-0.1,0.6-0.2,0.8-0.1c0.1,0,0.3,0.1,0.4,0.1c0.1,0.1,0.2,0.2,0.3,0.3c0.1,0.3,0.2,0.6,0.1,0.9
						c0,0.1-0.1,0.3-0.1,0.4c-0.1,0.1-0.1,0.2-0.3,0.3c-1.7,1-2.8,2.7-3.3,4.7c-0.4,1.9-0.1,3.9,1,5.6c2,3.4,6.5,4.5,9.9,2.5
						c0.1,0,0.1-0.1,0.2-0.1c1.7-1,2.8-2.7,3.3-4.7c0.4-1.9,0.1-3.9-1-5.6c-0.1-0.2-0.3-0.5-0.5-0.7c-0.2-0.2-0.4-0.4-0.6-0.6
						c-0.2-0.2-0.4-0.4-0.7-0.6s-0.5-0.4-0.7-0.5c-0.1-0.1-0.2-0.2-0.3-0.3c-0.1-0.1-0.1-0.2-0.2-0.4c0-0.1,0-0.3,0-0.4
						c0-0.1,0.1-0.3,0.1-0.4c0.1-0.1,0.2-0.1,0.3-0.2c0.1-0.1,0.3-0.1,0.4-0.1c0.1,0,0.3,0,0.4,0C229,43.5,229.1,43.6,229.2,43.7
						L229.2,43.7z M218.5,38.9c0.1,0.1,0.1,0.3,0.1,0.4c0,0.1,0,0.3,0,0.4c0,0.1-0.1,0.3-0.2,0.4c-0.1,0.1-0.2,0.2-0.3,0.3
						c-1,0.6-1.9,1.3-2.7,2.1c-1.6,1.7-2.8,3.7-3.4,5.9c-0.3,1.1-0.5,2.3-0.5,3.4c0,0.1,0,0.3-0.1,0.4c-0.1,0.3-0.3,0.5-0.6,0.6
						c-0.2,0.1-0.5,0.1-0.8,0c-0.3-0.1-0.5-0.3-0.6-0.6c-0.1-0.1-0.1-0.3-0.1-0.4c0-2.7,0.7-5.4,2.1-7.8c0.7-1.2,1.5-2.2,2.4-3.2
						c0.9-1,2-1.8,3.2-2.5c0.1,0,0.3-0.1,0.4,0c0.1,0,0.3,0,0.4,0.1c0.1,0,0.3,0.1,0.4,0.2C218.3,38.7,218.4,38.8,218.5,38.9
						L218.5,38.9z M231.1,38.2c0.9,0.5,1.8,1,2.6,1.7c0.8,0.7,1.5,1.4,2.2,2.2c0.6,0.8,1.2,1.7,1.7,2.6c0.5,0.9,0.9,1.9,1.1,2.8
						c0,0.1,0,0.3,0,0.4c0,0.1-0.1,0.3-0.1,0.4c-0.1,0.1-0.1,0.2-0.2,0.3c-0.1,0.1-0.2,0.2-0.4,0.2c-0.1,0-0.3,0-0.4,0
						c-0.1,0-0.3-0.1-0.4-0.1c-0.1-0.1-0.2-0.1-0.3-0.2c-0.1-0.1-0.2-0.2-0.2-0.4c-0.2-0.8-0.6-1.7-1-2.4c-0.4-0.8-0.9-1.5-1.4-2.2
						c-0.6-0.7-1.2-1.3-1.9-1.9c-0.7-0.6-1.4-1.1-2.2-1.5c-0.1-0.1-0.2-0.2-0.3-0.3c-0.1-0.1-0.1-0.2-0.2-0.4c0-0.1,0-0.3,0-0.4
						c0-0.1,0.1-0.3,0.1-0.4c0-0.1,0.1-0.2,0.2-0.3c0.1-0.1,0.2-0.1,0.3-0.2c0.1,0,0.3-0.1,0.4-0.1C230.9,38.1,231,38.2,231.1,38.2
						L231.1,38.2z"/>
					<path id="Path_4018" class="st3" d="M224.4,36.7c0.3,0,0.5,0.1,0.8,0.3c0.1,0.1,0.2,0.2,0.2,0.3c0.1,0.1,0.1,0.3,0.1,0.5V47
						c0,0.5,0.2,1,0.7,1.2c0.4,0.2,0.7,0.5,1,0.8c0.5,0.5,0.8,1,1,1.7c0.3,0.7,0.4,1.5,0.4,2.2c0,0.9-0.1,1.8-0.3,2.7
						c-0.1,0.3-0.2,0.5-0.5,0.7c-0.1,0.1-0.2,0.1-0.4,0.2c-0.1,0-0.3,0-0.4,0c-0.3-0.1-0.5-0.2-0.7-0.5c-0.1-0.1-0.1-0.2-0.2-0.4
						c0-0.1,0-0.3,0-0.4c0-0.1,0-0.1,0-0.2c0-0.1,0-0.1,0-0.2c0-0.1,0-0.1,0-0.2c0-0.1,0-0.1,0-0.2h-1.4c-0.1,0-0.3,0-0.4-0.1
						c-0.3-0.1-0.5-0.3-0.6-0.6c-0.1-0.1-0.1-0.3-0.1-0.4c0-0.1,0-0.3,0.1-0.4c0-0.1,0.1-0.2,0.2-0.3c0.1-0.1,0.2-0.2,0.3-0.2
						c0.1-0.1,0.3-0.1,0.5-0.1h1.5c0-0.3,0-0.6-0.1-0.9c-0.1-0.3-0.2-0.5-0.4-0.7c-0.2-0.2-0.4-0.4-0.6-0.5
						c-0.3-0.2-0.5-0.3-0.8-0.3c-0.2,0-0.3,0.1-0.5,0.2c-0.3,0.2-0.6,0.4-0.9,0.7c-0.1,0.1-0.2,0.3-0.3,0.5
						c-0.1,0.3-0.2,0.6-0.2,0.9c-0.1,0.3-0.1,0.7-0.1,1c0,0.3,0,0.7,0,1c0,0.3,0.1,0.7,0.2,1c0.1,0.3,0,0.6-0.1,0.8
						c-0.1,0.3-0.4,0.5-0.7,0.5c-0.3,0.1-0.6,0-0.8-0.1c-0.3-0.1-0.5-0.4-0.5-0.7v-0.1c-0.2-0.9-0.2-1.9-0.2-2.8
						c0-0.8,0.2-1.5,0.4-2.2c0.4-1,1.1-1.8,2-2.3c0.4-0.2,0.7-0.7,0.7-1.2v-6.2l-1.2,0.1c-0.1,0-0.3,0-0.4-0.1
						c-0.1,0-0.2-0.1-0.4-0.2c-0.1-0.1-0.2-0.2-0.2-0.3c-0.1-0.1-0.1-0.3-0.1-0.5c0-0.3,0.1-0.5,0.3-0.8c0.1-0.1,0.2-0.2,0.3-0.2
						c0.1-0.1,0.2-0.1,0.4-0.1l1.5-0.1v-0.7c-0.1-0.2-0.1-0.3-0.1-0.5c0-0.1,0.1-0.3,0.2-0.4c0.1-0.1,0.2-0.2,0.3-0.3
						C224.1,36.7,224.3,36.7,224.4,36.7"/>
				</g>
			</g>
		</g>
		<path class="st4" d="M65.9,220.4c25.6,0,46.3-3.1,46.3-7s-20.8-7-46.3-7s-46.3,3.1-46.3,7S40.3,220.4,65.9,220.4z"/>
		<path class="st5" d="M20,199.4h259.6"/>
		<path class="st6" d="M191.1,89.5h-0.2c-2.4,0-4.4,2.1-4.4,4.7v24.8c0,2.6,2,4.7,4.4,4.7h0.2c2.4,0,4.4-2.1,4.4-4.7V94.1
			C195.5,91.6,193.6,89.5,191.1,89.5z"/>
		<path class="st1" d="M192,118.5c-0.1-0.7-0.2-1.4-0.5-2.1c0.7-0.3,1-1.1,0.8-1.8c-0.3-0.7-1-1.1-1.7-0.8c-0.7,0.3-1,1.1-0.7,1.8
			c0.1,0.3,0.4,0.6,0.7,0.8c-0.3,0.7-0.5,1.4-0.7,2.1c0.1,0.2,0.6,0.3,1.1,0.3C191.5,118.8,192,118.7,192,118.5L192,118.5z"/>
		<path class="st7" d="M207.9,101.4h-15.8c-1.4,0-2.6,1.2-2.6,2.8v0c0,1.5,1.2,2.8,2.6,2.8h15.8c1.4,0,2.6-1.2,2.6-2.8v0
			C210.5,102.6,209.4,101.4,207.9,101.4z"/>
		<path class="st8" d="M195.3,123.1l10.2-16l10.1,16H195.3L195.3,123.1z"/>
		<path class="st2" d="M216.8,117.8h-21.4c-1,0-1.8,0.8-1.8,1.9v46c0,1,0.8,1.9,1.8,1.9h21.4c1,0,1.8-0.8,1.8-1.9v-46
			C218.6,118.7,217.8,117.8,216.8,117.8z"/>
		<path class="st9" d="M206.1,150.5c4.1,0,7.4-3.5,7.4-7.8c0-4.3-3.3-7.8-7.4-7.8c-4.1,0-7.4,3.5-7.4,7.8
			C198.7,147,202,150.5,206.1,150.5z"/>
		<path class="st9" d="M209.2,135.1l-6.2,15.3"/>
		<path class="st10" d="M212.5,118.3l-8.2-13"/>
		<path class="st11" d="M62.7,201.1l1.6,5.9c0,0-0.8,0.8-7.6,0.7c-0.2,0,0.1-6.7,0.1-6.7L62.7,201.1L62.7,201.1z"/>
		<path class="st12" d="M64.3,206.7c-0.1,0.1,8.7,3.9,12.8,5.6c1.3,0.5,2.1,1.8,2,3.3l-22.7-0.3l0.3-8.1
			C56.7,207.1,63.6,208,64.3,206.7L64.3,206.7z"/>
		<path class="st11" d="M49.9,201.5l1.8,5.9c0,0-0.9,0.8-8.2,0.9c-0.2,0,0-6.7,0-6.7L49.9,201.5L49.9,201.5z"/>
		<path class="st13" d="M51.6,206.9c0,0.1,7.6,3.7,11.4,5.5c1.3,0.6,2.1,1.9,2.1,3.3l-21.8-0.1l0.1-7.9
			C43.4,207.7,51,208.2,51.6,206.9L51.6,206.9z"/>
		<path class="st14" d="M44.2,106.2c0,0,0.1,6.9,0.7,13.2c0.6,6.3,5.6,13.2,5.6,13.2l6.2,70.3c0,0,4.2,1.3,7-0.5
			c0.3-17.6,0.4-69.8,0.4-69.8l1-22.7L44.2,106.2L44.2,106.2z"/>
		<path class="st15" d="M38.4,105.6c-1.1,4.4-1.6,8.9-1.5,13.4c0.2,6.3,0,14.1,0,14.1l6.4,70c0,0,4.7,1.4,7.4-0.4
			c1.2-17.6-0.5-69.6-0.5-69.6l6.4-22.5L38.4,105.6L38.4,105.6z"/>
		<path class="st11" d="M68.2,94.2c0,0,5.1-1.5,5.4-2.4s7.6-18,7-19.6c-0.6-1.6,0-5.1,0-5.1s0.7-0.9,1.1-0.1
			c0.2,0.9,0.1,1.7-0.1,2.6c0,0-0.3-2.4,1.6-2.5c1.8-0.1,5.7,1.1,5.7,2.1c0.2,2.5-1.1,1.1-3.3,8.6C83.3,85.3,80,94.1,79,95.5
			c-1,1.7-2.4,3-4.1,3.9c-1.6,0.7-3.3,0.9-5,0.7"/>
		<path class="st11" d="M37.2,83c0.7-0.9-1.5,8.4-3.2,16c-1.6,7.6-7.3,11.6-8.5,7.7c0.4-8.3,1.9-16.4,4.3-24.3
			C29.9,82.5,36.5,83.9,37.2,83L37.2,83z"/>
		<path class="st16" d="M48.7,65.8l7,0.8c1.2,0.1,2.4,0.3,3.6,0.7c0.7,0.2,1.4,0.5,2.1,0.9c0.6,0.8,3,4.5,2.9,5.4l-3.7,16l4.6,20.9
			c0.1,0.5,0,1-0.3,1.3c-0.3,0.4-0.8,0.6-1.2,0.5c-2-0.2-5.3-0.5-9.1-0.5h-2.9c-4.6,0-9.3,0.6-13.8,1.8c-0.5,0.2-0.6,0.3-1,0
			c-0.4-0.3,1.7-11.8,1.6-19.5c0.1-3.1-0.5-6.2-1.7-9.1c-2.6,0.8-5.4,0.8-7.9-0.1c0,0-0.3-1.8,0.5-6.7c0.8-4.8,6.7-10.1,7-10.3v0
			c3.4-1.3,7-2,10.6-2.1C47.6,65.7,48.2,65.7,48.7,65.8L48.7,65.8z"/>
		<path class="st15" d="M48.3,121.4c0,0-5.2,7.6-11.5,10.7c0.3-0.2,8.6,7.6,11.5,4.9C51.2,134.4,48.3,121.4,48.3,121.4L48.3,121.4z"
			/>
		<path class="st11" d="M61.1,82.8c-0.6-0.7,0.9,6,2.9,11.4c2,5.4,6.8,7.5,7.9,4.7c-0.6-7.9-2.2-11.4-4-16.5
			C67.8,82.5,61.7,83.5,61.1,82.8L61.1,82.8z"/>
		<path class="st16" d="M59.5,67.9c2.1-1.7,8.4,6.2,9.3,11c0.9,4.8,2,6.3,1.5,6.5c-0.5,0.2-5.8,1.6-10.2,0
			C55.7,83.9,57.4,69.6,59.5,67.9L59.5,67.9z"/>
		<path class="st17" d="M51.3,65.8c0-0.1,0-0.1,0-0.2c-6-1-10.5-6.4-10.5-12.9v-8.2c0-7.2,5.5-13,12.3-13c4.2,0,8.1,2.2,10.3,6
			c0.5,0.2,0.9,0.9,1.4,2.4c1.9,5.8,5,23.3,2.3,25.9H51.3z"/>
		<path class="st11" d="M44,41.6c-0.1,3.3,0.9,6.5,3,8.9c-1.1,5.8-3,16.2-3.2,17.9c-0.3,2.5,9.9,0,9.9,0L51.9,55
			c2.7,1.8,5.4,2.7,6.6,2.3c3.1-0.9,3.4-13.5,1-18.5c-1.2-2.4-4.8-4.2-8.3-4.2C47.8,34.6,44.3,36.5,44,41.6L44,41.6z"/>
		<path class="st17" d="M49.1,65.5H33.2c-0.1-1.6-0.1-3.2,0.1-4.9c0.1-1.1,0.4-2.2,0.8-3.3c0.7-1.5,1.6-2.9,2.8-4
			c2-2.1,4-4.3,4-11.1c0.1-0.1,0.3-0.3,0.4-0.4c0.4-0.4,0.8-0.7,1.1-1.1l0-0.4c0.8-1.5,1.7-2.9,2.9-4.1c1-1.1,2.1-2.1,3.3-2.8
			c1.3-0.8,2.8-1.3,4.3-1.3c2.4-0.1,4.7,0.5,6.8,1.7c1.3,1,2.4,2.2,3.3,3.6c-0.4,1.4-1.3,2.6-2.5,3.4c-1.3,0.9-2.7,1.6-4.1,2.2
			c-1.4,0.6-2.7,1.3-4,2c-0.5-0.4-1.2-0.7-1.9-0.7c-1.6-0.1-2.9,1.2-3,2.9c0.1,1.7,1.4,3,3,2.9h0.1c0.3,3.1,0.4,6.3,0.2,9.4
			C50.5,61.7,50.1,64.5,49.1,65.5L49.1,65.5z"/>
		<path class="st11" d="M53.4,66.4c0,0,1.6,4.1,0.6,6.6c-1,2.4-4,3.2-4,3.2s-3.4,1.2-5.3-1.2c-1.9-2.4-0.6-8.5-0.6-8.5L53.4,66.4z"
			/>
		<path class="st2" d="M163.7,69.1l-88.3,0.8c-1.5,0-2.6,1.3-2.6,2.8l0.3,31.7c0,1.5,1.2,2.8,2.7,2.8l88.3-0.8
			c1.5,0,2.6-1.3,2.6-2.8l-0.3-31.7C166.4,70.4,165.2,69.1,163.7,69.1z"/>
		<path class="st6" d="M159.1,88.6h-51.2c-0.5,0-0.9,0.4-0.9,0.9v6.5c0,0.5,0.4,0.9,0.9,0.9h51.2c0.5,0,0.9-0.4,0.9-0.9v-6.5
			C159.9,89,159.5,88.6,159.1,88.6z"/>
		<path class="st18" d="M107.9,83.3v-5.3h1.7c0.7,0,1.1,0,1.3,0.1c0.3,0.1,0.6,0.3,0.8,0.5c0.2,0.3,0.3,0.6,0.3,1
			c0,0.3-0.1,0.6-0.2,0.8c-0.1,0.2-0.3,0.4-0.5,0.5c-0.2,0.1-0.4,0.2-0.6,0.3c-0.3,0.1-0.6,0.1-1.1,0.1H109v2H107.9z M109,78.8v1.5
			h0.6c0.4,0,0.7,0,0.9-0.1c0.1-0.1,0.3-0.1,0.3-0.3c0.1-0.1,0.1-0.3,0.1-0.4c0-0.2-0.1-0.4-0.2-0.5c-0.1-0.1-0.3-0.2-0.4-0.2
			c-0.1,0-0.4,0-0.8,0H109z M113.7,80.6l-0.9-0.2c0.1-0.4,0.3-0.7,0.5-0.8c0.3-0.2,0.6-0.3,1.1-0.3c0.5,0,0.8,0.1,1,0.2
			c0.2,0.1,0.4,0.2,0.5,0.4c0.1,0.2,0.1,0.5,0.1,0.9l0,1.2c0,0.3,0,0.6,0,0.8c0,0.2,0.1,0.3,0.2,0.5h-1c0-0.1-0.1-0.2-0.1-0.3
			c0-0.1,0-0.1,0-0.1c-0.2,0.2-0.4,0.3-0.6,0.4c-0.2,0.1-0.4,0.1-0.6,0.1c-0.4,0-0.7-0.1-0.9-0.3c-0.2-0.2-0.3-0.5-0.3-0.8
			c0-0.2,0.1-0.4,0.2-0.6c0.1-0.2,0.3-0.3,0.4-0.4c0.2-0.1,0.5-0.2,0.8-0.2c0.5-0.1,0.8-0.2,1-0.3v-0.1c0-0.2,0-0.3-0.1-0.4
			c-0.1-0.1-0.3-0.1-0.6-0.1c-0.2,0-0.3,0-0.4,0.1C113.8,80.3,113.7,80.4,113.7,80.6z M115,81.4c-0.1,0-0.3,0.1-0.6,0.2
			c-0.3,0.1-0.5,0.1-0.6,0.2c-0.1,0.1-0.2,0.2-0.2,0.4c0,0.1,0.1,0.3,0.2,0.4c0.1,0.1,0.2,0.2,0.4,0.2c0.2,0,0.4-0.1,0.5-0.2
			c0.1-0.1,0.2-0.2,0.2-0.3c0-0.1,0-0.3,0-0.5V81.4z M116.7,82.2l1-0.2c0,0.2,0.1,0.4,0.3,0.5c0.1,0.1,0.3,0.2,0.6,0.2
			c0.3,0,0.5,0,0.6-0.1c0.1-0.1,0.1-0.2,0.1-0.3c0-0.1,0-0.1-0.1-0.2c-0.1,0-0.2-0.1-0.3-0.1c-0.8-0.2-1.4-0.3-1.6-0.5
			c-0.3-0.2-0.5-0.5-0.5-0.9c0-0.3,0.1-0.6,0.4-0.8s0.7-0.3,1.2-0.3c0.5,0,0.9,0.1,1.2,0.3c0.3,0.2,0.4,0.4,0.5,0.8l-1,0.2
			c0-0.2-0.1-0.3-0.2-0.3c-0.1-0.1-0.3-0.1-0.5-0.1c-0.3,0-0.5,0-0.6,0.1c-0.1,0.1-0.1,0.1-0.1,0.2c0,0.1,0,0.1,0.1,0.2
			c0.1,0.1,0.4,0.2,1,0.3c0.5,0.1,0.9,0.3,1.2,0.5c0.2,0.2,0.3,0.4,0.3,0.8c0,0.4-0.1,0.7-0.4,0.9c-0.3,0.3-0.7,0.4-1.3,0.4
			c-0.5,0-0.9-0.1-1.3-0.3C117,82.8,116.8,82.5,116.7,82.2z M120.9,82.2l1-0.2c0,0.2,0.1,0.4,0.3,0.5c0.1,0.1,0.3,0.2,0.6,0.2
			c0.3,0,0.5,0,0.6-0.1c0.1-0.1,0.1-0.2,0.1-0.3c0-0.1,0-0.1-0.1-0.2c-0.1,0-0.2-0.1-0.3-0.1c-0.8-0.2-1.4-0.3-1.6-0.5
			c-0.3-0.2-0.5-0.5-0.5-0.9c0-0.3,0.1-0.6,0.4-0.8c0.3-0.2,0.7-0.3,1.2-0.3c0.5,0,0.9,0.1,1.2,0.3c0.3,0.2,0.4,0.4,0.5,0.8l-1,0.2
			c0-0.2-0.1-0.3-0.2-0.3c-0.1-0.1-0.3-0.1-0.5-0.1c-0.3,0-0.5,0-0.6,0.1c-0.1,0.1-0.1,0.1-0.1,0.2c0,0.1,0,0.1,0.1,0.2
			c0.1,0.1,0.4,0.2,1,0.3c0.5,0.1,0.9,0.3,1.2,0.5c0.2,0.2,0.3,0.4,0.3,0.8c0,0.4-0.1,0.7-0.4,0.9c-0.3,0.3-0.7,0.4-1.3,0.4
			c-0.5,0-0.9-0.1-1.3-0.3C121.2,82.8,121,82.5,120.9,82.2z M125.4,79.4h1V80c0.1-0.2,0.3-0.4,0.5-0.5c0.2-0.1,0.4-0.2,0.7-0.2
			c0.5,0,0.8,0.2,1.1,0.5c0.3,0.4,0.5,0.8,0.5,1.5c0,0.6-0.2,1.1-0.5,1.5c-0.3,0.4-0.7,0.5-1.2,0.5c-0.2,0-0.4,0-0.6-0.1
			c-0.2-0.1-0.4-0.2-0.5-0.4v1.9h-1V79.4z M126.4,81.3c0,0.4,0.1,0.8,0.3,1c0.2,0.2,0.4,0.3,0.6,0.3c0.2,0,0.4-0.1,0.6-0.3
			c0.2-0.2,0.2-0.5,0.2-0.9c0-0.4-0.1-0.7-0.2-0.9c-0.2-0.2-0.4-0.3-0.6-0.3c-0.3,0-0.5,0.1-0.6,0.3
			C126.5,80.6,126.4,80.9,126.4,81.3z M131,77.9v2c0.3-0.4,0.7-0.6,1.2-0.6c0.2,0,0.5,0,0.6,0.1c0.2,0.1,0.3,0.2,0.4,0.3
			c0.1,0.1,0.2,0.3,0.2,0.5c0,0.2,0.1,0.4,0.1,0.8v2.3h-1v-2c0-0.4,0-0.7-0.1-0.8c0-0.1-0.1-0.2-0.2-0.3c-0.1-0.1-0.2-0.1-0.4-0.1
			c-0.2,0-0.3,0-0.5,0.1c-0.1,0.1-0.2,0.2-0.3,0.4c-0.1,0.2-0.1,0.4-0.1,0.7v1.9h-1v-5.3H131z M135.6,83.3h-1v-3.9h1V80
			c0.2-0.3,0.3-0.4,0.4-0.5c0.1-0.1,0.3-0.1,0.4-0.1c0.2,0,0.5,0.1,0.7,0.2l-0.3,0.9c-0.2-0.1-0.3-0.2-0.5-0.2c-0.1,0-0.3,0-0.4,0.1
			c-0.1,0.1-0.2,0.2-0.2,0.4c-0.1,0.2-0.1,0.6-0.1,1.3V83.3z M138.3,80.6l-0.9-0.2c0.1-0.4,0.3-0.7,0.5-0.8c0.3-0.2,0.6-0.3,1.1-0.3
			c0.5,0,0.8,0.1,1,0.2c0.2,0.1,0.4,0.2,0.5,0.4c0.1,0.2,0.1,0.5,0.1,0.9l0,1.2c0,0.3,0,0.6,0,0.8c0,0.2,0.1,0.3,0.2,0.5h-1
			c0-0.1-0.1-0.2-0.1-0.3c0-0.1,0-0.1,0-0.1c-0.2,0.2-0.4,0.3-0.6,0.4c-0.2,0.1-0.4,0.1-0.6,0.1c-0.4,0-0.7-0.1-0.9-0.3
			c-0.2-0.2-0.3-0.5-0.3-0.8c0-0.2,0.1-0.4,0.2-0.6c0.1-0.2,0.3-0.3,0.4-0.4c0.2-0.1,0.5-0.2,0.8-0.2c0.5-0.1,0.8-0.2,1-0.3v-0.1
			c0-0.2,0-0.3-0.1-0.4c-0.1-0.1-0.3-0.1-0.6-0.1c-0.2,0-0.3,0-0.4,0.1C138.4,80.3,138.3,80.4,138.3,80.6z M139.7,81.4
			c-0.1,0-0.3,0.1-0.6,0.2c-0.3,0.1-0.5,0.1-0.6,0.2c-0.1,0.1-0.2,0.2-0.2,0.4c0,0.1,0.1,0.3,0.2,0.4c0.1,0.1,0.2,0.2,0.4,0.2
			c0.2,0,0.4-0.1,0.5-0.2c0.1-0.1,0.2-0.2,0.2-0.3c0-0.1,0-0.3,0-0.5V81.4z M141.3,82.2l1-0.2c0,0.2,0.1,0.4,0.3,0.5
			c0.1,0.1,0.3,0.2,0.6,0.2c0.3,0,0.5,0,0.6-0.1c0.1-0.1,0.1-0.2,0.1-0.3c0-0.1,0-0.1-0.1-0.2c-0.1,0-0.2-0.1-0.3-0.1
			c-0.8-0.2-1.4-0.3-1.6-0.5c-0.3-0.2-0.5-0.5-0.5-0.9c0-0.3,0.1-0.6,0.4-0.8c0.3-0.2,0.7-0.3,1.2-0.3c0.5,0,0.9,0.1,1.2,0.3
			c0.3,0.2,0.4,0.4,0.5,0.8l-1,0.2c0-0.2-0.1-0.3-0.2-0.3c-0.1-0.1-0.3-0.1-0.5-0.1c-0.3,0-0.5,0-0.6,0.1c-0.1,0.1-0.1,0.1-0.1,0.2
			c0,0.1,0,0.1,0.1,0.2c0.1,0.1,0.4,0.2,1,0.3c0.5,0.1,0.9,0.3,1.2,0.5c0.2,0.2,0.3,0.4,0.3,0.8c0,0.4-0.1,0.7-0.4,0.9
			c-0.3,0.3-0.7,0.4-1.3,0.4c-0.5,0-0.9-0.1-1.3-0.3C141.6,82.8,141.4,82.5,141.3,82.2z M148.1,82.1l1,0.2c-0.1,0.4-0.3,0.7-0.6,0.9
			c-0.3,0.2-0.6,0.3-1.1,0.3c-0.7,0-1.2-0.2-1.5-0.7c-0.3-0.4-0.4-0.8-0.4-1.3c0-0.6,0.2-1.1,0.5-1.5c0.3-0.4,0.8-0.5,1.3-0.5
			c0.6,0,1,0.2,1.4,0.6c0.3,0.4,0.5,1,0.5,1.7h-2.6c0,0.3,0.1,0.5,0.2,0.7c0.2,0.2,0.4,0.3,0.6,0.3c0.2,0,0.3,0,0.4-0.1
			C148,82.4,148.1,82.2,148.1,82.1z M148.2,81c0-0.3-0.1-0.5-0.2-0.7c-0.1-0.2-0.3-0.2-0.5-0.2c-0.2,0-0.4,0.1-0.6,0.2
			s-0.2,0.4-0.2,0.7H148.2z"/>
		<path class="st16" d="M90.2,75.7c6.3,0,11.5,5.4,11.5,12.1S96.5,100,90.2,100c-6.3,0-11.5-5.4-11.5-12.1S83.8,75.7,90.2,75.7z"/>
		<path class="st2" d="M88.8,89.2c-1.7-1.8-1.7-4.8,0-6.6c1.7-1.8,4.5-1.8,6.2,0c1.7,1.8,1.7,4.8,0,6.6C93.3,91,90.6,91,88.8,89.2z
			 M94,83.7c-1.1-1.2-3-1.2-4.1,0c-1.1,1.2-1.1,3.2,0,4.4c1.1,1.2,3,1.2,4.1,0C95.2,86.9,95.2,84.9,94,83.7L94,83.7z"/>
		<path class="st2" d="M89.9,88.1c0.3,0.3,0.3,0.8,0,1.1l-4.1,4.4c-0.3,0.3-0.8,0.3-1,0c-0.3-0.3-0.3-0.8,0-1.1l4.1-4.4
			C89.1,87.8,89.6,87.8,89.9,88.1z"/>
		<path class="st2" d="M87.8,91.4l1,1.1c0.3,0.3,0.3,0.8,0,1.1c-0.3,0.3-0.8,0.3-1,0l-1-1.1c-0.3-0.3-0.3-0.8,0-1.1
			C87.1,91.1,87.5,91.1,87.8,91.4z"/>
		<path class="st11" d="M42.9,125.4c1,0.3,2.1,0.6,3.1,0.7c0,0,1.3-0.2,0.3-1.2c0.1-0.1-2.5-0.9-3-1.2
			C42.7,123.3,42.3,125,42.9,125.4L42.9,125.4z"/>
		<path class="st2" d="M119.7,125.6H29.7c-1.5,0-2.6,1.3-2.6,2.8v31.7c0,1.5,1.2,2.8,2.6,2.8h90.1c1.5,0,2.6-1.3,2.6-2.8v-31.7
			C122.4,126.8,121.2,125.6,119.7,125.6z"/>
		<path class="st6" d="M113.2,146.4H61.9c-0.5,0-0.9,0.4-0.9,0.9v6.5c0,0.5,0.4,0.9,0.9,0.9h51.2c0.5,0,0.9-0.4,0.9-0.9v-6.5
			C114,146.9,113.6,146.4,113.2,146.4z"/>
		<path class="st18" d="M61.6,135.3h2.1c0.4,0,0.7,0,0.9,0.1c0.2,0,0.4,0.1,0.6,0.2c0.2,0.1,0.3,0.3,0.4,0.4
			c0.1,0.2,0.2,0.4,0.2,0.6c0,0.2-0.1,0.5-0.2,0.7c-0.1,0.2-0.3,0.4-0.5,0.5c0.3,0.1,0.6,0.3,0.8,0.5c0.2,0.2,0.3,0.5,0.3,0.8
			c0,0.2-0.1,0.5-0.2,0.7c-0.1,0.2-0.3,0.4-0.5,0.5c-0.2,0.1-0.4,0.2-0.7,0.3c-0.2,0-0.6,0-1.3,0h-1.8V135.3z M62.7,136.2v1.2h0.7
			c0.4,0,0.7,0,0.8,0c0.2,0,0.3-0.1,0.4-0.2c0.1-0.1,0.2-0.2,0.2-0.4c0-0.2,0-0.3-0.1-0.4c-0.1-0.1-0.2-0.2-0.4-0.2
			c-0.1,0-0.4,0-0.9,0H62.7z M62.7,138.3v1.4h1c0.4,0,0.6,0,0.7,0c0.2,0,0.3-0.1,0.4-0.2c0.1-0.1,0.2-0.3,0.2-0.5
			c0-0.2,0-0.3-0.1-0.4c-0.1-0.1-0.2-0.2-0.3-0.2c-0.1-0.1-0.5-0.1-1-0.1H62.7z M67.8,137.9l-0.9-0.2c0.1-0.4,0.3-0.7,0.5-0.8
			c0.3-0.2,0.6-0.3,1.1-0.3c0.5,0,0.8,0.1,1,0.2c0.2,0.1,0.4,0.2,0.5,0.4c0.1,0.2,0.1,0.5,0.1,0.9l0,1.2c0,0.3,0,0.6,0,0.8
			c0,0.2,0.1,0.3,0.2,0.5h-1c0-0.1-0.1-0.2-0.1-0.3c0-0.1,0-0.1,0-0.1c-0.2,0.2-0.4,0.3-0.6,0.4c-0.2,0.1-0.4,0.1-0.6,0.1
			c-0.4,0-0.7-0.1-0.9-0.3c-0.2-0.2-0.3-0.5-0.3-0.8c0-0.2,0.1-0.4,0.2-0.6c0.1-0.2,0.3-0.3,0.4-0.4c0.2-0.1,0.5-0.2,0.8-0.2
			c0.5-0.1,0.8-0.2,1-0.3V138c0-0.2,0-0.3-0.1-0.4c-0.1-0.1-0.3-0.1-0.6-0.1c-0.2,0-0.3,0-0.4,0.1C67.9,137.6,67.9,137.7,67.8,137.9
			z M69.2,138.8c-0.1,0-0.3,0.1-0.6,0.2c-0.3,0.1-0.5,0.1-0.6,0.2c-0.1,0.1-0.2,0.2-0.2,0.4c0,0.1,0.1,0.3,0.2,0.4
			c0.1,0.1,0.2,0.2,0.4,0.2c0.2,0,0.4-0.1,0.5-0.2c0.1-0.1,0.2-0.2,0.2-0.3c0-0.1,0-0.3,0-0.5V138.8z M74.6,137.9l-1,0.2
			c0-0.2-0.1-0.4-0.2-0.5c-0.1-0.1-0.3-0.2-0.5-0.2c-0.3,0-0.5,0.1-0.6,0.3c-0.2,0.2-0.2,0.5-0.2,0.9c0,0.5,0.1,0.8,0.2,1
			c0.2,0.2,0.4,0.3,0.6,0.3c0.2,0,0.4-0.1,0.5-0.2c0.1-0.1,0.2-0.3,0.3-0.6l1,0.2c-0.1,0.5-0.3,0.8-0.6,1c-0.3,0.2-0.7,0.4-1.2,0.4
			c-0.6,0-1-0.2-1.4-0.5c-0.3-0.4-0.5-0.9-0.5-1.5c0-0.6,0.2-1.1,0.5-1.5c0.3-0.4,0.8-0.5,1.4-0.5c0.5,0,0.8,0.1,1.1,0.3
			C74.3,137.2,74.5,137.5,74.6,137.9z M75.3,140.6v-5.3h1v2.8l1.2-1.4h1.3l-1.3,1.4l1.4,2.5h-1.1l-1-1.7l-0.5,0.5v1.2H75.3z
			 M82.1,140.6V140c-0.1,0.2-0.3,0.4-0.6,0.5c-0.2,0.1-0.5,0.2-0.7,0.2c-0.3,0-0.5-0.1-0.7-0.2c-0.2-0.1-0.4-0.3-0.5-0.5
			c-0.1-0.2-0.1-0.5-0.1-0.9v-2.4h1v1.8c0,0.5,0,0.9,0.1,1c0,0.1,0.1,0.2,0.2,0.3c0.1,0.1,0.2,0.1,0.4,0.1c0.2,0,0.3,0,0.5-0.1
			c0.1-0.1,0.2-0.2,0.3-0.4c0.1-0.1,0.1-0.5,0.1-1v-1.6h1v3.9H82.1z M84.1,136.7h1v0.6c0.1-0.2,0.3-0.4,0.5-0.5
			c0.2-0.1,0.4-0.2,0.7-0.2c0.5,0,0.8,0.2,1.1,0.5c0.3,0.4,0.5,0.8,0.5,1.5c0,0.6-0.2,1.1-0.5,1.5c-0.3,0.4-0.7,0.5-1.2,0.5
			c-0.2,0-0.4,0-0.6-0.1c-0.2-0.1-0.4-0.2-0.5-0.4v1.9h-1V136.7z M85.1,138.6c0,0.4,0.1,0.8,0.3,1c0.2,0.2,0.4,0.3,0.6,0.3
			c0.2,0,0.4-0.1,0.6-0.3c0.2-0.2,0.2-0.5,0.2-0.9c0-0.4-0.1-0.7-0.2-0.9s-0.4-0.3-0.6-0.3c-0.3,0-0.5,0.1-0.6,0.3
			C85.2,138,85.1,138.2,85.1,138.6z M90.8,140.6v-5.3h1.1l2.2,3.6v-3.6h1v5.3H94l-2.2-3.5v3.5H90.8z M98.8,140.6V140
			c-0.1,0.2-0.3,0.4-0.6,0.5c-0.2,0.1-0.5,0.2-0.7,0.2c-0.3,0-0.5-0.1-0.7-0.2c-0.2-0.1-0.4-0.3-0.5-0.5c-0.1-0.2-0.1-0.5-0.1-0.9
			v-2.4h1v1.8c0,0.5,0,0.9,0.1,1c0,0.1,0.1,0.2,0.2,0.3c0.1,0.1,0.2,0.1,0.4,0.1c0.2,0,0.3,0,0.5-0.1c0.1-0.1,0.2-0.2,0.3-0.4
			c0.1-0.1,0.1-0.5,0.1-1v-1.6h1v3.9H98.8z M100.7,136.7h0.9v0.5c0.3-0.4,0.7-0.6,1.2-0.6c0.2,0,0.5,0.1,0.6,0.2s0.3,0.3,0.4,0.5
			c0.2-0.2,0.4-0.4,0.6-0.5c0.2-0.1,0.4-0.2,0.6-0.2c0.3,0,0.5,0.1,0.7,0.2c0.2,0.1,0.3,0.3,0.4,0.5c0.1,0.2,0.1,0.4,0.1,0.8v2.5h-1
			v-2.2c0-0.4,0-0.6-0.1-0.7c-0.1-0.1-0.2-0.2-0.4-0.2c-0.1,0-0.3,0-0.4,0.1c-0.1,0.1-0.2,0.2-0.3,0.4c-0.1,0.2-0.1,0.4-0.1,0.8v1.9
			h-1v-2.1c0-0.4,0-0.6-0.1-0.7c0-0.1-0.1-0.2-0.2-0.2c-0.1-0.1-0.2-0.1-0.3-0.1c-0.2,0-0.3,0-0.4,0.1c-0.1,0.1-0.2,0.2-0.3,0.4
			c-0.1,0.2-0.1,0.4-0.1,0.8v1.9h-1V136.7z M107.4,140.6v-5.3h1v1.9c0.3-0.4,0.7-0.5,1.1-0.5c0.5,0,0.9,0.2,1.2,0.5
			c0.3,0.3,0.5,0.8,0.5,1.5c0,0.7-0.2,1.2-0.5,1.5c-0.3,0.4-0.7,0.5-1.1,0.5c-0.2,0-0.4-0.1-0.7-0.2c-0.2-0.1-0.4-0.3-0.6-0.5v0.6
			H107.4z M108.5,138.6c0,0.4,0.1,0.7,0.2,0.9c0.2,0.3,0.4,0.4,0.7,0.4c0.2,0,0.4-0.1,0.6-0.3c0.2-0.2,0.2-0.5,0.2-0.9
			c0-0.4-0.1-0.8-0.2-1c-0.2-0.2-0.4-0.3-0.6-0.3c-0.2,0-0.5,0.1-0.6,0.3C108.5,137.9,108.5,138.2,108.5,138.6z M114.3,139.4l1,0.2
			c-0.1,0.4-0.3,0.7-0.6,0.9c-0.3,0.2-0.6,0.3-1.1,0.3c-0.7,0-1.2-0.2-1.5-0.7c-0.3-0.4-0.4-0.8-0.4-1.3c0-0.6,0.2-1.1,0.5-1.5
			c0.3-0.4,0.8-0.5,1.3-0.5c0.6,0,1,0.2,1.4,0.6c0.3,0.4,0.5,1,0.5,1.7h-2.6c0,0.3,0.1,0.5,0.2,0.7c0.2,0.2,0.4,0.3,0.6,0.3
			c0.2,0,0.3,0,0.4-0.1C114.2,139.7,114.3,139.6,114.3,139.4z M114.4,138.3c0-0.3-0.1-0.5-0.2-0.7c-0.1-0.2-0.3-0.2-0.5-0.2
			c-0.2,0-0.4,0.1-0.6,0.2c-0.1,0.2-0.2,0.4-0.2,0.7H114.4z M117.2,140.6h-1v-3.9h1v0.5c0.2-0.3,0.3-0.4,0.4-0.5
			c0.1-0.1,0.3-0.1,0.4-0.1c0.2,0,0.5,0.1,0.7,0.2l-0.3,0.9c-0.2-0.1-0.3-0.2-0.5-0.2c-0.1,0-0.3,0-0.4,0.1
			c-0.1,0.1-0.2,0.2-0.2,0.4c-0.1,0.2-0.1,0.6-0.1,1.3V140.6z"/>
		<path class="st16" d="M44.5,132.2c6.3,0,11.5,5.4,11.5,12.1c0,6.7-5.1,12.1-11.5,12.1s-11.5-5.4-11.5-12.1
			C33.1,137.6,38.2,132.2,44.5,132.2z"/>
		<path class="st11" d="M25.6,107c0.6,2.8,11.2,20.5,13.1,21.3c-0.1-0.2,0.7,5.5,1.8,6.1c1.2,0.6,0-3.3,0-3.3l0.3,0.3
			c0,0,1.4,3.2,1.9,3.4c0.5,0.2,1-0.1,0.8-1c-0.5-1.2-1.1-2.5-1.7-3.6c0,0,2.9,3.9,3.3,3.8c0,0,0.9-0.1,0.7-0.8
			c-0.8-1.5-1.8-3-2.8-4.4c0,0,3.3,3.6,3.7,3.3c-0.2,0.1,1.1-0.2,0.3-1.5c-0.8-1.3-2.8-4.9-2.8-4.9l-2.9-5.2l-8.6-17.3
			C32.7,103.1,25,104.2,25.6,107L25.6,107z"/>
		<path class="st2" d="M38.3,149.9v-10.3c0-1.5,1.2-2.8,2.6-2.8h7.7c1.5,0,2.6,1.2,2.6,2.8v3.3c0,0.5-0.4,0.9-0.8,0.9H39.9v6.1
			c0,0.5-0.4,0.9-0.8,0.9C38.6,150.8,38.3,150.4,38.3,149.9L38.3,149.9z M39.9,140.5v1.6h9.8v-1.6c0-1-0.8-1.9-1.8-1.9h-6.3
			C40.7,138.6,39.9,139.4,39.9,140.5z M44,141.2c-0.5,0-0.8-0.4-0.8-0.9s0.4-0.9,0.8-0.9h1.6c0.5,0,0.8,0.4,0.8,0.9
			s-0.4,0.9-0.8,0.9H44z"/>
		<path class="st2" d="M42.3,146.9l-0.5-0.4c0.2-0.2,0.3-0.3,0.5-0.5c0.1-0.1,0.1-0.1,0.1-0.1c-0.1,0-0.2,0-0.5-0.1
			c-0.2,0-0.3-0.1-0.4-0.1l0.2-0.6c0.3,0.1,0.5,0.2,0.7,0.4c-0.1-0.3-0.1-0.6-0.1-0.8h0.6c0,0.2,0,0.4-0.1,0.9c0,0,0.1-0.1,0.3-0.1
			c0.2-0.1,0.4-0.2,0.5-0.2l0.2,0.6c-0.2,0.1-0.5,0.1-0.8,0.2l0.4,0.4c0.1,0.1,0.1,0.2,0.2,0.2l-0.5,0.3l-0.4-0.7
			C42.6,146.4,42.5,146.6,42.3,146.9z M44.9,146.9l-0.5-0.4c0.2-0.2,0.3-0.3,0.5-0.5c0.1-0.1,0.1-0.1,0.1-0.1c-0.1,0-0.2,0-0.5-0.1
			c-0.2,0-0.3-0.1-0.4-0.1l0.2-0.6c0.3,0.1,0.5,0.2,0.7,0.4c-0.1-0.3-0.1-0.6-0.1-0.8h0.6c0,0.2,0,0.4-0.1,0.9c0,0,0.1-0.1,0.3-0.1
			c0.2-0.1,0.4-0.2,0.5-0.2l0.2,0.6c-0.2,0.1-0.5,0.1-0.8,0.2l0.4,0.4c0.1,0.1,0.1,0.2,0.2,0.2l-0.5,0.3l-0.4-0.7
			C45.2,146.4,45.1,146.6,44.9,146.9z M47.4,146.9l-0.5-0.4c0.2-0.2,0.3-0.3,0.5-0.5c0.1-0.1,0.1-0.1,0.1-0.1c-0.1,0-0.2,0-0.5-0.1
			c-0.2,0-0.3-0.1-0.4-0.1l0.2-0.6c0.3,0.1,0.5,0.2,0.7,0.4c-0.1-0.3-0.1-0.6-0.1-0.8h0.6c0,0.2,0,0.4-0.1,0.9c0,0,0.1-0.1,0.3-0.1
			c0.2-0.1,0.4-0.2,0.5-0.2l0.2,0.6c-0.2,0.1-0.5,0.1-0.8,0.2l0.4,0.4c0.1,0.1,0.1,0.2,0.2,0.2l-0.5,0.3l-0.4-0.7
			C47.8,146.4,47.6,146.6,47.4,146.9z"/>
		<path class="st19" d="M173.2,103.3v94.2"/>
		<path class="st20" d="M173.2,44.6v54.1"/>
		<path class="st20" d="M276.5,71.6v125.9"/>
		<path class="st20" d="M276.5,25.7v39.6"/>
		<rect x="206.2" y="33.8" class="st21" width="37.1" height="39.2"/>
	</g>
</g>
</svg>
