<svg xmlns="http://www.w3.org/2000/svg" width="140" height="32.001" viewBox="0 0 140 32.001">
  <path id="Transparnt_view" data-name="Transparnt view" d="M2953-13896h-12.993a1,1,0,0,0,.993-1v-30a1,1,0,0,0-1-1h13v10.993a1,1,0,0,0-1-.992,1,1,0,0,0-1,1v10a1,1,0,0,0,1,1,1,1,0,0,0,1-1v11Zm-7-28a1,1,0,0,0-1,1v22a1,1,0,0,0,1,1,1,1,0,0,0,1-1v-22A1,1,0,0,0,2946-13924Zm-6.066,28h-23.929a1,1,0,0,0,.993-1v-30a1,1,0,0,0-1-1h23.993a1,1,0,0,0-.992,1v30a1,1,0,0,0,.936,1ZM2922-13924a1,1,0,0,0-1,1v22a1,1,0,0,0,1,1,1,1,0,0,0,1-1v-22A1,1,0,0,0,2922-13924Zm6,6a1,1,0,0,0-1,1v10a1,1,0,0,0,1,1,1,1,0,0,0,1-1v-10A1,1,0,0,0,2928-13918Zm6,2a1,1,0,0,0-1,1v6a1,1,0,0,0,1,1,1,1,0,0,0,1-1v-6A1,1,0,0,0,2934-13916Zm-18.065,20h-23.929a1,1,0,0,0,.993-1v-30a1,1,0,0,0-1-1h23.993a1,1,0,0,0-.993,1v30a1,1,0,0,0,.936,1ZM2898-13924a1,1,0,0,0-1,1v22a1,1,0,0,0,1,1,1,1,0,0,0,1-1v-22A1,1,0,0,0,2898-13924Zm6,6a1,1,0,0,0-1,1v10a1,1,0,0,0,1,1,1,1,0,0,0,1-1v-10A1,1,0,0,0,2904-13918Zm6,2a1,1,0,0,0-1,1v6a1,1,0,0,0,1,1,1,1,0,0,0,1-1v-6A1,1,0,0,0,2910-13916Zm-18.065,20h-29.927a1,1,0,0,0,.993-1v-30a1,1,0,0,0-1-1h29.991a1,1,0,0,0-.992,1v30a1,1,0,0,0,.936,1Zm-5.934-24a1,1,0,0,0-1,1v14a1,1,0,0,0,1,1,1,1,0,0,0,1-1v-14A1,1,0,0,0,2886-13920Zm-18,0a1,1,0,0,0-1,1v14a1,1,0,0,0,1,1,1,1,0,0,0,1-1v-14A1,1,0,0,0,2868-13920Zm6,2a1,1,0,0,0-1,1v10a1,1,0,0,0,1,1,1,1,0,0,0,1-1v-10A1,1,0,0,0,2874-13918Zm6,2a1,1,0,0,0-1,1v6a1,1,0,0,0,1,1,1,1,0,0,0,1-1v-6A1,1,0,0,0,2880-13916Zm-18.062,20h-17.931a1,1,0,0,0,.993-1v-30a1,1,0,0,0-1-1h17.995a1,1,0,0,0-.993,1v30a1,1,0,0,0,.936,1Zm-5.938-24a1,1,0,0,0-1,1v14a1,1,0,0,0,1,1,1,1,0,0,0,1-1v-14A1,1,0,0,0,2856-13920Zm-6,0a1,1,0,0,0-1,1v14a1,1,0,0,0,1,1,1,1,0,0,0,1-1v-14A1,1,0,0,0,2850-13920Zm-6.062,24H2813v-32h30.994a1,1,0,0,0-.992,1v30a1,1,0,0,0,.936,1Zm-5.934-30a1,1,0,0,0-1,1v26a1,1,0,0,0,1,1,1,1,0,0,0,1-1v-26A1,1,0,0,0,2838-13926Zm-24,0a1,1,0,0,0-1,1v26a1,1,0,0,0,1,1,1,1,0,0,0,1-1v-26A1,1,0,0,0,2814-13926Zm6,2a1,1,0,0,0-1,1v22a1,1,0,0,0,1,1,1,1,0,0,0,1-1v-22A1,1,0,0,0,2820-13924Zm6,6a1,1,0,0,0-1,1v10a1,1,0,0,0,1,1,1,1,0,0,0,1-1v-10A1,1,0,0,0,2826-13918Zm6,2a1,1,0,0,0-1,1v6a1,1,0,0,0,1,1,1,1,0,0,0,1-1v-6A1,1,0,0,0,2832-13916Z" transform="translate(-2812.998 13928.001)" fill="#fcfcfc"/>
</svg>
