<svg xmlns="http://www.w3.org/2000/svg" width="156.939" height="24" viewBox="0 0 156.939 24">
  <g id="Logo" transform="translate(17006.002 15881)">
    <path id="Path_3615" data-name="Path 3615" d="M3.287-3.524,2.1,0H.624L4.992-12.867H7.049L11.461,0H9.905L8.719-3.524ZM3.7-4.772H8.306L6-11.575ZM21.5-2.733a4.86,4.86,0,0,1-.69,1.239,4.2,4.2,0,0,1-.962.905,4.179,4.179,0,0,1-1.208.558,5.128,5.128,0,0,1-1.411.189A4.609,4.609,0,0,1,15.3-.224a4.116,4.116,0,0,1-1.415-1.042,4.5,4.5,0,0,1-.875-1.556,6.078,6.078,0,0,1-.3-1.934,5.261,5.261,0,0,1,.334-1.876,4.664,4.664,0,0,1,.94-1.538A4.4,4.4,0,0,1,15.438-9.2a4.559,4.559,0,0,1,1.876-.378,4.266,4.266,0,0,1,4.122,2.61l-1.362.6a2.976,2.976,0,0,0-.439-.8,2.9,2.9,0,0,0-.65-.62,3.174,3.174,0,0,0-.8-.4,2.83,2.83,0,0,0-.9-.145,2.726,2.726,0,0,0-1.349.316,2.825,2.825,0,0,0-.94.844,3.722,3.722,0,0,0-.554,1.2,5.258,5.258,0,0,0-.18,1.367,4.753,4.753,0,0,0,.189,1.358,3.341,3.341,0,0,0,.567,1.121,2.679,2.679,0,0,0,.958.765,3.091,3.091,0,0,0,1.362.281,2.81,2.81,0,0,0,.98-.167,2.936,2.936,0,0,0,.817-.457,3.162,3.162,0,0,0,.642-.694,3.242,3.242,0,0,0,.426-.9Zm10.266,0a4.86,4.86,0,0,1-.69,1.239,4.2,4.2,0,0,1-.962.905A4.179,4.179,0,0,1,28.9-.031a5.128,5.128,0,0,1-1.411.189,4.609,4.609,0,0,1-1.929-.382,4.116,4.116,0,0,1-1.415-1.042,4.5,4.5,0,0,1-.875-1.556,6.078,6.078,0,0,1-.3-1.934,5.261,5.261,0,0,1,.334-1.876,4.664,4.664,0,0,1,.94-1.538A4.4,4.4,0,0,1,25.7-9.2,4.559,4.559,0,0,1,27.58-9.58,4.266,4.266,0,0,1,31.7-6.97l-1.362.6a2.976,2.976,0,0,0-.439-.8,2.9,2.9,0,0,0-.65-.62,3.174,3.174,0,0,0-.8-.4,2.83,2.83,0,0,0-.9-.145,2.726,2.726,0,0,0-1.349.316,2.825,2.825,0,0,0-.94.844,3.722,3.722,0,0,0-.554,1.2,5.258,5.258,0,0,0-.18,1.367,4.753,4.753,0,0,0,.189,1.358,3.341,3.341,0,0,0,.567,1.121,2.679,2.679,0,0,0,.958.765,3.091,3.091,0,0,0,1.362.281,2.81,2.81,0,0,0,.98-.167,2.936,2.936,0,0,0,.817-.457,3.162,3.162,0,0,0,.642-.694,3.242,3.242,0,0,0,.426-.9ZM42.6-4.641a5.1,5.1,0,0,1-.352,1.9,4.563,4.563,0,0,1-.98,1.525,4.536,4.536,0,0,1-1.49,1.006,4.751,4.751,0,0,1-1.872.365A4.8,4.8,0,0,1,35.969-.22,4.293,4.293,0,0,1,34.5-1.261a4.61,4.61,0,0,1-.932-1.564,5.692,5.692,0,0,1-.325-1.947,5.155,5.155,0,0,1,.343-1.89,4.629,4.629,0,0,1,.962-1.529,4.429,4.429,0,0,1,1.481-1.02,4.77,4.77,0,0,1,1.9-.369,4.8,4.8,0,0,1,1.934.378,4.255,4.255,0,0,1,1.477,1.046,4.717,4.717,0,0,1,.936,1.569A5.623,5.623,0,0,1,42.6-4.641Zm-7.813.018a4.768,4.768,0,0,0,.2,1.4A3.229,3.229,0,0,0,35.578-2.1a2.715,2.715,0,0,0,.984.747,3.258,3.258,0,0,0,1.362.268,3.071,3.071,0,0,0,1.389-.294,2.768,2.768,0,0,0,.976-.8,3.457,3.457,0,0,0,.576-1.173,5.142,5.142,0,0,0,.189-1.406,4.644,4.644,0,0,0-.2-1.367,3.421,3.421,0,0,0-.593-1.143,2.816,2.816,0,0,0-.98-.782,3.057,3.057,0,0,0-1.358-.286,3.184,3.184,0,0,0-1.428.294,2.66,2.66,0,0,0-.971.8,3.467,3.467,0,0,0-.558,1.187A5.512,5.512,0,0,0,34.787-4.623ZM51.205-1.494a2.861,2.861,0,0,1-.514.743,2.794,2.794,0,0,1-.677.514,3.1,3.1,0,0,1-.809.3,4.141,4.141,0,0,1-.9.1A4.37,4.37,0,0,1,46.78-.088,2.956,2.956,0,0,1,45.668-.8a2.968,2.968,0,0,1-.677-1.138,4.736,4.736,0,0,1-.229-1.521V-9.413h1.494v5.889a2.373,2.373,0,0,0,.624,1.793,2.531,2.531,0,0,0,1.819.6,2.81,2.81,0,0,0,1.05-.185,2.217,2.217,0,0,0,.787-.523,2.268,2.268,0,0,0,.5-.813,3.087,3.087,0,0,0,.171-1.055v-5.7H52.7V0H51.205Zm8.569-6.785A3.04,3.04,0,0,0,58.7-8.1a2.389,2.389,0,0,0-.826.514,2.271,2.271,0,0,0-.536.809A2.878,2.878,0,0,0,57.146-5.7V0H55.652V-9.413h1.494v1.494a2.756,2.756,0,0,1,.541-.751,2.943,2.943,0,0,1,.716-.514,3.428,3.428,0,0,1,.848-.3,4.385,4.385,0,0,1,.918-.1,3.789,3.789,0,0,1,1.556.294,2.961,2.961,0,0,1,1.09.813,3.365,3.365,0,0,1,.637,1.235,5.579,5.579,0,0,1,.207,1.551V0H62.165V-5.792a2.635,2.635,0,0,0-.589-1.846A2.33,2.33,0,0,0,59.774-8.279ZM70.664-.07A4.34,4.34,0,0,1,69.39.123,2.649,2.649,0,0,1,67.5-.492a2.45,2.45,0,0,1-.65-1.863v-5.8H65.5V-9.413H66.85V-11.18l1.494-.65v2.417h2.2v1.257h-2.2V-2.5a2.515,2.515,0,0,0,.057.558,1.115,1.115,0,0,0,.193.431.911.911,0,0,0,.36.281,1.358,1.358,0,0,0,.558.1,3.482,3.482,0,0,0,1.151-.2Zm8.481-2.7a2.738,2.738,0,0,1-.3,1.318,2.733,2.733,0,0,1-.787.914,3.268,3.268,0,0,1-1.121.527,5.111,5.111,0,0,1-1.31.167,3.912,3.912,0,0,1-2.21-.62A3.442,3.442,0,0,1,72.07-2.285l1.151-.5a2.369,2.369,0,0,0,.9,1.261,2.541,2.541,0,0,0,1.49.444,4.124,4.124,0,0,0,.756-.07,2.01,2.01,0,0,0,.677-.25,1.452,1.452,0,0,0,.488-.483,1.413,1.413,0,0,0,.189-.76,1.086,1.086,0,0,0-.4-.923,2.805,2.805,0,0,0-.514-.294,4.821,4.821,0,0,0-.6-.22q-.312-.092-.628-.158t-.589-.127a6.018,6.018,0,0,1-1.314-.4,2.615,2.615,0,0,1-1.015-.778,2.107,2.107,0,0,1-.413-1.38,2.124,2.124,0,0,1,.3-1.125,2.835,2.835,0,0,1,.765-.831A3.575,3.575,0,0,1,74.351-9.4a3.8,3.8,0,0,1,1.138-.18A3.563,3.563,0,0,1,77.5-9a4.131,4.131,0,0,1,1.389,1.569l-1.151.51a2.362,2.362,0,0,0-.927-1.046,2.56,2.56,0,0,0-1.34-.36,2.822,2.822,0,0,0-.633.075,1.93,1.93,0,0,0-.593.242,1.44,1.44,0,0,0-.439.422,1.061,1.061,0,0,0-.171.606,1.043,1.043,0,0,0,.4.9,2.9,2.9,0,0,0,.523.29,4.7,4.7,0,0,0,.6.211q.316.088.633.154t.589.11a5.539,5.539,0,0,1,1.34.4,2.731,2.731,0,0,1,1.015.765A2.147,2.147,0,0,1,79.146-2.769Z" transform="translate(-16928.207 -15863.133)"/>
    <g id="Zoho-logo" transform="translate(-17006.006 -15880.996)">
      <g id="Group_1221" data-name="Group 1221" transform="translate(16.48 -0.004)">
        <path id="Path_593" data-name="Path 593" d="M145.954,24a3.8,3.8,0,0,1-1.542-.33L133.055,18.6a3.79,3.79,0,0,1-1.918-5L136.2,2.242a3.794,3.794,0,0,1,5-1.918L152.56,5.386a3.8,3.8,0,0,1,1.918,5l-5.062,11.357A3.8,3.8,0,0,1,145.954,24ZM139.663,2.063a1.724,1.724,0,0,0-1.576,1.021l-5.061,11.357a1.726,1.726,0,0,0,.872,2.275l11.357,5.062h0a1.721,1.721,0,0,0,2.273-.872L152.591,9.55a1.726,1.726,0,0,0-.872-2.275L140.362,2.213A1.708,1.708,0,0,0,139.663,2.063Z" transform="translate(-130.808 0.004)" fill="#049849"/>
      </g>
      <g id="Group_1222" data-name="Group 1222" transform="translate(50.411 3.98)">
        <path id="Path_594" data-name="Path 594" d="M416.423,51.642H403.989a3.793,3.793,0,0,1-3.789-3.789V35.419a3.793,3.793,0,0,1,3.789-3.789h12.434a3.793,3.793,0,0,1,3.789,3.789V47.853a3.793,3.793,0,0,1-3.789,3.789ZM403.989,33.7a1.723,1.723,0,0,0-1.722,1.722V47.852a1.723,1.723,0,0,0,1.722,1.722h12.434a1.723,1.723,0,0,0,1.722-1.722V35.419a1.723,1.723,0,0,0-1.722-1.722H403.989Z" transform="translate(-400.2 -31.63)" fill="#f6b11b"/>
      </g>
      <path id="Path_595" data-name="Path 595" d="M20.593,25.171l-1.537,3.447.7,4.308A1.724,1.724,0,0,1,18.327,34.9L6.051,36.884a1.723,1.723,0,0,1-1.975-1.426L2.094,23.186a1.724,1.724,0,0,1,1.426-1.975l12.276-1.984a1.718,1.718,0,0,1,1.975,1.426l.685,4.241,1.537-3.447-.181-1.124a3.788,3.788,0,0,0-4.345-3.135L3.189,19.17A3.793,3.793,0,0,0,.053,23.516L2.037,35.79a3.791,3.791,0,0,0,3.732,3.187,3.9,3.9,0,0,0,.613-.049l12.274-1.984h0A3.793,3.793,0,0,0,21.793,32.6Z" transform="translate(0 -14.983)" fill="#e22728"/>
      <g id="Group_1223" data-name="Group 1223" transform="translate(34.312 2.417)">
        <path id="Path_596" data-name="Path 596" d="M303.4,48.03h-.024a1.723,1.723,0,0,0-1.722,1.722v.771l1.328,9.755a1.723,1.723,0,0,1-1.475,1.938l-12.321,1.676a1.723,1.723,0,0,1-1.938-1.475l-.561-4.121-1.6,3.586.111.814a3.8,3.8,0,0,0,3.752,3.279,3.737,3.737,0,0,0,.514-.035l12.321-1.676A3.793,3.793,0,0,0,305.031,60Z" transform="translate(-283.489 -44.401)" fill="#226eb3"/>
        <path id="Path_597" data-name="Path 597" d="M274.464,24.914a1.723,1.723,0,0,1,1.475-1.938L288.26,21.3a1.827,1.827,0,0,1,.233-.016,1.722,1.722,0,0,1,1.209.5,3.781,3.781,0,0,1,1.9-.945,3.8,3.8,0,0,0-3.621-1.587l-12.32,1.676a3.789,3.789,0,0,0-3.243,4.266l1.037,7.617,1.6-3.586Z" transform="translate(-272.381 -19.216)" fill="#226eb3"/>
      </g>
    </g>
  </g>
</svg>
